G04 #@! TF.GenerationSoftware,KiCad,Pcbnew,10.0.6*
G04 #@! TF.CreationDate,2026-09-08T19:23:16-04:00*
G04 #@! TF.ProjectId,stencil,7374656e-6369-46c2-9e6b-696361645f70,rev?*
G04 #@! TF.SameCoordinates,Original*
G04 #@! TF.FileFunction,Paste,Top*
G04 #@! TF.FilePolarity,Positive*
%FSLAX46Y46*%
G04 Gerber Fmt 4.6, Leading zero omitted, Abs format (unit mm)*
G04 Created by KiCad (PCBNEW 10.0.6) date 2026-09-08 19:23:16*
%MOMM*%
%LPD*%
G01*
G04 APERTURE LIST*
G04 APERTURE END LIST*
G36*
G01*
X64200000Y51800000D02*
X64200000Y52100000D01*
G75*
G02*
X64350000Y52250000I150000J0D01*
G01*
X65375000Y52250000D01*
G75*
G02*
X65525000Y52100000I0J-150000D01*
G01*
X65525000Y51800000D01*
G75*
G02*
X65375000Y51650000I-150000J0D01*
G01*
X64350000Y51650000D01*
G75*
G02*
X64200000Y51800000I0J150000D01*
G01*
G37*
G36*
G01*
X64200000Y50850000D02*
X64200000Y51150000D01*
G75*
G02*
X64350000Y51300000I150000J0D01*
G01*
X65375000Y51300000D01*
G75*
G02*
X65525000Y51150000I0J-150000D01*
G01*
X65525000Y50850000D01*
G75*
G02*
X65375000Y50700000I-150000J0D01*
G01*
X64350000Y50700000D01*
G75*
G02*
X64200000Y50850000I0J150000D01*
G01*
G37*
G36*
G01*
X64200000Y49900000D02*
X64200000Y50200000D01*
G75*
G02*
X64350000Y50350000I150000J0D01*
G01*
X65375000Y50350000D01*
G75*
G02*
X65525000Y50200000I0J-150000D01*
G01*
X65525000Y49900000D01*
G75*
G02*
X65375000Y49750000I-150000J0D01*
G01*
X64350000Y49750000D01*
G75*
G02*
X64200000Y49900000I0J150000D01*
G01*
G37*
G36*
G01*
X66475000Y49900000D02*
X66475000Y50200000D01*
G75*
G02*
X66625000Y50350000I150000J0D01*
G01*
X67650000Y50350000D01*
G75*
G02*
X67800000Y50200000I0J-150000D01*
G01*
X67800000Y49900000D01*
G75*
G02*
X67650000Y49750000I-150000J0D01*
G01*
X66625000Y49750000D01*
G75*
G02*
X66475000Y49900000I0J150000D01*
G01*
G37*
G36*
G01*
X66475000Y51800000D02*
X66475000Y52100000D01*
G75*
G02*
X66625000Y52250000I150000J0D01*
G01*
X67650000Y52250000D01*
G75*
G02*
X67800000Y52100000I0J-150000D01*
G01*
X67800000Y51800000D01*
G75*
G02*
X67650000Y51650000I-150000J0D01*
G01*
X66625000Y51650000D01*
G75*
G02*
X66475000Y51800000I0J150000D01*
G01*
G37*
G36*
G01*
X118275000Y77775000D02*
X117725000Y77775000D01*
G75*
G02*
X117525000Y77975000I0J200000D01*
G01*
X117525000Y78375000D01*
G75*
G02*
X117725000Y78575000I200000J0D01*
G01*
X118275000Y78575000D01*
G75*
G02*
X118475000Y78375000I0J-200000D01*
G01*
X118475000Y77975000D01*
G75*
G02*
X118275000Y77775000I-200000J0D01*
G01*
G37*
G36*
G01*
X118275000Y79425000D02*
X117725000Y79425000D01*
G75*
G02*
X117525000Y79625000I0J200000D01*
G01*
X117525000Y80025000D01*
G75*
G02*
X117725000Y80225000I200000J0D01*
G01*
X118275000Y80225000D01*
G75*
G02*
X118475000Y80025000I0J-200000D01*
G01*
X118475000Y79625000D01*
G75*
G02*
X118275000Y79425000I-200000J0D01*
G01*
G37*
G36*
G01*
X16225000Y51275000D02*
X16225000Y50725000D01*
G75*
G02*
X16025000Y50525000I-200000J0D01*
G01*
X15625000Y50525000D01*
G75*
G02*
X15425000Y50725000I0J200000D01*
G01*
X15425000Y51275000D01*
G75*
G02*
X15625000Y51475000I200000J0D01*
G01*
X16025000Y51475000D01*
G75*
G02*
X16225000Y51275000I0J-200000D01*
G01*
G37*
G36*
G01*
X14575000Y51275000D02*
X14575000Y50725000D01*
G75*
G02*
X14375000Y50525000I-200000J0D01*
G01*
X13975000Y50525000D01*
G75*
G02*
X13775000Y50725000I0J200000D01*
G01*
X13775000Y51275000D01*
G75*
G02*
X13975000Y51475000I200000J0D01*
G01*
X14375000Y51475000D01*
G75*
G02*
X14575000Y51275000I0J-200000D01*
G01*
G37*
G36*
G01*
X11275000Y49775000D02*
X10725000Y49775000D01*
G75*
G02*
X10525000Y49975000I0J200000D01*
G01*
X10525000Y50375000D01*
G75*
G02*
X10725000Y50575000I200000J0D01*
G01*
X11275000Y50575000D01*
G75*
G02*
X11475000Y50375000I0J-200000D01*
G01*
X11475000Y49975000D01*
G75*
G02*
X11275000Y49775000I-200000J0D01*
G01*
G37*
G36*
G01*
X11275000Y51425000D02*
X10725000Y51425000D01*
G75*
G02*
X10525000Y51625000I0J200000D01*
G01*
X10525000Y52025000D01*
G75*
G02*
X10725000Y52225000I200000J0D01*
G01*
X11275000Y52225000D01*
G75*
G02*
X11475000Y52025000I0J-200000D01*
G01*
X11475000Y51625000D01*
G75*
G02*
X11275000Y51425000I-200000J0D01*
G01*
G37*
G36*
G01*
X57325000Y51800000D02*
X57325000Y52100000D01*
G75*
G02*
X57475000Y52250000I150000J0D01*
G01*
X58650000Y52250000D01*
G75*
G02*
X58800000Y52100000I0J-150000D01*
G01*
X58800000Y51800000D01*
G75*
G02*
X58650000Y51650000I-150000J0D01*
G01*
X57475000Y51650000D01*
G75*
G02*
X57325000Y51800000I0J150000D01*
G01*
G37*
G36*
G01*
X57325000Y49900000D02*
X57325000Y50200000D01*
G75*
G02*
X57475000Y50350000I150000J0D01*
G01*
X58650000Y50350000D01*
G75*
G02*
X58800000Y50200000I0J-150000D01*
G01*
X58800000Y49900000D01*
G75*
G02*
X58650000Y49750000I-150000J0D01*
G01*
X57475000Y49750000D01*
G75*
G02*
X57325000Y49900000I0J150000D01*
G01*
G37*
G36*
G01*
X59200000Y50850000D02*
X59200000Y51150000D01*
G75*
G02*
X59350000Y51300000I150000J0D01*
G01*
X60525000Y51300000D01*
G75*
G02*
X60675000Y51150000I0J-150000D01*
G01*
X60675000Y50850000D01*
G75*
G02*
X60525000Y50700000I-150000J0D01*
G01*
X59350000Y50700000D01*
G75*
G02*
X59200000Y50850000I0J150000D01*
G01*
G37*
G36*
G01*
X112775000Y78725000D02*
X112775000Y79275000D01*
G75*
G02*
X112975000Y79475000I200000J0D01*
G01*
X113375000Y79475000D01*
G75*
G02*
X113575000Y79275000I0J-200000D01*
G01*
X113575000Y78725000D01*
G75*
G02*
X113375000Y78525000I-200000J0D01*
G01*
X112975000Y78525000D01*
G75*
G02*
X112775000Y78725000I0J200000D01*
G01*
G37*
G36*
G01*
X114425000Y78725000D02*
X114425000Y79275000D01*
G75*
G02*
X114625000Y79475000I200000J0D01*
G01*
X115025000Y79475000D01*
G75*
G02*
X115225000Y79275000I0J-200000D01*
G01*
X115225000Y78725000D01*
G75*
G02*
X115025000Y78525000I-200000J0D01*
G01*
X114625000Y78525000D01*
G75*
G02*
X114425000Y78725000I0J200000D01*
G01*
G37*
G36*
G01*
X70250000Y49775000D02*
X69750000Y49775000D01*
G75*
G02*
X69525000Y50000000I0J225000D01*
G01*
X69525000Y50450000D01*
G75*
G02*
X69750000Y50675000I225000J0D01*
G01*
X70250000Y50675000D01*
G75*
G02*
X70475000Y50450000I0J-225000D01*
G01*
X70475000Y50000000D01*
G75*
G02*
X70250000Y49775000I-225000J0D01*
G01*
G37*
G36*
G01*
X70250000Y51325000D02*
X69750000Y51325000D01*
G75*
G02*
X69525000Y51550000I0J225000D01*
G01*
X69525000Y52000000D01*
G75*
G02*
X69750000Y52225000I225000J0D01*
G01*
X70250000Y52225000D01*
G75*
G02*
X70475000Y52000000I0J-225000D01*
G01*
X70475000Y51550000D01*
G75*
G02*
X70250000Y51325000I-225000J0D01*
G01*
G37*
M02*
