G04 #@! TF.GenerationSoftware,KiCad,Pcbnew,10.0.6*
G04 #@! TF.CreationDate,2026-09-08T19:23:15-04:00*
G04 #@! TF.ProjectId,gpiojoiner,6770696f-6a6f-4696-9e65-722e6b696361,rev?*
G04 #@! TF.SameCoordinates,Original*
G04 #@! TF.FileFunction,Legend,Bot*
G04 #@! TF.FilePolarity,Positive*
%FSLAX46Y46*%
G04 Gerber Fmt 4.6, Leading zero omitted, Abs format (unit mm)*
G04 Created by KiCad (PCBNEW 10.0.6) date 2026-09-08 19:23:15*
%MOMM*%
%LPD*%
G01*
G04 APERTURE LIST*
%ADD10C,0.150000*%
%ADD11C,0.180000*%
%ADD12C,3.200000*%
%ADD13C,1.400000*%
%ADD14C,2.032000*%
G04 APERTURE END LIST*
D10*
X80871427Y59846048D02*
X81238094Y59846048D01*
X81238094Y59269858D02*
X81238094Y60369858D01*
X81238094Y60369858D02*
X80714284Y60369858D01*
X80399999Y60369858D02*
X80138094Y59269858D01*
X80138094Y59269858D02*
X79928570Y60055572D01*
X79928570Y60055572D02*
X79719046Y59269858D01*
X79719046Y59269858D02*
X79457142Y60369858D01*
X79090475Y60265096D02*
X79038094Y60317477D01*
X79038094Y60317477D02*
X78933332Y60369858D01*
X78933332Y60369858D02*
X78671427Y60369858D01*
X78671427Y60369858D02*
X78566665Y60317477D01*
X78566665Y60317477D02*
X78514284Y60265096D01*
X78514284Y60265096D02*
X78461903Y60160334D01*
X78461903Y60160334D02*
X78461903Y60055572D01*
X78461903Y60055572D02*
X78514284Y59898429D01*
X78514284Y59898429D02*
X79142856Y59269858D01*
X79142856Y59269858D02*
X78461903Y59269858D01*
X76366665Y60422238D02*
X77309523Y59007953D01*
X75161904Y59269858D02*
X75161904Y60369858D01*
X75161904Y60369858D02*
X74795237Y59584143D01*
X74795237Y59584143D02*
X74428570Y60369858D01*
X74428570Y60369858D02*
X74428570Y59269858D01*
X73904761Y59269858D02*
X73904761Y60369858D01*
X73485713Y60369858D02*
X72752379Y59269858D01*
X72752379Y60369858D02*
X73485713Y59269858D01*
X72333332Y59846048D02*
X71966665Y59846048D01*
X71809522Y59269858D02*
X72333332Y59269858D01*
X72333332Y59269858D02*
X72333332Y60369858D01*
X72333332Y60369858D02*
X71809522Y60369858D01*
X71338094Y59269858D02*
X71338094Y60369858D01*
X71338094Y60369858D02*
X71076189Y60369858D01*
X71076189Y60369858D02*
X70919046Y60317477D01*
X70919046Y60317477D02*
X70814284Y60212715D01*
X70814284Y60212715D02*
X70761903Y60107953D01*
X70761903Y60107953D02*
X70709522Y59898429D01*
X70709522Y59898429D02*
X70709522Y59741286D01*
X70709522Y59741286D02*
X70761903Y59531762D01*
X70761903Y59531762D02*
X70814284Y59427000D01*
X70814284Y59427000D02*
X70919046Y59322238D01*
X70919046Y59322238D02*
X71076189Y59269858D01*
X71076189Y59269858D02*
X71338094Y59269858D01*
X70238094Y59374619D02*
X70185713Y59322238D01*
X70185713Y59322238D02*
X70238094Y59269858D01*
X70238094Y59269858D02*
X70290475Y59322238D01*
X70290475Y59322238D02*
X70238094Y59374619D01*
X70238094Y59374619D02*
X70238094Y59269858D01*
X70238094Y59950810D02*
X70185713Y59898429D01*
X70185713Y59898429D02*
X70238094Y59846048D01*
X70238094Y59846048D02*
X70290475Y59898429D01*
X70290475Y59898429D02*
X70238094Y59950810D01*
X70238094Y59950810D02*
X70238094Y59846048D01*
X68666665Y60369858D02*
X68457141Y60369858D01*
X68457141Y60369858D02*
X68352379Y60317477D01*
X68352379Y60317477D02*
X68247617Y60212715D01*
X68247617Y60212715D02*
X68195236Y60003191D01*
X68195236Y60003191D02*
X68195236Y59636524D01*
X68195236Y59636524D02*
X68247617Y59427000D01*
X68247617Y59427000D02*
X68352379Y59322238D01*
X68352379Y59322238D02*
X68457141Y59269858D01*
X68457141Y59269858D02*
X68666665Y59269858D01*
X68666665Y59269858D02*
X68771427Y59322238D01*
X68771427Y59322238D02*
X68876189Y59427000D01*
X68876189Y59427000D02*
X68928570Y59636524D01*
X68928570Y59636524D02*
X68928570Y60003191D01*
X68928570Y60003191D02*
X68876189Y60212715D01*
X68876189Y60212715D02*
X68771427Y60317477D01*
X68771427Y60317477D02*
X68666665Y60369858D01*
X67723808Y59269858D02*
X67723808Y60369858D01*
X67723808Y60369858D02*
X67095236Y59269858D01*
X67095236Y59269858D02*
X67095236Y60369858D01*
X66571427Y59846048D02*
X66204760Y59846048D01*
X66047617Y59269858D02*
X66571427Y59269858D01*
X66571427Y59269858D02*
X66571427Y60369858D01*
X66571427Y60369858D02*
X66047617Y60369858D01*
X64371427Y59846048D02*
X64738094Y59846048D01*
X64738094Y59269858D02*
X64738094Y60369858D01*
X64738094Y60369858D02*
X64214284Y60369858D01*
X63899999Y60369858D02*
X63638094Y59269858D01*
X63638094Y59269858D02*
X63428570Y60055572D01*
X63428570Y60055572D02*
X63219046Y59269858D01*
X63219046Y59269858D02*
X62957142Y60369858D01*
X62590475Y60265096D02*
X62538094Y60317477D01*
X62538094Y60317477D02*
X62433332Y60369858D01*
X62433332Y60369858D02*
X62171427Y60369858D01*
X62171427Y60369858D02*
X62066665Y60317477D01*
X62066665Y60317477D02*
X62014284Y60265096D01*
X62014284Y60265096D02*
X61961903Y60160334D01*
X61961903Y60160334D02*
X61961903Y60055572D01*
X61961903Y60055572D02*
X62014284Y59898429D01*
X62014284Y59898429D02*
X62642856Y59269858D01*
X62642856Y59269858D02*
X61961903Y59269858D01*
X60704761Y59322238D02*
X60547618Y59269858D01*
X60547618Y59269858D02*
X60285713Y59269858D01*
X60285713Y59269858D02*
X60180951Y59322238D01*
X60180951Y59322238D02*
X60128570Y59374619D01*
X60128570Y59374619D02*
X60076189Y59479381D01*
X60076189Y59479381D02*
X60076189Y59584143D01*
X60076189Y59584143D02*
X60128570Y59688905D01*
X60128570Y59688905D02*
X60180951Y59741286D01*
X60180951Y59741286D02*
X60285713Y59793667D01*
X60285713Y59793667D02*
X60495237Y59846048D01*
X60495237Y59846048D02*
X60599999Y59898429D01*
X60599999Y59898429D02*
X60652380Y59950810D01*
X60652380Y59950810D02*
X60704761Y60055572D01*
X60704761Y60055572D02*
X60704761Y60160334D01*
X60704761Y60160334D02*
X60652380Y60265096D01*
X60652380Y60265096D02*
X60599999Y60317477D01*
X60599999Y60317477D02*
X60495237Y60369858D01*
X60495237Y60369858D02*
X60233332Y60369858D01*
X60233332Y60369858D02*
X60076189Y60317477D01*
X59395237Y60369858D02*
X59185713Y60369858D01*
X59185713Y60369858D02*
X59080951Y60317477D01*
X59080951Y60317477D02*
X58976189Y60212715D01*
X58976189Y60212715D02*
X58923808Y60003191D01*
X58923808Y60003191D02*
X58923808Y59636524D01*
X58923808Y59636524D02*
X58976189Y59427000D01*
X58976189Y59427000D02*
X59080951Y59322238D01*
X59080951Y59322238D02*
X59185713Y59269858D01*
X59185713Y59269858D02*
X59395237Y59269858D01*
X59395237Y59269858D02*
X59499999Y59322238D01*
X59499999Y59322238D02*
X59604761Y59427000D01*
X59604761Y59427000D02*
X59657142Y59636524D01*
X59657142Y59636524D02*
X59657142Y60003191D01*
X59657142Y60003191D02*
X59604761Y60212715D01*
X59604761Y60212715D02*
X59499999Y60317477D01*
X59499999Y60317477D02*
X59395237Y60369858D01*
X58452380Y60369858D02*
X58452380Y59479381D01*
X58452380Y59479381D02*
X58399999Y59374619D01*
X58399999Y59374619D02*
X58347618Y59322238D01*
X58347618Y59322238D02*
X58242856Y59269858D01*
X58242856Y59269858D02*
X58033332Y59269858D01*
X58033332Y59269858D02*
X57928570Y59322238D01*
X57928570Y59322238D02*
X57876189Y59374619D01*
X57876189Y59374619D02*
X57823808Y59479381D01*
X57823808Y59479381D02*
X57823808Y60369858D01*
X56671427Y59269858D02*
X57038094Y59793667D01*
X57299999Y59269858D02*
X57299999Y60369858D01*
X57299999Y60369858D02*
X56880951Y60369858D01*
X56880951Y60369858D02*
X56776189Y60317477D01*
X56776189Y60317477D02*
X56723808Y60265096D01*
X56723808Y60265096D02*
X56671427Y60160334D01*
X56671427Y60160334D02*
X56671427Y60003191D01*
X56671427Y60003191D02*
X56723808Y59898429D01*
X56723808Y59898429D02*
X56776189Y59846048D01*
X56776189Y59846048D02*
X56880951Y59793667D01*
X56880951Y59793667D02*
X57299999Y59793667D01*
X55571427Y59374619D02*
X55623808Y59322238D01*
X55623808Y59322238D02*
X55780951Y59269858D01*
X55780951Y59269858D02*
X55885713Y59269858D01*
X55885713Y59269858D02*
X56042856Y59322238D01*
X56042856Y59322238D02*
X56147618Y59427000D01*
X56147618Y59427000D02*
X56199999Y59531762D01*
X56199999Y59531762D02*
X56252380Y59741286D01*
X56252380Y59741286D02*
X56252380Y59898429D01*
X56252380Y59898429D02*
X56199999Y60107953D01*
X56199999Y60107953D02*
X56147618Y60212715D01*
X56147618Y60212715D02*
X56042856Y60317477D01*
X56042856Y60317477D02*
X55885713Y60369858D01*
X55885713Y60369858D02*
X55780951Y60369858D01*
X55780951Y60369858D02*
X55623808Y60317477D01*
X55623808Y60317477D02*
X55571427Y60265096D01*
X55099999Y59846048D02*
X54733332Y59846048D01*
X54576189Y59269858D02*
X55099999Y59269858D01*
X55099999Y59269858D02*
X55099999Y60369858D01*
X55099999Y60369858D02*
X54576189Y60369858D01*
X54157142Y59322238D02*
X53999999Y59269858D01*
X53999999Y59269858D02*
X53738094Y59269858D01*
X53738094Y59269858D02*
X53633332Y59322238D01*
X53633332Y59322238D02*
X53580951Y59374619D01*
X53580951Y59374619D02*
X53528570Y59479381D01*
X53528570Y59479381D02*
X53528570Y59584143D01*
X53528570Y59584143D02*
X53580951Y59688905D01*
X53580951Y59688905D02*
X53633332Y59741286D01*
X53633332Y59741286D02*
X53738094Y59793667D01*
X53738094Y59793667D02*
X53947618Y59846048D01*
X53947618Y59846048D02*
X54052380Y59898429D01*
X54052380Y59898429D02*
X54104761Y59950810D01*
X54104761Y59950810D02*
X54157142Y60055572D01*
X54157142Y60055572D02*
X54157142Y60160334D01*
X54157142Y60160334D02*
X54104761Y60265096D01*
X54104761Y60265096D02*
X54052380Y60317477D01*
X54052380Y60317477D02*
X53947618Y60369858D01*
X53947618Y60369858D02*
X53685713Y60369858D01*
X53685713Y60369858D02*
X53528570Y60317477D01*
X52376190Y60369858D02*
X52009523Y59269858D01*
X52009523Y59269858D02*
X51642856Y60369858D01*
X50647618Y59269858D02*
X51014285Y59793667D01*
X51276190Y59269858D02*
X51276190Y60369858D01*
X51276190Y60369858D02*
X50857142Y60369858D01*
X50857142Y60369858D02*
X50752380Y60317477D01*
X50752380Y60317477D02*
X50699999Y60265096D01*
X50699999Y60265096D02*
X50647618Y60160334D01*
X50647618Y60160334D02*
X50647618Y60003191D01*
X50647618Y60003191D02*
X50699999Y59898429D01*
X50699999Y59898429D02*
X50752380Y59846048D01*
X50752380Y59846048D02*
X50857142Y59793667D01*
X50857142Y59793667D02*
X51276190Y59793667D01*
X50176190Y59846048D02*
X49809523Y59846048D01*
X49652380Y59269858D02*
X50176190Y59269858D01*
X50176190Y59269858D02*
X50176190Y60369858D01*
X50176190Y60369858D02*
X49652380Y60369858D01*
X48814285Y59846048D02*
X49180952Y59846048D01*
X49180952Y59269858D02*
X49180952Y60369858D01*
X49180952Y60369858D02*
X48657142Y60369858D01*
X80819046Y58598920D02*
X80609522Y58598920D01*
X80609522Y58598920D02*
X80504760Y58546539D01*
X80504760Y58546539D02*
X80399998Y58441777D01*
X80399998Y58441777D02*
X80347617Y58232253D01*
X80347617Y58232253D02*
X80347617Y57865586D01*
X80347617Y57865586D02*
X80399998Y57656062D01*
X80399998Y57656062D02*
X80504760Y57551300D01*
X80504760Y57551300D02*
X80609522Y57498920D01*
X80609522Y57498920D02*
X80819046Y57498920D01*
X80819046Y57498920D02*
X80923808Y57551300D01*
X80923808Y57551300D02*
X81028570Y57656062D01*
X81028570Y57656062D02*
X81080951Y57865586D01*
X81080951Y57865586D02*
X81080951Y58232253D01*
X81080951Y58232253D02*
X81028570Y58441777D01*
X81028570Y58441777D02*
X80923808Y58546539D01*
X80923808Y58546539D02*
X80819046Y58598920D01*
X79299998Y58546539D02*
X79404760Y58598920D01*
X79404760Y58598920D02*
X79561903Y58598920D01*
X79561903Y58598920D02*
X79719046Y58546539D01*
X79719046Y58546539D02*
X79823808Y58441777D01*
X79823808Y58441777D02*
X79876189Y58337015D01*
X79876189Y58337015D02*
X79928570Y58127491D01*
X79928570Y58127491D02*
X79928570Y57970348D01*
X79928570Y57970348D02*
X79876189Y57760824D01*
X79876189Y57760824D02*
X79823808Y57656062D01*
X79823808Y57656062D02*
X79719046Y57551300D01*
X79719046Y57551300D02*
X79561903Y57498920D01*
X79561903Y57498920D02*
X79457141Y57498920D01*
X79457141Y57498920D02*
X79299998Y57551300D01*
X79299998Y57551300D02*
X79247617Y57603681D01*
X79247617Y57603681D02*
X79247617Y57970348D01*
X79247617Y57970348D02*
X79457141Y57970348D01*
X77152379Y58651300D02*
X78095237Y57237015D01*
X75738094Y58598920D02*
X75528570Y58598920D01*
X75528570Y58598920D02*
X75423808Y58546539D01*
X75423808Y58546539D02*
X75319046Y58441777D01*
X75319046Y58441777D02*
X75266665Y58232253D01*
X75266665Y58232253D02*
X75266665Y57865586D01*
X75266665Y57865586D02*
X75319046Y57656062D01*
X75319046Y57656062D02*
X75423808Y57551300D01*
X75423808Y57551300D02*
X75528570Y57498920D01*
X75528570Y57498920D02*
X75738094Y57498920D01*
X75738094Y57498920D02*
X75842856Y57551300D01*
X75842856Y57551300D02*
X75947618Y57656062D01*
X75947618Y57656062D02*
X75999999Y57865586D01*
X75999999Y57865586D02*
X75999999Y58232253D01*
X75999999Y58232253D02*
X75947618Y58441777D01*
X75947618Y58441777D02*
X75842856Y58546539D01*
X75842856Y58546539D02*
X75738094Y58598920D01*
X74219046Y58546539D02*
X74323808Y58598920D01*
X74323808Y58598920D02*
X74480951Y58598920D01*
X74480951Y58598920D02*
X74638094Y58546539D01*
X74638094Y58546539D02*
X74742856Y58441777D01*
X74742856Y58441777D02*
X74795237Y58337015D01*
X74795237Y58337015D02*
X74847618Y58127491D01*
X74847618Y58127491D02*
X74847618Y57970348D01*
X74847618Y57970348D02*
X74795237Y57760824D01*
X74795237Y57760824D02*
X74742856Y57656062D01*
X74742856Y57656062D02*
X74638094Y57551300D01*
X74638094Y57551300D02*
X74480951Y57498920D01*
X74480951Y57498920D02*
X74376189Y57498920D01*
X74376189Y57498920D02*
X74219046Y57551300D01*
X74219046Y57551300D02*
X74166665Y57603681D01*
X74166665Y57603681D02*
X74166665Y57970348D01*
X74166665Y57970348D02*
X74376189Y57970348D01*
X73695237Y57603681D02*
X73642856Y57551300D01*
X73642856Y57551300D02*
X73695237Y57498920D01*
X73695237Y57498920D02*
X73747618Y57551300D01*
X73747618Y57551300D02*
X73695237Y57603681D01*
X73695237Y57603681D02*
X73695237Y57498920D01*
X73695237Y58179872D02*
X73642856Y58127491D01*
X73642856Y58127491D02*
X73695237Y58075110D01*
X73695237Y58075110D02*
X73747618Y58127491D01*
X73747618Y58127491D02*
X73695237Y58179872D01*
X73695237Y58179872D02*
X73695237Y58075110D01*
X72333332Y58075110D02*
X71966665Y58075110D01*
X71809522Y57498920D02*
X72333332Y57498920D01*
X72333332Y57498920D02*
X72333332Y58598920D01*
X72333332Y58598920D02*
X71809522Y58598920D01*
X71390475Y57813205D02*
X70866665Y57813205D01*
X71495237Y57498920D02*
X71128570Y58598920D01*
X71128570Y58598920D02*
X70761903Y57498920D01*
X69766665Y57603681D02*
X69819046Y57551300D01*
X69819046Y57551300D02*
X69976189Y57498920D01*
X69976189Y57498920D02*
X70080951Y57498920D01*
X70080951Y57498920D02*
X70238094Y57551300D01*
X70238094Y57551300D02*
X70342856Y57656062D01*
X70342856Y57656062D02*
X70395237Y57760824D01*
X70395237Y57760824D02*
X70447618Y57970348D01*
X70447618Y57970348D02*
X70447618Y58127491D01*
X70447618Y58127491D02*
X70395237Y58337015D01*
X70395237Y58337015D02*
X70342856Y58441777D01*
X70342856Y58441777D02*
X70238094Y58546539D01*
X70238094Y58546539D02*
X70080951Y58598920D01*
X70080951Y58598920D02*
X69976189Y58598920D01*
X69976189Y58598920D02*
X69819046Y58546539D01*
X69819046Y58546539D02*
X69766665Y58494158D01*
X69295237Y57498920D02*
X69295237Y58598920D01*
X69295237Y58075110D02*
X68666665Y58075110D01*
X68666665Y57498920D02*
X68666665Y58598920D01*
X67095237Y58598920D02*
X66885713Y58598920D01*
X66885713Y58598920D02*
X66780951Y58546539D01*
X66780951Y58546539D02*
X66676189Y58441777D01*
X66676189Y58441777D02*
X66623808Y58232253D01*
X66623808Y58232253D02*
X66623808Y57865586D01*
X66623808Y57865586D02*
X66676189Y57656062D01*
X66676189Y57656062D02*
X66780951Y57551300D01*
X66780951Y57551300D02*
X66885713Y57498920D01*
X66885713Y57498920D02*
X67095237Y57498920D01*
X67095237Y57498920D02*
X67199999Y57551300D01*
X67199999Y57551300D02*
X67304761Y57656062D01*
X67304761Y57656062D02*
X67357142Y57865586D01*
X67357142Y57865586D02*
X67357142Y58232253D01*
X67357142Y58232253D02*
X67304761Y58441777D01*
X67304761Y58441777D02*
X67199999Y58546539D01*
X67199999Y58546539D02*
X67095237Y58598920D01*
X65576189Y58546539D02*
X65680951Y58598920D01*
X65680951Y58598920D02*
X65838094Y58598920D01*
X65838094Y58598920D02*
X65995237Y58546539D01*
X65995237Y58546539D02*
X66099999Y58441777D01*
X66099999Y58441777D02*
X66152380Y58337015D01*
X66152380Y58337015D02*
X66204761Y58127491D01*
X66204761Y58127491D02*
X66204761Y57970348D01*
X66204761Y57970348D02*
X66152380Y57760824D01*
X66152380Y57760824D02*
X66099999Y57656062D01*
X66099999Y57656062D02*
X65995237Y57551300D01*
X65995237Y57551300D02*
X65838094Y57498920D01*
X65838094Y57498920D02*
X65733332Y57498920D01*
X65733332Y57498920D02*
X65576189Y57551300D01*
X65576189Y57551300D02*
X65523808Y57603681D01*
X65523808Y57603681D02*
X65523808Y57970348D01*
X65523808Y57970348D02*
X65733332Y57970348D01*
X64214285Y58598920D02*
X64214285Y57708443D01*
X64214285Y57708443D02*
X64161904Y57603681D01*
X64161904Y57603681D02*
X64109523Y57551300D01*
X64109523Y57551300D02*
X64004761Y57498920D01*
X64004761Y57498920D02*
X63795237Y57498920D01*
X63795237Y57498920D02*
X63690475Y57551300D01*
X63690475Y57551300D02*
X63638094Y57603681D01*
X63638094Y57603681D02*
X63585713Y57708443D01*
X63585713Y57708443D02*
X63585713Y58598920D01*
X63114285Y57551300D02*
X62957142Y57498920D01*
X62957142Y57498920D02*
X62695237Y57498920D01*
X62695237Y57498920D02*
X62590475Y57551300D01*
X62590475Y57551300D02*
X62538094Y57603681D01*
X62538094Y57603681D02*
X62485713Y57708443D01*
X62485713Y57708443D02*
X62485713Y57813205D01*
X62485713Y57813205D02*
X62538094Y57917967D01*
X62538094Y57917967D02*
X62590475Y57970348D01*
X62590475Y57970348D02*
X62695237Y58022729D01*
X62695237Y58022729D02*
X62904761Y58075110D01*
X62904761Y58075110D02*
X63009523Y58127491D01*
X63009523Y58127491D02*
X63061904Y58179872D01*
X63061904Y58179872D02*
X63114285Y58284634D01*
X63114285Y58284634D02*
X63114285Y58389396D01*
X63114285Y58389396D02*
X63061904Y58494158D01*
X63061904Y58494158D02*
X63009523Y58546539D01*
X63009523Y58546539D02*
X62904761Y58598920D01*
X62904761Y58598920D02*
X62642856Y58598920D01*
X62642856Y58598920D02*
X62485713Y58546539D01*
X62014285Y58075110D02*
X61647618Y58075110D01*
X61490475Y57498920D02*
X62014285Y57498920D01*
X62014285Y57498920D02*
X62014285Y58598920D01*
X62014285Y58598920D02*
X61490475Y58598920D01*
X61071428Y57551300D02*
X60914285Y57498920D01*
X60914285Y57498920D02*
X60652380Y57498920D01*
X60652380Y57498920D02*
X60547618Y57551300D01*
X60547618Y57551300D02*
X60495237Y57603681D01*
X60495237Y57603681D02*
X60442856Y57708443D01*
X60442856Y57708443D02*
X60442856Y57813205D01*
X60442856Y57813205D02*
X60495237Y57917967D01*
X60495237Y57917967D02*
X60547618Y57970348D01*
X60547618Y57970348D02*
X60652380Y58022729D01*
X60652380Y58022729D02*
X60861904Y58075110D01*
X60861904Y58075110D02*
X60966666Y58127491D01*
X60966666Y58127491D02*
X61019047Y58179872D01*
X61019047Y58179872D02*
X61071428Y58284634D01*
X61071428Y58284634D02*
X61071428Y58389396D01*
X61071428Y58389396D02*
X61019047Y58494158D01*
X61019047Y58494158D02*
X60966666Y58546539D01*
X60966666Y58546539D02*
X60861904Y58598920D01*
X60861904Y58598920D02*
X60599999Y58598920D01*
X60599999Y58598920D02*
X60442856Y58546539D01*
X59133333Y57498920D02*
X59133333Y58598920D01*
X58766666Y58598920D02*
X58138094Y58598920D01*
X58452380Y57498920D02*
X58452380Y58598920D01*
X57823809Y57551300D02*
X57666666Y57498920D01*
X57666666Y57498920D02*
X57404761Y57498920D01*
X57404761Y57498920D02*
X57299999Y57551300D01*
X57299999Y57551300D02*
X57247618Y57603681D01*
X57247618Y57603681D02*
X57195237Y57708443D01*
X57195237Y57708443D02*
X57195237Y57813205D01*
X57195237Y57813205D02*
X57247618Y57917967D01*
X57247618Y57917967D02*
X57299999Y57970348D01*
X57299999Y57970348D02*
X57404761Y58022729D01*
X57404761Y58022729D02*
X57614285Y58075110D01*
X57614285Y58075110D02*
X57719047Y58127491D01*
X57719047Y58127491D02*
X57771428Y58179872D01*
X57771428Y58179872D02*
X57823809Y58284634D01*
X57823809Y58284634D02*
X57823809Y58389396D01*
X57823809Y58389396D02*
X57771428Y58494158D01*
X57771428Y58494158D02*
X57719047Y58546539D01*
X57719047Y58546539D02*
X57614285Y58598920D01*
X57614285Y58598920D02*
X57352380Y58598920D01*
X57352380Y58598920D02*
X57195237Y58546539D01*
X55676190Y58598920D02*
X55466666Y58598920D01*
X55466666Y58598920D02*
X55361904Y58546539D01*
X55361904Y58546539D02*
X55257142Y58441777D01*
X55257142Y58441777D02*
X55204761Y58232253D01*
X55204761Y58232253D02*
X55204761Y57865586D01*
X55204761Y57865586D02*
X55257142Y57656062D01*
X55257142Y57656062D02*
X55361904Y57551300D01*
X55361904Y57551300D02*
X55466666Y57498920D01*
X55466666Y57498920D02*
X55676190Y57498920D01*
X55676190Y57498920D02*
X55780952Y57551300D01*
X55780952Y57551300D02*
X55885714Y57656062D01*
X55885714Y57656062D02*
X55938095Y57865586D01*
X55938095Y57865586D02*
X55938095Y58232253D01*
X55938095Y58232253D02*
X55885714Y58441777D01*
X55885714Y58441777D02*
X55780952Y58546539D01*
X55780952Y58546539D02*
X55676190Y58598920D01*
X54838095Y58598920D02*
X54576190Y57498920D01*
X54576190Y57498920D02*
X54366666Y58284634D01*
X54366666Y58284634D02*
X54157142Y57498920D01*
X54157142Y57498920D02*
X53895238Y58598920D01*
X53476190Y57498920D02*
X53476190Y58598920D01*
X53476190Y58598920D02*
X52847618Y57498920D01*
X52847618Y57498920D02*
X52847618Y58598920D01*
X51590476Y58598920D02*
X50909523Y58598920D01*
X50909523Y58598920D02*
X51276190Y58179872D01*
X51276190Y58179872D02*
X51119047Y58179872D01*
X51119047Y58179872D02*
X51014285Y58127491D01*
X51014285Y58127491D02*
X50961904Y58075110D01*
X50961904Y58075110D02*
X50909523Y57970348D01*
X50909523Y57970348D02*
X50909523Y57708443D01*
X50909523Y57708443D02*
X50961904Y57603681D01*
X50961904Y57603681D02*
X51014285Y57551300D01*
X51014285Y57551300D02*
X51119047Y57498920D01*
X51119047Y57498920D02*
X51433333Y57498920D01*
X51433333Y57498920D02*
X51538095Y57551300D01*
X51538095Y57551300D02*
X51590476Y57603681D01*
X50595238Y58598920D02*
X50228571Y57498920D01*
X50228571Y57498920D02*
X49861904Y58598920D01*
X49600000Y58598920D02*
X48919047Y58598920D01*
X48919047Y58598920D02*
X49285714Y58179872D01*
X49285714Y58179872D02*
X49128571Y58179872D01*
X49128571Y58179872D02*
X49023809Y58127491D01*
X49023809Y58127491D02*
X48971428Y58075110D01*
X48971428Y58075110D02*
X48919047Y57970348D01*
X48919047Y57970348D02*
X48919047Y57708443D01*
X48919047Y57708443D02*
X48971428Y57603681D01*
X48971428Y57603681D02*
X49023809Y57551300D01*
X49023809Y57551300D02*
X49128571Y57498920D01*
X49128571Y57498920D02*
X49442857Y57498920D01*
X49442857Y57498920D02*
X49547619Y57551300D01*
X49547619Y57551300D02*
X49600000Y57603681D01*
X78357142Y55727982D02*
X78357142Y56827982D01*
X78357142Y56827982D02*
X77938094Y56827982D01*
X77938094Y56827982D02*
X77833332Y56775601D01*
X77833332Y56775601D02*
X77780951Y56723220D01*
X77780951Y56723220D02*
X77728570Y56618458D01*
X77728570Y56618458D02*
X77728570Y56461315D01*
X77728570Y56461315D02*
X77780951Y56356553D01*
X77780951Y56356553D02*
X77833332Y56304172D01*
X77833332Y56304172D02*
X77938094Y56251791D01*
X77938094Y56251791D02*
X78357142Y56251791D01*
X76628570Y55727982D02*
X76995237Y56251791D01*
X77257142Y55727982D02*
X77257142Y56827982D01*
X77257142Y56827982D02*
X76838094Y56827982D01*
X76838094Y56827982D02*
X76733332Y56775601D01*
X76733332Y56775601D02*
X76680951Y56723220D01*
X76680951Y56723220D02*
X76628570Y56618458D01*
X76628570Y56618458D02*
X76628570Y56461315D01*
X76628570Y56461315D02*
X76680951Y56356553D01*
X76680951Y56356553D02*
X76733332Y56304172D01*
X76733332Y56304172D02*
X76838094Y56251791D01*
X76838094Y56251791D02*
X77257142Y56251791D01*
X75947618Y56827982D02*
X75738094Y56827982D01*
X75738094Y56827982D02*
X75633332Y56775601D01*
X75633332Y56775601D02*
X75528570Y56670839D01*
X75528570Y56670839D02*
X75476189Y56461315D01*
X75476189Y56461315D02*
X75476189Y56094648D01*
X75476189Y56094648D02*
X75528570Y55885124D01*
X75528570Y55885124D02*
X75633332Y55780362D01*
X75633332Y55780362D02*
X75738094Y55727982D01*
X75738094Y55727982D02*
X75947618Y55727982D01*
X75947618Y55727982D02*
X76052380Y55780362D01*
X76052380Y55780362D02*
X76157142Y55885124D01*
X76157142Y55885124D02*
X76209523Y56094648D01*
X76209523Y56094648D02*
X76209523Y56461315D01*
X76209523Y56461315D02*
X76157142Y56670839D01*
X76157142Y56670839D02*
X76052380Y56775601D01*
X76052380Y56775601D02*
X75947618Y56827982D01*
X74428570Y56775601D02*
X74533332Y56827982D01*
X74533332Y56827982D02*
X74690475Y56827982D01*
X74690475Y56827982D02*
X74847618Y56775601D01*
X74847618Y56775601D02*
X74952380Y56670839D01*
X74952380Y56670839D02*
X75004761Y56566077D01*
X75004761Y56566077D02*
X75057142Y56356553D01*
X75057142Y56356553D02*
X75057142Y56199410D01*
X75057142Y56199410D02*
X75004761Y55989886D01*
X75004761Y55989886D02*
X74952380Y55885124D01*
X74952380Y55885124D02*
X74847618Y55780362D01*
X74847618Y55780362D02*
X74690475Y55727982D01*
X74690475Y55727982D02*
X74585713Y55727982D01*
X74585713Y55727982D02*
X74428570Y55780362D01*
X74428570Y55780362D02*
X74376189Y55832743D01*
X74376189Y55832743D02*
X74376189Y56199410D01*
X74376189Y56199410D02*
X74585713Y56199410D01*
X73223809Y56827982D02*
X72857142Y55727982D01*
X72857142Y55727982D02*
X72490475Y56827982D01*
X71914285Y56827982D02*
X71704761Y56827982D01*
X71704761Y56827982D02*
X71599999Y56775601D01*
X71599999Y56775601D02*
X71495237Y56670839D01*
X71495237Y56670839D02*
X71442856Y56461315D01*
X71442856Y56461315D02*
X71442856Y56094648D01*
X71442856Y56094648D02*
X71495237Y55885124D01*
X71495237Y55885124D02*
X71599999Y55780362D01*
X71599999Y55780362D02*
X71704761Y55727982D01*
X71704761Y55727982D02*
X71914285Y55727982D01*
X71914285Y55727982D02*
X72019047Y55780362D01*
X72019047Y55780362D02*
X72123809Y55885124D01*
X72123809Y55885124D02*
X72176190Y56094648D01*
X72176190Y56094648D02*
X72176190Y56461315D01*
X72176190Y56461315D02*
X72123809Y56670839D01*
X72123809Y56670839D02*
X72019047Y56775601D01*
X72019047Y56775601D02*
X71914285Y56827982D01*
X70971428Y56827982D02*
X70971428Y55937505D01*
X70971428Y55937505D02*
X70919047Y55832743D01*
X70919047Y55832743D02*
X70866666Y55780362D01*
X70866666Y55780362D02*
X70761904Y55727982D01*
X70761904Y55727982D02*
X70552380Y55727982D01*
X70552380Y55727982D02*
X70447618Y55780362D01*
X70447618Y55780362D02*
X70395237Y55832743D01*
X70395237Y55832743D02*
X70342856Y55937505D01*
X70342856Y55937505D02*
X70342856Y56827982D01*
X69976190Y56827982D02*
X69347618Y56827982D01*
X69661904Y55727982D02*
X69661904Y56827982D01*
X67514285Y55727982D02*
X67880952Y56251791D01*
X68142857Y55727982D02*
X68142857Y56827982D01*
X68142857Y56827982D02*
X67723809Y56827982D01*
X67723809Y56827982D02*
X67619047Y56775601D01*
X67619047Y56775601D02*
X67566666Y56723220D01*
X67566666Y56723220D02*
X67514285Y56618458D01*
X67514285Y56618458D02*
X67514285Y56461315D01*
X67514285Y56461315D02*
X67566666Y56356553D01*
X67566666Y56356553D02*
X67619047Y56304172D01*
X67619047Y56304172D02*
X67723809Y56251791D01*
X67723809Y56251791D02*
X68142857Y56251791D01*
X67042857Y56304172D02*
X66676190Y56304172D01*
X66519047Y55727982D02*
X67042857Y55727982D01*
X67042857Y55727982D02*
X67042857Y56827982D01*
X67042857Y56827982D02*
X66519047Y56827982D01*
X66100000Y56042267D02*
X65576190Y56042267D01*
X66204762Y55727982D02*
X65838095Y56827982D01*
X65838095Y56827982D02*
X65471428Y55727982D01*
X65104762Y55727982D02*
X65104762Y56827982D01*
X65104762Y56827982D02*
X64842857Y56827982D01*
X64842857Y56827982D02*
X64685714Y56775601D01*
X64685714Y56775601D02*
X64580952Y56670839D01*
X64580952Y56670839D02*
X64528571Y56566077D01*
X64528571Y56566077D02*
X64476190Y56356553D01*
X64476190Y56356553D02*
X64476190Y56199410D01*
X64476190Y56199410D02*
X64528571Y55989886D01*
X64528571Y55989886D02*
X64580952Y55885124D01*
X64580952Y55885124D02*
X64685714Y55780362D01*
X64685714Y55780362D02*
X64842857Y55727982D01*
X64842857Y55727982D02*
X65104762Y55727982D01*
X63638095Y56304172D02*
X63480952Y56251791D01*
X63480952Y56251791D02*
X63428571Y56199410D01*
X63428571Y56199410D02*
X63376190Y56094648D01*
X63376190Y56094648D02*
X63376190Y55937505D01*
X63376190Y55937505D02*
X63428571Y55832743D01*
X63428571Y55832743D02*
X63480952Y55780362D01*
X63480952Y55780362D02*
X63585714Y55727982D01*
X63585714Y55727982D02*
X64004762Y55727982D01*
X64004762Y55727982D02*
X64004762Y56827982D01*
X64004762Y56827982D02*
X63638095Y56827982D01*
X63638095Y56827982D02*
X63533333Y56775601D01*
X63533333Y56775601D02*
X63480952Y56723220D01*
X63480952Y56723220D02*
X63428571Y56618458D01*
X63428571Y56618458D02*
X63428571Y56513696D01*
X63428571Y56513696D02*
X63480952Y56408934D01*
X63480952Y56408934D02*
X63533333Y56356553D01*
X63533333Y56356553D02*
X63638095Y56304172D01*
X63638095Y56304172D02*
X64004762Y56304172D01*
X62957143Y56042267D02*
X62433333Y56042267D01*
X63061905Y55727982D02*
X62695238Y56827982D01*
X62695238Y56827982D02*
X62328571Y55727982D01*
X61333333Y55832743D02*
X61385714Y55780362D01*
X61385714Y55780362D02*
X61542857Y55727982D01*
X61542857Y55727982D02*
X61647619Y55727982D01*
X61647619Y55727982D02*
X61804762Y55780362D01*
X61804762Y55780362D02*
X61909524Y55885124D01*
X61909524Y55885124D02*
X61961905Y55989886D01*
X61961905Y55989886D02*
X62014286Y56199410D01*
X62014286Y56199410D02*
X62014286Y56356553D01*
X62014286Y56356553D02*
X61961905Y56566077D01*
X61961905Y56566077D02*
X61909524Y56670839D01*
X61909524Y56670839D02*
X61804762Y56775601D01*
X61804762Y56775601D02*
X61647619Y56827982D01*
X61647619Y56827982D02*
X61542857Y56827982D01*
X61542857Y56827982D02*
X61385714Y56775601D01*
X61385714Y56775601D02*
X61333333Y56723220D01*
X60861905Y55727982D02*
X60861905Y56827982D01*
X60233333Y55727982D02*
X60704762Y56356553D01*
X60233333Y56827982D02*
X60861905Y56199410D01*
X59761905Y55832743D02*
X59709524Y55780362D01*
X59709524Y55780362D02*
X59761905Y55727982D01*
X59761905Y55727982D02*
X59814286Y55780362D01*
X59814286Y55780362D02*
X59761905Y55832743D01*
X59761905Y55832743D02*
X59761905Y55727982D01*
X59761905Y56408934D02*
X59709524Y56356553D01*
X59709524Y56356553D02*
X59761905Y56304172D01*
X59761905Y56304172D02*
X59814286Y56356553D01*
X59814286Y56356553D02*
X59761905Y56408934D01*
X59761905Y56408934D02*
X59761905Y56304172D01*
X58452381Y56723220D02*
X58400000Y56775601D01*
X58400000Y56775601D02*
X58295238Y56827982D01*
X58295238Y56827982D02*
X58033333Y56827982D01*
X58033333Y56827982D02*
X57928571Y56775601D01*
X57928571Y56775601D02*
X57876190Y56723220D01*
X57876190Y56723220D02*
X57823809Y56618458D01*
X57823809Y56618458D02*
X57823809Y56513696D01*
X57823809Y56513696D02*
X57876190Y56356553D01*
X57876190Y56356553D02*
X58504762Y55727982D01*
X58504762Y55727982D02*
X57823809Y55727982D01*
X56619048Y55727982D02*
X56042857Y56461315D01*
X56619048Y56461315D02*
X56042857Y55727982D01*
X54838096Y56042267D02*
X54314286Y56042267D01*
X54942858Y55727982D02*
X54576191Y56827982D01*
X54576191Y56827982D02*
X54209524Y55727982D01*
X53842858Y55727982D02*
X53842858Y56827982D01*
X53319048Y55727982D02*
X53319048Y56827982D01*
X53319048Y56827982D02*
X52690476Y55727982D01*
X52690476Y55727982D02*
X52690476Y56827982D01*
X52219048Y56723220D02*
X52166667Y56775601D01*
X52166667Y56775601D02*
X52061905Y56827982D01*
X52061905Y56827982D02*
X51800000Y56827982D01*
X51800000Y56827982D02*
X51695238Y56775601D01*
X51695238Y56775601D02*
X51642857Y56723220D01*
X51642857Y56723220D02*
X51590476Y56618458D01*
X51590476Y56618458D02*
X51590476Y56513696D01*
X51590476Y56513696D02*
X51642857Y56356553D01*
X51642857Y56356553D02*
X52271429Y55727982D01*
X52271429Y55727982D02*
X51590476Y55727982D01*
X76857142Y50475766D02*
X76685714Y50418624D01*
X76685714Y50418624D02*
X76399999Y50418624D01*
X76399999Y50418624D02*
X76285714Y50475766D01*
X76285714Y50475766D02*
X76228571Y50532909D01*
X76228571Y50532909D02*
X76171428Y50647195D01*
X76171428Y50647195D02*
X76171428Y50761481D01*
X76171428Y50761481D02*
X76228571Y50875766D01*
X76228571Y50875766D02*
X76285714Y50932909D01*
X76285714Y50932909D02*
X76399999Y50990052D01*
X76399999Y50990052D02*
X76628571Y51047195D01*
X76628571Y51047195D02*
X76742856Y51104338D01*
X76742856Y51104338D02*
X76799999Y51161481D01*
X76799999Y51161481D02*
X76857142Y51275766D01*
X76857142Y51275766D02*
X76857142Y51390052D01*
X76857142Y51390052D02*
X76799999Y51504338D01*
X76799999Y51504338D02*
X76742856Y51561481D01*
X76742856Y51561481D02*
X76628571Y51618624D01*
X76628571Y51618624D02*
X76342856Y51618624D01*
X76342856Y51618624D02*
X76171428Y51561481D01*
X75657142Y50418624D02*
X75657142Y51618624D01*
X75142857Y50418624D02*
X75142857Y51047195D01*
X75142857Y51047195D02*
X75199999Y51161481D01*
X75199999Y51161481D02*
X75314285Y51218624D01*
X75314285Y51218624D02*
X75485714Y51218624D01*
X75485714Y51218624D02*
X75599999Y51161481D01*
X75599999Y51161481D02*
X75657142Y51104338D01*
X74057143Y50418624D02*
X74057143Y51047195D01*
X74057143Y51047195D02*
X74114285Y51161481D01*
X74114285Y51161481D02*
X74228571Y51218624D01*
X74228571Y51218624D02*
X74457143Y51218624D01*
X74457143Y51218624D02*
X74571428Y51161481D01*
X74057143Y50475766D02*
X74171428Y50418624D01*
X74171428Y50418624D02*
X74457143Y50418624D01*
X74457143Y50418624D02*
X74571428Y50475766D01*
X74571428Y50475766D02*
X74628571Y50590052D01*
X74628571Y50590052D02*
X74628571Y50704338D01*
X74628571Y50704338D02*
X74571428Y50818624D01*
X74571428Y50818624D02*
X74457143Y50875766D01*
X74457143Y50875766D02*
X74171428Y50875766D01*
X74171428Y50875766D02*
X74057143Y50932909D01*
X73485714Y50418624D02*
X73485714Y51218624D01*
X73485714Y50990052D02*
X73428571Y51104338D01*
X73428571Y51104338D02*
X73371429Y51161481D01*
X73371429Y51161481D02*
X73257143Y51218624D01*
X73257143Y51218624D02*
X73142857Y51218624D01*
X72285714Y50475766D02*
X72400000Y50418624D01*
X72400000Y50418624D02*
X72628572Y50418624D01*
X72628572Y50418624D02*
X72742857Y50475766D01*
X72742857Y50475766D02*
X72800000Y50590052D01*
X72800000Y50590052D02*
X72800000Y51047195D01*
X72800000Y51047195D02*
X72742857Y51161481D01*
X72742857Y51161481D02*
X72628572Y51218624D01*
X72628572Y51218624D02*
X72400000Y51218624D01*
X72400000Y51218624D02*
X72285714Y51161481D01*
X72285714Y51161481D02*
X72228572Y51047195D01*
X72228572Y51047195D02*
X72228572Y50932909D01*
X72228572Y50932909D02*
X72800000Y50818624D01*
X71200001Y50418624D02*
X71200001Y51618624D01*
X71200001Y50475766D02*
X71314286Y50418624D01*
X71314286Y50418624D02*
X71542858Y50418624D01*
X71542858Y50418624D02*
X71657143Y50475766D01*
X71657143Y50475766D02*
X71714286Y50532909D01*
X71714286Y50532909D02*
X71771429Y50647195D01*
X71771429Y50647195D02*
X71771429Y50990052D01*
X71771429Y50990052D02*
X71714286Y51104338D01*
X71714286Y51104338D02*
X71657143Y51161481D01*
X71657143Y51161481D02*
X71542858Y51218624D01*
X71542858Y51218624D02*
X71314286Y51218624D01*
X71314286Y51218624D02*
X71200001Y51161481D01*
X69714286Y50418624D02*
X69714286Y51618624D01*
X69200000Y51504338D02*
X69142857Y51561481D01*
X69142857Y51561481D02*
X69028572Y51618624D01*
X69028572Y51618624D02*
X68742857Y51618624D01*
X68742857Y51618624D02*
X68628572Y51561481D01*
X68628572Y51561481D02*
X68571429Y51504338D01*
X68571429Y51504338D02*
X68514286Y51390052D01*
X68514286Y51390052D02*
X68514286Y51275766D01*
X68514286Y51275766D02*
X68571429Y51104338D01*
X68571429Y51104338D02*
X69257143Y50418624D01*
X69257143Y50418624D02*
X68514286Y50418624D01*
X67314286Y50532909D02*
X67371429Y50475766D01*
X67371429Y50475766D02*
X67542857Y50418624D01*
X67542857Y50418624D02*
X67657143Y50418624D01*
X67657143Y50418624D02*
X67828572Y50475766D01*
X67828572Y50475766D02*
X67942857Y50590052D01*
X67942857Y50590052D02*
X68000000Y50704338D01*
X68000000Y50704338D02*
X68057143Y50932909D01*
X68057143Y50932909D02*
X68057143Y51104338D01*
X68057143Y51104338D02*
X68000000Y51332909D01*
X68000000Y51332909D02*
X67942857Y51447195D01*
X67942857Y51447195D02*
X67828572Y51561481D01*
X67828572Y51561481D02*
X67657143Y51618624D01*
X67657143Y51618624D02*
X67542857Y51618624D01*
X67542857Y51618624D02*
X67371429Y51561481D01*
X67371429Y51561481D02*
X67314286Y51504338D01*
X66171429Y50418624D02*
X66857143Y50418624D01*
X66514286Y50418624D02*
X66514286Y51618624D01*
X66514286Y51618624D02*
X66628572Y51447195D01*
X66628572Y51447195D02*
X66742857Y51332909D01*
X66742857Y51332909D02*
X66857143Y51275766D01*
X64742857Y50418624D02*
X64742857Y51618624D01*
X64171428Y50418624D02*
X64171428Y51618624D01*
X64171428Y51618624D02*
X63885714Y51618624D01*
X63885714Y51618624D02*
X63714285Y51561481D01*
X63714285Y51561481D02*
X63600000Y51447195D01*
X63600000Y51447195D02*
X63542857Y51332909D01*
X63542857Y51332909D02*
X63485714Y51104338D01*
X63485714Y51104338D02*
X63485714Y50932909D01*
X63485714Y50932909D02*
X63542857Y50704338D01*
X63542857Y50704338D02*
X63600000Y50590052D01*
X63600000Y50590052D02*
X63714285Y50475766D01*
X63714285Y50475766D02*
X63885714Y50418624D01*
X63885714Y50418624D02*
X64171428Y50418624D01*
X62971428Y50532909D02*
X62914285Y50475766D01*
X62914285Y50475766D02*
X62971428Y50418624D01*
X62971428Y50418624D02*
X63028571Y50475766D01*
X63028571Y50475766D02*
X62971428Y50532909D01*
X62971428Y50532909D02*
X62971428Y50418624D01*
X62971428Y51161481D02*
X62914285Y51104338D01*
X62914285Y51104338D02*
X62971428Y51047195D01*
X62971428Y51047195D02*
X63028571Y51104338D01*
X63028571Y51104338D02*
X62971428Y51161481D01*
X62971428Y51161481D02*
X62971428Y51047195D01*
X61542856Y51504338D02*
X61485713Y51561481D01*
X61485713Y51561481D02*
X61371428Y51618624D01*
X61371428Y51618624D02*
X61085713Y51618624D01*
X61085713Y51618624D02*
X60971428Y51561481D01*
X60971428Y51561481D02*
X60914285Y51504338D01*
X60914285Y51504338D02*
X60857142Y51390052D01*
X60857142Y51390052D02*
X60857142Y51275766D01*
X60857142Y51275766D02*
X60914285Y51104338D01*
X60914285Y51104338D02*
X61599999Y50418624D01*
X61599999Y50418624D02*
X60857142Y50418624D01*
X59828571Y51218624D02*
X59828571Y50418624D01*
X60114285Y51675766D02*
X60399999Y50818624D01*
X60399999Y50818624D02*
X59657142Y50818624D01*
X58628571Y50418624D02*
X59199999Y50418624D01*
X59199999Y50418624D02*
X59199999Y51618624D01*
X57542856Y50532909D02*
X57599999Y50475766D01*
X57599999Y50475766D02*
X57771427Y50418624D01*
X57771427Y50418624D02*
X57885713Y50418624D01*
X57885713Y50418624D02*
X58057142Y50475766D01*
X58057142Y50475766D02*
X58171427Y50590052D01*
X58171427Y50590052D02*
X58228570Y50704338D01*
X58228570Y50704338D02*
X58285713Y50932909D01*
X58285713Y50932909D02*
X58285713Y51104338D01*
X58285713Y51104338D02*
X58228570Y51332909D01*
X58228570Y51332909D02*
X58171427Y51447195D01*
X58171427Y51447195D02*
X58057142Y51561481D01*
X58057142Y51561481D02*
X57885713Y51618624D01*
X57885713Y51618624D02*
X57771427Y51618624D01*
X57771427Y51618624D02*
X57599999Y51561481D01*
X57599999Y51561481D02*
X57542856Y51504338D01*
X56799999Y51618624D02*
X56685713Y51618624D01*
X56685713Y51618624D02*
X56571427Y51561481D01*
X56571427Y51561481D02*
X56514285Y51504338D01*
X56514285Y51504338D02*
X56457142Y51390052D01*
X56457142Y51390052D02*
X56399999Y51161481D01*
X56399999Y51161481D02*
X56399999Y50875766D01*
X56399999Y50875766D02*
X56457142Y50647195D01*
X56457142Y50647195D02*
X56514285Y50532909D01*
X56514285Y50532909D02*
X56571427Y50475766D01*
X56571427Y50475766D02*
X56685713Y50418624D01*
X56685713Y50418624D02*
X56799999Y50418624D01*
X56799999Y50418624D02*
X56914285Y50475766D01*
X56914285Y50475766D02*
X56971427Y50532909D01*
X56971427Y50532909D02*
X57028570Y50647195D01*
X57028570Y50647195D02*
X57085713Y50875766D01*
X57085713Y50875766D02*
X57085713Y51161481D01*
X57085713Y51161481D02*
X57028570Y51390052D01*
X57028570Y51390052D02*
X56971427Y51504338D01*
X56971427Y51504338D02*
X56914285Y51561481D01*
X56914285Y51561481D02*
X56799999Y51618624D01*
X55942856Y51504338D02*
X55885713Y51561481D01*
X55885713Y51561481D02*
X55771428Y51618624D01*
X55771428Y51618624D02*
X55485713Y51618624D01*
X55485713Y51618624D02*
X55371428Y51561481D01*
X55371428Y51561481D02*
X55314285Y51504338D01*
X55314285Y51504338D02*
X55257142Y51390052D01*
X55257142Y51390052D02*
X55257142Y51275766D01*
X55257142Y51275766D02*
X55314285Y51104338D01*
X55314285Y51104338D02*
X55999999Y50418624D01*
X55999999Y50418624D02*
X55257142Y50418624D01*
X54342856Y51047195D02*
X54171428Y50990052D01*
X54171428Y50990052D02*
X54114285Y50932909D01*
X54114285Y50932909D02*
X54057142Y50818624D01*
X54057142Y50818624D02*
X54057142Y50647195D01*
X54057142Y50647195D02*
X54114285Y50532909D01*
X54114285Y50532909D02*
X54171428Y50475766D01*
X54171428Y50475766D02*
X54285713Y50418624D01*
X54285713Y50418624D02*
X54742856Y50418624D01*
X54742856Y50418624D02*
X54742856Y51618624D01*
X54742856Y51618624D02*
X54342856Y51618624D01*
X54342856Y51618624D02*
X54228571Y51561481D01*
X54228571Y51561481D02*
X54171428Y51504338D01*
X54171428Y51504338D02*
X54114285Y51390052D01*
X54114285Y51390052D02*
X54114285Y51275766D01*
X54114285Y51275766D02*
X54171428Y51161481D01*
X54171428Y51161481D02*
X54228571Y51104338D01*
X54228571Y51104338D02*
X54342856Y51047195D01*
X54342856Y51047195D02*
X54742856Y51047195D01*
X53714285Y51618624D02*
X53028571Y51618624D01*
X53371428Y50418624D02*
X53371428Y51618624D01*
X80599999Y49629548D02*
X80714285Y49686691D01*
X80714285Y49686691D02*
X80885713Y49686691D01*
X80885713Y49686691D02*
X81057142Y49629548D01*
X81057142Y49629548D02*
X81171427Y49515262D01*
X81171427Y49515262D02*
X81228570Y49400976D01*
X81228570Y49400976D02*
X81285713Y49172405D01*
X81285713Y49172405D02*
X81285713Y49000976D01*
X81285713Y49000976D02*
X81228570Y48772405D01*
X81228570Y48772405D02*
X81171427Y48658119D01*
X81171427Y48658119D02*
X81057142Y48543833D01*
X81057142Y48543833D02*
X80885713Y48486691D01*
X80885713Y48486691D02*
X80771427Y48486691D01*
X80771427Y48486691D02*
X80599999Y48543833D01*
X80599999Y48543833D02*
X80542856Y48600976D01*
X80542856Y48600976D02*
X80542856Y49000976D01*
X80542856Y49000976D02*
X80771427Y49000976D01*
X80028570Y48486691D02*
X80028570Y49686691D01*
X80028570Y49686691D02*
X79571427Y49686691D01*
X79571427Y49686691D02*
X79457142Y49629548D01*
X79457142Y49629548D02*
X79399999Y49572405D01*
X79399999Y49572405D02*
X79342856Y49458119D01*
X79342856Y49458119D02*
X79342856Y49286691D01*
X79342856Y49286691D02*
X79399999Y49172405D01*
X79399999Y49172405D02*
X79457142Y49115262D01*
X79457142Y49115262D02*
X79571427Y49058119D01*
X79571427Y49058119D02*
X80028570Y49058119D01*
X78828570Y48486691D02*
X78828570Y49686691D01*
X78028570Y49686691D02*
X77799998Y49686691D01*
X77799998Y49686691D02*
X77685713Y49629548D01*
X77685713Y49629548D02*
X77571427Y49515262D01*
X77571427Y49515262D02*
X77514284Y49286691D01*
X77514284Y49286691D02*
X77514284Y48886691D01*
X77514284Y48886691D02*
X77571427Y48658119D01*
X77571427Y48658119D02*
X77685713Y48543833D01*
X77685713Y48543833D02*
X77799998Y48486691D01*
X77799998Y48486691D02*
X78028570Y48486691D01*
X78028570Y48486691D02*
X78142856Y48543833D01*
X78142856Y48543833D02*
X78257141Y48658119D01*
X78257141Y48658119D02*
X78314284Y48886691D01*
X78314284Y48886691D02*
X78314284Y49286691D01*
X78314284Y49286691D02*
X78257141Y49515262D01*
X78257141Y49515262D02*
X78142856Y49629548D01*
X78142856Y49629548D02*
X78028570Y49686691D01*
X75742855Y49686691D02*
X75742855Y48829548D01*
X75742855Y48829548D02*
X75799998Y48658119D01*
X75799998Y48658119D02*
X75914284Y48543833D01*
X75914284Y48543833D02*
X76085712Y48486691D01*
X76085712Y48486691D02*
X76199998Y48486691D01*
X74942855Y49686691D02*
X74714283Y49686691D01*
X74714283Y49686691D02*
X74599998Y49629548D01*
X74599998Y49629548D02*
X74485712Y49515262D01*
X74485712Y49515262D02*
X74428569Y49286691D01*
X74428569Y49286691D02*
X74428569Y48886691D01*
X74428569Y48886691D02*
X74485712Y48658119D01*
X74485712Y48658119D02*
X74599998Y48543833D01*
X74599998Y48543833D02*
X74714283Y48486691D01*
X74714283Y48486691D02*
X74942855Y48486691D01*
X74942855Y48486691D02*
X75057141Y48543833D01*
X75057141Y48543833D02*
X75171426Y48658119D01*
X75171426Y48658119D02*
X75228569Y48886691D01*
X75228569Y48886691D02*
X75228569Y49286691D01*
X75228569Y49286691D02*
X75171426Y49515262D01*
X75171426Y49515262D02*
X75057141Y49629548D01*
X75057141Y49629548D02*
X74942855Y49686691D01*
X73914283Y48486691D02*
X73914283Y49686691D01*
X73342854Y48486691D02*
X73342854Y49686691D01*
X73342854Y49686691D02*
X72657140Y48486691D01*
X72657140Y48486691D02*
X72657140Y49686691D01*
X72085711Y49115262D02*
X71685711Y49115262D01*
X71514283Y48486691D02*
X72085711Y48486691D01*
X72085711Y48486691D02*
X72085711Y49686691D01*
X72085711Y49686691D02*
X71514283Y49686691D01*
X70314283Y48486691D02*
X70714283Y49058119D01*
X70999997Y48486691D02*
X70999997Y49686691D01*
X70999997Y49686691D02*
X70542854Y49686691D01*
X70542854Y49686691D02*
X70428569Y49629548D01*
X70428569Y49629548D02*
X70371426Y49572405D01*
X70371426Y49572405D02*
X70314283Y49458119D01*
X70314283Y49458119D02*
X70314283Y49286691D01*
X70314283Y49286691D02*
X70371426Y49172405D01*
X70371426Y49172405D02*
X70428569Y49115262D01*
X70428569Y49115262D02*
X70542854Y49058119D01*
X70542854Y49058119D02*
X70999997Y49058119D01*
X68199997Y48486691D02*
X68599997Y49058119D01*
X68885711Y48486691D02*
X68885711Y49686691D01*
X68885711Y49686691D02*
X68428568Y49686691D01*
X68428568Y49686691D02*
X68314283Y49629548D01*
X68314283Y49629548D02*
X68257140Y49572405D01*
X68257140Y49572405D02*
X68199997Y49458119D01*
X68199997Y49458119D02*
X68199997Y49286691D01*
X68199997Y49286691D02*
X68257140Y49172405D01*
X68257140Y49172405D02*
X68314283Y49115262D01*
X68314283Y49115262D02*
X68428568Y49058119D01*
X68428568Y49058119D02*
X68885711Y49058119D01*
X67685711Y49115262D02*
X67285711Y49115262D01*
X67114283Y48486691D02*
X67685711Y48486691D01*
X67685711Y48486691D02*
X67685711Y49686691D01*
X67685711Y49686691D02*
X67114283Y49686691D01*
X66771426Y49686691D02*
X66371426Y48486691D01*
X66371426Y48486691D02*
X65971426Y49686691D01*
X64714283Y48829548D02*
X64142855Y48829548D01*
X64828569Y48486691D02*
X64428569Y49686691D01*
X64428569Y49686691D02*
X64028569Y48486691D01*
X62714283Y48943833D02*
X61799998Y48943833D01*
X60371426Y49572405D02*
X60314283Y49629548D01*
X60314283Y49629548D02*
X60199998Y49686691D01*
X60199998Y49686691D02*
X59914283Y49686691D01*
X59914283Y49686691D02*
X59799998Y49629548D01*
X59799998Y49629548D02*
X59742855Y49572405D01*
X59742855Y49572405D02*
X59685712Y49458119D01*
X59685712Y49458119D02*
X59685712Y49343833D01*
X59685712Y49343833D02*
X59742855Y49172405D01*
X59742855Y49172405D02*
X60428569Y48486691D01*
X60428569Y48486691D02*
X59685712Y48486691D01*
X58942855Y49686691D02*
X58828569Y49686691D01*
X58828569Y49686691D02*
X58714283Y49629548D01*
X58714283Y49629548D02*
X58657141Y49572405D01*
X58657141Y49572405D02*
X58599998Y49458119D01*
X58599998Y49458119D02*
X58542855Y49229548D01*
X58542855Y49229548D02*
X58542855Y48943833D01*
X58542855Y48943833D02*
X58599998Y48715262D01*
X58599998Y48715262D02*
X58657141Y48600976D01*
X58657141Y48600976D02*
X58714283Y48543833D01*
X58714283Y48543833D02*
X58828569Y48486691D01*
X58828569Y48486691D02*
X58942855Y48486691D01*
X58942855Y48486691D02*
X59057141Y48543833D01*
X59057141Y48543833D02*
X59114283Y48600976D01*
X59114283Y48600976D02*
X59171426Y48715262D01*
X59171426Y48715262D02*
X59228569Y48943833D01*
X59228569Y48943833D02*
X59228569Y49229548D01*
X59228569Y49229548D02*
X59171426Y49458119D01*
X59171426Y49458119D02*
X59114283Y49572405D01*
X59114283Y49572405D02*
X59057141Y49629548D01*
X59057141Y49629548D02*
X58942855Y49686691D01*
X58085712Y49572405D02*
X58028569Y49629548D01*
X58028569Y49629548D02*
X57914284Y49686691D01*
X57914284Y49686691D02*
X57628569Y49686691D01*
X57628569Y49686691D02*
X57514284Y49629548D01*
X57514284Y49629548D02*
X57457141Y49572405D01*
X57457141Y49572405D02*
X57399998Y49458119D01*
X57399998Y49458119D02*
X57399998Y49343833D01*
X57399998Y49343833D02*
X57457141Y49172405D01*
X57457141Y49172405D02*
X58142855Y48486691D01*
X58142855Y48486691D02*
X57399998Y48486691D01*
X56371427Y49686691D02*
X56599998Y49686691D01*
X56599998Y49686691D02*
X56714284Y49629548D01*
X56714284Y49629548D02*
X56771427Y49572405D01*
X56771427Y49572405D02*
X56885712Y49400976D01*
X56885712Y49400976D02*
X56942855Y49172405D01*
X56942855Y49172405D02*
X56942855Y48715262D01*
X56942855Y48715262D02*
X56885712Y48600976D01*
X56885712Y48600976D02*
X56828569Y48543833D01*
X56828569Y48543833D02*
X56714284Y48486691D01*
X56714284Y48486691D02*
X56485712Y48486691D01*
X56485712Y48486691D02*
X56371427Y48543833D01*
X56371427Y48543833D02*
X56314284Y48600976D01*
X56314284Y48600976D02*
X56257141Y48715262D01*
X56257141Y48715262D02*
X56257141Y49000976D01*
X56257141Y49000976D02*
X56314284Y49115262D01*
X56314284Y49115262D02*
X56371427Y49172405D01*
X56371427Y49172405D02*
X56485712Y49229548D01*
X56485712Y49229548D02*
X56714284Y49229548D01*
X56714284Y49229548D02*
X56828569Y49172405D01*
X56828569Y49172405D02*
X56885712Y49115262D01*
X56885712Y49115262D02*
X56942855Y49000976D01*
X55742855Y48943833D02*
X54828570Y48943833D01*
X54028570Y49686691D02*
X53914284Y49686691D01*
X53914284Y49686691D02*
X53799998Y49629548D01*
X53799998Y49629548D02*
X53742856Y49572405D01*
X53742856Y49572405D02*
X53685713Y49458119D01*
X53685713Y49458119D02*
X53628570Y49229548D01*
X53628570Y49229548D02*
X53628570Y48943833D01*
X53628570Y48943833D02*
X53685713Y48715262D01*
X53685713Y48715262D02*
X53742856Y48600976D01*
X53742856Y48600976D02*
X53799998Y48543833D01*
X53799998Y48543833D02*
X53914284Y48486691D01*
X53914284Y48486691D02*
X54028570Y48486691D01*
X54028570Y48486691D02*
X54142856Y48543833D01*
X54142856Y48543833D02*
X54199998Y48600976D01*
X54199998Y48600976D02*
X54257141Y48715262D01*
X54257141Y48715262D02*
X54314284Y48943833D01*
X54314284Y48943833D02*
X54314284Y49229548D01*
X54314284Y49229548D02*
X54257141Y49458119D01*
X54257141Y49458119D02*
X54199998Y49572405D01*
X54199998Y49572405D02*
X54142856Y49629548D01*
X54142856Y49629548D02*
X54028570Y49686691D01*
X53057141Y48486691D02*
X52828570Y48486691D01*
X52828570Y48486691D02*
X52714284Y48543833D01*
X52714284Y48543833D02*
X52657141Y48600976D01*
X52657141Y48600976D02*
X52542856Y48772405D01*
X52542856Y48772405D02*
X52485713Y49000976D01*
X52485713Y49000976D02*
X52485713Y49458119D01*
X52485713Y49458119D02*
X52542856Y49572405D01*
X52542856Y49572405D02*
X52599999Y49629548D01*
X52599999Y49629548D02*
X52714284Y49686691D01*
X52714284Y49686691D02*
X52942856Y49686691D01*
X52942856Y49686691D02*
X53057141Y49629548D01*
X53057141Y49629548D02*
X53114284Y49572405D01*
X53114284Y49572405D02*
X53171427Y49458119D01*
X53171427Y49458119D02*
X53171427Y49172405D01*
X53171427Y49172405D02*
X53114284Y49058119D01*
X53114284Y49058119D02*
X53057141Y49000976D01*
X53057141Y49000976D02*
X52942856Y48943833D01*
X52942856Y48943833D02*
X52714284Y48943833D01*
X52714284Y48943833D02*
X52599999Y49000976D01*
X52599999Y49000976D02*
X52542856Y49058119D01*
X52542856Y49058119D02*
X52485713Y49172405D01*
X51971427Y48943833D02*
X51057142Y48943833D01*
X50257142Y49686691D02*
X50142856Y49686691D01*
X50142856Y49686691D02*
X50028570Y49629548D01*
X50028570Y49629548D02*
X49971428Y49572405D01*
X49971428Y49572405D02*
X49914285Y49458119D01*
X49914285Y49458119D02*
X49857142Y49229548D01*
X49857142Y49229548D02*
X49857142Y48943833D01*
X49857142Y48943833D02*
X49914285Y48715262D01*
X49914285Y48715262D02*
X49971428Y48600976D01*
X49971428Y48600976D02*
X50028570Y48543833D01*
X50028570Y48543833D02*
X50142856Y48486691D01*
X50142856Y48486691D02*
X50257142Y48486691D01*
X50257142Y48486691D02*
X50371428Y48543833D01*
X50371428Y48543833D02*
X50428570Y48600976D01*
X50428570Y48600976D02*
X50485713Y48715262D01*
X50485713Y48715262D02*
X50542856Y48943833D01*
X50542856Y48943833D02*
X50542856Y49229548D01*
X50542856Y49229548D02*
X50485713Y49458119D01*
X50485713Y49458119D02*
X50428570Y49572405D01*
X50428570Y49572405D02*
X50371428Y49629548D01*
X50371428Y49629548D02*
X50257142Y49686691D01*
X49171428Y49172405D02*
X49285713Y49229548D01*
X49285713Y49229548D02*
X49342856Y49286691D01*
X49342856Y49286691D02*
X49399999Y49400976D01*
X49399999Y49400976D02*
X49399999Y49458119D01*
X49399999Y49458119D02*
X49342856Y49572405D01*
X49342856Y49572405D02*
X49285713Y49629548D01*
X49285713Y49629548D02*
X49171428Y49686691D01*
X49171428Y49686691D02*
X48942856Y49686691D01*
X48942856Y49686691D02*
X48828571Y49629548D01*
X48828571Y49629548D02*
X48771428Y49572405D01*
X48771428Y49572405D02*
X48714285Y49458119D01*
X48714285Y49458119D02*
X48714285Y49400976D01*
X48714285Y49400976D02*
X48771428Y49286691D01*
X48771428Y49286691D02*
X48828571Y49229548D01*
X48828571Y49229548D02*
X48942856Y49172405D01*
X48942856Y49172405D02*
X49171428Y49172405D01*
X49171428Y49172405D02*
X49285713Y49115262D01*
X49285713Y49115262D02*
X49342856Y49058119D01*
X49342856Y49058119D02*
X49399999Y48943833D01*
X49399999Y48943833D02*
X49399999Y48715262D01*
X49399999Y48715262D02*
X49342856Y48600976D01*
X49342856Y48600976D02*
X49285713Y48543833D01*
X49285713Y48543833D02*
X49171428Y48486691D01*
X49171428Y48486691D02*
X48942856Y48486691D01*
X48942856Y48486691D02*
X48828571Y48543833D01*
X48828571Y48543833D02*
X48771428Y48600976D01*
X48771428Y48600976D02*
X48714285Y48715262D01*
X48714285Y48715262D02*
X48714285Y48943833D01*
X48714285Y48943833D02*
X48771428Y49058119D01*
X48771428Y49058119D02*
X48828571Y49115262D01*
X48828571Y49115262D02*
X48942856Y49172405D01*
D11*
X83300002Y74361694D02*
X83300002Y75761694D01*
X83300002Y75761694D02*
X82766669Y75761694D01*
X82766669Y75761694D02*
X82633336Y75695027D01*
X82633336Y75695027D02*
X82566669Y75628360D01*
X82566669Y75628360D02*
X82500002Y75495027D01*
X82500002Y75495027D02*
X82500002Y75295027D01*
X82500002Y75295027D02*
X82566669Y75161694D01*
X82566669Y75161694D02*
X82633336Y75095027D01*
X82633336Y75095027D02*
X82766669Y75028360D01*
X82766669Y75028360D02*
X83300002Y75028360D01*
X81966669Y74761694D02*
X81300002Y74761694D01*
X82100002Y74361694D02*
X81633336Y75761694D01*
X81633336Y75761694D02*
X81166669Y74361694D01*
X80700002Y74361694D02*
X80700002Y75761694D01*
X79233335Y74361694D02*
X79700002Y75028360D01*
X80033335Y74361694D02*
X80033335Y75761694D01*
X80033335Y75761694D02*
X79500002Y75761694D01*
X79500002Y75761694D02*
X79366669Y75695027D01*
X79366669Y75695027D02*
X79300002Y75628360D01*
X79300002Y75628360D02*
X79233335Y75495027D01*
X79233335Y75495027D02*
X79233335Y75295027D01*
X79233335Y75295027D02*
X79300002Y75161694D01*
X79300002Y75161694D02*
X79366669Y75095027D01*
X79366669Y75095027D02*
X79500002Y75028360D01*
X79500002Y75028360D02*
X80033335Y75028360D01*
X77300002Y75761694D02*
X77033335Y75761694D01*
X77033335Y75761694D02*
X76900002Y75695027D01*
X76900002Y75695027D02*
X76766668Y75561694D01*
X76766668Y75561694D02*
X76700002Y75295027D01*
X76700002Y75295027D02*
X76700002Y74828360D01*
X76700002Y74828360D02*
X76766668Y74561694D01*
X76766668Y74561694D02*
X76900002Y74428360D01*
X76900002Y74428360D02*
X77033335Y74361694D01*
X77033335Y74361694D02*
X77300002Y74361694D01*
X77300002Y74361694D02*
X77433335Y74428360D01*
X77433335Y74428360D02*
X77566668Y74561694D01*
X77566668Y74561694D02*
X77633335Y74828360D01*
X77633335Y74828360D02*
X77633335Y75295027D01*
X77633335Y75295027D02*
X77566668Y75561694D01*
X77566668Y75561694D02*
X77433335Y75695027D01*
X77433335Y75695027D02*
X77300002Y75761694D01*
X76100001Y74361694D02*
X76100001Y75761694D01*
X76100001Y75761694D02*
X75300001Y74361694D01*
X75300001Y74361694D02*
X75300001Y75761694D01*
X74633334Y75095027D02*
X74166668Y75095027D01*
X73966668Y74361694D02*
X74633334Y74361694D01*
X74633334Y74361694D02*
X74633334Y75761694D01*
X74633334Y75761694D02*
X73966668Y75761694D01*
X72366667Y74428360D02*
X72166667Y74361694D01*
X72166667Y74361694D02*
X71833334Y74361694D01*
X71833334Y74361694D02*
X71700000Y74428360D01*
X71700000Y74428360D02*
X71633334Y74495027D01*
X71633334Y74495027D02*
X71566667Y74628360D01*
X71566667Y74628360D02*
X71566667Y74761694D01*
X71566667Y74761694D02*
X71633334Y74895027D01*
X71633334Y74895027D02*
X71700000Y74961694D01*
X71700000Y74961694D02*
X71833334Y75028360D01*
X71833334Y75028360D02*
X72100000Y75095027D01*
X72100000Y75095027D02*
X72233334Y75161694D01*
X72233334Y75161694D02*
X72300000Y75228360D01*
X72300000Y75228360D02*
X72366667Y75361694D01*
X72366667Y75361694D02*
X72366667Y75495027D01*
X72366667Y75495027D02*
X72300000Y75628360D01*
X72300000Y75628360D02*
X72233334Y75695027D01*
X72233334Y75695027D02*
X72100000Y75761694D01*
X72100000Y75761694D02*
X71766667Y75761694D01*
X71766667Y75761694D02*
X71566667Y75695027D01*
X70966667Y74361694D02*
X70966667Y75761694D01*
X70300000Y74361694D02*
X70300000Y75761694D01*
X70300000Y75761694D02*
X69966667Y75761694D01*
X69966667Y75761694D02*
X69766667Y75695027D01*
X69766667Y75695027D02*
X69633334Y75561694D01*
X69633334Y75561694D02*
X69566667Y75428360D01*
X69566667Y75428360D02*
X69500000Y75161694D01*
X69500000Y75161694D02*
X69500000Y74961694D01*
X69500000Y74961694D02*
X69566667Y74695027D01*
X69566667Y74695027D02*
X69633334Y74561694D01*
X69633334Y74561694D02*
X69766667Y74428360D01*
X69766667Y74428360D02*
X69966667Y74361694D01*
X69966667Y74361694D02*
X70300000Y74361694D01*
X68900000Y75095027D02*
X68433334Y75095027D01*
X68233334Y74361694D02*
X68900000Y74361694D01*
X68900000Y74361694D02*
X68900000Y75761694D01*
X68900000Y75761694D02*
X68233334Y75761694D01*
X66633333Y74761694D02*
X65966666Y74761694D01*
X66766666Y74361694D02*
X66300000Y75761694D01*
X66300000Y75761694D02*
X65833333Y74361694D01*
X64433333Y75761694D02*
X64099999Y74361694D01*
X64099999Y74361694D02*
X63833333Y75361694D01*
X63833333Y75361694D02*
X63566666Y74361694D01*
X63566666Y74361694D02*
X63233333Y75761694D01*
X62699999Y74361694D02*
X62699999Y75761694D01*
X62233332Y75761694D02*
X61433332Y75761694D01*
X61833332Y74361694D02*
X61833332Y75761694D01*
X60966665Y74361694D02*
X60966665Y75761694D01*
X60966665Y75095027D02*
X60166665Y75095027D01*
X60166665Y74361694D02*
X60166665Y75761694D01*
X58166665Y75761694D02*
X57899998Y75761694D01*
X57899998Y75761694D02*
X57766665Y75695027D01*
X57766665Y75695027D02*
X57633331Y75561694D01*
X57633331Y75561694D02*
X57566665Y75295027D01*
X57566665Y75295027D02*
X57566665Y74828360D01*
X57566665Y74828360D02*
X57633331Y74561694D01*
X57633331Y74561694D02*
X57766665Y74428360D01*
X57766665Y74428360D02*
X57899998Y74361694D01*
X57899998Y74361694D02*
X58166665Y74361694D01*
X58166665Y74361694D02*
X58299998Y74428360D01*
X58299998Y74428360D02*
X58433331Y74561694D01*
X58433331Y74561694D02*
X58499998Y74828360D01*
X58499998Y74828360D02*
X58499998Y75295027D01*
X58499998Y75295027D02*
X58433331Y75561694D01*
X58433331Y75561694D02*
X58299998Y75695027D01*
X58299998Y75695027D02*
X58166665Y75761694D01*
X56966664Y74361694D02*
X56966664Y75761694D01*
X56966664Y75761694D02*
X56166664Y74361694D01*
X56166664Y74361694D02*
X56166664Y75761694D01*
X55499997Y75095027D02*
X55033331Y75095027D01*
X54833331Y74361694D02*
X55499997Y74361694D01*
X55499997Y74361694D02*
X55499997Y75761694D01*
X55499997Y75761694D02*
X54833331Y75761694D01*
X53233330Y74428360D02*
X53033330Y74361694D01*
X53033330Y74361694D02*
X52699997Y74361694D01*
X52699997Y74361694D02*
X52566663Y74428360D01*
X52566663Y74428360D02*
X52499997Y74495027D01*
X52499997Y74495027D02*
X52433330Y74628360D01*
X52433330Y74628360D02*
X52433330Y74761694D01*
X52433330Y74761694D02*
X52499997Y74895027D01*
X52499997Y74895027D02*
X52566663Y74961694D01*
X52566663Y74961694D02*
X52699997Y75028360D01*
X52699997Y75028360D02*
X52966663Y75095027D01*
X52966663Y75095027D02*
X53099997Y75161694D01*
X53099997Y75161694D02*
X53166663Y75228360D01*
X53166663Y75228360D02*
X53233330Y75361694D01*
X53233330Y75361694D02*
X53233330Y75495027D01*
X53233330Y75495027D02*
X53166663Y75628360D01*
X53166663Y75628360D02*
X53099997Y75695027D01*
X53099997Y75695027D02*
X52966663Y75761694D01*
X52966663Y75761694D02*
X52633330Y75761694D01*
X52633330Y75761694D02*
X52433330Y75695027D01*
X51833330Y74361694D02*
X51833330Y75761694D01*
X51166663Y74361694D02*
X51166663Y75761694D01*
X51166663Y75761694D02*
X50833330Y75761694D01*
X50833330Y75761694D02*
X50633330Y75695027D01*
X50633330Y75695027D02*
X50499997Y75561694D01*
X50499997Y75561694D02*
X50433330Y75428360D01*
X50433330Y75428360D02*
X50366663Y75161694D01*
X50366663Y75161694D02*
X50366663Y74961694D01*
X50366663Y74961694D02*
X50433330Y74695027D01*
X50433330Y74695027D02*
X50499997Y74561694D01*
X50499997Y74561694D02*
X50633330Y74428360D01*
X50633330Y74428360D02*
X50833330Y74361694D01*
X50833330Y74361694D02*
X51166663Y74361694D01*
X49766663Y75095027D02*
X49299997Y75095027D01*
X49099997Y74361694D02*
X49766663Y74361694D01*
X49766663Y74361694D02*
X49766663Y75761694D01*
X49766663Y75761694D02*
X49099997Y75761694D01*
X46966663Y75095027D02*
X46766663Y75028360D01*
X46766663Y75028360D02*
X46699996Y74961694D01*
X46699996Y74961694D02*
X46633329Y74828360D01*
X46633329Y74828360D02*
X46633329Y74628360D01*
X46633329Y74628360D02*
X46699996Y74495027D01*
X46699996Y74495027D02*
X46766663Y74428360D01*
X46766663Y74428360D02*
X46899996Y74361694D01*
X46899996Y74361694D02*
X47433329Y74361694D01*
X47433329Y74361694D02*
X47433329Y75761694D01*
X47433329Y75761694D02*
X46966663Y75761694D01*
X46966663Y75761694D02*
X46833329Y75695027D01*
X46833329Y75695027D02*
X46766663Y75628360D01*
X46766663Y75628360D02*
X46699996Y75495027D01*
X46699996Y75495027D02*
X46699996Y75361694D01*
X46699996Y75361694D02*
X46766663Y75228360D01*
X46766663Y75228360D02*
X46833329Y75161694D01*
X46833329Y75161694D02*
X46966663Y75095027D01*
X46966663Y75095027D02*
X47433329Y75095027D01*
%LPC*%
D12*
X33000000Y97000000D03*
G36*
G01*
X61800000Y67550000D02*
X61800000Y68450000D01*
G75*
G02*
X62050000Y68700000I250000J0D01*
G01*
X62950000Y68700000D01*
G75*
G02*
X63200000Y68450000I0J-250000D01*
G01*
X63200000Y67550000D01*
G75*
G02*
X62950000Y67300000I-250000J0D01*
G01*
X62050000Y67300000D01*
G75*
G02*
X61800000Y67550000I0J250000D01*
G01*
G37*
D13*
X65000000Y68000000D03*
X67500000Y68000000D03*
X62500000Y64700000D03*
X65000000Y64700000D03*
X67500000Y64700000D03*
D14*
X128270000Y86620000D03*
X125730000Y86620000D03*
X128270000Y84080000D03*
X125730000Y84080000D03*
X128270000Y81540000D03*
X125730000Y81540000D03*
X128270000Y79000000D03*
X125730000Y79000000D03*
X128270000Y76460000D03*
X125730000Y76460000D03*
X128270000Y66250000D03*
X125730000Y66250000D03*
X128270000Y63710000D03*
X125730000Y63710000D03*
X128270000Y61170000D03*
X125730000Y61170000D03*
X128270000Y58630000D03*
X125730000Y58630000D03*
X128270000Y56090000D03*
X125730000Y56090000D03*
X128270000Y53550000D03*
X125730000Y53550000D03*
X128270000Y51010000D03*
X125730000Y51010000D03*
X128270000Y48470000D03*
X125730000Y48470000D03*
X128270000Y45930000D03*
X125730000Y45930000D03*
X128270000Y43390000D03*
X125730000Y43390000D03*
X1730000Y63750000D03*
X4270000Y63750000D03*
X1730000Y66290000D03*
X4270000Y66290000D03*
X1730000Y68830000D03*
X4270000Y68830000D03*
X1730000Y71370000D03*
X4270000Y71370000D03*
X1730000Y73910000D03*
X4270000Y73910000D03*
X1730000Y76450000D03*
X4270000Y76450000D03*
X1730000Y78990000D03*
X4270000Y78990000D03*
X1730000Y81530000D03*
X4270000Y81530000D03*
X1730000Y84070000D03*
X4270000Y84070000D03*
X1730000Y86610000D03*
X4270000Y86610000D03*
X1730000Y43380000D03*
X4270000Y43380000D03*
X1730000Y45920000D03*
X4270000Y45920000D03*
X1730000Y48460000D03*
X4270000Y48460000D03*
X1730000Y51000000D03*
X4270000Y51000000D03*
X1730000Y53540000D03*
X4270000Y53540000D03*
D12*
X97000000Y97000000D03*
D14*
X53570000Y128270000D03*
X53570000Y125730000D03*
X56110000Y128270000D03*
X56110000Y125730000D03*
X58650000Y128270000D03*
X58650000Y125730000D03*
X61190000Y128270000D03*
X61190000Y125730000D03*
X63730000Y128270000D03*
X63730000Y125730000D03*
X66270000Y128270000D03*
X66270000Y125730000D03*
X68810000Y128270000D03*
X68810000Y125730000D03*
X71350000Y128270000D03*
X71350000Y125730000D03*
X73890000Y128270000D03*
X73890000Y125730000D03*
X76430000Y128270000D03*
X76430000Y125730000D03*
D12*
X33000000Y33000000D03*
D14*
X76430000Y1730000D03*
X76430000Y4270000D03*
X73890000Y1730000D03*
X73890000Y4270000D03*
X71350000Y1730000D03*
X71350000Y4270000D03*
X68810000Y1730000D03*
X68810000Y4270000D03*
X66270000Y1730000D03*
X66270000Y4270000D03*
X63730000Y1730000D03*
X63730000Y4270000D03*
X61190000Y1730000D03*
X61190000Y4270000D03*
X58650000Y1730000D03*
X58650000Y4270000D03*
X56110000Y1730000D03*
X56110000Y4270000D03*
X53570000Y1730000D03*
X53570000Y4270000D03*
D12*
X97000000Y33000000D03*
%LPD*%
M02*
