G04 #@! TF.GenerationSoftware,KiCad,Pcbnew,10.0.6*
G04 #@! TF.CreationDate,2026-09-08T19:23:15-04:00*
G04 #@! TF.ProjectId,gpiojoiner,6770696f-6a6f-4696-9e65-722e6b696361,rev?*
G04 #@! TF.SameCoordinates,Original*
G04 #@! TF.FileFunction,Soldermask,Top*
G04 #@! TF.FilePolarity,Negative*
%FSLAX46Y46*%
G04 Gerber Fmt 4.6, Leading zero omitted, Abs format (unit mm)*
G04 Created by KiCad (PCBNEW 10.0.6) date 2026-09-08 19:23:15*
%MOMM*%
%LPD*%
G01*
G04 APERTURE LIST*
%ADD10C,3.200000*%
%ADD11C,1.400000*%
%ADD12C,2.032000*%
%ADD13C,1.500000*%
G04 APERTURE END LIST*
G36*
G01*
X12275000Y82775000D02*
X11725000Y82775000D01*
G75*
G02*
X11525000Y82975000I0J200000D01*
G01*
X11525000Y83375000D01*
G75*
G02*
X11725000Y83575000I200000J0D01*
G01*
X12275000Y83575000D01*
G75*
G02*
X12475000Y83375000I0J-200000D01*
G01*
X12475000Y82975000D01*
G75*
G02*
X12275000Y82775000I-200000J0D01*
G01*
G37*
G36*
G01*
X12275000Y84425000D02*
X11725000Y84425000D01*
G75*
G02*
X11525000Y84625000I0J200000D01*
G01*
X11525000Y85025000D01*
G75*
G02*
X11725000Y85225000I200000J0D01*
G01*
X12275000Y85225000D01*
G75*
G02*
X12475000Y85025000I0J-200000D01*
G01*
X12475000Y84625000D01*
G75*
G02*
X12275000Y84425000I-200000J0D01*
G01*
G37*
G36*
G01*
X64200000Y51800000D02*
X64200000Y52100000D01*
G75*
G02*
X64350000Y52250000I150000J0D01*
G01*
X65375000Y52250000D01*
G75*
G02*
X65525000Y52100000I0J-150000D01*
G01*
X65525000Y51800000D01*
G75*
G02*
X65375000Y51650000I-150000J0D01*
G01*
X64350000Y51650000D01*
G75*
G02*
X64200000Y51800000I0J150000D01*
G01*
G37*
G36*
G01*
X64200000Y50850000D02*
X64200000Y51150000D01*
G75*
G02*
X64350000Y51300000I150000J0D01*
G01*
X65375000Y51300000D01*
G75*
G02*
X65525000Y51150000I0J-150000D01*
G01*
X65525000Y50850000D01*
G75*
G02*
X65375000Y50700000I-150000J0D01*
G01*
X64350000Y50700000D01*
G75*
G02*
X64200000Y50850000I0J150000D01*
G01*
G37*
G36*
G01*
X64200000Y49900000D02*
X64200000Y50200000D01*
G75*
G02*
X64350000Y50350000I150000J0D01*
G01*
X65375000Y50350000D01*
G75*
G02*
X65525000Y50200000I0J-150000D01*
G01*
X65525000Y49900000D01*
G75*
G02*
X65375000Y49750000I-150000J0D01*
G01*
X64350000Y49750000D01*
G75*
G02*
X64200000Y49900000I0J150000D01*
G01*
G37*
G36*
G01*
X66475000Y49900000D02*
X66475000Y50200000D01*
G75*
G02*
X66625000Y50350000I150000J0D01*
G01*
X67650000Y50350000D01*
G75*
G02*
X67800000Y50200000I0J-150000D01*
G01*
X67800000Y49900000D01*
G75*
G02*
X67650000Y49750000I-150000J0D01*
G01*
X66625000Y49750000D01*
G75*
G02*
X66475000Y49900000I0J150000D01*
G01*
G37*
G36*
G01*
X66475000Y51800000D02*
X66475000Y52100000D01*
G75*
G02*
X66625000Y52250000I150000J0D01*
G01*
X67650000Y52250000D01*
G75*
G02*
X67800000Y52100000I0J-150000D01*
G01*
X67800000Y51800000D01*
G75*
G02*
X67650000Y51650000I-150000J0D01*
G01*
X66625000Y51650000D01*
G75*
G02*
X66475000Y51800000I0J150000D01*
G01*
G37*
D10*
X33000000Y97000000D03*
G36*
G01*
X61800000Y67550000D02*
X61800000Y68450000D01*
G75*
G02*
X62050000Y68700000I250000J0D01*
G01*
X62950000Y68700000D01*
G75*
G02*
X63200000Y68450000I0J-250000D01*
G01*
X63200000Y67550000D01*
G75*
G02*
X62950000Y67300000I-250000J0D01*
G01*
X62050000Y67300000D01*
G75*
G02*
X61800000Y67550000I0J250000D01*
G01*
G37*
D11*
X65000000Y68000000D03*
X67500000Y68000000D03*
X62500000Y64700000D03*
X65000000Y64700000D03*
X67500000Y64700000D03*
D12*
X128270000Y86620000D03*
X125730000Y86620000D03*
X128270000Y84080000D03*
X125730000Y84080000D03*
X128270000Y81540000D03*
X125730000Y81540000D03*
X128270000Y79000000D03*
X125730000Y79000000D03*
X128270000Y76460000D03*
X125730000Y76460000D03*
G36*
G01*
X118275000Y77775000D02*
X117725000Y77775000D01*
G75*
G02*
X117525000Y77975000I0J200000D01*
G01*
X117525000Y78375000D01*
G75*
G02*
X117725000Y78575000I200000J0D01*
G01*
X118275000Y78575000D01*
G75*
G02*
X118475000Y78375000I0J-200000D01*
G01*
X118475000Y77975000D01*
G75*
G02*
X118275000Y77775000I-200000J0D01*
G01*
G37*
G36*
G01*
X118275000Y79425000D02*
X117725000Y79425000D01*
G75*
G02*
X117525000Y79625000I0J200000D01*
G01*
X117525000Y80025000D01*
G75*
G02*
X117725000Y80225000I200000J0D01*
G01*
X118275000Y80225000D01*
G75*
G02*
X118475000Y80025000I0J-200000D01*
G01*
X118475000Y79625000D01*
G75*
G02*
X118275000Y79425000I-200000J0D01*
G01*
G37*
G36*
G01*
X16225000Y51275000D02*
X16225000Y50725000D01*
G75*
G02*
X16025000Y50525000I-200000J0D01*
G01*
X15625000Y50525000D01*
G75*
G02*
X15425000Y50725000I0J200000D01*
G01*
X15425000Y51275000D01*
G75*
G02*
X15625000Y51475000I200000J0D01*
G01*
X16025000Y51475000D01*
G75*
G02*
X16225000Y51275000I0J-200000D01*
G01*
G37*
G36*
G01*
X14575000Y51275000D02*
X14575000Y50725000D01*
G75*
G02*
X14375000Y50525000I-200000J0D01*
G01*
X13975000Y50525000D01*
G75*
G02*
X13775000Y50725000I0J200000D01*
G01*
X13775000Y51275000D01*
G75*
G02*
X13975000Y51475000I200000J0D01*
G01*
X14375000Y51475000D01*
G75*
G02*
X14575000Y51275000I0J-200000D01*
G01*
G37*
D13*
X117000000Y92000000D03*
G36*
G01*
X11275000Y49775000D02*
X10725000Y49775000D01*
G75*
G02*
X10525000Y49975000I0J200000D01*
G01*
X10525000Y50375000D01*
G75*
G02*
X10725000Y50575000I200000J0D01*
G01*
X11275000Y50575000D01*
G75*
G02*
X11475000Y50375000I0J-200000D01*
G01*
X11475000Y49975000D01*
G75*
G02*
X11275000Y49775000I-200000J0D01*
G01*
G37*
G36*
G01*
X11275000Y51425000D02*
X10725000Y51425000D01*
G75*
G02*
X10525000Y51625000I0J200000D01*
G01*
X10525000Y52025000D01*
G75*
G02*
X10725000Y52225000I200000J0D01*
G01*
X11275000Y52225000D01*
G75*
G02*
X11475000Y52025000I0J-200000D01*
G01*
X11475000Y51625000D01*
G75*
G02*
X11275000Y51425000I-200000J0D01*
G01*
G37*
G36*
G01*
X66275000Y39775000D02*
X65725000Y39775000D01*
G75*
G02*
X65525000Y39975000I0J200000D01*
G01*
X65525000Y40375000D01*
G75*
G02*
X65725000Y40575000I200000J0D01*
G01*
X66275000Y40575000D01*
G75*
G02*
X66475000Y40375000I0J-200000D01*
G01*
X66475000Y39975000D01*
G75*
G02*
X66275000Y39775000I-200000J0D01*
G01*
G37*
G36*
G01*
X66275000Y41425000D02*
X65725000Y41425000D01*
G75*
G02*
X65525000Y41625000I0J200000D01*
G01*
X65525000Y42025000D01*
G75*
G02*
X65725000Y42225000I200000J0D01*
G01*
X66275000Y42225000D01*
G75*
G02*
X66475000Y42025000I0J-200000D01*
G01*
X66475000Y41625000D01*
G75*
G02*
X66275000Y41425000I-200000J0D01*
G01*
G37*
G36*
G01*
X57325000Y51800000D02*
X57325000Y52100000D01*
G75*
G02*
X57475000Y52250000I150000J0D01*
G01*
X58650000Y52250000D01*
G75*
G02*
X58800000Y52100000I0J-150000D01*
G01*
X58800000Y51800000D01*
G75*
G02*
X58650000Y51650000I-150000J0D01*
G01*
X57475000Y51650000D01*
G75*
G02*
X57325000Y51800000I0J150000D01*
G01*
G37*
G36*
G01*
X57325000Y49900000D02*
X57325000Y50200000D01*
G75*
G02*
X57475000Y50350000I150000J0D01*
G01*
X58650000Y50350000D01*
G75*
G02*
X58800000Y50200000I0J-150000D01*
G01*
X58800000Y49900000D01*
G75*
G02*
X58650000Y49750000I-150000J0D01*
G01*
X57475000Y49750000D01*
G75*
G02*
X57325000Y49900000I0J150000D01*
G01*
G37*
G36*
G01*
X59200000Y50850000D02*
X59200000Y51150000D01*
G75*
G02*
X59350000Y51300000I150000J0D01*
G01*
X60525000Y51300000D01*
G75*
G02*
X60675000Y51150000I0J-150000D01*
G01*
X60675000Y50850000D01*
G75*
G02*
X60525000Y50700000I-150000J0D01*
G01*
X59350000Y50700000D01*
G75*
G02*
X59200000Y50850000I0J150000D01*
G01*
G37*
D12*
X128270000Y66250000D03*
X125730000Y66250000D03*
X128270000Y63710000D03*
X125730000Y63710000D03*
X128270000Y61170000D03*
X125730000Y61170000D03*
X128270000Y58630000D03*
X125730000Y58630000D03*
X128270000Y56090000D03*
X125730000Y56090000D03*
X128270000Y53550000D03*
X125730000Y53550000D03*
X128270000Y51010000D03*
X125730000Y51010000D03*
X128270000Y48470000D03*
X125730000Y48470000D03*
X128270000Y45930000D03*
X125730000Y45930000D03*
X128270000Y43390000D03*
X125730000Y43390000D03*
D13*
X56000000Y43000000D03*
D12*
X1730000Y63750000D03*
X4270000Y63750000D03*
X1730000Y66290000D03*
X4270000Y66290000D03*
X1730000Y68830000D03*
X4270000Y68830000D03*
X1730000Y71370000D03*
X4270000Y71370000D03*
X1730000Y73910000D03*
X4270000Y73910000D03*
X1730000Y76450000D03*
X4270000Y76450000D03*
X1730000Y78990000D03*
X4270000Y78990000D03*
X1730000Y81530000D03*
X4270000Y81530000D03*
X1730000Y84070000D03*
X4270000Y84070000D03*
X1730000Y86610000D03*
X4270000Y86610000D03*
G36*
G01*
X61275000Y39775000D02*
X60725000Y39775000D01*
G75*
G02*
X60525000Y39975000I0J200000D01*
G01*
X60525000Y40375000D01*
G75*
G02*
X60725000Y40575000I200000J0D01*
G01*
X61275000Y40575000D01*
G75*
G02*
X61475000Y40375000I0J-200000D01*
G01*
X61475000Y39975000D01*
G75*
G02*
X61275000Y39775000I-200000J0D01*
G01*
G37*
G36*
G01*
X61275000Y41425000D02*
X60725000Y41425000D01*
G75*
G02*
X60525000Y41625000I0J200000D01*
G01*
X60525000Y42025000D01*
G75*
G02*
X60725000Y42225000I200000J0D01*
G01*
X61275000Y42225000D01*
G75*
G02*
X61475000Y42025000I0J-200000D01*
G01*
X61475000Y41625000D01*
G75*
G02*
X61275000Y41425000I-200000J0D01*
G01*
G37*
D13*
X36000000Y65000000D03*
G36*
G01*
X112775000Y78725000D02*
X112775000Y79275000D01*
G75*
G02*
X112975000Y79475000I200000J0D01*
G01*
X113375000Y79475000D01*
G75*
G02*
X113575000Y79275000I0J-200000D01*
G01*
X113575000Y78725000D01*
G75*
G02*
X113375000Y78525000I-200000J0D01*
G01*
X112975000Y78525000D01*
G75*
G02*
X112775000Y78725000I0J200000D01*
G01*
G37*
G36*
G01*
X114425000Y78725000D02*
X114425000Y79275000D01*
G75*
G02*
X114625000Y79475000I200000J0D01*
G01*
X115025000Y79475000D01*
G75*
G02*
X115225000Y79275000I0J-200000D01*
G01*
X115225000Y78725000D01*
G75*
G02*
X115025000Y78525000I-200000J0D01*
G01*
X114625000Y78525000D01*
G75*
G02*
X114425000Y78725000I0J200000D01*
G01*
G37*
X94000000Y65000000D03*
D12*
X1730000Y43380000D03*
X4270000Y43380000D03*
X1730000Y45920000D03*
X4270000Y45920000D03*
X1730000Y48460000D03*
X4270000Y48460000D03*
X1730000Y51000000D03*
X4270000Y51000000D03*
X1730000Y53540000D03*
X4270000Y53540000D03*
G36*
G01*
X118275000Y44775000D02*
X117725000Y44775000D01*
G75*
G02*
X117525000Y44975000I0J200000D01*
G01*
X117525000Y45375000D01*
G75*
G02*
X117725000Y45575000I200000J0D01*
G01*
X118275000Y45575000D01*
G75*
G02*
X118475000Y45375000I0J-200000D01*
G01*
X118475000Y44975000D01*
G75*
G02*
X118275000Y44775000I-200000J0D01*
G01*
G37*
G36*
G01*
X118275000Y46425000D02*
X117725000Y46425000D01*
G75*
G02*
X117525000Y46625000I0J200000D01*
G01*
X117525000Y47025000D01*
G75*
G02*
X117725000Y47225000I200000J0D01*
G01*
X118275000Y47225000D01*
G75*
G02*
X118475000Y47025000I0J-200000D01*
G01*
X118475000Y46625000D01*
G75*
G02*
X118275000Y46425000I-200000J0D01*
G01*
G37*
D10*
X97000000Y97000000D03*
D12*
X53570000Y128270000D03*
X53570000Y125730000D03*
X56110000Y128270000D03*
X56110000Y125730000D03*
X58650000Y128270000D03*
X58650000Y125730000D03*
X61190000Y128270000D03*
X61190000Y125730000D03*
X63730000Y128270000D03*
X63730000Y125730000D03*
X66270000Y128270000D03*
X66270000Y125730000D03*
X68810000Y128270000D03*
X68810000Y125730000D03*
X71350000Y128270000D03*
X71350000Y125730000D03*
X73890000Y128270000D03*
X73890000Y125730000D03*
X76430000Y128270000D03*
X76430000Y125730000D03*
D10*
X33000000Y33000000D03*
D13*
X72000000Y43000000D03*
D12*
X76430000Y1730000D03*
X76430000Y4270000D03*
X73890000Y1730000D03*
X73890000Y4270000D03*
X71350000Y1730000D03*
X71350000Y4270000D03*
X68810000Y1730000D03*
X68810000Y4270000D03*
X66270000Y1730000D03*
X66270000Y4270000D03*
X63730000Y1730000D03*
X63730000Y4270000D03*
X61190000Y1730000D03*
X61190000Y4270000D03*
X58650000Y1730000D03*
X58650000Y4270000D03*
X56110000Y1730000D03*
X56110000Y4270000D03*
X53570000Y1730000D03*
X53570000Y4270000D03*
G36*
G01*
X70250000Y49775000D02*
X69750000Y49775000D01*
G75*
G02*
X69525000Y50000000I0J225000D01*
G01*
X69525000Y50450000D01*
G75*
G02*
X69750000Y50675000I225000J0D01*
G01*
X70250000Y50675000D01*
G75*
G02*
X70475000Y50450000I0J-225000D01*
G01*
X70475000Y50000000D01*
G75*
G02*
X70250000Y49775000I-225000J0D01*
G01*
G37*
G36*
G01*
X70250000Y51325000D02*
X69750000Y51325000D01*
G75*
G02*
X69525000Y51550000I0J225000D01*
G01*
X69525000Y52000000D01*
G75*
G02*
X69750000Y52225000I225000J0D01*
G01*
X70250000Y52225000D01*
G75*
G02*
X70475000Y52000000I0J-225000D01*
G01*
X70475000Y51550000D01*
G75*
G02*
X70250000Y51325000I-225000J0D01*
G01*
G37*
D13*
X13000000Y38000000D03*
D10*
X97000000Y33000000D03*
M02*
