G04 #@! TF.GenerationSoftware,KiCad,Pcbnew,10.0.6*
G04 #@! TF.CreationDate,2026-09-08T19:23:15-04:00*
G04 #@! TF.ProjectId,gpiojoiner,6770696f-6a6f-4696-9e65-722e6b696361,rev?*
G04 #@! TF.SameCoordinates,Original*
G04 #@! TF.FileFunction,Copper,L1,Top*
G04 #@! TF.FilePolarity,Positive*
%FSLAX46Y46*%
G04 Gerber Fmt 4.6, Leading zero omitted, Abs format (unit mm)*
G04 Created by KiCad (PCBNEW 10.0.6) date 2026-09-08 19:23:15*
%MOMM*%
%LPD*%
G01*
G04 APERTURE LIST*
G04 #@! TA.AperFunction,ComponentPad*
%ADD10C,1.400000*%
G04 #@! TD*
G04 #@! TA.AperFunction,ComponentPad*
%ADD11C,2.032000*%
G04 #@! TD*
G04 #@! TA.AperFunction,SMDPad,CuDef*
%ADD12C,1.500000*%
G04 #@! TD*
G04 #@! TA.AperFunction,ViaPad*
%ADD13C,0.800000*%
G04 #@! TD*
G04 #@! TA.AperFunction,Conductor*
%ADD14C,0.200000*%
G04 #@! TD*
G04 APERTURE END LIST*
G04 #@! TA.AperFunction,SMDPad,CuDef*
G36*
G01*
X12275000Y82775000D02*
X11725000Y82775000D01*
G75*
G02*
X11525000Y82975000I0J200000D01*
G01*
X11525000Y83375000D01*
G75*
G02*
X11725000Y83575000I200000J0D01*
G01*
X12275000Y83575000D01*
G75*
G02*
X12475000Y83375000I0J-200000D01*
G01*
X12475000Y82975000D01*
G75*
G02*
X12275000Y82775000I-200000J0D01*
G01*
G37*
G04 #@! TD.AperFunction*
G04 #@! TA.AperFunction,SMDPad,CuDef*
G36*
G01*
X12275000Y84425000D02*
X11725000Y84425000D01*
G75*
G02*
X11525000Y84625000I0J200000D01*
G01*
X11525000Y85025000D01*
G75*
G02*
X11725000Y85225000I200000J0D01*
G01*
X12275000Y85225000D01*
G75*
G02*
X12475000Y85025000I0J-200000D01*
G01*
X12475000Y84625000D01*
G75*
G02*
X12275000Y84425000I-200000J0D01*
G01*
G37*
G04 #@! TD.AperFunction*
G04 #@! TA.AperFunction,SMDPad,CuDef*
G36*
G01*
X64200000Y51800000D02*
X64200000Y52100000D01*
G75*
G02*
X64350000Y52250000I150000J0D01*
G01*
X65375000Y52250000D01*
G75*
G02*
X65525000Y52100000I0J-150000D01*
G01*
X65525000Y51800000D01*
G75*
G02*
X65375000Y51650000I-150000J0D01*
G01*
X64350000Y51650000D01*
G75*
G02*
X64200000Y51800000I0J150000D01*
G01*
G37*
G04 #@! TD.AperFunction*
G04 #@! TA.AperFunction,SMDPad,CuDef*
G36*
G01*
X64200000Y50850000D02*
X64200000Y51150000D01*
G75*
G02*
X64350000Y51300000I150000J0D01*
G01*
X65375000Y51300000D01*
G75*
G02*
X65525000Y51150000I0J-150000D01*
G01*
X65525000Y50850000D01*
G75*
G02*
X65375000Y50700000I-150000J0D01*
G01*
X64350000Y50700000D01*
G75*
G02*
X64200000Y50850000I0J150000D01*
G01*
G37*
G04 #@! TD.AperFunction*
G04 #@! TA.AperFunction,SMDPad,CuDef*
G36*
G01*
X64200000Y49900000D02*
X64200000Y50200000D01*
G75*
G02*
X64350000Y50350000I150000J0D01*
G01*
X65375000Y50350000D01*
G75*
G02*
X65525000Y50200000I0J-150000D01*
G01*
X65525000Y49900000D01*
G75*
G02*
X65375000Y49750000I-150000J0D01*
G01*
X64350000Y49750000D01*
G75*
G02*
X64200000Y49900000I0J150000D01*
G01*
G37*
G04 #@! TD.AperFunction*
G04 #@! TA.AperFunction,SMDPad,CuDef*
G36*
G01*
X66475000Y49900000D02*
X66475000Y50200000D01*
G75*
G02*
X66625000Y50350000I150000J0D01*
G01*
X67650000Y50350000D01*
G75*
G02*
X67800000Y50200000I0J-150000D01*
G01*
X67800000Y49900000D01*
G75*
G02*
X67650000Y49750000I-150000J0D01*
G01*
X66625000Y49750000D01*
G75*
G02*
X66475000Y49900000I0J150000D01*
G01*
G37*
G04 #@! TD.AperFunction*
G04 #@! TA.AperFunction,SMDPad,CuDef*
G36*
G01*
X66475000Y51800000D02*
X66475000Y52100000D01*
G75*
G02*
X66625000Y52250000I150000J0D01*
G01*
X67650000Y52250000D01*
G75*
G02*
X67800000Y52100000I0J-150000D01*
G01*
X67800000Y51800000D01*
G75*
G02*
X67650000Y51650000I-150000J0D01*
G01*
X66625000Y51650000D01*
G75*
G02*
X66475000Y51800000I0J150000D01*
G01*
G37*
G04 #@! TD.AperFunction*
G04 #@! TA.AperFunction,ComponentPad*
G36*
G01*
X61800000Y67550000D02*
X61800000Y68450000D01*
G75*
G02*
X62050000Y68700000I250000J0D01*
G01*
X62950000Y68700000D01*
G75*
G02*
X63200000Y68450000I0J-250000D01*
G01*
X63200000Y67550000D01*
G75*
G02*
X62950000Y67300000I-250000J0D01*
G01*
X62050000Y67300000D01*
G75*
G02*
X61800000Y67550000I0J250000D01*
G01*
G37*
G04 #@! TD.AperFunction*
D10*
X65000000Y68000000D03*
X67500000Y68000000D03*
X62500000Y64700000D03*
X65000000Y64700000D03*
X67500000Y64700000D03*
D11*
X128270000Y86620000D03*
X125730000Y86620000D03*
X128270000Y84080000D03*
X125730000Y84080000D03*
X128270000Y81540000D03*
X125730000Y81540000D03*
X128270000Y79000000D03*
X125730000Y79000000D03*
X128270000Y76460000D03*
X125730000Y76460000D03*
G04 #@! TA.AperFunction,SMDPad,CuDef*
G36*
G01*
X118275000Y77775000D02*
X117725000Y77775000D01*
G75*
G02*
X117525000Y77975000I0J200000D01*
G01*
X117525000Y78375000D01*
G75*
G02*
X117725000Y78575000I200000J0D01*
G01*
X118275000Y78575000D01*
G75*
G02*
X118475000Y78375000I0J-200000D01*
G01*
X118475000Y77975000D01*
G75*
G02*
X118275000Y77775000I-200000J0D01*
G01*
G37*
G04 #@! TD.AperFunction*
G04 #@! TA.AperFunction,SMDPad,CuDef*
G36*
G01*
X118275000Y79425000D02*
X117725000Y79425000D01*
G75*
G02*
X117525000Y79625000I0J200000D01*
G01*
X117525000Y80025000D01*
G75*
G02*
X117725000Y80225000I200000J0D01*
G01*
X118275000Y80225000D01*
G75*
G02*
X118475000Y80025000I0J-200000D01*
G01*
X118475000Y79625000D01*
G75*
G02*
X118275000Y79425000I-200000J0D01*
G01*
G37*
G04 #@! TD.AperFunction*
G04 #@! TA.AperFunction,SMDPad,CuDef*
G36*
G01*
X16225000Y51275000D02*
X16225000Y50725000D01*
G75*
G02*
X16025000Y50525000I-200000J0D01*
G01*
X15625000Y50525000D01*
G75*
G02*
X15425000Y50725000I0J200000D01*
G01*
X15425000Y51275000D01*
G75*
G02*
X15625000Y51475000I200000J0D01*
G01*
X16025000Y51475000D01*
G75*
G02*
X16225000Y51275000I0J-200000D01*
G01*
G37*
G04 #@! TD.AperFunction*
G04 #@! TA.AperFunction,SMDPad,CuDef*
G36*
G01*
X14575000Y51275000D02*
X14575000Y50725000D01*
G75*
G02*
X14375000Y50525000I-200000J0D01*
G01*
X13975000Y50525000D01*
G75*
G02*
X13775000Y50725000I0J200000D01*
G01*
X13775000Y51275000D01*
G75*
G02*
X13975000Y51475000I200000J0D01*
G01*
X14375000Y51475000D01*
G75*
G02*
X14575000Y51275000I0J-200000D01*
G01*
G37*
G04 #@! TD.AperFunction*
D12*
X117000000Y92000000D03*
G04 #@! TA.AperFunction,SMDPad,CuDef*
G36*
G01*
X11275000Y49775000D02*
X10725000Y49775000D01*
G75*
G02*
X10525000Y49975000I0J200000D01*
G01*
X10525000Y50375000D01*
G75*
G02*
X10725000Y50575000I200000J0D01*
G01*
X11275000Y50575000D01*
G75*
G02*
X11475000Y50375000I0J-200000D01*
G01*
X11475000Y49975000D01*
G75*
G02*
X11275000Y49775000I-200000J0D01*
G01*
G37*
G04 #@! TD.AperFunction*
G04 #@! TA.AperFunction,SMDPad,CuDef*
G36*
G01*
X11275000Y51425000D02*
X10725000Y51425000D01*
G75*
G02*
X10525000Y51625000I0J200000D01*
G01*
X10525000Y52025000D01*
G75*
G02*
X10725000Y52225000I200000J0D01*
G01*
X11275000Y52225000D01*
G75*
G02*
X11475000Y52025000I0J-200000D01*
G01*
X11475000Y51625000D01*
G75*
G02*
X11275000Y51425000I-200000J0D01*
G01*
G37*
G04 #@! TD.AperFunction*
G04 #@! TA.AperFunction,SMDPad,CuDef*
G36*
G01*
X66275000Y39775000D02*
X65725000Y39775000D01*
G75*
G02*
X65525000Y39975000I0J200000D01*
G01*
X65525000Y40375000D01*
G75*
G02*
X65725000Y40575000I200000J0D01*
G01*
X66275000Y40575000D01*
G75*
G02*
X66475000Y40375000I0J-200000D01*
G01*
X66475000Y39975000D01*
G75*
G02*
X66275000Y39775000I-200000J0D01*
G01*
G37*
G04 #@! TD.AperFunction*
G04 #@! TA.AperFunction,SMDPad,CuDef*
G36*
G01*
X66275000Y41425000D02*
X65725000Y41425000D01*
G75*
G02*
X65525000Y41625000I0J200000D01*
G01*
X65525000Y42025000D01*
G75*
G02*
X65725000Y42225000I200000J0D01*
G01*
X66275000Y42225000D01*
G75*
G02*
X66475000Y42025000I0J-200000D01*
G01*
X66475000Y41625000D01*
G75*
G02*
X66275000Y41425000I-200000J0D01*
G01*
G37*
G04 #@! TD.AperFunction*
G04 #@! TA.AperFunction,SMDPad,CuDef*
G36*
G01*
X57325000Y51800000D02*
X57325000Y52100000D01*
G75*
G02*
X57475000Y52250000I150000J0D01*
G01*
X58650000Y52250000D01*
G75*
G02*
X58800000Y52100000I0J-150000D01*
G01*
X58800000Y51800000D01*
G75*
G02*
X58650000Y51650000I-150000J0D01*
G01*
X57475000Y51650000D01*
G75*
G02*
X57325000Y51800000I0J150000D01*
G01*
G37*
G04 #@! TD.AperFunction*
G04 #@! TA.AperFunction,SMDPad,CuDef*
G36*
G01*
X57325000Y49900000D02*
X57325000Y50200000D01*
G75*
G02*
X57475000Y50350000I150000J0D01*
G01*
X58650000Y50350000D01*
G75*
G02*
X58800000Y50200000I0J-150000D01*
G01*
X58800000Y49900000D01*
G75*
G02*
X58650000Y49750000I-150000J0D01*
G01*
X57475000Y49750000D01*
G75*
G02*
X57325000Y49900000I0J150000D01*
G01*
G37*
G04 #@! TD.AperFunction*
G04 #@! TA.AperFunction,SMDPad,CuDef*
G36*
G01*
X59200000Y50850000D02*
X59200000Y51150000D01*
G75*
G02*
X59350000Y51300000I150000J0D01*
G01*
X60525000Y51300000D01*
G75*
G02*
X60675000Y51150000I0J-150000D01*
G01*
X60675000Y50850000D01*
G75*
G02*
X60525000Y50700000I-150000J0D01*
G01*
X59350000Y50700000D01*
G75*
G02*
X59200000Y50850000I0J150000D01*
G01*
G37*
G04 #@! TD.AperFunction*
D11*
X128270000Y66250000D03*
X125730000Y66250000D03*
X128270000Y63710000D03*
X125730000Y63710000D03*
X128270000Y61170000D03*
X125730000Y61170000D03*
X128270000Y58630000D03*
X125730000Y58630000D03*
X128270000Y56090000D03*
X125730000Y56090000D03*
X128270000Y53550000D03*
X125730000Y53550000D03*
X128270000Y51010000D03*
X125730000Y51010000D03*
X128270000Y48470000D03*
X125730000Y48470000D03*
X128270000Y45930000D03*
X125730000Y45930000D03*
X128270000Y43390000D03*
X125730000Y43390000D03*
D12*
X56000000Y43000000D03*
D11*
X1730000Y63750000D03*
X4270000Y63750000D03*
X1730000Y66290000D03*
X4270000Y66290000D03*
X1730000Y68830000D03*
X4270000Y68830000D03*
X1730000Y71370000D03*
X4270000Y71370000D03*
X1730000Y73910000D03*
X4270000Y73910000D03*
X1730000Y76450000D03*
X4270000Y76450000D03*
X1730000Y78990000D03*
X4270000Y78990000D03*
X1730000Y81530000D03*
X4270000Y81530000D03*
X1730000Y84070000D03*
X4270000Y84070000D03*
X1730000Y86610000D03*
X4270000Y86610000D03*
G04 #@! TA.AperFunction,SMDPad,CuDef*
G36*
G01*
X61275000Y39775000D02*
X60725000Y39775000D01*
G75*
G02*
X60525000Y39975000I0J200000D01*
G01*
X60525000Y40375000D01*
G75*
G02*
X60725000Y40575000I200000J0D01*
G01*
X61275000Y40575000D01*
G75*
G02*
X61475000Y40375000I0J-200000D01*
G01*
X61475000Y39975000D01*
G75*
G02*
X61275000Y39775000I-200000J0D01*
G01*
G37*
G04 #@! TD.AperFunction*
G04 #@! TA.AperFunction,SMDPad,CuDef*
G36*
G01*
X61275000Y41425000D02*
X60725000Y41425000D01*
G75*
G02*
X60525000Y41625000I0J200000D01*
G01*
X60525000Y42025000D01*
G75*
G02*
X60725000Y42225000I200000J0D01*
G01*
X61275000Y42225000D01*
G75*
G02*
X61475000Y42025000I0J-200000D01*
G01*
X61475000Y41625000D01*
G75*
G02*
X61275000Y41425000I-200000J0D01*
G01*
G37*
G04 #@! TD.AperFunction*
D12*
X36000000Y65000000D03*
G04 #@! TA.AperFunction,SMDPad,CuDef*
G36*
G01*
X112775000Y78725000D02*
X112775000Y79275000D01*
G75*
G02*
X112975000Y79475000I200000J0D01*
G01*
X113375000Y79475000D01*
G75*
G02*
X113575000Y79275000I0J-200000D01*
G01*
X113575000Y78725000D01*
G75*
G02*
X113375000Y78525000I-200000J0D01*
G01*
X112975000Y78525000D01*
G75*
G02*
X112775000Y78725000I0J200000D01*
G01*
G37*
G04 #@! TD.AperFunction*
G04 #@! TA.AperFunction,SMDPad,CuDef*
G36*
G01*
X114425000Y78725000D02*
X114425000Y79275000D01*
G75*
G02*
X114625000Y79475000I200000J0D01*
G01*
X115025000Y79475000D01*
G75*
G02*
X115225000Y79275000I0J-200000D01*
G01*
X115225000Y78725000D01*
G75*
G02*
X115025000Y78525000I-200000J0D01*
G01*
X114625000Y78525000D01*
G75*
G02*
X114425000Y78725000I0J200000D01*
G01*
G37*
G04 #@! TD.AperFunction*
X94000000Y65000000D03*
D11*
X1730000Y43380000D03*
X4270000Y43380000D03*
X1730000Y45920000D03*
X4270000Y45920000D03*
X1730000Y48460000D03*
X4270000Y48460000D03*
X1730000Y51000000D03*
X4270000Y51000000D03*
X1730000Y53540000D03*
X4270000Y53540000D03*
G04 #@! TA.AperFunction,SMDPad,CuDef*
G36*
G01*
X118275000Y44775000D02*
X117725000Y44775000D01*
G75*
G02*
X117525000Y44975000I0J200000D01*
G01*
X117525000Y45375000D01*
G75*
G02*
X117725000Y45575000I200000J0D01*
G01*
X118275000Y45575000D01*
G75*
G02*
X118475000Y45375000I0J-200000D01*
G01*
X118475000Y44975000D01*
G75*
G02*
X118275000Y44775000I-200000J0D01*
G01*
G37*
G04 #@! TD.AperFunction*
G04 #@! TA.AperFunction,SMDPad,CuDef*
G36*
G01*
X118275000Y46425000D02*
X117725000Y46425000D01*
G75*
G02*
X117525000Y46625000I0J200000D01*
G01*
X117525000Y47025000D01*
G75*
G02*
X117725000Y47225000I200000J0D01*
G01*
X118275000Y47225000D01*
G75*
G02*
X118475000Y47025000I0J-200000D01*
G01*
X118475000Y46625000D01*
G75*
G02*
X118275000Y46425000I-200000J0D01*
G01*
G37*
G04 #@! TD.AperFunction*
X53570000Y128270000D03*
X53570000Y125730000D03*
X56110000Y128270000D03*
X56110000Y125730000D03*
X58650000Y128270000D03*
X58650000Y125730000D03*
X61190000Y128270000D03*
X61190000Y125730000D03*
X63730000Y128270000D03*
X63730000Y125730000D03*
X66270000Y128270000D03*
X66270000Y125730000D03*
X68810000Y128270000D03*
X68810000Y125730000D03*
X71350000Y128270000D03*
X71350000Y125730000D03*
X73890000Y128270000D03*
X73890000Y125730000D03*
X76430000Y128270000D03*
X76430000Y125730000D03*
D12*
X72000000Y43000000D03*
D11*
X76430000Y1730000D03*
X76430000Y4270000D03*
X73890000Y1730000D03*
X73890000Y4270000D03*
X71350000Y1730000D03*
X71350000Y4270000D03*
X68810000Y1730000D03*
X68810000Y4270000D03*
X66270000Y1730000D03*
X66270000Y4270000D03*
X63730000Y1730000D03*
X63730000Y4270000D03*
X61190000Y1730000D03*
X61190000Y4270000D03*
X58650000Y1730000D03*
X58650000Y4270000D03*
X56110000Y1730000D03*
X56110000Y4270000D03*
X53570000Y1730000D03*
X53570000Y4270000D03*
G04 #@! TA.AperFunction,SMDPad,CuDef*
G36*
G01*
X70250000Y49775000D02*
X69750000Y49775000D01*
G75*
G02*
X69525000Y50000000I0J225000D01*
G01*
X69525000Y50450000D01*
G75*
G02*
X69750000Y50675000I225000J0D01*
G01*
X70250000Y50675000D01*
G75*
G02*
X70475000Y50450000I0J-225000D01*
G01*
X70475000Y50000000D01*
G75*
G02*
X70250000Y49775000I-225000J0D01*
G01*
G37*
G04 #@! TD.AperFunction*
G04 #@! TA.AperFunction,SMDPad,CuDef*
G36*
G01*
X70250000Y51325000D02*
X69750000Y51325000D01*
G75*
G02*
X69525000Y51550000I0J225000D01*
G01*
X69525000Y52000000D01*
G75*
G02*
X69750000Y52225000I225000J0D01*
G01*
X70250000Y52225000D01*
G75*
G02*
X70475000Y52000000I0J-225000D01*
G01*
X70475000Y51550000D01*
G75*
G02*
X70250000Y51325000I-225000J0D01*
G01*
G37*
G04 #@! TD.AperFunction*
D12*
X13000000Y38000000D03*
D13*
X100510300Y48443000D03*
X100510300Y82077500D03*
X99323900Y80281800D03*
X2998700Y80260100D03*
X99323900Y44505500D03*
X71775900Y44790700D03*
X74023700Y52515700D03*
X8289100Y48573400D03*
X104455800Y52515700D03*
X6128900Y48669900D03*
X10784700Y48096600D03*
X105759900Y53949900D03*
X59598300Y65337800D03*
X67913600Y7359800D03*
X65018100Y59766400D03*
X9608700Y49171500D03*
X17926700Y51813000D03*
X58062500Y49159200D03*
X60955300Y58547800D03*
X29491300Y900000D03*
X75176500Y60435100D03*
X75160000Y78990000D03*
X68830600Y75180100D03*
X66235900Y58563200D03*
X67852100Y77719900D03*
X55507600Y119169100D03*
X27941100Y101352100D03*
X55521500Y58076300D03*
X67186800Y58163700D03*
X33278300Y108559700D03*
X46471200Y57361400D03*
X38745800Y65550500D03*
X57352000Y66663600D03*
X57352000Y55595100D03*
X63604000Y55595100D03*
X59624700Y121272600D03*
X4673900Y103781400D03*
X103359600Y28106000D03*
X85886800Y26601200D03*
X6099600Y89794400D03*
X68856700Y10422600D03*
X73081300Y49740000D03*
X54840100Y63997900D03*
X54840100Y54819900D03*
X91247400Y41876100D03*
X123189000Y40389400D03*
X91948300Y65047400D03*
X91948300Y40062200D03*
X60627100Y66366400D03*
X63916900Y116723600D03*
X18455800Y69025200D03*
X18455800Y62886900D03*
D14*
X117250700Y48443000D02*
X125703000Y48443000D01*
X12000000Y83175000D02*
X12000000Y82077500D01*
X12000000Y82077500D02*
X100510300Y82077500D01*
X125703000Y48443000D02*
X125730000Y48470000D01*
X11452500Y81530000D02*
X12000000Y82077500D01*
X117250700Y45924300D02*
X117250700Y48443000D01*
X100510300Y48443000D02*
X117250700Y48443000D01*
X118000000Y45175000D02*
X117250700Y45924300D01*
X4270000Y81530000D02*
X11452500Y81530000D01*
X84436800Y80260100D02*
X84458500Y80281800D01*
X118460000Y44505500D02*
X99323900Y44505500D01*
X5025000Y84825000D02*
X4270000Y84070000D01*
X12000000Y84825000D02*
X5025000Y84825000D01*
X84458500Y80281800D02*
X99323900Y80281800D01*
X118895000Y45930000D02*
X118000000Y46825000D01*
X2998700Y80260100D02*
X84436800Y80260100D01*
X118895000Y44940500D02*
X118460000Y44505500D01*
X125730000Y45930000D02*
X118895000Y45930000D01*
X118895000Y45930000D02*
X118895000Y44940500D01*
X60257200Y41082200D02*
X60257200Y39796700D01*
X8289100Y48573400D02*
X15780300Y41082200D01*
X60257200Y39796700D02*
X60538800Y39515100D01*
X66500300Y39515100D02*
X71775900Y44790700D01*
X65428200Y52515700D02*
X74023700Y52515700D01*
X60538800Y39515100D02*
X66500300Y39515100D01*
X15780300Y41082200D02*
X60257200Y41082200D01*
X74023700Y52515700D02*
X104455800Y52515700D01*
X64862500Y51950000D02*
X65428200Y52515700D01*
X60257200Y41082200D02*
X61000000Y41825000D01*
X128270000Y86620000D02*
X127000000Y85350000D01*
X11000000Y51825000D02*
X9624600Y51825000D01*
X70000000Y51775000D02*
X67312500Y51775000D01*
X53570000Y24570000D02*
X72000000Y43000000D01*
X72000000Y43000000D02*
X72390000Y43390000D01*
X6469500Y48669900D02*
X6128900Y48669900D01*
X110075200Y104300000D02*
X128270000Y86620000D01*
X76430000Y125730000D02*
X97345200Y104300000D01*
X127000000Y85350000D02*
X123525000Y85350000D01*
X123525000Y85350000D02*
X118000000Y79825000D01*
X97345200Y104300000D02*
X110075200Y104300000D01*
X72390000Y43390000D02*
X72427600Y43390000D01*
X9624600Y51825000D02*
X6469500Y48669900D01*
X4270000Y86610000D02*
X1730000Y86610000D01*
X41141700Y36998300D02*
X8111700Y36998300D01*
X72427600Y49347400D02*
X70000000Y51775000D01*
X8111700Y36998300D02*
X1730000Y43380000D01*
X67137500Y51950000D02*
X66187500Y51000000D01*
X72427600Y43390000D02*
X72427600Y49347400D01*
X53570000Y4270000D02*
X53570000Y24570000D01*
X53570000Y24570000D02*
X41141700Y36998300D01*
X72427600Y43390000D02*
X125730000Y43390000D01*
X67312500Y51775000D02*
X67137500Y51950000D01*
X66187500Y51000000D02*
X64862500Y51000000D01*
X63938000Y51584200D02*
X63938000Y52310800D01*
X57422000Y50773400D02*
X58404400Y50773400D01*
X10784700Y48096600D02*
X54745200Y48096600D01*
X63938000Y52310800D02*
X65577100Y53949900D01*
X59215200Y51584200D02*
X63938000Y51584200D01*
X63938000Y50683100D02*
X63938000Y51584200D01*
X64862500Y50050000D02*
X64571100Y50050000D01*
X64862500Y42962500D02*
X66000000Y41825000D01*
X64571100Y50050000D02*
X63938000Y50683100D01*
X65577100Y53949900D02*
X105759900Y53949900D01*
X58404400Y50773400D02*
X59215200Y51584200D01*
X54745200Y48096600D02*
X57422000Y50773400D01*
X64862500Y50050000D02*
X64862500Y42962500D01*
X61781500Y42213300D02*
X59023100Y44971700D01*
X67137500Y41312500D02*
X67137500Y50050000D01*
X66000000Y40175000D02*
X67137500Y41312500D01*
X70000000Y50225000D02*
X67312500Y50225000D01*
X61000000Y40175000D02*
X61781500Y40175000D01*
X59937500Y51000000D02*
X59937500Y45886100D01*
X57971700Y44971700D02*
X56000000Y43000000D01*
X61781500Y40175000D02*
X61781500Y42213300D01*
X59937500Y45886100D02*
X59023100Y44971700D01*
X67312500Y50225000D02*
X67137500Y50050000D01*
X61781500Y40175000D02*
X66000000Y40175000D01*
X59023100Y44971700D02*
X57971700Y44971700D01*
X34677500Y63997900D02*
X12322100Y63997900D01*
X10030000Y66290000D02*
X4270000Y66290000D01*
X36852000Y63646200D02*
X35029200Y63646200D01*
X59598300Y65337800D02*
X58997800Y64737300D01*
X35029200Y63646200D02*
X34677500Y63997900D01*
X58997800Y64737300D02*
X37943100Y64737300D01*
X12322100Y63997900D02*
X10030000Y66290000D01*
X37943100Y64737300D02*
X36852000Y63646200D01*
X73890000Y4270000D02*
X70800200Y7359800D01*
X125730000Y63710000D02*
X121786400Y59766400D01*
X70800200Y7359800D02*
X67913600Y7359800D01*
X121786400Y59766400D02*
X65018100Y59766400D01*
X117000000Y92000000D02*
X120350000Y92000000D01*
X120350000Y92000000D02*
X125730000Y86620000D01*
X67226000Y66175900D02*
X62001200Y66175900D01*
X127000000Y82810000D02*
X127000000Y81017100D01*
X62001200Y66175900D02*
X58416400Y62591100D01*
X126252900Y80270000D02*
X124957300Y80270000D01*
X5132700Y49322700D02*
X4270000Y48460000D01*
X19578900Y62591100D02*
X6310500Y49322700D01*
X121509400Y76822100D02*
X77872200Y76822100D01*
X124957300Y80270000D02*
X121509400Y76822100D01*
X128270000Y84080000D02*
X127000000Y82810000D01*
X6310500Y49322700D02*
X5132700Y49322700D01*
X77872200Y76822100D02*
X67226000Y66175900D01*
X127000000Y81017100D02*
X126252900Y80270000D01*
X58416400Y62591100D02*
X19578900Y62591100D01*
X115650000Y78175000D02*
X114825000Y79000000D01*
X125730000Y84080000D02*
X119825000Y78175000D01*
X118000000Y78175000D02*
X115650000Y78175000D01*
X119825000Y78175000D02*
X118000000Y78175000D01*
X16691500Y51502300D02*
X16691500Y50685200D01*
X127000000Y80270000D02*
X127000000Y75884300D01*
X128270000Y81540000D02*
X127000000Y80270000D01*
X26351000Y61161800D02*
X16691500Y51502300D01*
X112277500Y61161800D02*
X26351000Y61161800D01*
X16691500Y50685200D02*
X15177800Y49171500D01*
X127000000Y75884300D02*
X112277500Y61161800D01*
X15177800Y49171500D02*
X9608700Y49171500D01*
X61709900Y66527600D02*
X58125100Y62942800D01*
X8760400Y52269900D02*
X1170600Y52269900D01*
X125730000Y81540000D02*
X121414300Y77224300D01*
X446000Y47204000D02*
X1730000Y45920000D01*
X19433300Y62942800D02*
X8760400Y52269900D01*
X121414300Y77224300D02*
X75312400Y77224300D01*
X446000Y51545300D02*
X446000Y47204000D01*
X64928800Y66527600D02*
X61709900Y66527600D01*
X66250000Y68161900D02*
X66250000Y67848800D01*
X1170600Y52269900D02*
X446000Y51545300D01*
X66250000Y67848800D02*
X64928800Y66527600D01*
X58125100Y62942800D02*
X19433300Y62942800D01*
X75312400Y77224300D02*
X66250000Y68161900D01*
X67320500Y65773100D02*
X62125000Y65773100D01*
X5570600Y47190000D02*
X3000000Y47190000D01*
X7285700Y48988800D02*
X7285700Y48905100D01*
X3000000Y47190000D02*
X1730000Y48460000D01*
X125730000Y79000000D02*
X123190000Y76460000D01*
X9296900Y51000000D02*
X7285700Y48988800D01*
X58406600Y62054700D02*
X22880800Y62054700D01*
X7285700Y48905100D02*
X5570600Y47190000D01*
X78007400Y76460000D02*
X67320500Y65773100D01*
X22880800Y62054700D02*
X11826100Y51000000D01*
X62125000Y65773100D02*
X58406600Y62054700D01*
X123190000Y76460000D02*
X78007400Y76460000D01*
X11826100Y51000000D02*
X9296900Y51000000D01*
X110973000Y61703000D02*
X125730000Y76460000D01*
X15825000Y51000000D02*
X15825000Y51145800D01*
X26382200Y61703000D02*
X110973000Y61703000D01*
X15825000Y51145800D02*
X26382200Y61703000D01*
X4859400Y45920000D02*
X4270000Y45920000D01*
X7637400Y48698000D02*
X4859400Y45920000D01*
X11000000Y50175000D02*
X8969200Y50175000D01*
X13350000Y50175000D02*
X14175000Y51000000D01*
X11000000Y50175000D02*
X13350000Y50175000D01*
X7637400Y48843200D02*
X7637400Y48698000D01*
X8969200Y50175000D02*
X7637400Y48843200D01*
X17926700Y51813000D02*
X57925500Y51813000D01*
X57925500Y51813000D02*
X58062500Y51950000D01*
X65017300Y58547800D02*
X60955300Y58547800D01*
X58062500Y49159200D02*
X58062500Y50050000D01*
X125730000Y61170000D02*
X123775000Y59215000D01*
X123775000Y59215000D02*
X65684500Y59215000D01*
X65684500Y59215000D02*
X65017300Y58547800D01*
X75113100Y413100D02*
X29978200Y413100D01*
X76430000Y1730000D02*
X75113100Y413100D01*
X29978200Y413100D02*
X29491300Y900000D01*
X4270000Y78990000D02*
X75160000Y78990000D01*
X128270000Y63710000D02*
X127000000Y64980000D01*
X123646100Y64980000D02*
X119101200Y60435100D01*
X127000000Y64980000D02*
X123646100Y64980000D01*
X119101200Y60435100D02*
X75176500Y60435100D01*
X3000100Y75180100D02*
X68830600Y75180100D01*
X1730000Y73910000D02*
X3000100Y75180100D01*
X125082200Y59900000D02*
X124035000Y58852800D01*
X1730000Y76450000D02*
X2999900Y77719900D01*
X124035000Y58852800D02*
X66525500Y58852800D01*
X128270000Y58630000D02*
X127000000Y59900000D01*
X2999900Y77719900D02*
X67852100Y77719900D01*
X66525500Y58852800D02*
X66235900Y58563200D01*
X127000000Y59900000D02*
X125082200Y59900000D01*
X125730000Y58630000D02*
X125263700Y58163700D01*
X55507600Y119169100D02*
X37690600Y101352100D01*
X61190000Y125730000D02*
X55507600Y120047600D01*
X125263700Y58163700D02*
X67186800Y58163700D01*
X55521500Y58076300D02*
X55701700Y57896100D01*
X66919200Y57896100D02*
X67186800Y58163700D01*
X55507600Y120047600D02*
X55507600Y119169100D01*
X55701700Y57896100D02*
X66919200Y57896100D01*
X37690600Y101352100D02*
X27941100Y101352100D01*
X34982500Y64365400D02*
X12616800Y64365400D01*
X38086100Y65550500D02*
X36533500Y63997900D01*
X57380000Y127000000D02*
X55587200Y127000000D01*
X128270000Y56090000D02*
X126998600Y57361400D01*
X126998600Y57361400D02*
X46471200Y57361400D01*
X54842300Y126255100D02*
X54842300Y125133600D01*
X58650000Y128270000D02*
X57380000Y127000000D01*
X36533500Y63997900D02*
X35350000Y63997900D01*
X38745800Y65550500D02*
X38086100Y65550500D01*
X9422200Y67560000D02*
X3000000Y67560000D01*
X35350000Y63997900D02*
X34982500Y64365400D01*
X3000000Y67560000D02*
X1730000Y68830000D01*
X55587200Y127000000D02*
X54842300Y126255100D01*
X54842300Y125133600D02*
X38268400Y108559700D01*
X38268400Y108559700D02*
X33278300Y108559700D01*
X12616800Y64365400D02*
X9422200Y67560000D01*
X59624700Y121624700D02*
X59624700Y121272600D01*
X57352000Y66663600D02*
X11516400Y66663600D01*
X63604000Y55595100D02*
X57352000Y55595100D01*
X63730000Y125730000D02*
X59624700Y121624700D01*
X125235100Y55595100D02*
X63604000Y55595100D01*
X125730000Y56090000D02*
X125235100Y55595100D01*
X11516400Y66663600D02*
X4270000Y73910000D01*
X65000000Y5367700D02*
X65000000Y3000000D01*
X87320600Y27113500D02*
X87320600Y27113400D01*
X113842400Y27113500D02*
X87320600Y27113500D01*
X128270000Y53550000D02*
X129543800Y52276200D01*
X67643800Y8011500D02*
X65000000Y5367700D01*
X129543800Y52276200D02*
X129543800Y42814900D01*
X87320600Y27113400D02*
X68218700Y8011500D01*
X65000000Y3000000D02*
X63730000Y1730000D01*
X129543800Y42814900D02*
X113842400Y27113500D01*
X68218700Y8011500D02*
X67643800Y8011500D01*
X67736000Y8363200D02*
X67498200Y8363200D01*
X57380100Y126252900D02*
X57380100Y125193700D01*
X63730000Y4595000D02*
X63730000Y4270000D01*
X57380100Y125193700D02*
X35967800Y103781400D01*
X85886800Y26601200D02*
X87391600Y28106000D01*
X87391600Y28106000D02*
X103359600Y28106000D01*
X67537700Y126997700D02*
X58124900Y126997700D01*
X35967800Y103781400D02*
X4673900Y103781400D01*
X67498200Y8363200D02*
X63730000Y4595000D01*
X68810000Y128270000D02*
X67537700Y126997700D01*
X58124900Y126997700D02*
X57380100Y126252900D01*
X85886800Y26601200D02*
X85886800Y26514000D01*
X85886800Y26514000D02*
X67736000Y8363200D01*
X30334400Y89794400D02*
X6099600Y89794400D01*
X61190000Y1730000D02*
X62460000Y3000000D01*
X66270000Y125730000D02*
X30334400Y89794400D01*
X62460000Y4875400D02*
X68007200Y10422600D01*
X127000000Y49740000D02*
X73081300Y49740000D01*
X62460000Y3000000D02*
X62460000Y4875400D01*
X68007200Y10422600D02*
X68856700Y10422600D01*
X128270000Y51010000D02*
X127000000Y49740000D01*
X10721600Y65018500D02*
X12093900Y63646200D01*
X126264200Y54819900D02*
X54840100Y54819900D01*
X125730000Y51010000D02*
X127000000Y52280000D01*
X54136700Y63294500D02*
X54840100Y63997900D01*
X127000000Y52280000D02*
X127000000Y54084100D01*
X3001500Y65018500D02*
X10721600Y65018500D01*
X1730000Y66290000D02*
X3001500Y65018500D01*
X127000000Y54084100D02*
X126264200Y54819900D01*
X12093900Y63646200D02*
X34531900Y63646200D01*
X34531900Y63646200D02*
X34883600Y63294500D01*
X34883600Y63294500D02*
X54136700Y63294500D01*
X91247400Y41876100D02*
X122654900Y41876100D01*
X10280300Y84145600D02*
X8934700Y82800000D01*
X123862500Y40668500D02*
X123862500Y40109700D01*
X70080000Y127000000D02*
X70080000Y125196000D01*
X127000000Y42795100D02*
X127000000Y47200000D01*
X123862500Y40109700D02*
X123463300Y39710500D01*
X94773000Y39710500D02*
X59920000Y4857500D01*
X122654900Y41876100D02*
X123862500Y40668500D01*
X3000000Y82800000D02*
X1730000Y81530000D01*
X123463300Y39710500D02*
X94773000Y39710500D01*
X29029600Y84145600D02*
X10280300Y84145600D01*
X71350000Y128270000D02*
X70080000Y127000000D01*
X124873400Y40668500D02*
X127000000Y42795100D01*
X59920000Y4857500D02*
X59920000Y3000000D01*
X8934700Y82800000D02*
X3000000Y82800000D01*
X70080000Y125196000D02*
X29029600Y84145600D01*
X123862500Y40668500D02*
X124873400Y40668500D01*
X127000000Y47200000D02*
X128270000Y48470000D01*
X59920000Y3000000D02*
X58650000Y1730000D01*
X91948300Y65047400D02*
X93952600Y65047400D01*
X56110000Y1730000D02*
X57380000Y3000000D01*
X57380000Y5493900D02*
X91948300Y40062200D01*
X122861800Y40062200D02*
X91948300Y40062200D01*
X123189000Y40389400D02*
X122861800Y40062200D01*
X57380000Y3000000D02*
X57380000Y5493900D01*
X93952600Y65047400D02*
X94000000Y65000000D01*
X73890000Y128270000D02*
X75160000Y127000000D01*
X12557900Y65000000D02*
X4917900Y72640000D01*
X39206000Y66011900D02*
X60272600Y66011900D01*
X75160000Y125177100D02*
X66706500Y116723600D01*
X39015700Y66202200D02*
X39206000Y66011900D01*
X36000000Y65000000D02*
X12557900Y65000000D01*
X36000000Y65000000D02*
X37202200Y66202200D01*
X456200Y73321000D02*
X456200Y82796200D01*
X1137200Y72640000D02*
X456200Y73321000D01*
X75160000Y127000000D02*
X75160000Y125177100D01*
X60272600Y66011900D02*
X60627100Y66366400D01*
X66706500Y116723600D02*
X63916900Y116723600D01*
X37202200Y66202200D02*
X39015700Y66202200D01*
X4917900Y72640000D02*
X1137200Y72640000D01*
X456200Y82796200D02*
X1730000Y84070000D01*
X74958200Y77855300D02*
X66128100Y69025200D01*
X113175000Y79000000D02*
X112030300Y77855300D01*
X66128100Y69025200D02*
X18455800Y69025200D01*
X4270000Y53540000D02*
X13616900Y62886900D01*
X13616900Y62886900D02*
X18455800Y62886900D01*
X112030300Y77855300D02*
X74958200Y77855300D01*
X4270000Y43380000D02*
X7620000Y43380000D01*
X7620000Y43380000D02*
X13000000Y38000000D01*
G04 #@! TA.AperFunction,Conductor*
G36*
X124696396Y54450493D02*
G01*
X124732360Y54400993D01*
X124732360Y54339807D01*
X124718297Y54312209D01*
X124646795Y54213797D01*
X124646791Y54213791D01*
X124556289Y54036168D01*
X124494684Y53846569D01*
X124463500Y53649680D01*
X124463500Y53450321D01*
X124494684Y53253432D01*
X124556289Y53063833D01*
X124646791Y52886210D01*
X124646795Y52886204D01*
X124763963Y52724937D01*
X124763965Y52724935D01*
X124763968Y52724931D01*
X124904931Y52583968D01*
X124904934Y52583966D01*
X124904936Y52583964D01*
X125066203Y52466796D01*
X125066209Y52466792D01*
X125243833Y52376289D01*
X125243835Y52376289D01*
X125243836Y52376288D01*
X125243839Y52376286D01*
X125250401Y52374154D01*
X125299901Y52338190D01*
X125318808Y52280000D01*
X125299900Y52221809D01*
X125250401Y52185846D01*
X125243839Y52183715D01*
X125243836Y52183713D01*
X125066209Y52093209D01*
X125066203Y52093205D01*
X124904936Y51976037D01*
X124763963Y51835064D01*
X124646795Y51673797D01*
X124646791Y51673791D01*
X124556289Y51496168D01*
X124494684Y51306569D01*
X124463500Y51109680D01*
X124463500Y50910321D01*
X124494684Y50713432D01*
X124556289Y50523833D01*
X124646790Y50346211D01*
X124718370Y50247691D01*
X124737277Y50189500D01*
X124718370Y50131309D01*
X124668870Y50095345D01*
X124638277Y50090500D01*
X73682369Y50090500D01*
X73624178Y50109407D01*
X73600053Y50134499D01*
X73586576Y50154669D01*
X73495977Y50245269D01*
X73495972Y50245273D01*
X73495969Y50245276D01*
X73447958Y50277356D01*
X73389433Y50316462D01*
X73389425Y50316466D01*
X73271047Y50365500D01*
X73271045Y50365501D01*
X73271044Y50365501D01*
X73145369Y50390500D01*
X73017231Y50390500D01*
X73017230Y50390500D01*
X72969945Y50381094D01*
X72891556Y50365501D01*
X72891555Y50365501D01*
X72891552Y50365500D01*
X72773174Y50316466D01*
X72773166Y50316462D01*
X72666631Y50245276D01*
X72666627Y50245273D01*
X72576027Y50154673D01*
X72576024Y50154669D01*
X72504838Y50048134D01*
X72504834Y50048126D01*
X72455800Y49929748D01*
X72455799Y49929745D01*
X72455799Y49929744D01*
X72443612Y49868478D01*
X72435220Y49826287D01*
X72430800Y49804069D01*
X72430800Y49675931D01*
X72455422Y49552149D01*
X72455799Y49550258D01*
X72455800Y49550253D01*
X72504834Y49431875D01*
X72504838Y49431867D01*
X72536385Y49384655D01*
X72576024Y49325331D01*
X72666631Y49234724D01*
X72724601Y49195990D01*
X72773166Y49163539D01*
X72773170Y49163537D01*
X72773173Y49163535D01*
X72891556Y49114499D01*
X73017231Y49089500D01*
X73017232Y49089500D01*
X73145368Y49089500D01*
X73145369Y49089500D01*
X73271044Y49114499D01*
X73389427Y49163535D01*
X73495969Y49234724D01*
X73586576Y49325331D01*
X73600053Y49345502D01*
X73648103Y49383381D01*
X73682369Y49389500D01*
X124638277Y49389500D01*
X124696468Y49370593D01*
X124732432Y49321093D01*
X124732432Y49259907D01*
X124718370Y49232309D01*
X124646790Y49133790D01*
X124556289Y48956168D01*
X124525662Y48861907D01*
X124489698Y48812407D01*
X124431507Y48793500D01*
X101111369Y48793500D01*
X101053178Y48812407D01*
X101029053Y48837499D01*
X101015576Y48857669D01*
X100924977Y48948269D01*
X100924972Y48948273D01*
X100924969Y48948276D01*
X100870455Y48984701D01*
X100818433Y49019462D01*
X100818425Y49019466D01*
X100700047Y49068500D01*
X100700045Y49068501D01*
X100700044Y49068501D01*
X100574369Y49093500D01*
X100446231Y49093500D01*
X100446230Y49093500D01*
X100426127Y49089501D01*
X100320556Y49068501D01*
X100320555Y49068501D01*
X100320552Y49068500D01*
X100202174Y49019466D01*
X100202166Y49019462D01*
X100095631Y48948276D01*
X100095627Y48948273D01*
X100005027Y48857673D01*
X100005024Y48857669D01*
X99933838Y48751134D01*
X99933834Y48751126D01*
X99884800Y48632748D01*
X99884799Y48632745D01*
X99884799Y48632744D01*
X99877299Y48595039D01*
X99860125Y48508701D01*
X99859800Y48507069D01*
X99859800Y48378931D01*
X99880681Y48273957D01*
X99884799Y48253258D01*
X99884800Y48253253D01*
X99933834Y48134875D01*
X99933838Y48134867D01*
X99965385Y48087655D01*
X100005024Y48028331D01*
X100095631Y47937724D01*
X100141833Y47906853D01*
X100202166Y47866539D01*
X100202170Y47866537D01*
X100202173Y47866535D01*
X100320556Y47817499D01*
X100446231Y47792500D01*
X100446232Y47792500D01*
X100574368Y47792500D01*
X100574369Y47792500D01*
X100700044Y47817499D01*
X100818427Y47866535D01*
X100924969Y47937724D01*
X101015576Y48028331D01*
X101029053Y48048502D01*
X101077103Y48086381D01*
X101111369Y48092500D01*
X116801200Y48092500D01*
X116859391Y48073593D01*
X116895355Y48024093D01*
X116900200Y47993500D01*
X116900200Y45878157D01*
X116915074Y45822646D01*
X116915073Y45822646D01*
X116924085Y45789015D01*
X116924086Y45789012D01*
X116970230Y45709088D01*
X117245505Y45433813D01*
X117273281Y45379298D01*
X117274500Y45363811D01*
X117274500Y44955000D01*
X117255593Y44896809D01*
X117206093Y44860845D01*
X117175500Y44856000D01*
X99924969Y44856000D01*
X99866778Y44874907D01*
X99842653Y44899999D01*
X99829176Y44920169D01*
X99738577Y45010769D01*
X99738572Y45010773D01*
X99738569Y45010776D01*
X99696126Y45039135D01*
X99632033Y45081962D01*
X99632025Y45081966D01*
X99513647Y45131000D01*
X99513645Y45131001D01*
X99513644Y45131001D01*
X99387969Y45156000D01*
X99259831Y45156000D01*
X99259830Y45156000D01*
X99196993Y45143501D01*
X99134156Y45131001D01*
X99134155Y45131001D01*
X99134152Y45131000D01*
X99015774Y45081966D01*
X99015766Y45081962D01*
X98909231Y45010776D01*
X98909227Y45010773D01*
X98818627Y44920173D01*
X98818624Y44920169D01*
X98747438Y44813634D01*
X98747434Y44813626D01*
X98698400Y44695248D01*
X98698399Y44695243D01*
X98673400Y44569570D01*
X98673400Y44441431D01*
X98698399Y44315758D01*
X98698400Y44315753D01*
X98747434Y44197375D01*
X98747438Y44197367D01*
X98779836Y44148881D01*
X98818624Y44090831D01*
X98909231Y44000224D01*
X98972748Y43957783D01*
X99015766Y43929039D01*
X99015770Y43929037D01*
X99015773Y43929035D01*
X99134156Y43879999D01*
X99259831Y43855000D01*
X99259832Y43855000D01*
X99387968Y43855000D01*
X99387969Y43855000D01*
X99513644Y43879999D01*
X99632027Y43929035D01*
X99738569Y44000224D01*
X99829176Y44090831D01*
X99842653Y44111002D01*
X99890703Y44148881D01*
X99924969Y44155000D01*
X118506142Y44155000D01*
X118506144Y44155000D01*
X118595288Y44178886D01*
X118675212Y44225030D01*
X119175470Y44725288D01*
X119221614Y44805212D01*
X119223871Y44813634D01*
X119229975Y44836413D01*
X119239411Y44871632D01*
X119245500Y44894356D01*
X119245500Y45480500D01*
X119264407Y45538691D01*
X119313907Y45574655D01*
X119344500Y45579500D01*
X124440280Y45579500D01*
X124498471Y45560593D01*
X124534435Y45511093D01*
X124556289Y45443833D01*
X124646791Y45266210D01*
X124646795Y45266204D01*
X124763963Y45104937D01*
X124763965Y45104935D01*
X124763968Y45104931D01*
X124904931Y44963968D01*
X124904934Y44963966D01*
X124904936Y44963964D01*
X125055231Y44854768D01*
X125066209Y44846792D01*
X125243833Y44756289D01*
X125251205Y44753894D01*
X125300706Y44717932D01*
X125319616Y44659742D01*
X125300711Y44601550D01*
X125251216Y44565586D01*
X125244031Y44563252D01*
X125244028Y44563250D01*
X125066472Y44472782D01*
X125066468Y44472779D01*
X124946508Y44385625D01*
X125461858Y43870274D01*
X125392292Y43830110D01*
X125289890Y43727708D01*
X125249726Y43658141D01*
X124734375Y44173492D01*
X124647221Y44053532D01*
X124647218Y44053528D01*
X124556752Y43875976D01*
X124495171Y43686452D01*
X124464000Y43489640D01*
X124464000Y43290361D01*
X124495171Y43093549D01*
X124556752Y42904025D01*
X124647221Y42726468D01*
X124734375Y42606510D01*
X125249725Y43121861D01*
X125289890Y43052292D01*
X125392292Y42949890D01*
X125461857Y42909727D01*
X124946508Y42394378D01*
X125066470Y42307220D01*
X125244024Y42216753D01*
X125433548Y42155172D01*
X125613573Y42126659D01*
X125668089Y42098882D01*
X125695867Y42044365D01*
X125686296Y41983933D01*
X125668090Y41958875D01*
X124757214Y41047997D01*
X124702697Y41020219D01*
X124687210Y41019000D01*
X124048689Y41019000D01*
X123990498Y41037907D01*
X123978685Y41047996D01*
X123448682Y41577999D01*
X122870112Y42156570D01*
X122790188Y42202714D01*
X122701044Y42226600D01*
X122701042Y42226600D01*
X91848469Y42226600D01*
X91790278Y42245507D01*
X91766153Y42270599D01*
X91752676Y42290769D01*
X91662077Y42381369D01*
X91662072Y42381373D01*
X91662069Y42381376D01*
X91613292Y42413968D01*
X91555533Y42452562D01*
X91555525Y42452566D01*
X91437147Y42501600D01*
X91437145Y42501601D01*
X91437144Y42501601D01*
X91311469Y42526600D01*
X91183331Y42526600D01*
X91183330Y42526600D01*
X91120493Y42514101D01*
X91057656Y42501601D01*
X91057655Y42501601D01*
X91057652Y42501600D01*
X90939274Y42452566D01*
X90939266Y42452562D01*
X90832731Y42381376D01*
X90832727Y42381373D01*
X90742127Y42290773D01*
X90742124Y42290769D01*
X90670938Y42184234D01*
X90670934Y42184226D01*
X90621900Y42065848D01*
X90621899Y42065845D01*
X90621899Y42065844D01*
X90616446Y42038430D01*
X90596900Y41940170D01*
X90596900Y41812031D01*
X90621899Y41686358D01*
X90621900Y41686353D01*
X90670934Y41567975D01*
X90670938Y41567967D01*
X90703336Y41519481D01*
X90742124Y41461431D01*
X90832731Y41370824D01*
X90896248Y41328383D01*
X90939266Y41299639D01*
X90939270Y41299637D01*
X90939273Y41299635D01*
X91057656Y41250599D01*
X91183331Y41225600D01*
X91183332Y41225600D01*
X91311468Y41225600D01*
X91311469Y41225600D01*
X91437144Y41250599D01*
X91555527Y41299635D01*
X91662069Y41370824D01*
X91752676Y41461431D01*
X91766153Y41481602D01*
X91814203Y41519481D01*
X91848469Y41525600D01*
X122468710Y41525600D01*
X122526901Y41506693D01*
X122538713Y41496604D01*
X122909450Y41125868D01*
X122937228Y41071351D01*
X122927657Y41010919D01*
X122885065Y40968328D01*
X122885158Y40968155D01*
X122884588Y40967851D01*
X122884392Y40967654D01*
X122883135Y40967074D01*
X122880866Y40965862D01*
X122774331Y40894676D01*
X122774327Y40894673D01*
X122683727Y40804073D01*
X122683724Y40804069D01*
X122612538Y40697534D01*
X122612534Y40697526D01*
X122563500Y40579148D01*
X122563499Y40579145D01*
X122563499Y40579144D01*
X122561177Y40567469D01*
X122546241Y40492385D01*
X122516344Y40439001D01*
X122460778Y40413386D01*
X122449143Y40412700D01*
X92549369Y40412700D01*
X92491178Y40431607D01*
X92467053Y40456699D01*
X92453576Y40476869D01*
X92362977Y40567469D01*
X92362972Y40567473D01*
X92362969Y40567476D01*
X92320526Y40595835D01*
X92256433Y40638662D01*
X92256425Y40638666D01*
X92138047Y40687700D01*
X92138045Y40687701D01*
X92138044Y40687701D01*
X92012369Y40712700D01*
X91884231Y40712700D01*
X91884230Y40712700D01*
X91821393Y40700201D01*
X91758556Y40687701D01*
X91758555Y40687701D01*
X91758552Y40687700D01*
X91640174Y40638666D01*
X91640166Y40638662D01*
X91533631Y40567476D01*
X91533627Y40567473D01*
X91443027Y40476873D01*
X91443024Y40476869D01*
X91371838Y40370334D01*
X91371834Y40370326D01*
X91322800Y40251948D01*
X91322799Y40251943D01*
X91297800Y40126270D01*
X91297800Y39998126D01*
X91302532Y39974339D01*
X91295340Y39913578D01*
X91275438Y39885022D01*
X82727193Y31336776D01*
X57099530Y5709112D01*
X57064345Y5648169D01*
X57058865Y5638679D01*
X57053386Y5629189D01*
X57053386Y5629188D01*
X57035703Y5563192D01*
X57029500Y5540043D01*
X57029500Y5361723D01*
X57010593Y5303532D01*
X56961093Y5267568D01*
X56899907Y5267568D01*
X56872309Y5281630D01*
X56773789Y5353210D01*
X56596167Y5443711D01*
X56406568Y5505316D01*
X56209679Y5536500D01*
X56209676Y5536500D01*
X56010324Y5536500D01*
X56010321Y5536500D01*
X55813431Y5505316D01*
X55623832Y5443711D01*
X55446209Y5353209D01*
X55446203Y5353205D01*
X55284936Y5236037D01*
X55143963Y5095064D01*
X55026795Y4933797D01*
X55026791Y4933791D01*
X54936287Y4756164D01*
X54936286Y4756162D01*
X54933890Y4748787D01*
X54897924Y4699289D01*
X54839733Y4680384D01*
X54781543Y4699294D01*
X54745582Y4748792D01*
X54743248Y4755975D01*
X54652780Y4933530D01*
X54565622Y5053492D01*
X54050273Y4538143D01*
X54010110Y4607708D01*
X53907708Y4710110D01*
X53838139Y4750275D01*
X54353490Y5265625D01*
X54233532Y5352779D01*
X54055975Y5443248D01*
X53866451Y5504829D01*
X53669639Y5536000D01*
X53470361Y5536000D01*
X53273548Y5504829D01*
X53084024Y5443248D01*
X52906472Y5352782D01*
X52906468Y5352779D01*
X52786508Y5265625D01*
X53301859Y4750274D01*
X53232292Y4710110D01*
X53129890Y4607708D01*
X53089726Y4538141D01*
X52574375Y5053492D01*
X52487221Y4933532D01*
X52487218Y4933528D01*
X52396752Y4755976D01*
X52335171Y4566452D01*
X52304000Y4369640D01*
X52304000Y4170361D01*
X52335171Y3973549D01*
X52396752Y3784025D01*
X52487221Y3606468D01*
X52574375Y3486510D01*
X53089725Y4001861D01*
X53129890Y3932292D01*
X53232292Y3829890D01*
X53301857Y3789727D01*
X52786508Y3274378D01*
X52906470Y3187220D01*
X53084024Y3096753D01*
X53092018Y3094155D01*
X53141518Y3058190D01*
X53160425Y3000000D01*
X53141518Y2941809D01*
X53092018Y2905845D01*
X53084024Y2903248D01*
X52906472Y2812782D01*
X52906468Y2812779D01*
X52786508Y2725625D01*
X53301859Y2210274D01*
X53232292Y2170110D01*
X53129890Y2067708D01*
X53089726Y1998142D01*
X52574375Y2513492D01*
X52487221Y2393532D01*
X52487218Y2393528D01*
X52396752Y2215976D01*
X52335171Y2026452D01*
X52304000Y1829640D01*
X52304000Y1630361D01*
X52335171Y1433549D01*
X52396752Y1244025D01*
X52487222Y1066467D01*
X52593062Y920791D01*
X52611970Y862600D01*
X52593063Y804410D01*
X52543563Y768446D01*
X52512970Y763600D01*
X30240800Y763600D01*
X30182609Y782507D01*
X30146645Y832007D01*
X30141800Y862600D01*
X30141800Y964068D01*
X30141800Y964069D01*
X30116801Y1089744D01*
X30067765Y1208127D01*
X30067763Y1208130D01*
X30067761Y1208134D01*
X30038976Y1251213D01*
X29996576Y1314669D01*
X29905969Y1405276D01*
X29863526Y1433635D01*
X29799433Y1476462D01*
X29799425Y1476466D01*
X29681047Y1525500D01*
X29681045Y1525501D01*
X29681044Y1525501D01*
X29555369Y1550500D01*
X29427231Y1550500D01*
X29427230Y1550500D01*
X29364393Y1538001D01*
X29301556Y1525501D01*
X29301555Y1525501D01*
X29301552Y1525500D01*
X29183174Y1476466D01*
X29183166Y1476462D01*
X29076631Y1405276D01*
X29076627Y1405273D01*
X28986027Y1314673D01*
X28986024Y1314669D01*
X28914838Y1208134D01*
X28914834Y1208126D01*
X28865800Y1089748D01*
X28865799Y1089745D01*
X28865799Y1089744D01*
X28853299Y1026907D01*
X28840800Y964070D01*
X28840800Y835931D01*
X28865799Y710258D01*
X28865800Y710253D01*
X28914834Y591875D01*
X28914838Y591867D01*
X28938611Y556289D01*
X28986024Y485331D01*
X28986027Y485328D01*
X29001851Y469504D01*
X29029628Y414987D01*
X29020057Y354555D01*
X28976792Y311290D01*
X28931847Y300500D01*
X25399500Y300500D01*
X25341309Y319407D01*
X25305345Y368907D01*
X25300500Y399500D01*
X25300500Y25039563D01*
X25300499Y25039565D01*
X25280021Y25115989D01*
X25280019Y25115993D01*
X25240461Y25184509D01*
X25240460Y25184511D01*
X25184511Y25240460D01*
X25184508Y25240462D01*
X25115992Y25280020D01*
X25115988Y25280022D01*
X25039564Y25300500D01*
X25039562Y25300500D01*
X399500Y25300500D01*
X341309Y25319407D01*
X305345Y25368907D01*
X300500Y25399500D01*
X300500Y33121290D01*
X31149500Y33121290D01*
X31149500Y32878711D01*
X31181161Y32638219D01*
X31181161Y32638214D01*
X31243944Y32403908D01*
X31243948Y32403895D01*
X31336772Y32179796D01*
X31336774Y32179792D01*
X31336776Y32179788D01*
X31458064Y31969711D01*
X31458066Y31969708D01*
X31605729Y31777269D01*
X31605731Y31777267D01*
X31605735Y31777262D01*
X31777262Y31605735D01*
X31777266Y31605732D01*
X31777268Y31605730D01*
X31969707Y31458067D01*
X31969711Y31458064D01*
X32179788Y31336776D01*
X32403900Y31243946D01*
X32638211Y31181162D01*
X32878712Y31149500D01*
X32878713Y31149500D01*
X33121287Y31149500D01*
X33121288Y31149500D01*
X33361789Y31181162D01*
X33596100Y31243946D01*
X33820212Y31336776D01*
X34030289Y31458064D01*
X34222738Y31605735D01*
X34394265Y31777262D01*
X34541936Y31969711D01*
X34663224Y32179788D01*
X34756054Y32403900D01*
X34818838Y32638211D01*
X34850500Y32878712D01*
X34850500Y33121288D01*
X34818838Y33361789D01*
X34756054Y33596100D01*
X34663224Y33820212D01*
X34541936Y34030289D01*
X34394265Y34222738D01*
X34222738Y34394265D01*
X34222733Y34394269D01*
X34222731Y34394271D01*
X34030292Y34541934D01*
X34030289Y34541936D01*
X33820212Y34663224D01*
X33820208Y34663226D01*
X33820204Y34663228D01*
X33596105Y34756052D01*
X33596104Y34756053D01*
X33596100Y34756054D01*
X33361789Y34818838D01*
X33361786Y34818839D01*
X33361784Y34818839D01*
X33121289Y34850500D01*
X33121288Y34850500D01*
X32878712Y34850500D01*
X32878710Y34850500D01*
X32638218Y34818839D01*
X32638213Y34818839D01*
X32403907Y34756056D01*
X32403894Y34756052D01*
X32179795Y34663228D01*
X31969707Y34541934D01*
X31777268Y34394271D01*
X31605729Y34222732D01*
X31458066Y34030293D01*
X31336772Y33820205D01*
X31243948Y33596106D01*
X31243944Y33596093D01*
X31181161Y33361787D01*
X31181161Y33361782D01*
X31149500Y33121290D01*
X300500Y33121290D01*
X300500Y43057968D01*
X319407Y43116159D01*
X368907Y43152123D01*
X430093Y43152123D01*
X479593Y43116159D01*
X493057Y43086948D01*
X493971Y43087244D01*
X556752Y42894025D01*
X647221Y42716468D01*
X734375Y42596510D01*
X1249725Y43111861D01*
X1289890Y43042292D01*
X1392292Y42939890D01*
X1461857Y42899727D01*
X946508Y42384378D01*
X1066470Y42297220D01*
X1244024Y42206753D01*
X1433548Y42145172D01*
X1630361Y42114000D01*
X1829639Y42114000D01*
X2026451Y42145172D01*
X2215975Y42206753D01*
X2393528Y42297219D01*
X2393534Y42297223D01*
X2513490Y42384377D01*
X2513490Y42384378D01*
X1998141Y42899727D01*
X2067708Y42939890D01*
X2170110Y43042292D01*
X2210273Y43111859D01*
X2725622Y42596510D01*
X2725623Y42596510D01*
X2812777Y42716466D01*
X2812781Y42716472D01*
X2903248Y42894026D01*
X2905581Y42901206D01*
X2941543Y42950708D01*
X2999733Y42969617D01*
X3057925Y42950712D01*
X3093891Y42901213D01*
X3093891Y42901211D01*
X3096287Y42893837D01*
X3186791Y42716210D01*
X3186795Y42716204D01*
X3303963Y42554937D01*
X3303965Y42554935D01*
X3303968Y42554931D01*
X3444931Y42413968D01*
X3444934Y42413966D01*
X3444936Y42413964D01*
X3605621Y42297219D01*
X3606209Y42296792D01*
X3783833Y42206289D01*
X3973427Y42144686D01*
X3973428Y42144686D01*
X3973431Y42144685D01*
X4170321Y42113500D01*
X4170324Y42113500D01*
X4369679Y42113500D01*
X4566568Y42144685D01*
X4566569Y42144686D01*
X4566573Y42144686D01*
X4756167Y42206289D01*
X4933791Y42296792D01*
X5095069Y42413968D01*
X5236032Y42554931D01*
X5353208Y42716209D01*
X5443711Y42893833D01*
X5465565Y42961094D01*
X5501529Y43010593D01*
X5559720Y43029500D01*
X7433810Y43029500D01*
X7492001Y43010593D01*
X7503814Y43000504D01*
X12042293Y38462025D01*
X12070070Y38407508D01*
X12063754Y38354138D01*
X12037949Y38291837D01*
X12037949Y38291835D01*
X11999500Y38098544D01*
X11999500Y37901457D01*
X12037949Y37708166D01*
X12037949Y37708164D01*
X12113367Y37526087D01*
X12113368Y37526086D01*
X12222861Y37362218D01*
X12362218Y37222861D01*
X12526086Y37113368D01*
X12708165Y37037949D01*
X12901459Y36999500D01*
X12901460Y36999500D01*
X13098540Y36999500D01*
X13098541Y36999500D01*
X13291835Y37037949D01*
X13473914Y37113368D01*
X13637782Y37222861D01*
X13777139Y37362218D01*
X13886632Y37526086D01*
X13962051Y37708165D01*
X14000500Y37901459D01*
X14000500Y38098541D01*
X13962051Y38291835D01*
X13886632Y38473914D01*
X13777139Y38637782D01*
X13637782Y38777139D01*
X13473914Y38886632D01*
X13473915Y38886632D01*
X13473913Y38886633D01*
X13291835Y38962051D01*
X13098543Y39000500D01*
X13098541Y39000500D01*
X12901459Y39000500D01*
X12901456Y39000500D01*
X12708165Y38962051D01*
X12708163Y38962051D01*
X12645862Y38936246D01*
X12584865Y38931447D01*
X12537975Y38957707D01*
X10192826Y41302856D01*
X7835212Y43660470D01*
X7755288Y43706614D01*
X7666144Y43730500D01*
X7666142Y43730500D01*
X5559720Y43730500D01*
X5501529Y43749407D01*
X5465565Y43798907D01*
X5443711Y43866167D01*
X5353208Y44043791D01*
X5335349Y44068372D01*
X5236036Y44205064D01*
X5236034Y44205066D01*
X5236032Y44205069D01*
X5095069Y44346032D01*
X5095065Y44346035D01*
X5095063Y44346037D01*
X4933796Y44463205D01*
X4933790Y44463209D01*
X4756163Y44553713D01*
X4756161Y44553714D01*
X4749601Y44555845D01*
X4700100Y44591807D01*
X4681191Y44649998D01*
X4700097Y44708189D01*
X4749596Y44744154D01*
X4749601Y44744155D01*
X4756161Y44746287D01*
X4756161Y44746288D01*
X4756167Y44746289D01*
X4933791Y44836792D01*
X5095069Y44953968D01*
X5236032Y45094931D01*
X5353208Y45256209D01*
X5443711Y45433833D01*
X5505314Y45623427D01*
X5512831Y45670888D01*
X5536500Y45820321D01*
X5536500Y46019682D01*
X5533215Y46040416D01*
X5542783Y46100848D01*
X5560988Y46125908D01*
X7622418Y48187339D01*
X7676933Y48215114D01*
X7737365Y48205543D01*
X7774734Y48172335D01*
X7783824Y48158731D01*
X7874431Y48068124D01*
X7927700Y48032531D01*
X7980966Y47996939D01*
X7980970Y47996937D01*
X7980973Y47996935D01*
X8099356Y47947899D01*
X8225031Y47922900D01*
X8225032Y47922900D01*
X8353164Y47922900D01*
X8353169Y47922900D01*
X8376960Y47927633D01*
X8437718Y47920444D01*
X8466278Y47900540D01*
X15565088Y40801730D01*
X15645012Y40755586D01*
X15734156Y40731700D01*
X15734157Y40731700D01*
X15826444Y40731700D01*
X59807700Y40731700D01*
X59865891Y40712793D01*
X59901855Y40663293D01*
X59906700Y40632700D01*
X59906700Y39750557D01*
X59919787Y39701712D01*
X59930584Y39661416D01*
X59930585Y39661414D01*
X59930586Y39661412D01*
X59976730Y39581488D01*
X60323588Y39234630D01*
X60403512Y39188486D01*
X60492656Y39164600D01*
X60492657Y39164600D01*
X60492658Y39164600D01*
X66546442Y39164600D01*
X66546444Y39164600D01*
X66635588Y39188486D01*
X66715512Y39234630D01*
X69674953Y42194072D01*
X71406203Y42194072D01*
X71526314Y42113815D01*
X71526326Y42113809D01*
X71708310Y42038430D01*
X71901506Y42000001D01*
X71901510Y42000000D01*
X72098490Y42000000D01*
X72098493Y42000001D01*
X72291688Y42038430D01*
X72291690Y42038430D01*
X72473675Y42113810D01*
X72593795Y42194072D01*
X71999999Y42787868D01*
X71406203Y42194072D01*
X69674953Y42194072D01*
X70874724Y43393844D01*
X70929239Y43421619D01*
X70989671Y43412048D01*
X71032936Y43368783D01*
X71042507Y43308351D01*
X71039465Y43295105D01*
X71038429Y43291692D01*
X71000000Y43098494D01*
X71000000Y42901507D01*
X71038429Y42708312D01*
X71038429Y42708310D01*
X71113809Y42526325D01*
X71194070Y42406205D01*
X71787869Y43000001D01*
X72212132Y43000001D01*
X72805928Y42406205D01*
X72886190Y42526325D01*
X72961570Y42708310D01*
X72961570Y42708312D01*
X72999999Y42901507D01*
X73000000Y42901510D01*
X73000000Y43098491D01*
X72999999Y43098494D01*
X72961570Y43291689D01*
X72961570Y43291691D01*
X72893662Y43455637D01*
X72893661Y43455639D01*
X72886188Y43473680D01*
X72886185Y43473686D01*
X72805928Y43593797D01*
X72212132Y43000001D01*
X71787869Y43000001D01*
X71893934Y43106066D01*
X71898881Y43111013D01*
X72593796Y43805929D01*
X72473675Y43886191D01*
X72291689Y43961571D01*
X72098493Y44000000D01*
X72064525Y44000000D01*
X72006334Y44018907D01*
X71970370Y44068407D01*
X71970370Y44129593D01*
X72006334Y44179093D01*
X72026639Y44190464D01*
X72043304Y44197367D01*
X72084027Y44214235D01*
X72190569Y44285424D01*
X72281176Y44376031D01*
X72352365Y44482573D01*
X72401401Y44600956D01*
X72426400Y44726631D01*
X72426400Y44854769D01*
X72401401Y44980444D01*
X72352365Y45098827D01*
X72352363Y45098830D01*
X72352361Y45098834D01*
X72314163Y45156000D01*
X72281176Y45205369D01*
X72190569Y45295976D01*
X72148126Y45324335D01*
X72084033Y45367162D01*
X72084025Y45367166D01*
X71965647Y45416200D01*
X71965645Y45416201D01*
X71965644Y45416201D01*
X71839969Y45441200D01*
X71711831Y45441200D01*
X71711830Y45441200D01*
X71674705Y45433815D01*
X71586156Y45416201D01*
X71586155Y45416201D01*
X71586152Y45416200D01*
X71467774Y45367166D01*
X71467766Y45367162D01*
X71361231Y45295976D01*
X71361227Y45295973D01*
X71270627Y45205373D01*
X71270624Y45205369D01*
X71199438Y45098834D01*
X71199434Y45098826D01*
X71150400Y44980448D01*
X71150399Y44980445D01*
X71150399Y44980444D01*
X71145132Y44953964D01*
X71125400Y44854770D01*
X71125400Y44726626D01*
X71130132Y44702839D01*
X71122940Y44642078D01*
X71103038Y44613522D01*
X67651208Y41161692D01*
X67596691Y41133915D01*
X67536259Y41143486D01*
X67492994Y41186751D01*
X67483423Y41247183D01*
X67485574Y41257305D01*
X67488000Y41266356D01*
X67488000Y49400501D01*
X67506907Y49458692D01*
X67556407Y49494656D01*
X67587000Y49499501D01*
X67681521Y49499501D01*
X67681522Y49499502D01*
X67753116Y49510840D01*
X67775299Y49514353D01*
X67775299Y49514354D01*
X67775304Y49514354D01*
X67888342Y49571950D01*
X67978050Y49661658D01*
X68035646Y49774696D01*
X68038226Y49790987D01*
X68066003Y49845503D01*
X68120519Y49873281D01*
X68136007Y49874500D01*
X69220574Y49874500D01*
X69278765Y49855593D01*
X69313332Y49810097D01*
X69328371Y49769775D01*
X69328372Y49769774D01*
X69410313Y49660313D01*
X69519774Y49578372D01*
X69647886Y49530588D01*
X69704515Y49524500D01*
X70295484Y49524501D01*
X70352114Y49530588D01*
X70480226Y49578372D01*
X70589687Y49660313D01*
X70671628Y49769774D01*
X70719412Y49897886D01*
X70725500Y49954515D01*
X70725499Y50495484D01*
X70719412Y50552114D01*
X70671628Y50680226D01*
X70589687Y50789687D01*
X70551227Y50818478D01*
X70480228Y50871627D01*
X70480226Y50871628D01*
X70384023Y50907511D01*
X70336111Y50945560D01*
X70319714Y51004508D01*
X70341096Y51061835D01*
X70384027Y51093025D01*
X70479982Y51128814D01*
X70589327Y51210669D01*
X70589331Y51210673D01*
X70671185Y51320017D01*
X70718916Y51447991D01*
X70718918Y51447999D01*
X70725000Y51504566D01*
X70725000Y51624999D01*
X70724999Y51625000D01*
X69275002Y51625000D01*
X69275001Y51624999D01*
X69275001Y51504564D01*
X69281081Y51447996D01*
X69281082Y51447994D01*
X69328814Y51320017D01*
X69410668Y51210673D01*
X69410672Y51210669D01*
X69520016Y51128815D01*
X69615973Y51093025D01*
X69663887Y51054975D01*
X69680285Y50996028D01*
X69658903Y50938700D01*
X69615974Y50907510D01*
X69596710Y50900324D01*
X69519771Y50871627D01*
X69410315Y50789689D01*
X69410311Y50789685D01*
X69328371Y50680226D01*
X69313332Y50639903D01*
X69275281Y50591989D01*
X69220574Y50575500D01*
X67818984Y50575500D01*
X67783007Y50584138D01*
X67782715Y50583238D01*
X67775305Y50585646D01*
X67681520Y50600500D01*
X66593478Y50600500D01*
X66593476Y50600499D01*
X66499700Y50585648D01*
X66499695Y50585646D01*
X66386659Y50528051D01*
X66296949Y50438341D01*
X66239354Y50325305D01*
X66224500Y50231523D01*
X66224500Y49868480D01*
X66224501Y49868477D01*
X66239352Y49774701D01*
X66239354Y49774696D01*
X66296950Y49661658D01*
X66386658Y49571950D01*
X66499696Y49514354D01*
X66593481Y49499500D01*
X66688000Y49499501D01*
X66746190Y49480594D01*
X66782154Y49431095D01*
X66787000Y49400501D01*
X66787000Y42390770D01*
X66768093Y42332579D01*
X66718593Y42296615D01*
X66657407Y42296615D01*
X66608345Y42331981D01*
X66607082Y42333692D01*
X66597150Y42347150D01*
X66597146Y42347153D01*
X66597144Y42347155D01*
X66487883Y42427793D01*
X66359703Y42472645D01*
X66359694Y42472647D01*
X66329274Y42475500D01*
X66329266Y42475500D01*
X65886190Y42475500D01*
X65827999Y42494407D01*
X65816186Y42504496D01*
X65241996Y43078686D01*
X65214219Y43133203D01*
X65213000Y43148690D01*
X65213000Y49400501D01*
X65231907Y49458692D01*
X65281407Y49494656D01*
X65312000Y49499501D01*
X65406521Y49499501D01*
X65406522Y49499502D01*
X65478116Y49510840D01*
X65500299Y49514353D01*
X65500299Y49514354D01*
X65500304Y49514354D01*
X65613342Y49571950D01*
X65703050Y49661658D01*
X65760646Y49774696D01*
X65775500Y49868481D01*
X65775499Y50231518D01*
X65768489Y50275781D01*
X65760647Y50325300D01*
X65760646Y50325302D01*
X65760646Y50325304D01*
X65703050Y50438342D01*
X65696736Y50444656D01*
X65686041Y50455352D01*
X65658265Y50509869D01*
X65667837Y50570301D01*
X65686044Y50595359D01*
X65702640Y50611955D01*
X65702640Y50611956D01*
X65760163Y50724849D01*
X65760164Y50724853D01*
X65775000Y50818516D01*
X65775000Y50849999D01*
X65774999Y50850000D01*
X64961500Y50850000D01*
X64903309Y50868907D01*
X64867345Y50918407D01*
X64862500Y50949000D01*
X64862500Y51051000D01*
X64881407Y51109191D01*
X64930907Y51145155D01*
X64961500Y51150000D01*
X65774998Y51150000D01*
X65774999Y51150001D01*
X65774999Y51181484D01*
X65774998Y51181486D01*
X65760166Y51275142D01*
X65760163Y51275152D01*
X65702641Y51388044D01*
X65686042Y51404643D01*
X65658265Y51459160D01*
X65667836Y51519592D01*
X65686039Y51544648D01*
X65703050Y51561658D01*
X65760646Y51674696D01*
X65775500Y51768481D01*
X65775500Y51799999D01*
X66225001Y51799999D01*
X66225001Y51768515D01*
X66239833Y51674859D01*
X66239836Y51674849D01*
X66297358Y51561957D01*
X66386956Y51472359D01*
X66499848Y51414837D01*
X66499852Y51414836D01*
X66593515Y51400001D01*
X66987498Y51400001D01*
X66987500Y51400002D01*
X66987500Y51799999D01*
X67287500Y51799999D01*
X67287500Y51400002D01*
X67287501Y51400001D01*
X67681483Y51400001D01*
X67681485Y51400002D01*
X67775141Y51414834D01*
X67775151Y51414837D01*
X67888043Y51472359D01*
X67977641Y51561957D01*
X68035163Y51674849D01*
X68035164Y51674853D01*
X68050000Y51768516D01*
X68050000Y51799999D01*
X68049999Y51800000D01*
X67287501Y51800000D01*
X67287500Y51799999D01*
X66987500Y51799999D01*
X66987499Y51800000D01*
X66225002Y51800000D01*
X66225001Y51799999D01*
X65775500Y51799999D01*
X65775499Y52066201D01*
X65794406Y52124390D01*
X65843906Y52160354D01*
X65874499Y52165200D01*
X66126000Y52165200D01*
X66184191Y52146293D01*
X66198758Y52126243D01*
X66225001Y52100000D01*
X68049998Y52100000D01*
X68066267Y52116270D01*
X68068906Y52124391D01*
X68118406Y52160355D01*
X68148999Y52165200D01*
X69177662Y52165200D01*
X69235853Y52146293D01*
X69271817Y52096793D01*
X69276095Y52055616D01*
X69275000Y52045433D01*
X69275000Y51925001D01*
X69275001Y51925000D01*
X70724998Y51925000D01*
X70724999Y51925001D01*
X70724999Y52045431D01*
X70724998Y52045435D01*
X70723904Y52055619D01*
X70736484Y52115497D01*
X70781856Y52156545D01*
X70822337Y52165200D01*
X73422631Y52165200D01*
X73480822Y52146293D01*
X73504947Y52121201D01*
X73518423Y52101032D01*
X73609022Y52010432D01*
X73609026Y52010429D01*
X73609031Y52010424D01*
X73662047Y51975000D01*
X73715566Y51939239D01*
X73715570Y51939237D01*
X73715573Y51939235D01*
X73833956Y51890199D01*
X73959631Y51865200D01*
X73959632Y51865200D01*
X74087768Y51865200D01*
X74087769Y51865200D01*
X74213444Y51890199D01*
X74331827Y51939235D01*
X74438369Y52010424D01*
X74528976Y52101031D01*
X74542453Y52121202D01*
X74590503Y52159081D01*
X74624769Y52165200D01*
X103854731Y52165200D01*
X103912922Y52146293D01*
X103937047Y52121201D01*
X103950523Y52101032D01*
X104041122Y52010432D01*
X104041126Y52010429D01*
X104041131Y52010424D01*
X104094147Y51975000D01*
X104147666Y51939239D01*
X104147670Y51939237D01*
X104147673Y51939235D01*
X104266056Y51890199D01*
X104391731Y51865200D01*
X104391732Y51865200D01*
X104519868Y51865200D01*
X104519869Y51865200D01*
X104645544Y51890199D01*
X104763927Y51939235D01*
X104870469Y52010424D01*
X104961076Y52101031D01*
X105032265Y52207573D01*
X105081301Y52325956D01*
X105106300Y52451631D01*
X105106300Y52579769D01*
X105081301Y52705444D01*
X105032265Y52823827D01*
X105032263Y52823830D01*
X105032261Y52823834D01*
X104997268Y52876204D01*
X104961076Y52930369D01*
X104870469Y53020976D01*
X104821286Y53053839D01*
X104763933Y53092162D01*
X104763925Y53092166D01*
X104645547Y53141200D01*
X104645545Y53141201D01*
X104645544Y53141201D01*
X104519869Y53166200D01*
X104391731Y53166200D01*
X104391730Y53166200D01*
X104328893Y53153701D01*
X104266056Y53141201D01*
X104266055Y53141201D01*
X104266052Y53141200D01*
X104147674Y53092166D01*
X104147666Y53092162D01*
X104041131Y53020976D01*
X104041122Y53020969D01*
X103950523Y52930369D01*
X103937047Y52910199D01*
X103888997Y52872319D01*
X103854731Y52866200D01*
X74624769Y52866200D01*
X74566578Y52885107D01*
X74542453Y52910199D01*
X74528976Y52930369D01*
X74438377Y53020969D01*
X74438372Y53020973D01*
X74438369Y53020976D01*
X74389186Y53053839D01*
X74331833Y53092162D01*
X74331825Y53092166D01*
X74213447Y53141200D01*
X74213445Y53141201D01*
X74213444Y53141201D01*
X74087769Y53166200D01*
X73959631Y53166200D01*
X73959630Y53166200D01*
X73896793Y53153701D01*
X73833956Y53141201D01*
X73833955Y53141201D01*
X73833952Y53141200D01*
X73715574Y53092166D01*
X73715566Y53092162D01*
X73609031Y53020976D01*
X73609022Y53020969D01*
X73518423Y52930369D01*
X73504947Y52910199D01*
X73456897Y52872319D01*
X73422631Y52866200D01*
X65382056Y52866200D01*
X65292912Y52842314D01*
X65260892Y52823827D01*
X65212985Y52796168D01*
X64946313Y52529496D01*
X64891797Y52501719D01*
X64876310Y52500500D01*
X64862389Y52500500D01*
X64804198Y52519407D01*
X64768234Y52568907D01*
X64768234Y52630093D01*
X64792385Y52669504D01*
X65176715Y53053833D01*
X65693286Y53570404D01*
X65747803Y53598181D01*
X65763290Y53599400D01*
X105158831Y53599400D01*
X105217022Y53580493D01*
X105241147Y53555401D01*
X105254623Y53535232D01*
X105345222Y53444632D01*
X105345226Y53444629D01*
X105345231Y53444624D01*
X105408748Y53402183D01*
X105451766Y53373439D01*
X105451770Y53373437D01*
X105451773Y53373435D01*
X105570156Y53324399D01*
X105695831Y53299400D01*
X105695832Y53299400D01*
X105823968Y53299400D01*
X105823969Y53299400D01*
X105949644Y53324399D01*
X106068027Y53373435D01*
X106174569Y53444624D01*
X106265176Y53535231D01*
X106336365Y53641773D01*
X106385401Y53760156D01*
X106410400Y53885831D01*
X106410400Y54013969D01*
X106385401Y54139644D01*
X106336365Y54258027D01*
X106336363Y54258030D01*
X106336361Y54258034D01*
X106298031Y54315398D01*
X106281422Y54374286D01*
X106302599Y54431690D01*
X106353473Y54465683D01*
X106380346Y54469400D01*
X124638205Y54469400D01*
X124696396Y54450493D01*
G37*
G04 #@! TD.AperFunction*
G04 #@! TA.AperFunction,Conductor*
G36*
X54565622Y3486510D02*
G01*
X54565623Y3486510D01*
X54652777Y3606466D01*
X54652781Y3606472D01*
X54743248Y3784026D01*
X54745581Y3791206D01*
X54781543Y3840708D01*
X54839733Y3859617D01*
X54897925Y3840712D01*
X54933891Y3791213D01*
X54933891Y3791211D01*
X54936287Y3783837D01*
X55026791Y3606210D01*
X55026795Y3606204D01*
X55143963Y3444937D01*
X55143965Y3444935D01*
X55143968Y3444931D01*
X55284931Y3303968D01*
X55284934Y3303966D01*
X55284936Y3303964D01*
X55445621Y3187219D01*
X55446209Y3186792D01*
X55623833Y3096289D01*
X55623835Y3096289D01*
X55623836Y3096288D01*
X55623839Y3096286D01*
X55630401Y3094154D01*
X55679901Y3058190D01*
X55698808Y3000000D01*
X55679900Y2941809D01*
X55630401Y2905846D01*
X55623839Y2903715D01*
X55623836Y2903713D01*
X55446209Y2813209D01*
X55446203Y2813205D01*
X55284936Y2696037D01*
X55143963Y2555064D01*
X55026795Y2393797D01*
X55026791Y2393791D01*
X54936287Y2216164D01*
X54936286Y2216162D01*
X54933890Y2208787D01*
X54897924Y2159289D01*
X54839733Y2140384D01*
X54781543Y2159294D01*
X54745582Y2208792D01*
X54743248Y2215975D01*
X54652780Y2393530D01*
X54565622Y2513492D01*
X54050273Y1998143D01*
X54010110Y2067708D01*
X53907708Y2170110D01*
X53838139Y2210275D01*
X54353490Y2725625D01*
X54233532Y2812779D01*
X54055972Y2903250D01*
X54047983Y2905845D01*
X53998483Y2941807D01*
X53979574Y2999998D01*
X53998480Y3058189D01*
X54047979Y3094154D01*
X54047983Y3094155D01*
X54055972Y3096751D01*
X54233528Y3187219D01*
X54233534Y3187223D01*
X54353490Y3274377D01*
X54353490Y3274378D01*
X53838141Y3789727D01*
X53907708Y3829890D01*
X54010110Y3932292D01*
X54050273Y4001859D01*
X54565622Y3486510D01*
G37*
G04 #@! TD.AperFunction*
G04 #@! TA.AperFunction,Conductor*
G36*
X127829890Y43052292D02*
G01*
X127932292Y42949890D01*
X128001857Y42909727D01*
X127558101Y42465971D01*
X127558101Y42465970D01*
X127658877Y42392751D01*
X127658883Y42392747D01*
X127822415Y42309424D01*
X127996965Y42252709D01*
X128178231Y42224000D01*
X128218209Y42224000D01*
X128276400Y42205093D01*
X128312364Y42155593D01*
X128312364Y42094407D01*
X128288213Y42054996D01*
X113726214Y27492996D01*
X113671697Y27465219D01*
X113656210Y27464000D01*
X103876553Y27464000D01*
X103818362Y27482907D01*
X103782398Y27532407D01*
X103782398Y27593593D01*
X103806549Y27633004D01*
X103864876Y27691331D01*
X103936065Y27797873D01*
X103985101Y27916256D01*
X104010100Y28041931D01*
X104010100Y28170069D01*
X103985101Y28295744D01*
X103936065Y28414127D01*
X103936063Y28414130D01*
X103936061Y28414134D01*
X103903664Y28462619D01*
X103864876Y28520669D01*
X103774269Y28611276D01*
X103731826Y28639635D01*
X103667733Y28682462D01*
X103667725Y28682466D01*
X103549347Y28731500D01*
X103549345Y28731501D01*
X103549344Y28731501D01*
X103423669Y28756500D01*
X103295531Y28756500D01*
X103295530Y28756500D01*
X103232693Y28744001D01*
X103169856Y28731501D01*
X103169855Y28731501D01*
X103169852Y28731500D01*
X103051474Y28682466D01*
X103051466Y28682462D01*
X102944931Y28611276D01*
X102944922Y28611269D01*
X102854323Y28520669D01*
X102840847Y28500499D01*
X102792797Y28462619D01*
X102758531Y28456500D01*
X87345456Y28456500D01*
X87256312Y28432614D01*
X87224292Y28414127D01*
X87176385Y28386468D01*
X86063977Y27274062D01*
X86009461Y27246285D01*
X85974661Y27246968D01*
X85950874Y27251700D01*
X85950869Y27251700D01*
X85822731Y27251700D01*
X85822730Y27251700D01*
X85759893Y27239201D01*
X85697056Y27226701D01*
X85697055Y27226701D01*
X85697052Y27226700D01*
X85578674Y27177666D01*
X85578666Y27177662D01*
X85472131Y27106476D01*
X85472127Y27106473D01*
X85381527Y27015873D01*
X85381524Y27015869D01*
X85310338Y26909334D01*
X85310334Y26909326D01*
X85261300Y26790948D01*
X85261299Y26790945D01*
X85261299Y26790944D01*
X85255498Y26761781D01*
X85236300Y26665270D01*
X85236300Y26537129D01*
X85255500Y26440608D01*
X85248308Y26379847D01*
X85228406Y26351290D01*
X69588399Y10711283D01*
X69533882Y10683506D01*
X69473450Y10693077D01*
X69437866Y10728019D01*
X69435868Y10726683D01*
X69400764Y10779219D01*
X69361976Y10837269D01*
X69271369Y10927876D01*
X69228926Y10956235D01*
X69164833Y10999062D01*
X69164825Y10999066D01*
X69046447Y11048100D01*
X69046445Y11048101D01*
X69046444Y11048101D01*
X68920769Y11073100D01*
X68792631Y11073100D01*
X68792630Y11073100D01*
X68729793Y11060601D01*
X68666956Y11048101D01*
X68666955Y11048101D01*
X68666952Y11048100D01*
X68548574Y10999066D01*
X68548566Y10999062D01*
X68442031Y10927876D01*
X68442022Y10927869D01*
X68351423Y10837269D01*
X68337947Y10817099D01*
X68289897Y10779219D01*
X68255631Y10773100D01*
X67961056Y10773100D01*
X67906497Y10758482D01*
X67871907Y10749213D01*
X67791991Y10703073D01*
X62240013Y5151095D01*
X62185496Y5123318D01*
X62125064Y5132889D01*
X62100008Y5151093D01*
X62015069Y5236032D01*
X62015065Y5236035D01*
X62015063Y5236037D01*
X61853796Y5353205D01*
X61853790Y5353209D01*
X61676167Y5443711D01*
X61486568Y5505316D01*
X61313250Y5532767D01*
X61258733Y5560545D01*
X61230956Y5615061D01*
X61240528Y5675493D01*
X61258730Y5700549D01*
X88679470Y33121290D01*
X95149500Y33121290D01*
X95149500Y32878711D01*
X95181161Y32638219D01*
X95181161Y32638214D01*
X95243944Y32403908D01*
X95243948Y32403895D01*
X95336772Y32179796D01*
X95336774Y32179792D01*
X95336776Y32179788D01*
X95458064Y31969711D01*
X95458066Y31969708D01*
X95605729Y31777269D01*
X95605731Y31777267D01*
X95605735Y31777262D01*
X95777262Y31605735D01*
X95777266Y31605732D01*
X95777268Y31605730D01*
X95969707Y31458067D01*
X95969711Y31458064D01*
X96179788Y31336776D01*
X96403900Y31243946D01*
X96638211Y31181162D01*
X96878712Y31149500D01*
X96878713Y31149500D01*
X97121287Y31149500D01*
X97121288Y31149500D01*
X97361789Y31181162D01*
X97596100Y31243946D01*
X97820212Y31336776D01*
X98030289Y31458064D01*
X98222738Y31605735D01*
X98394265Y31777262D01*
X98541936Y31969711D01*
X98663224Y32179788D01*
X98756054Y32403900D01*
X98818838Y32638211D01*
X98850500Y32878712D01*
X98850500Y33121288D01*
X98818838Y33361789D01*
X98756054Y33596100D01*
X98663224Y33820212D01*
X98541936Y34030289D01*
X98394265Y34222738D01*
X98222738Y34394265D01*
X98222733Y34394269D01*
X98222731Y34394271D01*
X98030292Y34541934D01*
X98030289Y34541936D01*
X97820212Y34663224D01*
X97820208Y34663226D01*
X97820204Y34663228D01*
X97596105Y34756052D01*
X97596104Y34756053D01*
X97596100Y34756054D01*
X97361789Y34818838D01*
X97361786Y34818839D01*
X97361784Y34818839D01*
X97121289Y34850500D01*
X97121288Y34850500D01*
X96878712Y34850500D01*
X96878710Y34850500D01*
X96638218Y34818839D01*
X96638213Y34818839D01*
X96403907Y34756056D01*
X96403894Y34756052D01*
X96179795Y34663228D01*
X95969707Y34541934D01*
X95777268Y34394271D01*
X95605729Y34222732D01*
X95458066Y34030293D01*
X95336772Y33820205D01*
X95243948Y33596106D01*
X95243944Y33596093D01*
X95181161Y33361787D01*
X95181161Y33361782D01*
X95149500Y33121290D01*
X88679470Y33121290D01*
X94889185Y39331005D01*
X94943702Y39358781D01*
X94959189Y39360000D01*
X123509442Y39360000D01*
X123509444Y39360000D01*
X123598588Y39383886D01*
X123678512Y39430030D01*
X124142970Y39894488D01*
X124189114Y39974412D01*
X124195470Y39998131D01*
X124200272Y40016055D01*
X124200272Y40016056D01*
X124213000Y40063556D01*
X124213000Y40219000D01*
X124231907Y40277191D01*
X124281407Y40313155D01*
X124312000Y40318000D01*
X124919542Y40318000D01*
X124919544Y40318000D01*
X125008688Y40341886D01*
X125011063Y40343257D01*
X125088612Y40388030D01*
X127280470Y42579888D01*
X127318644Y42646010D01*
X127334375Y42666509D01*
X127789725Y43121860D01*
X127829890Y43052292D01*
G37*
G04 #@! TD.AperFunction*
G04 #@! TA.AperFunction,Conductor*
G36*
X479593Y45654199D02*
G01*
X493655Y45626601D01*
X494685Y45623432D01*
X494686Y45623427D01*
X531186Y45511093D01*
X556289Y45433833D01*
X646791Y45256210D01*
X646795Y45256204D01*
X763963Y45094937D01*
X763965Y45094935D01*
X763968Y45094931D01*
X904931Y44953968D01*
X904934Y44953966D01*
X904936Y44953964D01*
X1066203Y44836796D01*
X1066209Y44836792D01*
X1243833Y44746289D01*
X1251205Y44743894D01*
X1300706Y44707932D01*
X1319616Y44649742D01*
X1300711Y44591550D01*
X1251216Y44555586D01*
X1244031Y44553252D01*
X1244028Y44553250D01*
X1066472Y44462782D01*
X1066468Y44462779D01*
X946508Y44375625D01*
X1461859Y43860274D01*
X1392292Y43820110D01*
X1289890Y43717708D01*
X1249726Y43648141D01*
X734375Y44163492D01*
X647221Y44043532D01*
X647218Y44043528D01*
X556752Y43865976D01*
X493971Y43672756D01*
X492316Y43673294D01*
X463792Y43626750D01*
X407263Y43603338D01*
X347769Y43617624D01*
X308034Y43664151D01*
X300500Y43702033D01*
X300500Y45596008D01*
X319407Y45654199D01*
X368907Y45690163D01*
X430093Y45690163D01*
X479593Y45654199D01*
G37*
G04 #@! TD.AperFunction*
G04 #@! TA.AperFunction,Conductor*
G36*
X3058189Y45489903D02*
G01*
X3094154Y45440404D01*
X3094155Y45440399D01*
X3096286Y45433839D01*
X3096287Y45433837D01*
X3186791Y45256210D01*
X3186795Y45256204D01*
X3303963Y45094937D01*
X3303965Y45094935D01*
X3303968Y45094931D01*
X3444931Y44953968D01*
X3444934Y44953966D01*
X3444936Y44953964D01*
X3606203Y44836796D01*
X3606209Y44836792D01*
X3783833Y44746289D01*
X3783835Y44746289D01*
X3783836Y44746288D01*
X3783839Y44746286D01*
X3790401Y44744154D01*
X3839901Y44708190D01*
X3858808Y44650000D01*
X3839900Y44591809D01*
X3790401Y44555846D01*
X3783839Y44553715D01*
X3783836Y44553713D01*
X3606209Y44463209D01*
X3606203Y44463205D01*
X3444936Y44346037D01*
X3303963Y44205064D01*
X3186795Y44043797D01*
X3186791Y44043791D01*
X3096287Y43866164D01*
X3096286Y43866162D01*
X3093890Y43858787D01*
X3057924Y43809289D01*
X2999733Y43790384D01*
X2941543Y43809294D01*
X2905582Y43858792D01*
X2903248Y43865975D01*
X2812780Y44043530D01*
X2725622Y44163492D01*
X2210273Y43648143D01*
X2170110Y43717708D01*
X2067708Y43820110D01*
X1998139Y43860275D01*
X2513490Y44375625D01*
X2393532Y44462779D01*
X2215971Y44553250D01*
X2215969Y44553251D01*
X2208786Y44555585D01*
X2159288Y44591551D01*
X2140383Y44649743D01*
X2159293Y44707933D01*
X2208794Y44743894D01*
X2216167Y44746289D01*
X2393791Y44836792D01*
X2555069Y44953968D01*
X2696032Y45094931D01*
X2813208Y45256209D01*
X2903711Y45433833D01*
X2903713Y45433839D01*
X2905845Y45440399D01*
X2941807Y45489900D01*
X2999998Y45508809D01*
X3058189Y45489903D01*
G37*
G04 #@! TD.AperFunction*
G04 #@! TA.AperFunction,Conductor*
G36*
X127507691Y44918370D02*
G01*
X127595229Y44854769D01*
X127606209Y44846792D01*
X127783833Y44756289D01*
X127953012Y44701320D01*
X128002511Y44665356D01*
X128021418Y44607165D01*
X128002511Y44548974D01*
X127953011Y44513011D01*
X127822421Y44470580D01*
X127658883Y44387254D01*
X127658879Y44387252D01*
X127558101Y44314032D01*
X128001859Y43870274D01*
X127932292Y43830110D01*
X127829890Y43727708D01*
X127789726Y43658142D01*
X127379496Y44068372D01*
X127351719Y44122889D01*
X127350500Y44138376D01*
X127350500Y44838278D01*
X127369407Y44896469D01*
X127418907Y44932433D01*
X127480093Y44932433D01*
X127507691Y44918370D01*
G37*
G04 #@! TD.AperFunction*
G04 #@! TA.AperFunction,Conductor*
G36*
X129152490Y44921132D02*
G01*
X129188454Y44871632D01*
X129193300Y44841039D01*
X129193300Y44142176D01*
X129174393Y44083985D01*
X129164304Y44072172D01*
X128750273Y43658142D01*
X128710110Y43727708D01*
X128607708Y43830110D01*
X128538139Y43870275D01*
X128981897Y44314032D01*
X128881122Y44387250D01*
X128881116Y44387254D01*
X128717584Y44470577D01*
X128586988Y44513010D01*
X128537488Y44548974D01*
X128518581Y44607165D01*
X128537488Y44665356D01*
X128586986Y44701319D01*
X128756167Y44756289D01*
X128933791Y44846792D01*
X129036109Y44921132D01*
X129094299Y44940039D01*
X129152490Y44921132D01*
G37*
G04 #@! TD.AperFunction*
G04 #@! TA.AperFunction,Conductor*
G36*
X22390201Y62221693D02*
G01*
X22426165Y62172193D01*
X22426165Y62111007D01*
X22402014Y62071596D01*
X11894004Y51563586D01*
X11839487Y51535809D01*
X11779055Y51545380D01*
X11735790Y51588645D01*
X11725000Y51633590D01*
X11725000Y51674999D01*
X11724999Y51675000D01*
X10275002Y51675000D01*
X10275001Y51674999D01*
X10275001Y51570797D01*
X10277850Y51540400D01*
X10277851Y51540394D01*
X10298215Y51482198D01*
X10299588Y51421028D01*
X10264744Y51370733D01*
X10206992Y51350525D01*
X10204771Y51350500D01*
X9250756Y51350500D01*
X9161612Y51326614D01*
X9161611Y51326614D01*
X9161609Y51326613D01*
X9081690Y51280471D01*
X7005229Y49204011D01*
X6964687Y49133790D01*
X6959087Y49124092D01*
X6959085Y49124086D01*
X6947679Y49081520D01*
X6922057Y49037141D01*
X5454414Y47569496D01*
X5399897Y47541719D01*
X5384410Y47540500D01*
X5361723Y47540500D01*
X5303532Y47559407D01*
X5267568Y47608907D01*
X5267568Y47670093D01*
X5281630Y47697691D01*
X5309917Y47736625D01*
X5353208Y47796209D01*
X5443711Y47973833D01*
X5505314Y48163427D01*
X5513501Y48215114D01*
X5536500Y48360321D01*
X5536500Y48559680D01*
X5506814Y48747100D01*
X5505314Y48756573D01*
X5490117Y48803344D01*
X5477360Y48842608D01*
X5477361Y48903793D01*
X5513325Y48953293D01*
X5571515Y48972200D01*
X6356642Y48972200D01*
X6356644Y48972200D01*
X6445788Y48996086D01*
X6448435Y48997614D01*
X6525712Y49042230D01*
X9562694Y52079212D01*
X10275000Y52079212D01*
X10275000Y51975001D01*
X10275001Y51975000D01*
X10849999Y51975000D01*
X10850000Y51975001D01*
X10850000Y52474999D01*
X11150000Y52474999D01*
X11150000Y51975001D01*
X11150001Y51975000D01*
X11724998Y51975000D01*
X11724999Y51975001D01*
X11724999Y52079204D01*
X11722149Y52109601D01*
X11722149Y52109603D01*
X11677345Y52237648D01*
X11596792Y52346791D01*
X11596790Y52346793D01*
X11487647Y52427346D01*
X11359601Y52472150D01*
X11329211Y52475000D01*
X11150001Y52475000D01*
X11150000Y52474999D01*
X10850000Y52474999D01*
X10849999Y52475000D01*
X10670796Y52475000D01*
X10640399Y52472150D01*
X10640397Y52472150D01*
X10512352Y52427346D01*
X10403209Y52346793D01*
X10403207Y52346791D01*
X10322654Y52237648D01*
X10277850Y52109602D01*
X10275000Y52079212D01*
X9562694Y52079212D01*
X19695085Y62211605D01*
X19749602Y62239381D01*
X19765089Y62240600D01*
X22332010Y62240600D01*
X22390201Y62221693D01*
G37*
G04 #@! TD.AperFunction*
G04 #@! TA.AperFunction,Conductor*
G36*
X104658691Y129680593D02*
G01*
X104694655Y129631093D01*
X104699500Y129600500D01*
X104699500Y104960436D01*
X104719978Y104884012D01*
X104719980Y104884008D01*
X104759538Y104815492D01*
X104759540Y104815489D01*
X104815489Y104759540D01*
X104815491Y104759539D01*
X104884007Y104719981D01*
X104884011Y104719979D01*
X104960435Y104699501D01*
X104960437Y104699500D01*
X104960438Y104699500D01*
X129600500Y104699500D01*
X129658691Y104680593D01*
X129694655Y104631093D01*
X129699500Y104600500D01*
X129699500Y86942033D01*
X129680593Y86883842D01*
X129631093Y86847878D01*
X129569907Y86847878D01*
X129520407Y86883842D01*
X129506940Y86913053D01*
X129506029Y86912756D01*
X129443247Y87105976D01*
X129352780Y87283530D01*
X129265622Y87403492D01*
X128750273Y86888143D01*
X128710110Y86957708D01*
X128607708Y87060110D01*
X128538139Y87100275D01*
X129053490Y87615625D01*
X128933532Y87702779D01*
X128755975Y87793248D01*
X128566451Y87854829D01*
X128369639Y87886000D01*
X128170361Y87886000D01*
X127973548Y87854829D01*
X127784024Y87793248D01*
X127606472Y87702782D01*
X127606468Y87702779D01*
X127486508Y87615625D01*
X128001859Y87100274D01*
X127932292Y87060110D01*
X127829890Y86957708D01*
X127789726Y86888141D01*
X127274375Y87403492D01*
X127187221Y87283532D01*
X127187218Y87283528D01*
X127096750Y87105972D01*
X127096748Y87105969D01*
X127094414Y87098784D01*
X127058447Y87049287D01*
X127000255Y87030384D01*
X126942065Y87049296D01*
X126906106Y87098795D01*
X126903711Y87106167D01*
X126813208Y87283791D01*
X126813204Y87283797D01*
X126696036Y87445064D01*
X126696034Y87445066D01*
X126696032Y87445069D01*
X126555069Y87586032D01*
X126555065Y87586035D01*
X126555063Y87586037D01*
X126393796Y87703205D01*
X126393790Y87703209D01*
X126216167Y87793711D01*
X126026568Y87855316D01*
X125829679Y87886500D01*
X125829676Y87886500D01*
X125630324Y87886500D01*
X125630321Y87886500D01*
X125433431Y87855316D01*
X125243829Y87793710D01*
X125180819Y87761605D01*
X125120387Y87752034D01*
X125065871Y87779811D01*
X122861534Y89984148D01*
X120565212Y92280470D01*
X120485288Y92326614D01*
X120396144Y92350500D01*
X120396142Y92350500D01*
X118003901Y92350500D01*
X117945710Y92369407D01*
X117912437Y92411615D01*
X117886632Y92473914D01*
X117777139Y92637782D01*
X117637782Y92777139D01*
X117473914Y92886632D01*
X117473915Y92886632D01*
X117473913Y92886633D01*
X117291835Y92962051D01*
X117098543Y93000500D01*
X117098541Y93000500D01*
X116901459Y93000500D01*
X116901456Y93000500D01*
X116708165Y92962051D01*
X116708163Y92962051D01*
X116526086Y92886633D01*
X116362218Y92777139D01*
X116362214Y92777136D01*
X116222864Y92637786D01*
X116222861Y92637782D01*
X116113367Y92473914D01*
X116037949Y92291837D01*
X116037949Y92291835D01*
X115999500Y92098544D01*
X115999500Y91901457D01*
X116037949Y91708166D01*
X116037949Y91708164D01*
X116113367Y91526087D01*
X116113368Y91526086D01*
X116222861Y91362218D01*
X116362218Y91222861D01*
X116526086Y91113368D01*
X116708165Y91037949D01*
X116901459Y90999500D01*
X116901460Y90999500D01*
X117098540Y90999500D01*
X117098541Y90999500D01*
X117291835Y91037949D01*
X117473914Y91113368D01*
X117637782Y91222861D01*
X117777139Y91362218D01*
X117886632Y91526086D01*
X117912437Y91588385D01*
X117952173Y91634911D01*
X118003901Y91649500D01*
X120163810Y91649500D01*
X120222001Y91630593D01*
X120233814Y91620504D01*
X124570189Y87284129D01*
X124597966Y87229612D01*
X124588395Y87169181D01*
X124556290Y87106171D01*
X124494684Y86916569D01*
X124463500Y86719680D01*
X124463500Y86520321D01*
X124494684Y86323432D01*
X124556289Y86133833D01*
X124646791Y85956210D01*
X124646795Y85956204D01*
X124763963Y85794937D01*
X124763965Y85794935D01*
X124763968Y85794931D01*
X124904931Y85653968D01*
X124904934Y85653966D01*
X124904936Y85653964D01*
X125065621Y85537219D01*
X125066209Y85536792D01*
X125243833Y85446289D01*
X125243835Y85446289D01*
X125243836Y85446288D01*
X125243839Y85446286D01*
X125250401Y85444154D01*
X125299901Y85408190D01*
X125318808Y85350000D01*
X125299900Y85291809D01*
X125250401Y85255846D01*
X125243839Y85253715D01*
X125243836Y85253713D01*
X125066209Y85163209D01*
X125066203Y85163205D01*
X124904936Y85046037D01*
X124763963Y84905064D01*
X124646795Y84743797D01*
X124646791Y84743791D01*
X124556289Y84566168D01*
X124494684Y84376569D01*
X124463500Y84179680D01*
X124463500Y83980321D01*
X124494684Y83783432D01*
X124556290Y83593830D01*
X124588394Y83530820D01*
X124597965Y83470388D01*
X124570188Y83415872D01*
X119708814Y78554496D01*
X119654297Y78526719D01*
X119638810Y78525500D01*
X118769865Y78525500D01*
X118711674Y78544407D01*
X118683381Y78582449D01*
X118681258Y78581326D01*
X118677792Y78587884D01*
X118597154Y78697145D01*
X118597152Y78697147D01*
X118597150Y78697150D01*
X118597146Y78697153D01*
X118597144Y78697155D01*
X118487883Y78777793D01*
X118359703Y78822645D01*
X118359694Y78822647D01*
X118329274Y78825500D01*
X118329266Y78825500D01*
X117670734Y78825500D01*
X117670725Y78825500D01*
X117640305Y78822647D01*
X117640296Y78822645D01*
X117512116Y78777793D01*
X117402855Y78697155D01*
X117402845Y78697145D01*
X117322207Y78587884D01*
X117318742Y78581326D01*
X117316501Y78582510D01*
X117286524Y78543129D01*
X117230135Y78525500D01*
X115836190Y78525500D01*
X115777999Y78544407D01*
X115766186Y78554496D01*
X115504496Y78816186D01*
X115476719Y78870703D01*
X115475500Y78886190D01*
X115475500Y79329273D01*
X115475499Y79329275D01*
X115474446Y79340500D01*
X115472646Y79359699D01*
X115427793Y79487882D01*
X115422341Y79495269D01*
X115347154Y79597145D01*
X115347152Y79597147D01*
X115347150Y79597150D01*
X115347146Y79597153D01*
X115347144Y79597155D01*
X115294034Y79636352D01*
X115241669Y79674999D01*
X117275001Y79674999D01*
X117275001Y79570797D01*
X117277850Y79540400D01*
X117277850Y79540398D01*
X117322654Y79412353D01*
X117403207Y79303210D01*
X117403209Y79303208D01*
X117512352Y79222655D01*
X117640398Y79177851D01*
X117670789Y79175001D01*
X117850000Y79175001D01*
X117850000Y79674999D01*
X118150000Y79674999D01*
X118150000Y79175002D01*
X118150001Y79175001D01*
X118329203Y79175001D01*
X118359600Y79177851D01*
X118359602Y79177851D01*
X118487647Y79222655D01*
X118596790Y79303208D01*
X118596792Y79303210D01*
X118677345Y79412353D01*
X118722149Y79540399D01*
X118724999Y79570789D01*
X118725000Y79570790D01*
X118725000Y79674999D01*
X118724999Y79675000D01*
X118150001Y79675000D01*
X118150000Y79674999D01*
X117850000Y79674999D01*
X117849999Y79675000D01*
X117275002Y79675000D01*
X117275001Y79674999D01*
X115241669Y79674999D01*
X115237883Y79677793D01*
X115109703Y79722645D01*
X115109694Y79722647D01*
X115079274Y79725500D01*
X115079266Y79725500D01*
X114570734Y79725500D01*
X114570725Y79725500D01*
X114540305Y79722647D01*
X114540296Y79722645D01*
X114412116Y79677793D01*
X114302855Y79597155D01*
X114302845Y79597145D01*
X114222207Y79487884D01*
X114177355Y79359704D01*
X114177353Y79359695D01*
X114174500Y79329275D01*
X114174500Y78670726D01*
X114177353Y78640306D01*
X114177355Y78640297D01*
X114222207Y78512117D01*
X114302845Y78402856D01*
X114302847Y78402854D01*
X114302850Y78402850D01*
X114302853Y78402848D01*
X114302855Y78402846D01*
X114412116Y78322208D01*
X114412117Y78322208D01*
X114412118Y78322207D01*
X114540301Y78277354D01*
X114570725Y78274501D01*
X114570727Y78274500D01*
X114570734Y78274500D01*
X115013810Y78274500D01*
X115072001Y78255593D01*
X115083813Y78245504D01*
X115434788Y77894530D01*
X115502920Y77855193D01*
X115502929Y77855190D01*
X115502931Y77855188D01*
X115514712Y77848386D01*
X115603856Y77824500D01*
X117230135Y77824500D01*
X117288326Y77805593D01*
X117316618Y77767552D01*
X117318742Y77768674D01*
X117322205Y77762121D01*
X117344001Y77732588D01*
X117363342Y77674540D01*
X117344870Y77616209D01*
X117295640Y77579877D01*
X117264345Y77574800D01*
X112484489Y77574800D01*
X112426298Y77593707D01*
X112390334Y77643207D01*
X112390334Y77704393D01*
X112414483Y77743803D01*
X112916185Y78245505D01*
X112970702Y78273281D01*
X112986189Y78274500D01*
X113429273Y78274500D01*
X113429273Y78274501D01*
X113459699Y78277354D01*
X113587882Y78322207D01*
X113697150Y78402850D01*
X113777793Y78512118D01*
X113822646Y78640301D01*
X113825499Y78670727D01*
X113825500Y78670727D01*
X113825500Y79329273D01*
X113825499Y79329275D01*
X113824446Y79340500D01*
X113822646Y79359699D01*
X113777793Y79487882D01*
X113772341Y79495269D01*
X113697154Y79597145D01*
X113697152Y79597147D01*
X113697150Y79597150D01*
X113697146Y79597153D01*
X113697144Y79597155D01*
X113587883Y79677793D01*
X113459703Y79722645D01*
X113459694Y79722647D01*
X113429274Y79725500D01*
X113429266Y79725500D01*
X112920734Y79725500D01*
X112920725Y79725500D01*
X112890305Y79722647D01*
X112890296Y79722645D01*
X112762116Y79677793D01*
X112652855Y79597155D01*
X112652845Y79597145D01*
X112572207Y79487884D01*
X112527355Y79359704D01*
X112527353Y79359695D01*
X112524500Y79329275D01*
X112524500Y78886190D01*
X112505593Y78827999D01*
X112495504Y78816186D01*
X111914114Y78234796D01*
X111859597Y78207019D01*
X111844110Y78205800D01*
X75464317Y78205800D01*
X75406126Y78224707D01*
X75370162Y78274207D01*
X75370162Y78335393D01*
X75406126Y78384893D01*
X75426432Y78396264D01*
X75468122Y78413533D01*
X75468121Y78413533D01*
X75468127Y78413535D01*
X75574669Y78484724D01*
X75665276Y78575331D01*
X75736465Y78681873D01*
X75785501Y78800256D01*
X75810500Y78925931D01*
X75810500Y79054069D01*
X75785501Y79179744D01*
X75736465Y79298127D01*
X75736463Y79298130D01*
X75736461Y79298134D01*
X75695519Y79359407D01*
X75665276Y79404669D01*
X75574669Y79495276D01*
X75532226Y79523635D01*
X75468133Y79566462D01*
X75468125Y79566466D01*
X75349747Y79615500D01*
X75349745Y79615501D01*
X75349744Y79615501D01*
X75224069Y79640500D01*
X75095931Y79640500D01*
X75095930Y79640500D01*
X75033093Y79628001D01*
X74970256Y79615501D01*
X74970255Y79615501D01*
X74970252Y79615500D01*
X74851874Y79566466D01*
X74851866Y79566462D01*
X74745331Y79495276D01*
X74745322Y79495269D01*
X74654723Y79404669D01*
X74641247Y79384499D01*
X74593197Y79346619D01*
X74558931Y79340500D01*
X5559720Y79340500D01*
X5501529Y79359407D01*
X5465565Y79408907D01*
X5464445Y79412353D01*
X5443711Y79476167D01*
X5353208Y79653791D01*
X5281556Y79752411D01*
X5262650Y79810600D01*
X5281557Y79868791D01*
X5331057Y79904755D01*
X5361650Y79909600D01*
X84482942Y79909600D01*
X84482944Y79909600D01*
X84551342Y79927928D01*
X84576964Y79931300D01*
X98722831Y79931300D01*
X98781022Y79912393D01*
X98805147Y79887301D01*
X98818623Y79867132D01*
X98909222Y79776532D01*
X98909226Y79776529D01*
X98909231Y79776524D01*
X98945322Y79752409D01*
X99015766Y79705339D01*
X99015770Y79705337D01*
X99015773Y79705335D01*
X99134156Y79656299D01*
X99259831Y79631300D01*
X99259832Y79631300D01*
X99387968Y79631300D01*
X99387969Y79631300D01*
X99513644Y79656299D01*
X99632027Y79705335D01*
X99738569Y79776524D01*
X99829176Y79867131D01*
X99900365Y79973673D01*
X99944081Y80079212D01*
X117275000Y80079212D01*
X117275000Y79975001D01*
X117275001Y79975000D01*
X117849999Y79975000D01*
X117850000Y79975001D01*
X117850000Y80474999D01*
X118150000Y80474999D01*
X118150000Y79975001D01*
X118150001Y79975000D01*
X118724998Y79975000D01*
X118724999Y79975001D01*
X118724999Y80079204D01*
X118722149Y80109601D01*
X118722149Y80109603D01*
X118677345Y80237648D01*
X118596792Y80346791D01*
X118596790Y80346793D01*
X118487647Y80427346D01*
X118359601Y80472150D01*
X118329211Y80475000D01*
X118150001Y80475000D01*
X118150000Y80474999D01*
X117850000Y80474999D01*
X117849999Y80475000D01*
X117670796Y80475000D01*
X117640399Y80472150D01*
X117640397Y80472150D01*
X117512352Y80427346D01*
X117403209Y80346793D01*
X117403207Y80346791D01*
X117322654Y80237648D01*
X117277850Y80109602D01*
X117275000Y80079212D01*
X99944081Y80079212D01*
X99949401Y80092056D01*
X99950168Y80095915D01*
X99951148Y80100836D01*
X99965088Y80170918D01*
X99974400Y80217731D01*
X99974400Y80345869D01*
X99949401Y80471544D01*
X99900365Y80589927D01*
X99900363Y80589930D01*
X99900361Y80589934D01*
X99852074Y80662199D01*
X99829176Y80696469D01*
X99738569Y80787076D01*
X99696126Y80815435D01*
X99632033Y80858262D01*
X99632025Y80858266D01*
X99513647Y80907300D01*
X99513645Y80907301D01*
X99513644Y80907301D01*
X99387969Y80932300D01*
X99259831Y80932300D01*
X99259830Y80932300D01*
X99196993Y80919801D01*
X99134156Y80907301D01*
X99134155Y80907301D01*
X99134152Y80907300D01*
X99015774Y80858266D01*
X99015766Y80858262D01*
X98909231Y80787076D01*
X98909222Y80787069D01*
X98818623Y80696469D01*
X98805147Y80676299D01*
X98757097Y80638419D01*
X98722831Y80632300D01*
X84412356Y80632300D01*
X84343957Y80613973D01*
X84318336Y80610600D01*
X5361795Y80610600D01*
X5303604Y80629507D01*
X5267640Y80679007D01*
X5267640Y80740193D01*
X5281703Y80767791D01*
X5353204Y80866204D01*
X5353208Y80866209D01*
X5443711Y81043833D01*
X5465565Y81111094D01*
X5501529Y81160593D01*
X5559720Y81179500D01*
X11498642Y81179500D01*
X11498644Y81179500D01*
X11587788Y81203386D01*
X11667712Y81249530D01*
X11990414Y81572232D01*
X12116187Y81698004D01*
X12170703Y81725781D01*
X12186190Y81727000D01*
X99909231Y81727000D01*
X99967422Y81708093D01*
X99991547Y81683001D01*
X100005023Y81662832D01*
X100095622Y81572232D01*
X100095626Y81572229D01*
X100095631Y81572224D01*
X100159148Y81529783D01*
X100202166Y81501039D01*
X100202170Y81501037D01*
X100202173Y81501035D01*
X100320556Y81451999D01*
X100446231Y81427000D01*
X100446232Y81427000D01*
X100574368Y81427000D01*
X100574369Y81427000D01*
X100700044Y81451999D01*
X100818427Y81501035D01*
X100924969Y81572224D01*
X101015576Y81662831D01*
X101086765Y81769373D01*
X101135801Y81887756D01*
X101160800Y82013431D01*
X101160800Y82141569D01*
X101135801Y82267244D01*
X101086765Y82385627D01*
X101086763Y82385630D01*
X101086761Y82385634D01*
X101044086Y82449500D01*
X101015576Y82492169D01*
X100924969Y82582776D01*
X100864460Y82623207D01*
X100818433Y82653962D01*
X100818425Y82653966D01*
X100700047Y82703000D01*
X100700045Y82703001D01*
X100700044Y82703001D01*
X100574369Y82728000D01*
X100446231Y82728000D01*
X100446230Y82728000D01*
X100419828Y82722748D01*
X100320556Y82703001D01*
X100320555Y82703001D01*
X100320552Y82703000D01*
X100202174Y82653966D01*
X100202166Y82653962D01*
X100095631Y82582776D01*
X100095622Y82582769D01*
X100005023Y82492169D01*
X99991547Y82471999D01*
X99943497Y82434119D01*
X99909231Y82428000D01*
X12593346Y82428000D01*
X12535155Y82446907D01*
X12499191Y82496407D01*
X12499191Y82557593D01*
X12534558Y82606655D01*
X12556989Y82623210D01*
X12597150Y82652850D01*
X12677793Y82762118D01*
X12722646Y82890301D01*
X12725499Y82920727D01*
X12725500Y82920727D01*
X12725500Y83429273D01*
X12725499Y83429275D01*
X12722646Y83459695D01*
X12722646Y83459699D01*
X12677793Y83587882D01*
X12677792Y83587884D01*
X12641313Y83637312D01*
X12621971Y83695360D01*
X12640443Y83753690D01*
X12689672Y83790023D01*
X12720968Y83795100D01*
X29075742Y83795100D01*
X29075744Y83795100D01*
X29164888Y83818986D01*
X29171223Y83822645D01*
X29171227Y83822645D01*
X29213709Y83847174D01*
X29244812Y83865130D01*
X42500971Y97121290D01*
X95149500Y97121290D01*
X95149500Y96878711D01*
X95181161Y96638219D01*
X95181161Y96638214D01*
X95243944Y96403908D01*
X95243948Y96403895D01*
X95336772Y96179796D01*
X95336774Y96179792D01*
X95336776Y96179788D01*
X95458064Y95969711D01*
X95458066Y95969708D01*
X95605729Y95777269D01*
X95605731Y95777267D01*
X95605735Y95777262D01*
X95777262Y95605735D01*
X95777266Y95605732D01*
X95777268Y95605730D01*
X95969707Y95458067D01*
X95969711Y95458064D01*
X96179788Y95336776D01*
X96403900Y95243946D01*
X96638211Y95181162D01*
X96878712Y95149500D01*
X96878713Y95149500D01*
X97121287Y95149500D01*
X97121288Y95149500D01*
X97361789Y95181162D01*
X97596100Y95243946D01*
X97820212Y95336776D01*
X98030289Y95458064D01*
X98222738Y95605735D01*
X98394265Y95777262D01*
X98541936Y95969711D01*
X98663224Y96179788D01*
X98756054Y96403900D01*
X98818838Y96638211D01*
X98850500Y96878712D01*
X98850500Y97121288D01*
X98818838Y97361789D01*
X98756054Y97596100D01*
X98663224Y97820212D01*
X98541936Y98030289D01*
X98394265Y98222738D01*
X98222738Y98394265D01*
X98222733Y98394269D01*
X98222731Y98394271D01*
X98030292Y98541934D01*
X98030289Y98541936D01*
X97820212Y98663224D01*
X97820208Y98663226D01*
X97820204Y98663228D01*
X97596105Y98756052D01*
X97596104Y98756053D01*
X97596100Y98756054D01*
X97361789Y98818838D01*
X97361786Y98818839D01*
X97361784Y98818839D01*
X97121289Y98850500D01*
X97121288Y98850500D01*
X96878712Y98850500D01*
X96878710Y98850500D01*
X96638218Y98818839D01*
X96638213Y98818839D01*
X96403907Y98756056D01*
X96403894Y98756052D01*
X96179795Y98663228D01*
X95969707Y98541934D01*
X95777268Y98394271D01*
X95605729Y98222732D01*
X95458066Y98030293D01*
X95336772Y97820205D01*
X95243948Y97596106D01*
X95243944Y97596093D01*
X95181161Y97361787D01*
X95181161Y97361782D01*
X95149500Y97121290D01*
X42500971Y97121290D01*
X70264286Y124884607D01*
X70318803Y124912383D01*
X70379235Y124902812D01*
X70404290Y124884609D01*
X70524931Y124763968D01*
X70524934Y124763966D01*
X70524936Y124763964D01*
X70685621Y124647219D01*
X70686209Y124646792D01*
X70863833Y124556289D01*
X71053427Y124494686D01*
X71053428Y124494686D01*
X71053431Y124494685D01*
X71250321Y124463500D01*
X71250324Y124463500D01*
X71449679Y124463500D01*
X71646568Y124494685D01*
X71646569Y124494686D01*
X71646573Y124494686D01*
X71836167Y124556289D01*
X72013791Y124646792D01*
X72175069Y124763968D01*
X72316032Y124904931D01*
X72433208Y125066209D01*
X72523711Y125243833D01*
X72523773Y125244025D01*
X72525845Y125250399D01*
X72561807Y125299900D01*
X72619998Y125318809D01*
X72678189Y125299903D01*
X72714154Y125250404D01*
X72714155Y125250399D01*
X72716286Y125243839D01*
X72716287Y125243837D01*
X72806791Y125066210D01*
X72806795Y125066204D01*
X72923963Y124904937D01*
X72923965Y124904935D01*
X72923968Y124904931D01*
X73064931Y124763968D01*
X73064934Y124763966D01*
X73064936Y124763964D01*
X73225621Y124647219D01*
X73226209Y124646792D01*
X73403833Y124556289D01*
X73593427Y124494686D01*
X73593428Y124494686D01*
X73593431Y124494685D01*
X73671925Y124482253D01*
X73736881Y124471965D01*
X73791397Y124444188D01*
X73819175Y124389671D01*
X73809604Y124329239D01*
X73791398Y124304180D01*
X66590314Y117103096D01*
X66535797Y117075319D01*
X66520310Y117074100D01*
X64517969Y117074100D01*
X64459778Y117093007D01*
X64435653Y117118099D01*
X64422176Y117138269D01*
X64331577Y117228869D01*
X64331572Y117228873D01*
X64331569Y117228876D01*
X64289126Y117257235D01*
X64225033Y117300062D01*
X64225025Y117300066D01*
X64106647Y117349100D01*
X64106645Y117349101D01*
X64106644Y117349101D01*
X63980969Y117374100D01*
X63852831Y117374100D01*
X63852830Y117374100D01*
X63789993Y117361601D01*
X63727156Y117349101D01*
X63727155Y117349101D01*
X63727152Y117349100D01*
X63608774Y117300066D01*
X63608766Y117300062D01*
X63502231Y117228876D01*
X63502227Y117228873D01*
X63411627Y117138273D01*
X63411624Y117138269D01*
X63340438Y117031734D01*
X63340434Y117031726D01*
X63291400Y116913348D01*
X63291399Y116913343D01*
X63266400Y116787670D01*
X63266400Y116659531D01*
X63291399Y116533858D01*
X63291400Y116533853D01*
X63340434Y116415475D01*
X63340438Y116415467D01*
X63372836Y116366981D01*
X63411624Y116308931D01*
X63502231Y116218324D01*
X63565748Y116175883D01*
X63608766Y116147139D01*
X63608770Y116147137D01*
X63608773Y116147135D01*
X63727156Y116098099D01*
X63852831Y116073100D01*
X63852832Y116073100D01*
X63980968Y116073100D01*
X63980969Y116073100D01*
X64106644Y116098099D01*
X64225027Y116147135D01*
X64331569Y116218324D01*
X64422176Y116308931D01*
X64435653Y116329102D01*
X64483703Y116366981D01*
X64517969Y116373100D01*
X66752642Y116373100D01*
X66752644Y116373100D01*
X66841788Y116396986D01*
X66921712Y116443130D01*
X75393498Y124914918D01*
X75412430Y124924564D01*
X75949726Y125461859D01*
X75989890Y125392292D01*
X76092292Y125289890D01*
X76161857Y125249727D01*
X75646508Y124734378D01*
X75766470Y124647220D01*
X75944024Y124556753D01*
X76133548Y124495172D01*
X76330361Y124464000D01*
X76529639Y124464000D01*
X76726451Y124495172D01*
X76915975Y124556753D01*
X77093528Y124647219D01*
X77093534Y124647223D01*
X77213490Y124734377D01*
X77213490Y124734378D01*
X76698141Y125249727D01*
X76767708Y125289890D01*
X76870110Y125392292D01*
X76910273Y125461859D01*
X77425622Y124946510D01*
X77425623Y124946510D01*
X77512777Y125066466D01*
X77512781Y125066472D01*
X77603247Y125244025D01*
X77664828Y125433549D01*
X77696000Y125630361D01*
X77696000Y125829640D01*
X77664828Y126026452D01*
X77603247Y126215976D01*
X77512780Y126393530D01*
X77425622Y126513492D01*
X76910273Y125998143D01*
X76870110Y126067708D01*
X76767708Y126170110D01*
X76698141Y126210274D01*
X77213491Y126725624D01*
X77213490Y126725625D01*
X77093532Y126812779D01*
X76915972Y126903250D01*
X76907983Y126905845D01*
X76858483Y126941807D01*
X76839574Y126999998D01*
X76858480Y127058189D01*
X76907979Y127094154D01*
X76907983Y127094155D01*
X76915972Y127096751D01*
X77093528Y127187219D01*
X77093534Y127187223D01*
X77213490Y127274377D01*
X77213490Y127274378D01*
X76698141Y127789727D01*
X76767708Y127829890D01*
X76870110Y127932292D01*
X76910273Y128001859D01*
X77425622Y127486510D01*
X77425623Y127486510D01*
X77512777Y127606466D01*
X77512781Y127606472D01*
X77603247Y127784025D01*
X77664828Y127973549D01*
X77696000Y128170361D01*
X77696000Y128369640D01*
X77664828Y128566452D01*
X77603247Y128755976D01*
X77512780Y128933530D01*
X77425622Y129053492D01*
X76910273Y128538143D01*
X76870110Y128607708D01*
X76767708Y128710110D01*
X76698139Y128750275D01*
X77213490Y129265625D01*
X77093532Y129352779D01*
X76915975Y129443248D01*
X76722756Y129506029D01*
X76723293Y129507684D01*
X76676750Y129536208D01*
X76653338Y129592737D01*
X76667624Y129652231D01*
X76714151Y129691966D01*
X76752033Y129699500D01*
X104600500Y129699500D01*
X104658691Y129680593D01*
G37*
G04 #@! TD.AperFunction*
G04 #@! TA.AperFunction,Conductor*
G36*
X479593Y86346159D02*
G01*
X493057Y86316948D01*
X493971Y86317244D01*
X556752Y86124025D01*
X647221Y85946468D01*
X734375Y85826510D01*
X1249725Y86341861D01*
X1289890Y86272292D01*
X1392292Y86169890D01*
X1461857Y86129727D01*
X946508Y85614378D01*
X1066470Y85527220D01*
X1244025Y85436752D01*
X1251208Y85434418D01*
X1300708Y85398454D01*
X1319616Y85340264D01*
X1300709Y85282073D01*
X1251213Y85246110D01*
X1243838Y85243714D01*
X1243836Y85243713D01*
X1066209Y85153209D01*
X1066203Y85153205D01*
X904936Y85036037D01*
X763963Y84895064D01*
X646795Y84733797D01*
X646791Y84733791D01*
X556289Y84556168D01*
X493655Y84363400D01*
X457691Y84313900D01*
X399500Y84294993D01*
X341309Y84313900D01*
X305345Y84363400D01*
X300500Y84393993D01*
X300500Y86287968D01*
X319407Y86346159D01*
X368907Y86382123D01*
X430093Y86382123D01*
X479593Y86346159D01*
G37*
G04 #@! TD.AperFunction*
G04 #@! TA.AperFunction,Conductor*
G36*
X129652216Y86382386D02*
G01*
X129691959Y86335866D01*
X129699500Y86297968D01*
X129699500Y84403993D01*
X129680593Y84345802D01*
X129631093Y84309838D01*
X129569907Y84309838D01*
X129520407Y84345802D01*
X129506345Y84373400D01*
X129466081Y84497319D01*
X129443711Y84566167D01*
X129353208Y84743791D01*
X129243301Y84895064D01*
X129236036Y84905064D01*
X129236034Y84905066D01*
X129236032Y84905069D01*
X129095069Y85046032D01*
X129095065Y85046035D01*
X129095063Y85046037D01*
X128933796Y85163205D01*
X128933790Y85163209D01*
X128756163Y85253713D01*
X128748789Y85256109D01*
X128699289Y85292073D01*
X128680383Y85350265D01*
X128699291Y85408455D01*
X128748792Y85444418D01*
X128748794Y85444419D01*
X128755974Y85446752D01*
X128933528Y85537219D01*
X128933534Y85537223D01*
X129053490Y85624377D01*
X129053490Y85624378D01*
X128538141Y86139727D01*
X128607708Y86179890D01*
X128710110Y86282292D01*
X128750273Y86351859D01*
X129265622Y85836510D01*
X129265623Y85836510D01*
X129352777Y85956466D01*
X129352781Y85956472D01*
X129443247Y86134025D01*
X129506029Y86327244D01*
X129507686Y86326706D01*
X129536195Y86373240D01*
X129592720Y86396662D01*
X129652216Y86382386D01*
G37*
G04 #@! TD.AperFunction*
G04 #@! TA.AperFunction,Conductor*
G36*
X3829890Y86272292D02*
G01*
X3932292Y86169890D01*
X4001857Y86129727D01*
X3486508Y85614378D01*
X3606470Y85527220D01*
X3784025Y85436752D01*
X3791208Y85434418D01*
X3840708Y85398454D01*
X3859616Y85340264D01*
X3840709Y85282073D01*
X3791213Y85246110D01*
X3783838Y85243714D01*
X3783836Y85243713D01*
X3606209Y85153209D01*
X3606203Y85153205D01*
X3444936Y85036037D01*
X3303963Y84895064D01*
X3186795Y84733797D01*
X3186791Y84733791D01*
X3096287Y84556164D01*
X3096285Y84556161D01*
X3094154Y84549599D01*
X3058190Y84500099D01*
X3000000Y84481192D01*
X2941809Y84500100D01*
X2905846Y84549599D01*
X2903714Y84556161D01*
X2903712Y84556164D01*
X2903711Y84556165D01*
X2903711Y84556167D01*
X2813208Y84733791D01*
X2805943Y84743791D01*
X2696036Y84895064D01*
X2696034Y84895066D01*
X2696032Y84895069D01*
X2555069Y85036032D01*
X2555065Y85036035D01*
X2555063Y85036037D01*
X2393796Y85153205D01*
X2393790Y85153209D01*
X2216163Y85243713D01*
X2208789Y85246109D01*
X2159289Y85282073D01*
X2140383Y85340265D01*
X2159291Y85398455D01*
X2208792Y85434418D01*
X2208794Y85434419D01*
X2215974Y85436752D01*
X2393528Y85527219D01*
X2393534Y85527223D01*
X2513490Y85614377D01*
X2513490Y85614378D01*
X1998141Y86129727D01*
X2067708Y86169890D01*
X2170110Y86272292D01*
X2210273Y86341859D01*
X2725622Y85826510D01*
X2725623Y85826510D01*
X2812777Y85946466D01*
X2812781Y85946472D01*
X2903249Y86124028D01*
X2905845Y86132017D01*
X2941807Y86181517D01*
X2999998Y86200426D01*
X3058189Y86181520D01*
X3094154Y86132021D01*
X3094155Y86132017D01*
X3096750Y86124028D01*
X3187221Y85946468D01*
X3274375Y85826510D01*
X3789725Y86341861D01*
X3829890Y86272292D01*
G37*
G04 #@! TD.AperFunction*
G04 #@! TA.AperFunction,Conductor*
G36*
X127829890Y86282292D02*
G01*
X127932292Y86179890D01*
X128001857Y86139727D01*
X127486508Y85624378D01*
X127606470Y85537220D01*
X127784025Y85446752D01*
X127791208Y85444418D01*
X127840708Y85408454D01*
X127859616Y85350264D01*
X127840709Y85292073D01*
X127791213Y85256110D01*
X127783838Y85253714D01*
X127783836Y85253713D01*
X127606209Y85163209D01*
X127606203Y85163205D01*
X127444936Y85046037D01*
X127303963Y84905064D01*
X127186795Y84743797D01*
X127186791Y84743791D01*
X127096287Y84566164D01*
X127096285Y84566161D01*
X127094154Y84559599D01*
X127058190Y84510099D01*
X127000000Y84491192D01*
X126941809Y84510100D01*
X126905846Y84559599D01*
X126903714Y84566161D01*
X126903712Y84566164D01*
X126903711Y84566165D01*
X126903711Y84566167D01*
X126813208Y84743791D01*
X126703301Y84895064D01*
X126696036Y84905064D01*
X126696034Y84905066D01*
X126696032Y84905069D01*
X126555069Y85046032D01*
X126555065Y85046035D01*
X126555063Y85046037D01*
X126393796Y85163205D01*
X126393790Y85163209D01*
X126216163Y85253713D01*
X126216161Y85253714D01*
X126209601Y85255845D01*
X126160100Y85291807D01*
X126141191Y85349998D01*
X126160097Y85408189D01*
X126209596Y85444154D01*
X126209601Y85444155D01*
X126216161Y85446287D01*
X126216161Y85446288D01*
X126216167Y85446289D01*
X126393791Y85536792D01*
X126555069Y85653968D01*
X126696032Y85794931D01*
X126813208Y85956209D01*
X126903711Y86133833D01*
X126906106Y86141205D01*
X126942066Y86190706D01*
X127000255Y86209617D01*
X127058447Y86190714D01*
X127094415Y86141216D01*
X127094415Y86141214D01*
X127096749Y86134031D01*
X127096750Y86134029D01*
X127187221Y85956468D01*
X127274375Y85836510D01*
X127789725Y86351861D01*
X127829890Y86282292D01*
G37*
G04 #@! TD.AperFunction*
G04 #@! TA.AperFunction,Conductor*
G36*
X53304199Y129680593D02*
G01*
X53340163Y129631093D01*
X53340163Y129569907D01*
X53304199Y129520407D01*
X53276601Y129506345D01*
X53273428Y129505315D01*
X53273427Y129505314D01*
X53184374Y129476379D01*
X53083832Y129443711D01*
X52906209Y129353209D01*
X52906203Y129353205D01*
X52744936Y129236037D01*
X52603963Y129095064D01*
X52486795Y128933797D01*
X52486791Y128933791D01*
X52396289Y128756168D01*
X52334684Y128566569D01*
X52303500Y128369680D01*
X52303500Y128170321D01*
X52334684Y127973432D01*
X52396289Y127783833D01*
X52486791Y127606210D01*
X52486795Y127606204D01*
X52603963Y127444937D01*
X52603965Y127444935D01*
X52603968Y127444931D01*
X52744931Y127303968D01*
X52744934Y127303966D01*
X52744936Y127303964D01*
X52905621Y127187219D01*
X52906209Y127186792D01*
X53083833Y127096289D01*
X53083835Y127096289D01*
X53083836Y127096288D01*
X53083839Y127096286D01*
X53090401Y127094154D01*
X53139901Y127058190D01*
X53158808Y127000000D01*
X53139900Y126941809D01*
X53090401Y126905846D01*
X53083839Y126903715D01*
X53083836Y126903713D01*
X52906209Y126813209D01*
X52906203Y126813205D01*
X52744936Y126696037D01*
X52603963Y126555064D01*
X52486795Y126393797D01*
X52486791Y126393791D01*
X52396289Y126216168D01*
X52334684Y126026569D01*
X52303500Y125829680D01*
X52303500Y125630321D01*
X52334684Y125433432D01*
X52396289Y125243833D01*
X52486791Y125066210D01*
X52486795Y125066204D01*
X52603963Y124904937D01*
X52603965Y124904935D01*
X52603968Y124904931D01*
X52744931Y124763968D01*
X52744934Y124763966D01*
X52744936Y124763964D01*
X52905621Y124647219D01*
X52906209Y124646792D01*
X53083833Y124556289D01*
X53273427Y124494686D01*
X53273428Y124494686D01*
X53273431Y124494685D01*
X53373044Y124478908D01*
X53456417Y124465703D01*
X53510933Y124437926D01*
X53538711Y124383409D01*
X53529140Y124322977D01*
X53510934Y124297918D01*
X38152214Y108939196D01*
X38097697Y108911419D01*
X38082210Y108910200D01*
X33879369Y108910200D01*
X33821178Y108929107D01*
X33797053Y108954199D01*
X33783576Y108974369D01*
X33692977Y109064969D01*
X33692972Y109064973D01*
X33692969Y109064976D01*
X33650526Y109093335D01*
X33586433Y109136162D01*
X33586425Y109136166D01*
X33468047Y109185200D01*
X33468045Y109185201D01*
X33468044Y109185201D01*
X33342369Y109210200D01*
X33214231Y109210200D01*
X33214230Y109210200D01*
X33151393Y109197701D01*
X33088556Y109185201D01*
X33088555Y109185201D01*
X33088552Y109185200D01*
X32970174Y109136166D01*
X32970166Y109136162D01*
X32863631Y109064976D01*
X32863627Y109064973D01*
X32773027Y108974373D01*
X32773024Y108974369D01*
X32701838Y108867834D01*
X32701834Y108867826D01*
X32652800Y108749448D01*
X32652799Y108749443D01*
X32627800Y108623770D01*
X32627800Y108495631D01*
X32652799Y108369958D01*
X32652800Y108369953D01*
X32701834Y108251575D01*
X32701838Y108251567D01*
X32734236Y108203081D01*
X32773024Y108145031D01*
X32863631Y108054424D01*
X32927148Y108011983D01*
X32970166Y107983239D01*
X32970170Y107983237D01*
X32970173Y107983235D01*
X33088556Y107934199D01*
X33214231Y107909200D01*
X33214232Y107909200D01*
X33342368Y107909200D01*
X33342369Y107909200D01*
X33468044Y107934199D01*
X33586427Y107983235D01*
X33692969Y108054424D01*
X33783576Y108145031D01*
X33797053Y108165202D01*
X33845103Y108203081D01*
X33879369Y108209200D01*
X38314542Y108209200D01*
X38314544Y108209200D01*
X38403688Y108233086D01*
X38483612Y108279230D01*
X55056640Y124852259D01*
X55111153Y124880033D01*
X55171585Y124870462D01*
X55196640Y124852259D01*
X55284931Y124763968D01*
X55284934Y124763966D01*
X55284936Y124763964D01*
X55445621Y124647219D01*
X55446209Y124646792D01*
X55623833Y124556289D01*
X55813427Y124494686D01*
X55813428Y124494686D01*
X55813431Y124494685D01*
X55942636Y124474221D01*
X55997152Y124446444D01*
X56024930Y124391927D01*
X56015359Y124331495D01*
X55997153Y124306436D01*
X35851614Y104160896D01*
X35797097Y104133119D01*
X35781610Y104131900D01*
X5274969Y104131900D01*
X5216778Y104150807D01*
X5192653Y104175899D01*
X5179176Y104196069D01*
X5088577Y104286669D01*
X5088572Y104286673D01*
X5088569Y104286676D01*
X5046126Y104315035D01*
X4982033Y104357862D01*
X4982025Y104357866D01*
X4863647Y104406900D01*
X4863645Y104406901D01*
X4863644Y104406901D01*
X4737969Y104431900D01*
X4609831Y104431900D01*
X4609830Y104431900D01*
X4546993Y104419401D01*
X4484156Y104406901D01*
X4484155Y104406901D01*
X4484152Y104406900D01*
X4365774Y104357866D01*
X4365766Y104357862D01*
X4259231Y104286676D01*
X4259227Y104286673D01*
X4168627Y104196073D01*
X4168624Y104196069D01*
X4097438Y104089534D01*
X4097434Y104089526D01*
X4048400Y103971148D01*
X4048399Y103971143D01*
X4023400Y103845470D01*
X4023400Y103717331D01*
X4048399Y103591658D01*
X4048400Y103591653D01*
X4097434Y103473275D01*
X4097438Y103473267D01*
X4129836Y103424781D01*
X4168624Y103366731D01*
X4259231Y103276124D01*
X4322748Y103233683D01*
X4365766Y103204939D01*
X4365770Y103204937D01*
X4365773Y103204935D01*
X4484156Y103155899D01*
X4609831Y103130900D01*
X4609832Y103130900D01*
X4737968Y103130900D01*
X4737969Y103130900D01*
X4863644Y103155899D01*
X4982027Y103204935D01*
X5088569Y103276124D01*
X5179176Y103366731D01*
X5192653Y103386902D01*
X5240703Y103424781D01*
X5274969Y103430900D01*
X36013942Y103430900D01*
X36013944Y103430900D01*
X36103088Y103454786D01*
X36183012Y103500930D01*
X57565488Y124883408D01*
X57620003Y124911183D01*
X57680435Y124901612D01*
X57705490Y124883409D01*
X57824931Y124763968D01*
X57824934Y124763966D01*
X57824936Y124763964D01*
X57985621Y124647219D01*
X57986209Y124646792D01*
X58163833Y124556289D01*
X58353427Y124494686D01*
X58353428Y124494686D01*
X58353431Y124494685D01*
X58550321Y124463500D01*
X58550324Y124463500D01*
X58749679Y124463500D01*
X58946568Y124494685D01*
X58946569Y124494686D01*
X58946573Y124494686D01*
X59136167Y124556289D01*
X59313791Y124646792D01*
X59383372Y124697347D01*
X59441560Y124716253D01*
X59499751Y124697346D01*
X59535715Y124647847D01*
X59535716Y124586662D01*
X59511565Y124547249D01*
X55227130Y120262812D01*
X55180986Y120182888D01*
X55157100Y120093743D01*
X55157100Y119770170D01*
X55138193Y119711979D01*
X55113104Y119687856D01*
X55092930Y119674376D01*
X55002327Y119583773D01*
X55002324Y119583769D01*
X54931138Y119477234D01*
X54931134Y119477226D01*
X54882100Y119358848D01*
X54882099Y119358843D01*
X54857100Y119233170D01*
X54857100Y119105026D01*
X54861832Y119081239D01*
X54854640Y119020478D01*
X54834738Y118991922D01*
X37574414Y101731596D01*
X37519897Y101703819D01*
X37504410Y101702600D01*
X28542169Y101702600D01*
X28483978Y101721507D01*
X28459853Y101746599D01*
X28446376Y101766769D01*
X28355777Y101857369D01*
X28355772Y101857373D01*
X28355769Y101857376D01*
X28313326Y101885735D01*
X28249233Y101928562D01*
X28249225Y101928566D01*
X28130847Y101977600D01*
X28130845Y101977601D01*
X28130844Y101977601D01*
X28005169Y102002600D01*
X27877031Y102002600D01*
X27877030Y102002600D01*
X27814193Y101990101D01*
X27751356Y101977601D01*
X27751355Y101977601D01*
X27751352Y101977600D01*
X27632974Y101928566D01*
X27632966Y101928562D01*
X27526431Y101857376D01*
X27526427Y101857373D01*
X27435827Y101766773D01*
X27435824Y101766769D01*
X27364638Y101660234D01*
X27364634Y101660226D01*
X27315600Y101541848D01*
X27315599Y101541843D01*
X27290600Y101416170D01*
X27290600Y101288031D01*
X27315599Y101162358D01*
X27315600Y101162353D01*
X27364634Y101043975D01*
X27364638Y101043967D01*
X27397036Y100995481D01*
X27435824Y100937431D01*
X27526431Y100846824D01*
X27589948Y100804383D01*
X27632966Y100775639D01*
X27632970Y100775637D01*
X27632973Y100775635D01*
X27751356Y100726599D01*
X27877031Y100701600D01*
X27877032Y100701600D01*
X28005168Y100701600D01*
X28005169Y100701600D01*
X28130844Y100726599D01*
X28249227Y100775635D01*
X28355769Y100846824D01*
X28446376Y100937431D01*
X28459853Y100957602D01*
X28507903Y100995481D01*
X28542169Y101001600D01*
X37736742Y101001600D01*
X37736744Y101001600D01*
X37825888Y101025486D01*
X37905812Y101071630D01*
X55330422Y118496242D01*
X55384937Y118524017D01*
X55419737Y118523334D01*
X55443531Y118518600D01*
X55443536Y118518600D01*
X55571668Y118518600D01*
X55571669Y118518600D01*
X55697344Y118543599D01*
X55815727Y118592635D01*
X55922269Y118663824D01*
X56012876Y118754431D01*
X56084065Y118860973D01*
X56133101Y118979356D01*
X56158100Y119105031D01*
X56158100Y119233169D01*
X56133101Y119358844D01*
X56084065Y119477227D01*
X56084063Y119477230D01*
X56084061Y119477234D01*
X56055317Y119520252D01*
X56012876Y119583769D01*
X55922269Y119674376D01*
X55902096Y119687856D01*
X55864218Y119735907D01*
X55858100Y119770170D01*
X55858100Y119861411D01*
X55877007Y119919602D01*
X55887090Y119931409D01*
X60525872Y124570192D01*
X60580387Y124597967D01*
X60640818Y124588397D01*
X60703833Y124556289D01*
X60893427Y124494686D01*
X60893428Y124494686D01*
X60893431Y124494685D01*
X61090321Y124463500D01*
X61090324Y124463500D01*
X61289679Y124463500D01*
X61486568Y124494685D01*
X61486569Y124494686D01*
X61486573Y124494686D01*
X61676167Y124556289D01*
X61853791Y124646792D01*
X61923370Y124697345D01*
X61981559Y124716252D01*
X62039750Y124697345D01*
X62075714Y124647846D01*
X62075715Y124586660D01*
X62051564Y124547248D01*
X59393334Y121889018D01*
X59361217Y121867558D01*
X59316574Y121849066D01*
X59210031Y121777876D01*
X59210027Y121777873D01*
X59119427Y121687273D01*
X59119424Y121687269D01*
X59048238Y121580734D01*
X59048234Y121580726D01*
X58999200Y121462348D01*
X58999199Y121462343D01*
X58974200Y121336670D01*
X58974200Y121208531D01*
X58999199Y121082858D01*
X58999200Y121082853D01*
X59048234Y120964475D01*
X59048238Y120964467D01*
X59091065Y120900374D01*
X59119424Y120857931D01*
X59210031Y120767324D01*
X59273548Y120724883D01*
X59316566Y120696139D01*
X59316570Y120696137D01*
X59316573Y120696135D01*
X59434956Y120647099D01*
X59560631Y120622100D01*
X59560632Y120622100D01*
X59688768Y120622100D01*
X59688769Y120622100D01*
X59814444Y120647099D01*
X59932827Y120696135D01*
X60039369Y120767324D01*
X60129976Y120857931D01*
X60201165Y120964473D01*
X60250201Y121082856D01*
X60275200Y121208531D01*
X60275200Y121336669D01*
X60250201Y121462344D01*
X60201165Y121580727D01*
X60196332Y121587960D01*
X60179724Y121646845D01*
X60200901Y121704249D01*
X60208636Y121712956D01*
X63065872Y124570192D01*
X63120387Y124597967D01*
X63180818Y124588397D01*
X63243833Y124556289D01*
X63433427Y124494686D01*
X63433428Y124494686D01*
X63433431Y124494685D01*
X63630321Y124463500D01*
X63630324Y124463500D01*
X63829679Y124463500D01*
X64026568Y124494685D01*
X64026569Y124494686D01*
X64026573Y124494686D01*
X64216167Y124556289D01*
X64393791Y124646792D01*
X64463370Y124697345D01*
X64521559Y124716252D01*
X64579750Y124697345D01*
X64615714Y124647846D01*
X64615715Y124586660D01*
X64591564Y124547248D01*
X30218214Y90173896D01*
X30163697Y90146119D01*
X30148210Y90144900D01*
X6700669Y90144900D01*
X6642478Y90163807D01*
X6618353Y90188899D01*
X6604876Y90209069D01*
X6514277Y90299669D01*
X6514272Y90299673D01*
X6514269Y90299676D01*
X6471826Y90328035D01*
X6407733Y90370862D01*
X6407725Y90370866D01*
X6289347Y90419900D01*
X6289345Y90419901D01*
X6289344Y90419901D01*
X6163669Y90444900D01*
X6035531Y90444900D01*
X6035530Y90444900D01*
X5972693Y90432401D01*
X5909856Y90419901D01*
X5909855Y90419901D01*
X5909852Y90419900D01*
X5791474Y90370866D01*
X5791466Y90370862D01*
X5684931Y90299676D01*
X5684927Y90299673D01*
X5594327Y90209073D01*
X5594324Y90209069D01*
X5523138Y90102534D01*
X5523134Y90102526D01*
X5474100Y89984148D01*
X5474099Y89984143D01*
X5449100Y89858470D01*
X5449100Y89730331D01*
X5474099Y89604658D01*
X5474100Y89604653D01*
X5523134Y89486275D01*
X5523138Y89486267D01*
X5555536Y89437781D01*
X5594324Y89379731D01*
X5684931Y89289124D01*
X5748448Y89246683D01*
X5791466Y89217939D01*
X5791470Y89217937D01*
X5791473Y89217935D01*
X5909856Y89168899D01*
X6035531Y89143900D01*
X6035532Y89143900D01*
X6163668Y89143900D01*
X6163669Y89143900D01*
X6289344Y89168899D01*
X6407727Y89217935D01*
X6514269Y89289124D01*
X6604876Y89379731D01*
X6618353Y89399902D01*
X6666403Y89437781D01*
X6700669Y89443900D01*
X30380542Y89443900D01*
X30380544Y89443900D01*
X30469688Y89467786D01*
X30549612Y89513930D01*
X65605872Y124570192D01*
X65660387Y124597967D01*
X65720818Y124588397D01*
X65783833Y124556289D01*
X65973427Y124494686D01*
X65973428Y124494686D01*
X65973431Y124494685D01*
X66170321Y124463500D01*
X66170324Y124463500D01*
X66369679Y124463500D01*
X66566568Y124494685D01*
X66566569Y124494686D01*
X66566573Y124494686D01*
X66756167Y124556289D01*
X66933791Y124646792D01*
X67095069Y124763968D01*
X67236032Y124904931D01*
X67353208Y125066209D01*
X67443711Y125243833D01*
X67443773Y125244025D01*
X67445845Y125250399D01*
X67481807Y125299900D01*
X67539998Y125318809D01*
X67598189Y125299903D01*
X67634154Y125250404D01*
X67634155Y125250399D01*
X67636286Y125243839D01*
X67636287Y125243837D01*
X67726791Y125066210D01*
X67726795Y125066204D01*
X67843963Y124904937D01*
X67843965Y124904935D01*
X67843968Y124904931D01*
X67984931Y124763968D01*
X67984934Y124763966D01*
X67984936Y124763964D01*
X68145621Y124647219D01*
X68146209Y124646792D01*
X68323833Y124556289D01*
X68513427Y124494686D01*
X68513428Y124494686D01*
X68513431Y124494685D01*
X68640565Y124474549D01*
X68695081Y124446772D01*
X68722859Y124392255D01*
X68713288Y124331823D01*
X68695082Y124306764D01*
X28913414Y84525096D01*
X28858897Y84497319D01*
X28843410Y84496100D01*
X12824500Y84496100D01*
X12766309Y84515007D01*
X12730345Y84564507D01*
X12725500Y84595100D01*
X12725500Y85079273D01*
X12725499Y85079275D01*
X12722646Y85109695D01*
X12722646Y85109699D01*
X12677793Y85237882D01*
X12671721Y85246109D01*
X12597154Y85347145D01*
X12597152Y85347147D01*
X12597150Y85347150D01*
X12597146Y85347153D01*
X12597144Y85347155D01*
X12487883Y85427793D01*
X12359703Y85472645D01*
X12359694Y85472647D01*
X12329274Y85475500D01*
X12329266Y85475500D01*
X11670734Y85475500D01*
X11670725Y85475500D01*
X11640305Y85472647D01*
X11640296Y85472645D01*
X11512116Y85427793D01*
X11402855Y85347155D01*
X11402845Y85347145D01*
X11322207Y85237884D01*
X11318742Y85231326D01*
X11316501Y85232510D01*
X11286524Y85193129D01*
X11230135Y85175500D01*
X4978856Y85175500D01*
X4971543Y85173541D01*
X4957353Y85169739D01*
X4896252Y85172944D01*
X4886790Y85177157D01*
X4756169Y85243711D01*
X4756163Y85243713D01*
X4748789Y85246109D01*
X4699289Y85282073D01*
X4680383Y85340265D01*
X4699291Y85398455D01*
X4748792Y85434418D01*
X4748794Y85434419D01*
X4755974Y85436752D01*
X4933528Y85527219D01*
X4933534Y85527223D01*
X5053490Y85614377D01*
X5053490Y85614378D01*
X4538141Y86129727D01*
X4607708Y86169890D01*
X4710110Y86272292D01*
X4750273Y86341859D01*
X5265622Y85826510D01*
X5265623Y85826510D01*
X5352777Y85946466D01*
X5352781Y85946472D01*
X5443247Y86124025D01*
X5504828Y86313549D01*
X5536000Y86510361D01*
X5536000Y86709640D01*
X5504828Y86906452D01*
X5443247Y87095976D01*
X5352780Y87273530D01*
X5265622Y87393492D01*
X4750273Y86878143D01*
X4710110Y86947708D01*
X4607708Y87050110D01*
X4538139Y87090275D01*
X5053490Y87605625D01*
X4933532Y87692779D01*
X4755975Y87783248D01*
X4566451Y87844829D01*
X4369639Y87876000D01*
X4170361Y87876000D01*
X3973548Y87844829D01*
X3784024Y87783248D01*
X3606472Y87692782D01*
X3606468Y87692779D01*
X3486508Y87605625D01*
X4001859Y87090274D01*
X3932292Y87050110D01*
X3829890Y86947708D01*
X3789726Y86878141D01*
X3274375Y87393492D01*
X3187221Y87273532D01*
X3187218Y87273528D01*
X3096752Y87095976D01*
X3094155Y87087982D01*
X3058190Y87038482D01*
X3000000Y87019575D01*
X2941809Y87038482D01*
X2905845Y87087982D01*
X2903247Y87095976D01*
X2812780Y87273530D01*
X2725622Y87393492D01*
X2210273Y86878143D01*
X2170110Y86947708D01*
X2067708Y87050110D01*
X1998139Y87090275D01*
X2513490Y87605625D01*
X2393532Y87692779D01*
X2215975Y87783248D01*
X2026451Y87844829D01*
X1829639Y87876000D01*
X1630361Y87876000D01*
X1433548Y87844829D01*
X1244024Y87783248D01*
X1066472Y87692782D01*
X1066468Y87692779D01*
X946508Y87605625D01*
X1461859Y87090274D01*
X1392292Y87050110D01*
X1289890Y86947708D01*
X1249726Y86878141D01*
X734375Y87393492D01*
X647221Y87273532D01*
X647218Y87273528D01*
X556752Y87095976D01*
X493971Y86902756D01*
X492316Y86903294D01*
X463792Y86856750D01*
X407263Y86833338D01*
X347769Y86847624D01*
X308034Y86894151D01*
X300500Y86932033D01*
X300500Y97121290D01*
X31149500Y97121290D01*
X31149500Y96878711D01*
X31181161Y96638219D01*
X31181161Y96638214D01*
X31243944Y96403908D01*
X31243948Y96403895D01*
X31336772Y96179796D01*
X31336774Y96179792D01*
X31336776Y96179788D01*
X31458064Y95969711D01*
X31458066Y95969708D01*
X31605729Y95777269D01*
X31605731Y95777267D01*
X31605735Y95777262D01*
X31777262Y95605735D01*
X31777266Y95605732D01*
X31777268Y95605730D01*
X31969707Y95458067D01*
X31969711Y95458064D01*
X32179788Y95336776D01*
X32403900Y95243946D01*
X32638211Y95181162D01*
X32878712Y95149500D01*
X32878713Y95149500D01*
X33121287Y95149500D01*
X33121288Y95149500D01*
X33361789Y95181162D01*
X33596100Y95243946D01*
X33820212Y95336776D01*
X34030289Y95458064D01*
X34222738Y95605735D01*
X34394265Y95777262D01*
X34541936Y95969711D01*
X34663224Y96179788D01*
X34756054Y96403900D01*
X34818838Y96638211D01*
X34850500Y96878712D01*
X34850500Y97121288D01*
X34818838Y97361789D01*
X34756054Y97596100D01*
X34663224Y97820212D01*
X34541936Y98030289D01*
X34394265Y98222738D01*
X34222738Y98394265D01*
X34222733Y98394269D01*
X34222731Y98394271D01*
X34030292Y98541934D01*
X34030289Y98541936D01*
X33820212Y98663224D01*
X33820208Y98663226D01*
X33820204Y98663228D01*
X33596105Y98756052D01*
X33596104Y98756053D01*
X33596100Y98756054D01*
X33361789Y98818838D01*
X33361786Y98818839D01*
X33361784Y98818839D01*
X33121289Y98850500D01*
X33121288Y98850500D01*
X32878712Y98850500D01*
X32878710Y98850500D01*
X32638218Y98818839D01*
X32638213Y98818839D01*
X32403907Y98756056D01*
X32403894Y98756052D01*
X32179795Y98663228D01*
X31969707Y98541934D01*
X31777268Y98394271D01*
X31605729Y98222732D01*
X31458066Y98030293D01*
X31336772Y97820205D01*
X31243948Y97596106D01*
X31243944Y97596093D01*
X31181161Y97361787D01*
X31181161Y97361782D01*
X31149500Y97121290D01*
X300500Y97121290D01*
X300500Y104600500D01*
X319407Y104658691D01*
X368907Y104694655D01*
X399500Y104699500D01*
X25039563Y104699500D01*
X25039563Y104699501D01*
X25115989Y104719979D01*
X25184511Y104759540D01*
X25240460Y104815489D01*
X25280021Y104884011D01*
X25300500Y104960438D01*
X25300500Y129600500D01*
X25319407Y129658691D01*
X25368907Y129694655D01*
X25399500Y129699500D01*
X53246008Y129699500D01*
X53304199Y129680593D01*
G37*
G04 #@! TD.AperFunction*
G04 #@! TA.AperFunction,Conductor*
G36*
X76166158Y129680593D02*
G01*
X76202122Y129631093D01*
X76202122Y129569907D01*
X76166158Y129520407D01*
X76136947Y129506941D01*
X76137244Y129506029D01*
X75944024Y129443248D01*
X75766472Y129352782D01*
X75766468Y129352779D01*
X75646508Y129265625D01*
X76161859Y128750274D01*
X76092292Y128710110D01*
X75989890Y128607708D01*
X75949726Y128538142D01*
X75434375Y129053492D01*
X75347221Y128933532D01*
X75347218Y128933528D01*
X75256750Y128755972D01*
X75256748Y128755969D01*
X75254414Y128748784D01*
X75218447Y128699287D01*
X75160255Y128680384D01*
X75102065Y128699296D01*
X75066106Y128748795D01*
X75063711Y128756167D01*
X74973208Y128933791D01*
X74973204Y128933797D01*
X74856036Y129095064D01*
X74856034Y129095066D01*
X74856032Y129095069D01*
X74715069Y129236032D01*
X74715065Y129236035D01*
X74715063Y129236037D01*
X74553796Y129353205D01*
X74553790Y129353209D01*
X74376167Y129443711D01*
X74186573Y129505314D01*
X74186571Y129505315D01*
X74183399Y129506345D01*
X74133899Y129542309D01*
X74114992Y129600500D01*
X74133899Y129658691D01*
X74183399Y129694655D01*
X74213992Y129699500D01*
X76107967Y129699500D01*
X76166158Y129680593D01*
G37*
G04 #@! TD.AperFunction*
M02*
