M48
; DRILL file KiCad 10.0.6 date 2026-09-08T19:23:15
; FORMAT={-:-/ absolute / metric / decimal}
; #@! TF.CreationDate,2026-09-08T19:23:15-04:00
; #@! TF.GenerationSoftware,Kicad,Pcbnew,10.0.6
; #@! TF.FileFunction,Plated,1,2,PTH
FMAT,2
METRIC
; #@! TA.AperFunction,Plated,PTH,ViaDrill
T1C0.400
; #@! TA.AperFunction,Plated,PTH,ComponentDrill
T2C0.900
; #@! TA.AperFunction,Plated,PTH,ComponentDrill
T3C1.100
%
G90
G05
T1
X2.999Y80.26
X4.674Y103.781
X6.1Y89.794
X6.129Y48.67
X8.289Y48.573
X9.609Y49.171
X10.785Y48.097
X17.927Y51.813
X18.456Y69.025
X18.456Y62.887
X27.941Y101.352
X29.491Y0.9
X33.278Y108.56
X38.746Y65.55
X46.471Y57.361
X54.84Y63.998
X54.84Y54.82
X55.508Y119.169
X55.521Y58.076
X57.352Y66.664
X57.352Y55.595
X58.062Y49.159
X59.598Y65.338
X59.625Y121.273
X60.627Y66.366
X60.955Y58.548
X63.604Y55.595
X63.917Y116.724
X65.018Y59.766
X66.236Y58.563
X67.187Y58.164
X67.852Y77.72
X67.914Y7.36
X68.831Y75.18
X68.857Y10.423
X71.776Y44.791
X73.081Y49.74
X74.024Y52.516
X75.16Y78.99
X75.176Y60.435
X85.887Y26.601
X91.247Y41.876
X91.948Y65.047
X91.948Y40.062
X99.324Y80.282
X99.324Y44.505
X100.51Y82.078
X100.51Y48.443
X103.36Y28.106
X104.456Y52.516
X105.76Y53.95
X123.189Y40.389
T2
X62.5Y68.0
X62.5Y64.7
X65.0Y68.0
X65.0Y64.7
X67.5Y68.0
X67.5Y64.7
T3
X1.73Y86.61
X1.73Y84.07
X1.73Y81.53
X1.73Y78.99
X1.73Y76.45
X1.73Y73.91
X1.73Y71.37
X1.73Y68.83
X1.73Y66.29
X1.73Y63.75
X1.73Y53.54
X1.73Y51.0
X1.73Y48.46
X1.73Y45.92
X1.73Y43.38
X4.27Y86.61
X4.27Y84.07
X4.27Y81.53
X4.27Y78.99
X4.27Y76.45
X4.27Y73.91
X4.27Y71.37
X4.27Y68.83
X4.27Y66.29
X4.27Y63.75
X4.27Y53.54
X4.27Y51.0
X4.27Y48.46
X4.27Y45.92
X4.27Y43.38
X53.57Y128.27
X53.57Y125.73
X53.57Y4.27
X53.57Y1.73
X56.11Y128.27
X56.11Y125.73
X56.11Y4.27
X56.11Y1.73
X58.65Y128.27
X58.65Y125.73
X58.65Y4.27
X58.65Y1.73
X61.19Y128.27
X61.19Y125.73
X61.19Y4.27
X61.19Y1.73
X63.73Y128.27
X63.73Y125.73
X63.73Y4.27
X63.73Y1.73
X66.27Y128.27
X66.27Y125.73
X66.27Y4.27
X66.27Y1.73
X68.81Y128.27
X68.81Y125.73
X68.81Y4.27
X68.81Y1.73
X71.35Y128.27
X71.35Y125.73
X71.35Y4.27
X71.35Y1.73
X73.89Y128.27
X73.89Y125.73
X73.89Y4.27
X73.89Y1.73
X76.43Y128.27
X76.43Y125.73
X76.43Y4.27
X76.43Y1.73
X125.73Y86.62
X125.73Y84.08
X125.73Y81.54
X125.73Y79.0
X125.73Y76.46
X125.73Y66.25
X125.73Y63.71
X125.73Y61.17
X125.73Y58.63
X125.73Y56.09
X125.73Y53.55
X125.73Y51.01
X125.73Y48.47
X125.73Y45.93
X125.73Y43.39
X128.27Y86.62
X128.27Y84.08
X128.27Y81.54
X128.27Y79.0
X128.27Y76.46
X128.27Y66.25
X128.27Y63.71
X128.27Y61.17
X128.27Y58.63
X128.27Y56.09
X128.27Y53.55
X128.27Y51.01
X128.27Y48.47
X128.27Y45.93
X128.27Y43.39
M30
