G04 #@! TF.GenerationSoftware,KiCad,Pcbnew,10.0.6*
G04 #@! TF.CreationDate,2026-09-08T19:23:15-04:00*
G04 #@! TF.ProjectId,gpiojoiner,6770696f-6a6f-4696-9e65-722e6b696361,rev?*
G04 #@! TF.SameCoordinates,Original*
G04 #@! TF.FileFunction,Legend,Top*
G04 #@! TF.FilePolarity,Positive*
%FSLAX46Y46*%
G04 Gerber Fmt 4.6, Leading zero omitted, Abs format (unit mm)*
G04 Created by KiCad (PCBNEW 10.0.6) date 2026-09-08 19:23:15*
%MOMM*%
%LPD*%
G01*
G04 APERTURE LIST*
%ADD10C,0.150000*%
%ADD11C,0.180000*%
%ADD12C,3.200000*%
%ADD13C,1.400000*%
%ADD14C,2.032000*%
%ADD15C,1.500000*%
G04 APERTURE END LIST*
D10*
X7215714Y63295181D02*
X6644286Y63295181D01*
X6930000Y63295181D02*
X6930000Y64295181D01*
X6930000Y64295181D02*
X6834762Y64152324D01*
X6834762Y64152324D02*
X6739524Y64057086D01*
X6739524Y64057086D02*
X6644286Y64009467D01*
X7215714Y42925181D02*
X6644286Y42925181D01*
X6930000Y42925181D02*
X6930000Y43925181D01*
X6930000Y43925181D02*
X6834762Y43782324D01*
X6834762Y43782324D02*
X6739524Y43687086D01*
X6739524Y43687086D02*
X6644286Y43639467D01*
X9928571Y79545181D02*
X9357143Y79545181D01*
X9642857Y79545181D02*
X9642857Y80545181D01*
X9642857Y80545181D02*
X9547619Y80402324D01*
X9547619Y80402324D02*
X9452381Y80307086D01*
X9452381Y80307086D02*
X9357143Y80259467D01*
X10309524Y80449943D02*
X10357143Y80497562D01*
X10357143Y80497562D02*
X10452381Y80545181D01*
X10452381Y80545181D02*
X10690476Y80545181D01*
X10690476Y80545181D02*
X10785714Y80497562D01*
X10785714Y80497562D02*
X10833333Y80449943D01*
X10833333Y80449943D02*
X10880952Y80354705D01*
X10880952Y80354705D02*
X10880952Y80259467D01*
X10880952Y80259467D02*
X10833333Y80116610D01*
X10833333Y80116610D02*
X10261905Y79545181D01*
X10261905Y79545181D02*
X10880952Y79545181D01*
X11500000Y80545181D02*
X11595238Y80545181D01*
X11595238Y80545181D02*
X11690476Y80497562D01*
X11690476Y80497562D02*
X11738095Y80449943D01*
X11738095Y80449943D02*
X11785714Y80354705D01*
X11785714Y80354705D02*
X11833333Y80164229D01*
X11833333Y80164229D02*
X11833333Y79926134D01*
X11833333Y79926134D02*
X11785714Y79735658D01*
X11785714Y79735658D02*
X11738095Y79640420D01*
X11738095Y79640420D02*
X11690476Y79592800D01*
X11690476Y79592800D02*
X11595238Y79545181D01*
X11595238Y79545181D02*
X11500000Y79545181D01*
X11500000Y79545181D02*
X11404762Y79592800D01*
X11404762Y79592800D02*
X11357143Y79640420D01*
X11357143Y79640420D02*
X11309524Y79735658D01*
X11309524Y79735658D02*
X11261905Y79926134D01*
X11261905Y79926134D02*
X11261905Y80164229D01*
X11261905Y80164229D02*
X11309524Y80354705D01*
X11309524Y80354705D02*
X11357143Y80449943D01*
X11357143Y80449943D02*
X11404762Y80497562D01*
X11404762Y80497562D02*
X11500000Y80545181D01*
X12833333Y79545181D02*
X12500000Y80021372D01*
X12261905Y79545181D02*
X12261905Y80545181D01*
X12261905Y80545181D02*
X12642857Y80545181D01*
X12642857Y80545181D02*
X12738095Y80497562D01*
X12738095Y80497562D02*
X12785714Y80449943D01*
X12785714Y80449943D02*
X12833333Y80354705D01*
X12833333Y80354705D02*
X12833333Y80211848D01*
X12833333Y80211848D02*
X12785714Y80116610D01*
X12785714Y80116610D02*
X12738095Y80068991D01*
X12738095Y80068991D02*
X12642857Y80021372D01*
X12642857Y80021372D02*
X12261905Y80021372D01*
X14023810Y79545181D02*
X14023810Y80545181D01*
X14023810Y80545181D02*
X14261905Y80545181D01*
X14261905Y80545181D02*
X14404762Y80497562D01*
X14404762Y80497562D02*
X14500000Y80402324D01*
X14500000Y80402324D02*
X14547619Y80307086D01*
X14547619Y80307086D02*
X14595238Y80116610D01*
X14595238Y80116610D02*
X14595238Y79973753D01*
X14595238Y79973753D02*
X14547619Y79783277D01*
X14547619Y79783277D02*
X14500000Y79688039D01*
X14500000Y79688039D02*
X14404762Y79592800D01*
X14404762Y79592800D02*
X14261905Y79545181D01*
X14261905Y79545181D02*
X14023810Y79545181D01*
X15023810Y79545181D02*
X15023810Y80545181D01*
X15023810Y80545181D02*
X15595238Y79545181D01*
X15595238Y79545181D02*
X15595238Y80545181D01*
X16071429Y79545181D02*
X16071429Y80545181D01*
X16071429Y80545181D02*
X16452381Y80545181D01*
X16452381Y80545181D02*
X16547619Y80497562D01*
X16547619Y80497562D02*
X16595238Y80449943D01*
X16595238Y80449943D02*
X16642857Y80354705D01*
X16642857Y80354705D02*
X16642857Y80211848D01*
X16642857Y80211848D02*
X16595238Y80116610D01*
X16595238Y80116610D02*
X16547619Y80068991D01*
X16547619Y80068991D02*
X16452381Y80021372D01*
X16452381Y80021372D02*
X16071429Y80021372D01*
X11714286Y34830896D02*
X12190476Y34830896D01*
X11619048Y34545181D02*
X11952381Y35545181D01*
X11952381Y35545181D02*
X12285714Y34545181D01*
X12619048Y34545181D02*
X12619048Y35545181D01*
X13095238Y34545181D02*
X13095238Y35545181D01*
X13095238Y35545181D02*
X13666666Y34545181D01*
X13666666Y34545181D02*
X13666666Y35545181D01*
X14047619Y35545181D02*
X14666666Y35545181D01*
X14666666Y35545181D02*
X14333333Y35164229D01*
X14333333Y35164229D02*
X14476190Y35164229D01*
X14476190Y35164229D02*
X14571428Y35116610D01*
X14571428Y35116610D02*
X14619047Y35068991D01*
X14619047Y35068991D02*
X14666666Y34973753D01*
X14666666Y34973753D02*
X14666666Y34735658D01*
X14666666Y34735658D02*
X14619047Y34640420D01*
X14619047Y34640420D02*
X14571428Y34592800D01*
X14571428Y34592800D02*
X14476190Y34545181D01*
X14476190Y34545181D02*
X14190476Y34545181D01*
X14190476Y34545181D02*
X14095238Y34592800D01*
X14095238Y34592800D02*
X14047619Y34640420D01*
X15809524Y34830896D02*
X16285714Y34830896D01*
X15714286Y34545181D02*
X16047619Y35545181D01*
X16047619Y35545181D02*
X16380952Y34545181D01*
X33238095Y62497562D02*
X33142857Y62545181D01*
X33142857Y62545181D02*
X33000000Y62545181D01*
X33000000Y62545181D02*
X32857143Y62497562D01*
X32857143Y62497562D02*
X32761905Y62402324D01*
X32761905Y62402324D02*
X32714286Y62307086D01*
X32714286Y62307086D02*
X32666667Y62116610D01*
X32666667Y62116610D02*
X32666667Y61973753D01*
X32666667Y61973753D02*
X32714286Y61783277D01*
X32714286Y61783277D02*
X32761905Y61688039D01*
X32761905Y61688039D02*
X32857143Y61592800D01*
X32857143Y61592800D02*
X33000000Y61545181D01*
X33000000Y61545181D02*
X33095238Y61545181D01*
X33095238Y61545181D02*
X33238095Y61592800D01*
X33238095Y61592800D02*
X33285714Y61640420D01*
X33285714Y61640420D02*
X33285714Y61973753D01*
X33285714Y61973753D02*
X33095238Y61973753D01*
X33714286Y61545181D02*
X33714286Y62545181D01*
X33714286Y62545181D02*
X34095238Y62545181D01*
X34095238Y62545181D02*
X34190476Y62497562D01*
X34190476Y62497562D02*
X34238095Y62449943D01*
X34238095Y62449943D02*
X34285714Y62354705D01*
X34285714Y62354705D02*
X34285714Y62211848D01*
X34285714Y62211848D02*
X34238095Y62116610D01*
X34238095Y62116610D02*
X34190476Y62068991D01*
X34190476Y62068991D02*
X34095238Y62021372D01*
X34095238Y62021372D02*
X33714286Y62021372D01*
X34714286Y61545181D02*
X34714286Y62545181D01*
X35380952Y62545181D02*
X35571428Y62545181D01*
X35571428Y62545181D02*
X35666666Y62497562D01*
X35666666Y62497562D02*
X35761904Y62402324D01*
X35761904Y62402324D02*
X35809523Y62211848D01*
X35809523Y62211848D02*
X35809523Y61878515D01*
X35809523Y61878515D02*
X35761904Y61688039D01*
X35761904Y61688039D02*
X35666666Y61592800D01*
X35666666Y61592800D02*
X35571428Y61545181D01*
X35571428Y61545181D02*
X35380952Y61545181D01*
X35380952Y61545181D02*
X35285714Y61592800D01*
X35285714Y61592800D02*
X35190476Y61688039D01*
X35190476Y61688039D02*
X35142857Y61878515D01*
X35142857Y61878515D02*
X35142857Y62211848D01*
X35142857Y62211848D02*
X35190476Y62402324D01*
X35190476Y62402324D02*
X35285714Y62497562D01*
X35285714Y62497562D02*
X35380952Y62545181D01*
X36190476Y62449943D02*
X36238095Y62497562D01*
X36238095Y62497562D02*
X36333333Y62545181D01*
X36333333Y62545181D02*
X36571428Y62545181D01*
X36571428Y62545181D02*
X36666666Y62497562D01*
X36666666Y62497562D02*
X36714285Y62449943D01*
X36714285Y62449943D02*
X36761904Y62354705D01*
X36761904Y62354705D02*
X36761904Y62259467D01*
X36761904Y62259467D02*
X36714285Y62116610D01*
X36714285Y62116610D02*
X36142857Y61545181D01*
X36142857Y61545181D02*
X36761904Y61545181D01*
X37666666Y62545181D02*
X37190476Y62545181D01*
X37190476Y62545181D02*
X37142857Y62068991D01*
X37142857Y62068991D02*
X37190476Y62116610D01*
X37190476Y62116610D02*
X37285714Y62164229D01*
X37285714Y62164229D02*
X37523809Y62164229D01*
X37523809Y62164229D02*
X37619047Y62116610D01*
X37619047Y62116610D02*
X37666666Y62068991D01*
X37666666Y62068991D02*
X37714285Y61973753D01*
X37714285Y61973753D02*
X37714285Y61735658D01*
X37714285Y61735658D02*
X37666666Y61640420D01*
X37666666Y61640420D02*
X37619047Y61592800D01*
X37619047Y61592800D02*
X37523809Y61545181D01*
X37523809Y61545181D02*
X37285714Y61545181D01*
X37285714Y61545181D02*
X37190476Y61592800D01*
X37190476Y61592800D02*
X37142857Y61640420D01*
X38857143Y61830896D02*
X39333333Y61830896D01*
X38761905Y61545181D02*
X39095238Y62545181D01*
X39095238Y62545181D02*
X39428571Y61545181D01*
X45666666Y6545181D02*
X45666666Y5830896D01*
X45666666Y5830896D02*
X45619047Y5688039D01*
X45619047Y5688039D02*
X45523809Y5592800D01*
X45523809Y5592800D02*
X45380952Y5545181D01*
X45380952Y5545181D02*
X45285714Y5545181D01*
X46571428Y6545181D02*
X46380952Y6545181D01*
X46380952Y6545181D02*
X46285714Y6497562D01*
X46285714Y6497562D02*
X46238095Y6449943D01*
X46238095Y6449943D02*
X46142857Y6307086D01*
X46142857Y6307086D02*
X46095238Y6116610D01*
X46095238Y6116610D02*
X46095238Y5735658D01*
X46095238Y5735658D02*
X46142857Y5640420D01*
X46142857Y5640420D02*
X46190476Y5592800D01*
X46190476Y5592800D02*
X46285714Y5545181D01*
X46285714Y5545181D02*
X46476190Y5545181D01*
X46476190Y5545181D02*
X46571428Y5592800D01*
X46571428Y5592800D02*
X46619047Y5640420D01*
X46619047Y5640420D02*
X46666666Y5735658D01*
X46666666Y5735658D02*
X46666666Y5973753D01*
X46666666Y5973753D02*
X46619047Y6068991D01*
X46619047Y6068991D02*
X46571428Y6116610D01*
X46571428Y6116610D02*
X46476190Y6164229D01*
X46476190Y6164229D02*
X46285714Y6164229D01*
X46285714Y6164229D02*
X46190476Y6116610D01*
X46190476Y6116610D02*
X46142857Y6068991D01*
X46142857Y6068991D02*
X46095238Y5973753D01*
X45571428Y66068991D02*
X45238095Y66068991D01*
X45238095Y65545181D02*
X45238095Y66545181D01*
X45238095Y66545181D02*
X45714285Y66545181D01*
X46000000Y66545181D02*
X46238095Y65545181D01*
X46238095Y65545181D02*
X46428571Y66259467D01*
X46428571Y66259467D02*
X46619047Y65545181D01*
X46619047Y65545181D02*
X46857143Y66545181D01*
X47190476Y66449943D02*
X47238095Y66497562D01*
X47238095Y66497562D02*
X47333333Y66545181D01*
X47333333Y66545181D02*
X47571428Y66545181D01*
X47571428Y66545181D02*
X47666666Y66497562D01*
X47666666Y66497562D02*
X47714285Y66449943D01*
X47714285Y66449943D02*
X47761904Y66354705D01*
X47761904Y66354705D02*
X47761904Y66259467D01*
X47761904Y66259467D02*
X47714285Y66116610D01*
X47714285Y66116610D02*
X47142857Y65545181D01*
X47142857Y65545181D02*
X47761904Y65545181D01*
X49666666Y66592800D02*
X48809524Y65307086D01*
X50761905Y65545181D02*
X50761905Y66545181D01*
X50761905Y66545181D02*
X51095238Y65830896D01*
X51095238Y65830896D02*
X51428571Y66545181D01*
X51428571Y66545181D02*
X51428571Y65545181D01*
X51904762Y65545181D02*
X51904762Y66545181D01*
X52285714Y66545181D02*
X52952380Y65545181D01*
X52952380Y66545181D02*
X52285714Y65545181D01*
X53333333Y66068991D02*
X53666666Y66068991D01*
X53809523Y65545181D02*
X53333333Y65545181D01*
X53333333Y65545181D02*
X53333333Y66545181D01*
X53333333Y66545181D02*
X53809523Y66545181D01*
X54238095Y65545181D02*
X54238095Y66545181D01*
X54238095Y66545181D02*
X54476190Y66545181D01*
X54476190Y66545181D02*
X54619047Y66497562D01*
X54619047Y66497562D02*
X54714285Y66402324D01*
X54714285Y66402324D02*
X54761904Y66307086D01*
X54761904Y66307086D02*
X54809523Y66116610D01*
X54809523Y66116610D02*
X54809523Y65973753D01*
X54809523Y65973753D02*
X54761904Y65783277D01*
X54761904Y65783277D02*
X54714285Y65688039D01*
X54714285Y65688039D02*
X54619047Y65592800D01*
X54619047Y65592800D02*
X54476190Y65545181D01*
X54476190Y65545181D02*
X54238095Y65545181D01*
X53855714Y122615181D02*
X53284286Y122615181D01*
X53570000Y122615181D02*
X53570000Y123615181D01*
X53570000Y123615181D02*
X53474762Y123472324D01*
X53474762Y123472324D02*
X53379524Y123377086D01*
X53379524Y123377086D02*
X53284286Y123329467D01*
X51690476Y38545181D02*
X51690476Y39545181D01*
X52166666Y38545181D02*
X52166666Y39545181D01*
X52166666Y39545181D02*
X52404761Y39545181D01*
X52404761Y39545181D02*
X52547618Y39497562D01*
X52547618Y39497562D02*
X52642856Y39402324D01*
X52642856Y39402324D02*
X52690475Y39307086D01*
X52690475Y39307086D02*
X52738094Y39116610D01*
X52738094Y39116610D02*
X52738094Y38973753D01*
X52738094Y38973753D02*
X52690475Y38783277D01*
X52690475Y38783277D02*
X52642856Y38688039D01*
X52642856Y38688039D02*
X52547618Y38592800D01*
X52547618Y38592800D02*
X52404761Y38545181D01*
X52404761Y38545181D02*
X52166666Y38545181D01*
X53785714Y39545181D02*
X54119047Y38545181D01*
X54119047Y38545181D02*
X54452380Y39545181D01*
X55357142Y38640420D02*
X55309523Y38592800D01*
X55309523Y38592800D02*
X55166666Y38545181D01*
X55166666Y38545181D02*
X55071428Y38545181D01*
X55071428Y38545181D02*
X54928571Y38592800D01*
X54928571Y38592800D02*
X54833333Y38688039D01*
X54833333Y38688039D02*
X54785714Y38783277D01*
X54785714Y38783277D02*
X54738095Y38973753D01*
X54738095Y38973753D02*
X54738095Y39116610D01*
X54738095Y39116610D02*
X54785714Y39307086D01*
X54785714Y39307086D02*
X54833333Y39402324D01*
X54833333Y39402324D02*
X54928571Y39497562D01*
X54928571Y39497562D02*
X55071428Y39545181D01*
X55071428Y39545181D02*
X55166666Y39545181D01*
X55166666Y39545181D02*
X55309523Y39497562D01*
X55309523Y39497562D02*
X55357142Y39449943D01*
X56357142Y38640420D02*
X56309523Y38592800D01*
X56309523Y38592800D02*
X56166666Y38545181D01*
X56166666Y38545181D02*
X56071428Y38545181D01*
X56071428Y38545181D02*
X55928571Y38592800D01*
X55928571Y38592800D02*
X55833333Y38688039D01*
X55833333Y38688039D02*
X55785714Y38783277D01*
X55785714Y38783277D02*
X55738095Y38973753D01*
X55738095Y38973753D02*
X55738095Y39116610D01*
X55738095Y39116610D02*
X55785714Y39307086D01*
X55785714Y39307086D02*
X55833333Y39402324D01*
X55833333Y39402324D02*
X55928571Y39497562D01*
X55928571Y39497562D02*
X56071428Y39545181D01*
X56071428Y39545181D02*
X56166666Y39545181D01*
X56166666Y39545181D02*
X56309523Y39497562D01*
X56309523Y39497562D02*
X56357142Y39449943D01*
X56095237Y56640420D02*
X56047618Y56592800D01*
X56047618Y56592800D02*
X55904761Y56545181D01*
X55904761Y56545181D02*
X55809523Y56545181D01*
X55809523Y56545181D02*
X55666666Y56592800D01*
X55666666Y56592800D02*
X55571428Y56688039D01*
X55571428Y56688039D02*
X55523809Y56783277D01*
X55523809Y56783277D02*
X55476190Y56973753D01*
X55476190Y56973753D02*
X55476190Y57116610D01*
X55476190Y57116610D02*
X55523809Y57307086D01*
X55523809Y57307086D02*
X55571428Y57402324D01*
X55571428Y57402324D02*
X55666666Y57497562D01*
X55666666Y57497562D02*
X55809523Y57545181D01*
X55809523Y57545181D02*
X55904761Y57545181D01*
X55904761Y57545181D02*
X56047618Y57497562D01*
X56047618Y57497562D02*
X56095237Y57449943D01*
X56523809Y56545181D02*
X56523809Y57545181D01*
X56523809Y57068991D02*
X57095237Y57068991D01*
X57095237Y56545181D02*
X57095237Y57545181D01*
X57523809Y56830896D02*
X57999999Y56830896D01*
X57428571Y56545181D02*
X57761904Y57545181D01*
X57761904Y57545181D02*
X58095237Y56545181D01*
X58428571Y56545181D02*
X58428571Y57545181D01*
X58428571Y57545181D02*
X58999999Y56545181D01*
X58999999Y56545181D02*
X58999999Y57545181D01*
X59999999Y57497562D02*
X59904761Y57545181D01*
X59904761Y57545181D02*
X59761904Y57545181D01*
X59761904Y57545181D02*
X59619047Y57497562D01*
X59619047Y57497562D02*
X59523809Y57402324D01*
X59523809Y57402324D02*
X59476190Y57307086D01*
X59476190Y57307086D02*
X59428571Y57116610D01*
X59428571Y57116610D02*
X59428571Y56973753D01*
X59428571Y56973753D02*
X59476190Y56783277D01*
X59476190Y56783277D02*
X59523809Y56688039D01*
X59523809Y56688039D02*
X59619047Y56592800D01*
X59619047Y56592800D02*
X59761904Y56545181D01*
X59761904Y56545181D02*
X59857142Y56545181D01*
X59857142Y56545181D02*
X59999999Y56592800D01*
X59999999Y56592800D02*
X60047618Y56640420D01*
X60047618Y56640420D02*
X60047618Y56973753D01*
X60047618Y56973753D02*
X59857142Y56973753D01*
X60476190Y57068991D02*
X60809523Y57068991D01*
X60952380Y56545181D02*
X60476190Y56545181D01*
X60476190Y56545181D02*
X60476190Y57545181D01*
X60476190Y57545181D02*
X60952380Y57545181D01*
X62047619Y57545181D02*
X62285714Y56545181D01*
X62285714Y56545181D02*
X62476190Y57259467D01*
X62476190Y57259467D02*
X62666666Y56545181D01*
X62666666Y56545181D02*
X62904762Y57545181D01*
X63285714Y56545181D02*
X63285714Y57545181D01*
X63619047Y57545181D02*
X64190475Y57545181D01*
X63904761Y56545181D02*
X63904761Y57545181D01*
X64523809Y56545181D02*
X64523809Y57545181D01*
X64523809Y57068991D02*
X65095237Y57068991D01*
X65095237Y56545181D02*
X65095237Y57545181D01*
X66333333Y56545181D02*
X66333333Y57545181D01*
X66333333Y57545181D02*
X66714285Y57545181D01*
X66714285Y57545181D02*
X66809523Y57497562D01*
X66809523Y57497562D02*
X66857142Y57449943D01*
X66857142Y57449943D02*
X66904761Y57354705D01*
X66904761Y57354705D02*
X66904761Y57211848D01*
X66904761Y57211848D02*
X66857142Y57116610D01*
X66857142Y57116610D02*
X66809523Y57068991D01*
X66809523Y57068991D02*
X66714285Y57021372D01*
X66714285Y57021372D02*
X66333333Y57021372D01*
X67523809Y57545181D02*
X67714285Y57545181D01*
X67714285Y57545181D02*
X67809523Y57497562D01*
X67809523Y57497562D02*
X67904761Y57402324D01*
X67904761Y57402324D02*
X67952380Y57211848D01*
X67952380Y57211848D02*
X67952380Y56878515D01*
X67952380Y56878515D02*
X67904761Y56688039D01*
X67904761Y56688039D02*
X67809523Y56592800D01*
X67809523Y56592800D02*
X67714285Y56545181D01*
X67714285Y56545181D02*
X67523809Y56545181D01*
X67523809Y56545181D02*
X67428571Y56592800D01*
X67428571Y56592800D02*
X67333333Y56688039D01*
X67333333Y56688039D02*
X67285714Y56878515D01*
X67285714Y56878515D02*
X67285714Y57211848D01*
X67285714Y57211848D02*
X67333333Y57402324D01*
X67333333Y57402324D02*
X67428571Y57497562D01*
X67428571Y57497562D02*
X67523809Y57545181D01*
X68285714Y57545181D02*
X68523809Y56545181D01*
X68523809Y56545181D02*
X68714285Y57259467D01*
X68714285Y57259467D02*
X68904761Y56545181D01*
X68904761Y56545181D02*
X69142857Y57545181D01*
X69523809Y57068991D02*
X69857142Y57068991D01*
X69999999Y56545181D02*
X69523809Y56545181D01*
X69523809Y56545181D02*
X69523809Y57545181D01*
X69523809Y57545181D02*
X69999999Y57545181D01*
X70999999Y56545181D02*
X70666666Y57021372D01*
X70428571Y56545181D02*
X70428571Y57545181D01*
X70428571Y57545181D02*
X70809523Y57545181D01*
X70809523Y57545181D02*
X70904761Y57497562D01*
X70904761Y57497562D02*
X70952380Y57449943D01*
X70952380Y57449943D02*
X70999999Y57354705D01*
X70999999Y57354705D02*
X70999999Y57211848D01*
X70999999Y57211848D02*
X70952380Y57116610D01*
X70952380Y57116610D02*
X70904761Y57068991D01*
X70904761Y57068991D02*
X70809523Y57021372D01*
X70809523Y57021372D02*
X70428571Y57021372D01*
X72380952Y57545181D02*
X72571428Y57545181D01*
X72571428Y57545181D02*
X72666666Y57497562D01*
X72666666Y57497562D02*
X72761904Y57402324D01*
X72761904Y57402324D02*
X72809523Y57211848D01*
X72809523Y57211848D02*
X72809523Y56878515D01*
X72809523Y56878515D02*
X72761904Y56688039D01*
X72761904Y56688039D02*
X72666666Y56592800D01*
X72666666Y56592800D02*
X72571428Y56545181D01*
X72571428Y56545181D02*
X72380952Y56545181D01*
X72380952Y56545181D02*
X72285714Y56592800D01*
X72285714Y56592800D02*
X72190476Y56688039D01*
X72190476Y56688039D02*
X72142857Y56878515D01*
X72142857Y56878515D02*
X72142857Y57211848D01*
X72142857Y57211848D02*
X72190476Y57402324D01*
X72190476Y57402324D02*
X72285714Y57497562D01*
X72285714Y57497562D02*
X72380952Y57545181D01*
X73571428Y57068991D02*
X73238095Y57068991D01*
X73238095Y56545181D02*
X73238095Y57545181D01*
X73238095Y57545181D02*
X73714285Y57545181D01*
X74428571Y57068991D02*
X74095238Y57068991D01*
X74095238Y56545181D02*
X74095238Y57545181D01*
X74095238Y57545181D02*
X74571428Y57545181D01*
X73238095Y40497562D02*
X73142857Y40545181D01*
X73142857Y40545181D02*
X73000000Y40545181D01*
X73000000Y40545181D02*
X72857143Y40497562D01*
X72857143Y40497562D02*
X72761905Y40402324D01*
X72761905Y40402324D02*
X72714286Y40307086D01*
X72714286Y40307086D02*
X72666667Y40116610D01*
X72666667Y40116610D02*
X72666667Y39973753D01*
X72666667Y39973753D02*
X72714286Y39783277D01*
X72714286Y39783277D02*
X72761905Y39688039D01*
X72761905Y39688039D02*
X72857143Y39592800D01*
X72857143Y39592800D02*
X73000000Y39545181D01*
X73000000Y39545181D02*
X73095238Y39545181D01*
X73095238Y39545181D02*
X73238095Y39592800D01*
X73238095Y39592800D02*
X73285714Y39640420D01*
X73285714Y39640420D02*
X73285714Y39973753D01*
X73285714Y39973753D02*
X73095238Y39973753D01*
X73714286Y39545181D02*
X73714286Y40545181D01*
X73714286Y40545181D02*
X74285714Y39545181D01*
X74285714Y39545181D02*
X74285714Y40545181D01*
X74761905Y39545181D02*
X74761905Y40545181D01*
X74761905Y40545181D02*
X75000000Y40545181D01*
X75000000Y40545181D02*
X75142857Y40497562D01*
X75142857Y40497562D02*
X75238095Y40402324D01*
X75238095Y40402324D02*
X75285714Y40307086D01*
X75285714Y40307086D02*
X75333333Y40116610D01*
X75333333Y40116610D02*
X75333333Y39973753D01*
X75333333Y39973753D02*
X75285714Y39783277D01*
X75285714Y39783277D02*
X75238095Y39688039D01*
X75238095Y39688039D02*
X75142857Y39592800D01*
X75142857Y39592800D02*
X75000000Y39545181D01*
X75000000Y39545181D02*
X74761905Y39545181D01*
X76715714Y6475181D02*
X76144286Y6475181D01*
X76430000Y6475181D02*
X76430000Y7475181D01*
X76430000Y7475181D02*
X76334762Y7332324D01*
X76334762Y7332324D02*
X76239524Y7237086D01*
X76239524Y7237086D02*
X76144286Y7189467D01*
X77095238Y66545181D02*
X77285714Y66545181D01*
X77285714Y66545181D02*
X77380952Y66497562D01*
X77380952Y66497562D02*
X77476190Y66402324D01*
X77476190Y66402324D02*
X77523809Y66211848D01*
X77523809Y66211848D02*
X77523809Y65878515D01*
X77523809Y65878515D02*
X77476190Y65688039D01*
X77476190Y65688039D02*
X77380952Y65592800D01*
X77380952Y65592800D02*
X77285714Y65545181D01*
X77285714Y65545181D02*
X77095238Y65545181D01*
X77095238Y65545181D02*
X77000000Y65592800D01*
X77000000Y65592800D02*
X76904762Y65688039D01*
X76904762Y65688039D02*
X76857143Y65878515D01*
X76857143Y65878515D02*
X76857143Y66211848D01*
X76857143Y66211848D02*
X76904762Y66402324D01*
X76904762Y66402324D02*
X77000000Y66497562D01*
X77000000Y66497562D02*
X77095238Y66545181D01*
X78476190Y66497562D02*
X78380952Y66545181D01*
X78380952Y66545181D02*
X78238095Y66545181D01*
X78238095Y66545181D02*
X78095238Y66497562D01*
X78095238Y66497562D02*
X78000000Y66402324D01*
X78000000Y66402324D02*
X77952381Y66307086D01*
X77952381Y66307086D02*
X77904762Y66116610D01*
X77904762Y66116610D02*
X77904762Y65973753D01*
X77904762Y65973753D02*
X77952381Y65783277D01*
X77952381Y65783277D02*
X78000000Y65688039D01*
X78000000Y65688039D02*
X78095238Y65592800D01*
X78095238Y65592800D02*
X78238095Y65545181D01*
X78238095Y65545181D02*
X78333333Y65545181D01*
X78333333Y65545181D02*
X78476190Y65592800D01*
X78476190Y65592800D02*
X78523809Y65640420D01*
X78523809Y65640420D02*
X78523809Y65973753D01*
X78523809Y65973753D02*
X78333333Y65973753D01*
X80428571Y66592800D02*
X79571429Y65307086D01*
X81714286Y66545181D02*
X81904762Y66545181D01*
X81904762Y66545181D02*
X82000000Y66497562D01*
X82000000Y66497562D02*
X82095238Y66402324D01*
X82095238Y66402324D02*
X82142857Y66211848D01*
X82142857Y66211848D02*
X82142857Y65878515D01*
X82142857Y65878515D02*
X82095238Y65688039D01*
X82095238Y65688039D02*
X82000000Y65592800D01*
X82000000Y65592800D02*
X81904762Y65545181D01*
X81904762Y65545181D02*
X81714286Y65545181D01*
X81714286Y65545181D02*
X81619048Y65592800D01*
X81619048Y65592800D02*
X81523810Y65688039D01*
X81523810Y65688039D02*
X81476191Y65878515D01*
X81476191Y65878515D02*
X81476191Y66211848D01*
X81476191Y66211848D02*
X81523810Y66402324D01*
X81523810Y66402324D02*
X81619048Y66497562D01*
X81619048Y66497562D02*
X81714286Y66545181D01*
X83095238Y66497562D02*
X83000000Y66545181D01*
X83000000Y66545181D02*
X82857143Y66545181D01*
X82857143Y66545181D02*
X82714286Y66497562D01*
X82714286Y66497562D02*
X82619048Y66402324D01*
X82619048Y66402324D02*
X82571429Y66307086D01*
X82571429Y66307086D02*
X82523810Y66116610D01*
X82523810Y66116610D02*
X82523810Y65973753D01*
X82523810Y65973753D02*
X82571429Y65783277D01*
X82571429Y65783277D02*
X82619048Y65688039D01*
X82619048Y65688039D02*
X82714286Y65592800D01*
X82714286Y65592800D02*
X82857143Y65545181D01*
X82857143Y65545181D02*
X82952381Y65545181D01*
X82952381Y65545181D02*
X83095238Y65592800D01*
X83095238Y65592800D02*
X83142857Y65640420D01*
X83142857Y65640420D02*
X83142857Y65973753D01*
X83142857Y65973753D02*
X82952381Y65973753D01*
X83666666Y124545181D02*
X83666666Y123830896D01*
X83666666Y123830896D02*
X83619047Y123688039D01*
X83619047Y123688039D02*
X83523809Y123592800D01*
X83523809Y123592800D02*
X83380952Y123545181D01*
X83380952Y123545181D02*
X83285714Y123545181D01*
X84619047Y124545181D02*
X84142857Y124545181D01*
X84142857Y124545181D02*
X84095238Y124068991D01*
X84095238Y124068991D02*
X84142857Y124116610D01*
X84142857Y124116610D02*
X84238095Y124164229D01*
X84238095Y124164229D02*
X84476190Y124164229D01*
X84476190Y124164229D02*
X84571428Y124116610D01*
X84571428Y124116610D02*
X84619047Y124068991D01*
X84619047Y124068991D02*
X84666666Y123973753D01*
X84666666Y123973753D02*
X84666666Y123735658D01*
X84666666Y123735658D02*
X84619047Y123640420D01*
X84619047Y123640420D02*
X84571428Y123592800D01*
X84571428Y123592800D02*
X84476190Y123545181D01*
X84476190Y123545181D02*
X84238095Y123545181D01*
X84238095Y123545181D02*
X84142857Y123592800D01*
X84142857Y123592800D02*
X84095238Y123640420D01*
X91166666Y62497562D02*
X91071428Y62545181D01*
X91071428Y62545181D02*
X90928571Y62545181D01*
X90928571Y62545181D02*
X90785714Y62497562D01*
X90785714Y62497562D02*
X90690476Y62402324D01*
X90690476Y62402324D02*
X90642857Y62307086D01*
X90642857Y62307086D02*
X90595238Y62116610D01*
X90595238Y62116610D02*
X90595238Y61973753D01*
X90595238Y61973753D02*
X90642857Y61783277D01*
X90642857Y61783277D02*
X90690476Y61688039D01*
X90690476Y61688039D02*
X90785714Y61592800D01*
X90785714Y61592800D02*
X90928571Y61545181D01*
X90928571Y61545181D02*
X91023809Y61545181D01*
X91023809Y61545181D02*
X91166666Y61592800D01*
X91166666Y61592800D02*
X91214285Y61640420D01*
X91214285Y61640420D02*
X91214285Y61973753D01*
X91214285Y61973753D02*
X91023809Y61973753D01*
X91642857Y61545181D02*
X91642857Y62545181D01*
X91642857Y62545181D02*
X92023809Y62545181D01*
X92023809Y62545181D02*
X92119047Y62497562D01*
X92119047Y62497562D02*
X92166666Y62449943D01*
X92166666Y62449943D02*
X92214285Y62354705D01*
X92214285Y62354705D02*
X92214285Y62211848D01*
X92214285Y62211848D02*
X92166666Y62116610D01*
X92166666Y62116610D02*
X92119047Y62068991D01*
X92119047Y62068991D02*
X92023809Y62021372D01*
X92023809Y62021372D02*
X91642857Y62021372D01*
X92642857Y61545181D02*
X92642857Y62545181D01*
X93309523Y62545181D02*
X93499999Y62545181D01*
X93499999Y62545181D02*
X93595237Y62497562D01*
X93595237Y62497562D02*
X93690475Y62402324D01*
X93690475Y62402324D02*
X93738094Y62211848D01*
X93738094Y62211848D02*
X93738094Y61878515D01*
X93738094Y61878515D02*
X93690475Y61688039D01*
X93690475Y61688039D02*
X93595237Y61592800D01*
X93595237Y61592800D02*
X93499999Y61545181D01*
X93499999Y61545181D02*
X93309523Y61545181D01*
X93309523Y61545181D02*
X93214285Y61592800D01*
X93214285Y61592800D02*
X93119047Y61688039D01*
X93119047Y61688039D02*
X93071428Y61878515D01*
X93071428Y61878515D02*
X93071428Y62211848D01*
X93071428Y62211848D02*
X93119047Y62402324D01*
X93119047Y62402324D02*
X93214285Y62497562D01*
X93214285Y62497562D02*
X93309523Y62545181D01*
X94119047Y62449943D02*
X94166666Y62497562D01*
X94166666Y62497562D02*
X94261904Y62545181D01*
X94261904Y62545181D02*
X94499999Y62545181D01*
X94499999Y62545181D02*
X94595237Y62497562D01*
X94595237Y62497562D02*
X94642856Y62449943D01*
X94642856Y62449943D02*
X94690475Y62354705D01*
X94690475Y62354705D02*
X94690475Y62259467D01*
X94690475Y62259467D02*
X94642856Y62116610D01*
X94642856Y62116610D02*
X94071428Y61545181D01*
X94071428Y61545181D02*
X94690475Y61545181D01*
X95595237Y62545181D02*
X95119047Y62545181D01*
X95119047Y62545181D02*
X95071428Y62068991D01*
X95071428Y62068991D02*
X95119047Y62116610D01*
X95119047Y62116610D02*
X95214285Y62164229D01*
X95214285Y62164229D02*
X95452380Y62164229D01*
X95452380Y62164229D02*
X95547618Y62116610D01*
X95547618Y62116610D02*
X95595237Y62068991D01*
X95595237Y62068991D02*
X95642856Y61973753D01*
X95642856Y61973753D02*
X95642856Y61735658D01*
X95642856Y61735658D02*
X95595237Y61640420D01*
X95595237Y61640420D02*
X95547618Y61592800D01*
X95547618Y61592800D02*
X95452380Y61545181D01*
X95452380Y61545181D02*
X95214285Y61545181D01*
X95214285Y61545181D02*
X95119047Y61592800D01*
X95119047Y61592800D02*
X95071428Y61640420D01*
X97166666Y62068991D02*
X97309523Y62021372D01*
X97309523Y62021372D02*
X97357142Y61973753D01*
X97357142Y61973753D02*
X97404761Y61878515D01*
X97404761Y61878515D02*
X97404761Y61735658D01*
X97404761Y61735658D02*
X97357142Y61640420D01*
X97357142Y61640420D02*
X97309523Y61592800D01*
X97309523Y61592800D02*
X97214285Y61545181D01*
X97214285Y61545181D02*
X96833333Y61545181D01*
X96833333Y61545181D02*
X96833333Y62545181D01*
X96833333Y62545181D02*
X97166666Y62545181D01*
X97166666Y62545181D02*
X97261904Y62497562D01*
X97261904Y62497562D02*
X97309523Y62449943D01*
X97309523Y62449943D02*
X97357142Y62354705D01*
X97357142Y62354705D02*
X97357142Y62259467D01*
X97357142Y62259467D02*
X97309523Y62164229D01*
X97309523Y62164229D02*
X97261904Y62116610D01*
X97261904Y62116610D02*
X97166666Y62068991D01*
X97166666Y62068991D02*
X96833333Y62068991D01*
X113642857Y98830896D02*
X114119047Y98830896D01*
X113547619Y98545181D02*
X113880952Y99545181D01*
X113880952Y99545181D02*
X114214285Y98545181D01*
X114547619Y98545181D02*
X114547619Y99545181D01*
X115023809Y98545181D02*
X115023809Y99545181D01*
X115023809Y99545181D02*
X115595237Y98545181D01*
X115595237Y98545181D02*
X115595237Y99545181D01*
X115976190Y99545181D02*
X116595237Y99545181D01*
X116595237Y99545181D02*
X116261904Y99164229D01*
X116261904Y99164229D02*
X116404761Y99164229D01*
X116404761Y99164229D02*
X116499999Y99116610D01*
X116499999Y99116610D02*
X116547618Y99068991D01*
X116547618Y99068991D02*
X116595237Y98973753D01*
X116595237Y98973753D02*
X116595237Y98735658D01*
X116595237Y98735658D02*
X116547618Y98640420D01*
X116547618Y98640420D02*
X116499999Y98592800D01*
X116499999Y98592800D02*
X116404761Y98545181D01*
X116404761Y98545181D02*
X116119047Y98545181D01*
X116119047Y98545181D02*
X116023809Y98592800D01*
X116023809Y98592800D02*
X115976190Y98640420D01*
X118119047Y99068991D02*
X118261904Y99021372D01*
X118261904Y99021372D02*
X118309523Y98973753D01*
X118309523Y98973753D02*
X118357142Y98878515D01*
X118357142Y98878515D02*
X118357142Y98735658D01*
X118357142Y98735658D02*
X118309523Y98640420D01*
X118309523Y98640420D02*
X118261904Y98592800D01*
X118261904Y98592800D02*
X118166666Y98545181D01*
X118166666Y98545181D02*
X117785714Y98545181D01*
X117785714Y98545181D02*
X117785714Y99545181D01*
X117785714Y99545181D02*
X118119047Y99545181D01*
X118119047Y99545181D02*
X118214285Y99497562D01*
X118214285Y99497562D02*
X118261904Y99449943D01*
X118261904Y99449943D02*
X118309523Y99354705D01*
X118309523Y99354705D02*
X118309523Y99259467D01*
X118309523Y99259467D02*
X118261904Y99164229D01*
X118261904Y99164229D02*
X118214285Y99116610D01*
X118214285Y99116610D02*
X118119047Y99068991D01*
X118119047Y99068991D02*
X117785714Y99068991D01*
X113928571Y49545181D02*
X113357143Y49545181D01*
X113642857Y49545181D02*
X113642857Y50545181D01*
X113642857Y50545181D02*
X113547619Y50402324D01*
X113547619Y50402324D02*
X113452381Y50307086D01*
X113452381Y50307086D02*
X113357143Y50259467D01*
X114309524Y50449943D02*
X114357143Y50497562D01*
X114357143Y50497562D02*
X114452381Y50545181D01*
X114452381Y50545181D02*
X114690476Y50545181D01*
X114690476Y50545181D02*
X114785714Y50497562D01*
X114785714Y50497562D02*
X114833333Y50449943D01*
X114833333Y50449943D02*
X114880952Y50354705D01*
X114880952Y50354705D02*
X114880952Y50259467D01*
X114880952Y50259467D02*
X114833333Y50116610D01*
X114833333Y50116610D02*
X114261905Y49545181D01*
X114261905Y49545181D02*
X114880952Y49545181D01*
X115500000Y50545181D02*
X115595238Y50545181D01*
X115595238Y50545181D02*
X115690476Y50497562D01*
X115690476Y50497562D02*
X115738095Y50449943D01*
X115738095Y50449943D02*
X115785714Y50354705D01*
X115785714Y50354705D02*
X115833333Y50164229D01*
X115833333Y50164229D02*
X115833333Y49926134D01*
X115833333Y49926134D02*
X115785714Y49735658D01*
X115785714Y49735658D02*
X115738095Y49640420D01*
X115738095Y49640420D02*
X115690476Y49592800D01*
X115690476Y49592800D02*
X115595238Y49545181D01*
X115595238Y49545181D02*
X115500000Y49545181D01*
X115500000Y49545181D02*
X115404762Y49592800D01*
X115404762Y49592800D02*
X115357143Y49640420D01*
X115357143Y49640420D02*
X115309524Y49735658D01*
X115309524Y49735658D02*
X115261905Y49926134D01*
X115261905Y49926134D02*
X115261905Y50164229D01*
X115261905Y50164229D02*
X115309524Y50354705D01*
X115309524Y50354705D02*
X115357143Y50449943D01*
X115357143Y50449943D02*
X115404762Y50497562D01*
X115404762Y50497562D02*
X115500000Y50545181D01*
X116833333Y49545181D02*
X116500000Y50021372D01*
X116261905Y49545181D02*
X116261905Y50545181D01*
X116261905Y50545181D02*
X116642857Y50545181D01*
X116642857Y50545181D02*
X116738095Y50497562D01*
X116738095Y50497562D02*
X116785714Y50449943D01*
X116785714Y50449943D02*
X116833333Y50354705D01*
X116833333Y50354705D02*
X116833333Y50211848D01*
X116833333Y50211848D02*
X116785714Y50116610D01*
X116785714Y50116610D02*
X116738095Y50068991D01*
X116738095Y50068991D02*
X116642857Y50021372D01*
X116642857Y50021372D02*
X116261905Y50021372D01*
X118023810Y49545181D02*
X118023810Y50545181D01*
X118023810Y50545181D02*
X118261905Y50545181D01*
X118261905Y50545181D02*
X118404762Y50497562D01*
X118404762Y50497562D02*
X118500000Y50402324D01*
X118500000Y50402324D02*
X118547619Y50307086D01*
X118547619Y50307086D02*
X118595238Y50116610D01*
X118595238Y50116610D02*
X118595238Y49973753D01*
X118595238Y49973753D02*
X118547619Y49783277D01*
X118547619Y49783277D02*
X118500000Y49688039D01*
X118500000Y49688039D02*
X118404762Y49592800D01*
X118404762Y49592800D02*
X118261905Y49545181D01*
X118261905Y49545181D02*
X118023810Y49545181D01*
X119023810Y49545181D02*
X119023810Y50545181D01*
X119023810Y50545181D02*
X119595238Y49545181D01*
X119595238Y49545181D02*
X119595238Y50545181D01*
X120071429Y49545181D02*
X120071429Y50545181D01*
X120071429Y50545181D02*
X120452381Y50545181D01*
X120452381Y50545181D02*
X120547619Y50497562D01*
X120547619Y50497562D02*
X120595238Y50449943D01*
X120595238Y50449943D02*
X120642857Y50354705D01*
X120642857Y50354705D02*
X120642857Y50211848D01*
X120642857Y50211848D02*
X120595238Y50116610D01*
X120595238Y50116610D02*
X120547619Y50068991D01*
X120547619Y50068991D02*
X120452381Y50021372D01*
X120452381Y50021372D02*
X120071429Y50021372D01*
X123355714Y86165181D02*
X122784286Y86165181D01*
X123070000Y86165181D02*
X123070000Y87165181D01*
X123070000Y87165181D02*
X122974762Y87022324D01*
X122974762Y87022324D02*
X122879524Y86927086D01*
X122879524Y86927086D02*
X122784286Y86879467D01*
X123355714Y65795181D02*
X122784286Y65795181D01*
X123070000Y65795181D02*
X123070000Y66795181D01*
X123070000Y66795181D02*
X122974762Y66652324D01*
X122974762Y66652324D02*
X122879524Y66557086D01*
X122879524Y66557086D02*
X122784286Y66509467D01*
X21454819Y73656191D02*
X22169104Y73656191D01*
X22169104Y73656191D02*
X22311961Y73608572D01*
X22311961Y73608572D02*
X22407200Y73513334D01*
X22407200Y73513334D02*
X22454819Y73370477D01*
X22454819Y73370477D02*
X22454819Y73275239D01*
X22454819Y74656191D02*
X22454819Y74084763D01*
X22454819Y74370477D02*
X21454819Y74370477D01*
X21454819Y74370477D02*
X21597676Y74275239D01*
X21597676Y74275239D02*
X21692914Y74180001D01*
X21692914Y74180001D02*
X21740533Y74084763D01*
X22359580Y75084763D02*
X22407200Y75132382D01*
X22407200Y75132382D02*
X22454819Y75084763D01*
X22454819Y75084763D02*
X22407200Y75037144D01*
X22407200Y75037144D02*
X22359580Y75084763D01*
X22359580Y75084763D02*
X22454819Y75084763D01*
X21835771Y75084763D02*
X21883390Y75132382D01*
X21883390Y75132382D02*
X21931009Y75084763D01*
X21931009Y75084763D02*
X21883390Y75037144D01*
X21883390Y75037144D02*
X21835771Y75084763D01*
X21835771Y75084763D02*
X21931009Y75084763D01*
X21550057Y75513334D02*
X21502438Y75560953D01*
X21502438Y75560953D02*
X21454819Y75656191D01*
X21454819Y75656191D02*
X21454819Y75894286D01*
X21454819Y75894286D02*
X21502438Y75989524D01*
X21502438Y75989524D02*
X21550057Y76037143D01*
X21550057Y76037143D02*
X21645295Y76084762D01*
X21645295Y76084762D02*
X21740533Y76084762D01*
X21740533Y76084762D02*
X21883390Y76037143D01*
X21883390Y76037143D02*
X22454819Y75465715D01*
X22454819Y75465715D02*
X22454819Y76084762D01*
X21454819Y76703810D02*
X21454819Y76799048D01*
X21454819Y76799048D02*
X21502438Y76894286D01*
X21502438Y76894286D02*
X21550057Y76941905D01*
X21550057Y76941905D02*
X21645295Y76989524D01*
X21645295Y76989524D02*
X21835771Y77037143D01*
X21835771Y77037143D02*
X22073866Y77037143D01*
X22073866Y77037143D02*
X22264342Y76989524D01*
X22264342Y76989524D02*
X22359580Y76941905D01*
X22359580Y76941905D02*
X22407200Y76894286D01*
X22407200Y76894286D02*
X22454819Y76799048D01*
X22454819Y76799048D02*
X22454819Y76703810D01*
X22454819Y76703810D02*
X22407200Y76608572D01*
X22407200Y76608572D02*
X22359580Y76560953D01*
X22359580Y76560953D02*
X22264342Y76513334D01*
X22264342Y76513334D02*
X22073866Y76465715D01*
X22073866Y76465715D02*
X21835771Y76465715D01*
X21835771Y76465715D02*
X21645295Y76513334D01*
X21645295Y76513334D02*
X21550057Y76560953D01*
X21550057Y76560953D02*
X21502438Y76608572D01*
X21502438Y76608572D02*
X21454819Y76703810D01*
X21454819Y46936191D02*
X22169104Y46936191D01*
X22169104Y46936191D02*
X22311961Y46888572D01*
X22311961Y46888572D02*
X22407200Y46793334D01*
X22407200Y46793334D02*
X22454819Y46650477D01*
X22454819Y46650477D02*
X22454819Y46555239D01*
X21550057Y47364763D02*
X21502438Y47412382D01*
X21502438Y47412382D02*
X21454819Y47507620D01*
X21454819Y47507620D02*
X21454819Y47745715D01*
X21454819Y47745715D02*
X21502438Y47840953D01*
X21502438Y47840953D02*
X21550057Y47888572D01*
X21550057Y47888572D02*
X21645295Y47936191D01*
X21645295Y47936191D02*
X21740533Y47936191D01*
X21740533Y47936191D02*
X21883390Y47888572D01*
X21883390Y47888572D02*
X22454819Y47317144D01*
X22454819Y47317144D02*
X22454819Y47936191D01*
X22359580Y48364763D02*
X22407200Y48412382D01*
X22407200Y48412382D02*
X22454819Y48364763D01*
X22454819Y48364763D02*
X22407200Y48317144D01*
X22407200Y48317144D02*
X22359580Y48364763D01*
X22359580Y48364763D02*
X22454819Y48364763D01*
X21835771Y48364763D02*
X21883390Y48412382D01*
X21883390Y48412382D02*
X21931009Y48364763D01*
X21931009Y48364763D02*
X21883390Y48317144D01*
X21883390Y48317144D02*
X21835771Y48364763D01*
X21835771Y48364763D02*
X21931009Y48364763D01*
X22454819Y49364762D02*
X22454819Y48793334D01*
X22454819Y49079048D02*
X21454819Y49079048D01*
X21454819Y49079048D02*
X21597676Y48983810D01*
X21597676Y48983810D02*
X21692914Y48888572D01*
X21692914Y48888572D02*
X21740533Y48793334D01*
X21454819Y49983810D02*
X21454819Y50079048D01*
X21454819Y50079048D02*
X21502438Y50174286D01*
X21502438Y50174286D02*
X21550057Y50221905D01*
X21550057Y50221905D02*
X21645295Y50269524D01*
X21645295Y50269524D02*
X21835771Y50317143D01*
X21835771Y50317143D02*
X22073866Y50317143D01*
X22073866Y50317143D02*
X22264342Y50269524D01*
X22264342Y50269524D02*
X22359580Y50221905D01*
X22359580Y50221905D02*
X22407200Y50174286D01*
X22407200Y50174286D02*
X22454819Y50079048D01*
X22454819Y50079048D02*
X22454819Y49983810D01*
X22454819Y49983810D02*
X22407200Y49888572D01*
X22407200Y49888572D02*
X22359580Y49840953D01*
X22359580Y49840953D02*
X22264342Y49793334D01*
X22264342Y49793334D02*
X22073866Y49745715D01*
X22073866Y49745715D02*
X21835771Y49745715D01*
X21835771Y49745715D02*
X21645295Y49793334D01*
X21645295Y49793334D02*
X21550057Y49840953D01*
X21550057Y49840953D02*
X21502438Y49888572D01*
X21502438Y49888572D02*
X21454819Y49983810D01*
X107454819Y80016191D02*
X108169104Y80016191D01*
X108169104Y80016191D02*
X108311961Y79968572D01*
X108311961Y79968572D02*
X108407200Y79873334D01*
X108407200Y79873334D02*
X108454819Y79730477D01*
X108454819Y79730477D02*
X108454819Y79635239D01*
X107788152Y80920953D02*
X108454819Y80920953D01*
X107407200Y80682858D02*
X108121485Y80444763D01*
X108121485Y80444763D02*
X108121485Y81063810D01*
X108359580Y81444763D02*
X108407200Y81492382D01*
X108407200Y81492382D02*
X108454819Y81444763D01*
X108454819Y81444763D02*
X108407200Y81397144D01*
X108407200Y81397144D02*
X108359580Y81444763D01*
X108359580Y81444763D02*
X108454819Y81444763D01*
X107835771Y81444763D02*
X107883390Y81492382D01*
X107883390Y81492382D02*
X107931009Y81444763D01*
X107931009Y81444763D02*
X107883390Y81397144D01*
X107883390Y81397144D02*
X107835771Y81444763D01*
X107835771Y81444763D02*
X107931009Y81444763D01*
X108454819Y82444762D02*
X108454819Y81873334D01*
X108454819Y82159048D02*
X107454819Y82159048D01*
X107454819Y82159048D02*
X107597676Y82063810D01*
X107597676Y82063810D02*
X107692914Y81968572D01*
X107692914Y81968572D02*
X107740533Y81873334D01*
X107454819Y83063810D02*
X107454819Y83159048D01*
X107454819Y83159048D02*
X107502438Y83254286D01*
X107502438Y83254286D02*
X107550057Y83301905D01*
X107550057Y83301905D02*
X107645295Y83349524D01*
X107645295Y83349524D02*
X107835771Y83397143D01*
X107835771Y83397143D02*
X108073866Y83397143D01*
X108073866Y83397143D02*
X108264342Y83349524D01*
X108264342Y83349524D02*
X108359580Y83301905D01*
X108359580Y83301905D02*
X108407200Y83254286D01*
X108407200Y83254286D02*
X108454819Y83159048D01*
X108454819Y83159048D02*
X108454819Y83063810D01*
X108454819Y83063810D02*
X108407200Y82968572D01*
X108407200Y82968572D02*
X108359580Y82920953D01*
X108359580Y82920953D02*
X108264342Y82873334D01*
X108264342Y82873334D02*
X108073866Y82825715D01*
X108073866Y82825715D02*
X107835771Y82825715D01*
X107835771Y82825715D02*
X107645295Y82873334D01*
X107645295Y82873334D02*
X107550057Y82920953D01*
X107550057Y82920953D02*
X107502438Y82968572D01*
X107502438Y82968572D02*
X107454819Y83063810D01*
X107454819Y53296191D02*
X108169104Y53296191D01*
X108169104Y53296191D02*
X108311961Y53248572D01*
X108311961Y53248572D02*
X108407200Y53153334D01*
X108407200Y53153334D02*
X108454819Y53010477D01*
X108454819Y53010477D02*
X108454819Y52915239D01*
X107454819Y53677144D02*
X107454819Y54296191D01*
X107454819Y54296191D02*
X107835771Y53962858D01*
X107835771Y53962858D02*
X107835771Y54105715D01*
X107835771Y54105715D02*
X107883390Y54200953D01*
X107883390Y54200953D02*
X107931009Y54248572D01*
X107931009Y54248572D02*
X108026247Y54296191D01*
X108026247Y54296191D02*
X108264342Y54296191D01*
X108264342Y54296191D02*
X108359580Y54248572D01*
X108359580Y54248572D02*
X108407200Y54200953D01*
X108407200Y54200953D02*
X108454819Y54105715D01*
X108454819Y54105715D02*
X108454819Y53820001D01*
X108454819Y53820001D02*
X108407200Y53724763D01*
X108407200Y53724763D02*
X108359580Y53677144D01*
X108359580Y54724763D02*
X108407200Y54772382D01*
X108407200Y54772382D02*
X108454819Y54724763D01*
X108454819Y54724763D02*
X108407200Y54677144D01*
X108407200Y54677144D02*
X108359580Y54724763D01*
X108359580Y54724763D02*
X108454819Y54724763D01*
X107835771Y54724763D02*
X107883390Y54772382D01*
X107883390Y54772382D02*
X107931009Y54724763D01*
X107931009Y54724763D02*
X107883390Y54677144D01*
X107883390Y54677144D02*
X107835771Y54724763D01*
X107835771Y54724763D02*
X107931009Y54724763D01*
X107550057Y55153334D02*
X107502438Y55200953D01*
X107502438Y55200953D02*
X107454819Y55296191D01*
X107454819Y55296191D02*
X107454819Y55534286D01*
X107454819Y55534286D02*
X107502438Y55629524D01*
X107502438Y55629524D02*
X107550057Y55677143D01*
X107550057Y55677143D02*
X107645295Y55724762D01*
X107645295Y55724762D02*
X107740533Y55724762D01*
X107740533Y55724762D02*
X107883390Y55677143D01*
X107883390Y55677143D02*
X108454819Y55105715D01*
X108454819Y55105715D02*
X108454819Y55724762D01*
X107454819Y56343810D02*
X107454819Y56439048D01*
X107454819Y56439048D02*
X107502438Y56534286D01*
X107502438Y56534286D02*
X107550057Y56581905D01*
X107550057Y56581905D02*
X107645295Y56629524D01*
X107645295Y56629524D02*
X107835771Y56677143D01*
X107835771Y56677143D02*
X108073866Y56677143D01*
X108073866Y56677143D02*
X108264342Y56629524D01*
X108264342Y56629524D02*
X108359580Y56581905D01*
X108359580Y56581905D02*
X108407200Y56534286D01*
X108407200Y56534286D02*
X108454819Y56439048D01*
X108454819Y56439048D02*
X108454819Y56343810D01*
X108454819Y56343810D02*
X108407200Y56248572D01*
X108407200Y56248572D02*
X108359580Y56200953D01*
X108359580Y56200953D02*
X108264342Y56153334D01*
X108264342Y56153334D02*
X108073866Y56105715D01*
X108073866Y56105715D02*
X107835771Y56105715D01*
X107835771Y56105715D02*
X107645295Y56153334D01*
X107645295Y56153334D02*
X107550057Y56200953D01*
X107550057Y56200953D02*
X107502438Y56248572D01*
X107502438Y56248572D02*
X107454819Y56343810D01*
X53973810Y27813205D02*
X54497620Y27813205D01*
X53869048Y27498920D02*
X54235715Y28598920D01*
X54235715Y28598920D02*
X54602382Y27498920D01*
X54969048Y27498920D02*
X54969048Y28598920D01*
X55492858Y27498920D02*
X55492858Y28598920D01*
X55492858Y28598920D02*
X56121430Y27498920D01*
X56121430Y27498920D02*
X56121430Y28598920D01*
X56592858Y28494158D02*
X56645239Y28546539D01*
X56645239Y28546539D02*
X56750001Y28598920D01*
X56750001Y28598920D02*
X57011906Y28598920D01*
X57011906Y28598920D02*
X57116668Y28546539D01*
X57116668Y28546539D02*
X57169049Y28494158D01*
X57169049Y28494158D02*
X57221430Y28389396D01*
X57221430Y28389396D02*
X57221430Y28284634D01*
X57221430Y28284634D02*
X57169049Y28127491D01*
X57169049Y28127491D02*
X56540477Y27498920D01*
X56540477Y27498920D02*
X57221430Y27498920D01*
X58530953Y28075110D02*
X59369049Y28075110D01*
X59369049Y27760824D02*
X58530953Y27760824D01*
X60888096Y27498920D02*
X60783334Y27551300D01*
X60783334Y27551300D02*
X60730953Y27603681D01*
X60730953Y27603681D02*
X60678572Y27708443D01*
X60678572Y27708443D02*
X60678572Y28022729D01*
X60678572Y28022729D02*
X60730953Y28127491D01*
X60730953Y28127491D02*
X60783334Y28179872D01*
X60783334Y28179872D02*
X60888096Y28232253D01*
X60888096Y28232253D02*
X61045239Y28232253D01*
X61045239Y28232253D02*
X61150001Y28179872D01*
X61150001Y28179872D02*
X61202382Y28127491D01*
X61202382Y28127491D02*
X61254763Y28022729D01*
X61254763Y28022729D02*
X61254763Y27708443D01*
X61254763Y27708443D02*
X61202382Y27603681D01*
X61202382Y27603681D02*
X61150001Y27551300D01*
X61150001Y27551300D02*
X61045239Y27498920D01*
X61045239Y27498920D02*
X60888096Y27498920D01*
X61726191Y28232253D02*
X61726191Y27132253D01*
X61726191Y28179872D02*
X61830953Y28232253D01*
X61830953Y28232253D02*
X62040477Y28232253D01*
X62040477Y28232253D02*
X62145239Y28179872D01*
X62145239Y28179872D02*
X62197620Y28127491D01*
X62197620Y28127491D02*
X62250001Y28022729D01*
X62250001Y28022729D02*
X62250001Y27708443D01*
X62250001Y27708443D02*
X62197620Y27603681D01*
X62197620Y27603681D02*
X62145239Y27551300D01*
X62145239Y27551300D02*
X62040477Y27498920D01*
X62040477Y27498920D02*
X61830953Y27498920D01*
X61830953Y27498920D02*
X61726191Y27551300D01*
X62721429Y28232253D02*
X62721429Y27132253D01*
X62721429Y28179872D02*
X62826191Y28232253D01*
X62826191Y28232253D02*
X63035715Y28232253D01*
X63035715Y28232253D02*
X63140477Y28179872D01*
X63140477Y28179872D02*
X63192858Y28127491D01*
X63192858Y28127491D02*
X63245239Y28022729D01*
X63245239Y28022729D02*
X63245239Y27708443D01*
X63245239Y27708443D02*
X63192858Y27603681D01*
X63192858Y27603681D02*
X63140477Y27551300D01*
X63140477Y27551300D02*
X63035715Y27498920D01*
X63035715Y27498920D02*
X62826191Y27498920D01*
X62826191Y27498920D02*
X62721429Y27551300D01*
X63873810Y27498920D02*
X63769048Y27551300D01*
X63769048Y27551300D02*
X63716667Y27603681D01*
X63716667Y27603681D02*
X63664286Y27708443D01*
X63664286Y27708443D02*
X63664286Y28022729D01*
X63664286Y28022729D02*
X63716667Y28127491D01*
X63716667Y28127491D02*
X63769048Y28179872D01*
X63769048Y28179872D02*
X63873810Y28232253D01*
X63873810Y28232253D02*
X64030953Y28232253D01*
X64030953Y28232253D02*
X64135715Y28179872D01*
X64135715Y28179872D02*
X64188096Y28127491D01*
X64188096Y28127491D02*
X64240477Y28022729D01*
X64240477Y28022729D02*
X64240477Y27708443D01*
X64240477Y27708443D02*
X64188096Y27603681D01*
X64188096Y27603681D02*
X64135715Y27551300D01*
X64135715Y27551300D02*
X64030953Y27498920D01*
X64030953Y27498920D02*
X63873810Y27498920D01*
X64659524Y27551300D02*
X64764286Y27498920D01*
X64764286Y27498920D02*
X64973810Y27498920D01*
X64973810Y27498920D02*
X65078572Y27551300D01*
X65078572Y27551300D02*
X65130953Y27656062D01*
X65130953Y27656062D02*
X65130953Y27708443D01*
X65130953Y27708443D02*
X65078572Y27813205D01*
X65078572Y27813205D02*
X64973810Y27865586D01*
X64973810Y27865586D02*
X64816667Y27865586D01*
X64816667Y27865586D02*
X64711905Y27917967D01*
X64711905Y27917967D02*
X64659524Y28022729D01*
X64659524Y28022729D02*
X64659524Y28075110D01*
X64659524Y28075110D02*
X64711905Y28179872D01*
X64711905Y28179872D02*
X64816667Y28232253D01*
X64816667Y28232253D02*
X64973810Y28232253D01*
X64973810Y28232253D02*
X65078572Y28179872D01*
X65602381Y27498920D02*
X65602381Y28232253D01*
X65602381Y28598920D02*
X65550000Y28546539D01*
X65550000Y28546539D02*
X65602381Y28494158D01*
X65602381Y28494158D02*
X65654762Y28546539D01*
X65654762Y28546539D02*
X65602381Y28598920D01*
X65602381Y28598920D02*
X65602381Y28494158D01*
X65969048Y28232253D02*
X66388096Y28232253D01*
X66126191Y28598920D02*
X66126191Y27656062D01*
X66126191Y27656062D02*
X66178572Y27551300D01*
X66178572Y27551300D02*
X66283334Y27498920D01*
X66283334Y27498920D02*
X66388096Y27498920D01*
X67173810Y27551300D02*
X67069048Y27498920D01*
X67069048Y27498920D02*
X66859524Y27498920D01*
X66859524Y27498920D02*
X66754762Y27551300D01*
X66754762Y27551300D02*
X66702381Y27656062D01*
X66702381Y27656062D02*
X66702381Y28075110D01*
X66702381Y28075110D02*
X66754762Y28179872D01*
X66754762Y28179872D02*
X66859524Y28232253D01*
X66859524Y28232253D02*
X67069048Y28232253D01*
X67069048Y28232253D02*
X67173810Y28179872D01*
X67173810Y28179872D02*
X67226191Y28075110D01*
X67226191Y28075110D02*
X67226191Y27970348D01*
X67226191Y27970348D02*
X66702381Y27865586D01*
X68378571Y28598920D02*
X68745238Y27498920D01*
X68745238Y27498920D02*
X69111905Y28598920D01*
X69688095Y28598920D02*
X69897619Y28598920D01*
X69897619Y28598920D02*
X70002381Y28546539D01*
X70002381Y28546539D02*
X70107143Y28441777D01*
X70107143Y28441777D02*
X70159524Y28232253D01*
X70159524Y28232253D02*
X70159524Y27865586D01*
X70159524Y27865586D02*
X70107143Y27656062D01*
X70107143Y27656062D02*
X70002381Y27551300D01*
X70002381Y27551300D02*
X69897619Y27498920D01*
X69897619Y27498920D02*
X69688095Y27498920D01*
X69688095Y27498920D02*
X69583333Y27551300D01*
X69583333Y27551300D02*
X69478571Y27656062D01*
X69478571Y27656062D02*
X69426190Y27865586D01*
X69426190Y27865586D02*
X69426190Y28232253D01*
X69426190Y28232253D02*
X69478571Y28441777D01*
X69478571Y28441777D02*
X69583333Y28546539D01*
X69583333Y28546539D02*
X69688095Y28598920D01*
X70630952Y28598920D02*
X70630952Y27708443D01*
X70630952Y27708443D02*
X70683333Y27603681D01*
X70683333Y27603681D02*
X70735714Y27551300D01*
X70735714Y27551300D02*
X70840476Y27498920D01*
X70840476Y27498920D02*
X71050000Y27498920D01*
X71050000Y27498920D02*
X71154762Y27551300D01*
X71154762Y27551300D02*
X71207143Y27603681D01*
X71207143Y27603681D02*
X71259524Y27708443D01*
X71259524Y27708443D02*
X71259524Y28598920D01*
X71626190Y28598920D02*
X72254762Y28598920D01*
X71940476Y27498920D02*
X71940476Y28598920D01*
X74245238Y28651300D02*
X73302380Y27237015D01*
X75397618Y28494158D02*
X75449999Y28546539D01*
X75449999Y28546539D02*
X75554761Y28598920D01*
X75554761Y28598920D02*
X75816666Y28598920D01*
X75816666Y28598920D02*
X75921428Y28546539D01*
X75921428Y28546539D02*
X75973809Y28494158D01*
X75973809Y28494158D02*
X76026190Y28389396D01*
X76026190Y28389396D02*
X76026190Y28284634D01*
X76026190Y28284634D02*
X75973809Y28127491D01*
X75973809Y28127491D02*
X75345237Y27498920D01*
X75345237Y27498920D02*
X76026190Y27498920D01*
X57954762Y21498920D02*
X57588095Y22022729D01*
X57326190Y21498920D02*
X57326190Y22598920D01*
X57326190Y22598920D02*
X57745238Y22598920D01*
X57745238Y22598920D02*
X57850000Y22546539D01*
X57850000Y22546539D02*
X57902381Y22494158D01*
X57902381Y22494158D02*
X57954762Y22389396D01*
X57954762Y22389396D02*
X57954762Y22232253D01*
X57954762Y22232253D02*
X57902381Y22127491D01*
X57902381Y22127491D02*
X57850000Y22075110D01*
X57850000Y22075110D02*
X57745238Y22022729D01*
X57745238Y22022729D02*
X57326190Y22022729D01*
X58426190Y22075110D02*
X58792857Y22075110D01*
X58950000Y21498920D02*
X58426190Y21498920D01*
X58426190Y21498920D02*
X58426190Y22598920D01*
X58426190Y22598920D02*
X58950000Y22598920D01*
X59264285Y22598920D02*
X59630952Y21498920D01*
X59630952Y21498920D02*
X59997619Y22598920D01*
X60364285Y21498920D02*
X60364285Y22598920D01*
X60888095Y22075110D02*
X61254762Y22075110D01*
X61411905Y21498920D02*
X60888095Y21498920D01*
X60888095Y21498920D02*
X60888095Y22598920D01*
X60888095Y22598920D02*
X61411905Y22598920D01*
X61778571Y22598920D02*
X62040476Y21498920D01*
X62040476Y21498920D02*
X62250000Y22284634D01*
X62250000Y22284634D02*
X62459524Y21498920D01*
X62459524Y21498920D02*
X62721429Y22598920D01*
X63978571Y21498920D02*
X63978571Y22598920D01*
X63978571Y22598920D02*
X64397619Y22598920D01*
X64397619Y22598920D02*
X64502381Y22546539D01*
X64502381Y22546539D02*
X64554762Y22494158D01*
X64554762Y22494158D02*
X64607143Y22389396D01*
X64607143Y22389396D02*
X64607143Y22232253D01*
X64607143Y22232253D02*
X64554762Y22127491D01*
X64554762Y22127491D02*
X64502381Y22075110D01*
X64502381Y22075110D02*
X64397619Y22022729D01*
X64397619Y22022729D02*
X63978571Y22022729D01*
X65707143Y21498920D02*
X65340476Y22022729D01*
X65078571Y21498920D02*
X65078571Y22598920D01*
X65078571Y22598920D02*
X65497619Y22598920D01*
X65497619Y22598920D02*
X65602381Y22546539D01*
X65602381Y22546539D02*
X65654762Y22494158D01*
X65654762Y22494158D02*
X65707143Y22389396D01*
X65707143Y22389396D02*
X65707143Y22232253D01*
X65707143Y22232253D02*
X65654762Y22127491D01*
X65654762Y22127491D02*
X65602381Y22075110D01*
X65602381Y22075110D02*
X65497619Y22022729D01*
X65497619Y22022729D02*
X65078571Y22022729D01*
X66388095Y22598920D02*
X66597619Y22598920D01*
X66597619Y22598920D02*
X66702381Y22546539D01*
X66702381Y22546539D02*
X66807143Y22441777D01*
X66807143Y22441777D02*
X66859524Y22232253D01*
X66859524Y22232253D02*
X66859524Y21865586D01*
X66859524Y21865586D02*
X66807143Y21656062D01*
X66807143Y21656062D02*
X66702381Y21551300D01*
X66702381Y21551300D02*
X66597619Y21498920D01*
X66597619Y21498920D02*
X66388095Y21498920D01*
X66388095Y21498920D02*
X66283333Y21551300D01*
X66283333Y21551300D02*
X66178571Y21656062D01*
X66178571Y21656062D02*
X66126190Y21865586D01*
X66126190Y21865586D02*
X66126190Y22232253D01*
X66126190Y22232253D02*
X66178571Y22441777D01*
X66178571Y22441777D02*
X66283333Y22546539D01*
X66283333Y22546539D02*
X66388095Y22598920D01*
X67173809Y22598920D02*
X67802381Y22598920D01*
X67488095Y21498920D02*
X67488095Y22598920D01*
X68378571Y22598920D02*
X68588095Y22598920D01*
X68588095Y22598920D02*
X68692857Y22546539D01*
X68692857Y22546539D02*
X68797619Y22441777D01*
X68797619Y22441777D02*
X68850000Y22232253D01*
X68850000Y22232253D02*
X68850000Y21865586D01*
X68850000Y21865586D02*
X68797619Y21656062D01*
X68797619Y21656062D02*
X68692857Y21551300D01*
X68692857Y21551300D02*
X68588095Y21498920D01*
X68588095Y21498920D02*
X68378571Y21498920D01*
X68378571Y21498920D02*
X68273809Y21551300D01*
X68273809Y21551300D02*
X68169047Y21656062D01*
X68169047Y21656062D02*
X68116666Y21865586D01*
X68116666Y21865586D02*
X68116666Y22232253D01*
X68116666Y22232253D02*
X68169047Y22441777D01*
X68169047Y22441777D02*
X68273809Y22546539D01*
X68273809Y22546539D02*
X68378571Y22598920D01*
X69164285Y22598920D02*
X69792857Y22598920D01*
X69478571Y21498920D02*
X69478571Y22598920D01*
X70369047Y22022729D02*
X70369047Y21498920D01*
X70002380Y22598920D02*
X70369047Y22022729D01*
X70369047Y22022729D02*
X70735714Y22598920D01*
X71102380Y21498920D02*
X71102380Y22598920D01*
X71102380Y22598920D02*
X71521428Y22598920D01*
X71521428Y22598920D02*
X71626190Y22546539D01*
X71626190Y22546539D02*
X71678571Y22494158D01*
X71678571Y22494158D02*
X71730952Y22389396D01*
X71730952Y22389396D02*
X71730952Y22232253D01*
X71730952Y22232253D02*
X71678571Y22127491D01*
X71678571Y22127491D02*
X71626190Y22075110D01*
X71626190Y22075110D02*
X71521428Y22022729D01*
X71521428Y22022729D02*
X71102380Y22022729D01*
X72202380Y22075110D02*
X72569047Y22075110D01*
X72726190Y21498920D02*
X72202380Y21498920D01*
X72202380Y21498920D02*
X72202380Y22598920D01*
X72202380Y22598920D02*
X72726190Y22598920D01*
X55514285Y73652658D02*
X55742857Y73652658D01*
X55742857Y73652658D02*
X55857142Y73595515D01*
X55857142Y73595515D02*
X55971428Y73481229D01*
X55971428Y73481229D02*
X56028571Y73252658D01*
X56028571Y73252658D02*
X56028571Y72852658D01*
X56028571Y72852658D02*
X55971428Y72624086D01*
X55971428Y72624086D02*
X55857142Y72509800D01*
X55857142Y72509800D02*
X55742857Y72452658D01*
X55742857Y72452658D02*
X55514285Y72452658D01*
X55514285Y72452658D02*
X55400000Y72509800D01*
X55400000Y72509800D02*
X55285714Y72624086D01*
X55285714Y72624086D02*
X55228571Y72852658D01*
X55228571Y72852658D02*
X55228571Y73252658D01*
X55228571Y73252658D02*
X55285714Y73481229D01*
X55285714Y73481229D02*
X55400000Y73595515D01*
X55400000Y73595515D02*
X55514285Y73652658D01*
X56542857Y72452658D02*
X56542857Y73652658D01*
X56542857Y73652658D02*
X57228571Y72452658D01*
X57228571Y72452658D02*
X57228571Y73652658D01*
X57800000Y73081229D02*
X58200000Y73081229D01*
X58371428Y72452658D02*
X57800000Y72452658D01*
X57800000Y72452658D02*
X57800000Y73652658D01*
X57800000Y73652658D02*
X58371428Y73652658D01*
X59800000Y72452658D02*
X59800000Y73652658D01*
X59800000Y73652658D02*
X60085714Y73652658D01*
X60085714Y73652658D02*
X60257143Y73595515D01*
X60257143Y73595515D02*
X60371428Y73481229D01*
X60371428Y73481229D02*
X60428571Y73366943D01*
X60428571Y73366943D02*
X60485714Y73138372D01*
X60485714Y73138372D02*
X60485714Y72966943D01*
X60485714Y72966943D02*
X60428571Y72738372D01*
X60428571Y72738372D02*
X60371428Y72624086D01*
X60371428Y72624086D02*
X60257143Y72509800D01*
X60257143Y72509800D02*
X60085714Y72452658D01*
X60085714Y72452658D02*
X59800000Y72452658D01*
X61000000Y73081229D02*
X61400000Y73081229D01*
X61571428Y72452658D02*
X61000000Y72452658D01*
X61000000Y72452658D02*
X61000000Y73652658D01*
X61000000Y73652658D02*
X61571428Y73652658D01*
X61914285Y73652658D02*
X62314285Y72452658D01*
X62314285Y72452658D02*
X62714285Y73652658D01*
X63114285Y72452658D02*
X63114285Y73652658D01*
X64371428Y72566943D02*
X64314285Y72509800D01*
X64314285Y72509800D02*
X64142857Y72452658D01*
X64142857Y72452658D02*
X64028571Y72452658D01*
X64028571Y72452658D02*
X63857142Y72509800D01*
X63857142Y72509800D02*
X63742857Y72624086D01*
X63742857Y72624086D02*
X63685714Y72738372D01*
X63685714Y72738372D02*
X63628571Y72966943D01*
X63628571Y72966943D02*
X63628571Y73138372D01*
X63628571Y73138372D02*
X63685714Y73366943D01*
X63685714Y73366943D02*
X63742857Y73481229D01*
X63742857Y73481229D02*
X63857142Y73595515D01*
X63857142Y73595515D02*
X64028571Y73652658D01*
X64028571Y73652658D02*
X64142857Y73652658D01*
X64142857Y73652658D02*
X64314285Y73595515D01*
X64314285Y73595515D02*
X64371428Y73538372D01*
X64885714Y73081229D02*
X65285714Y73081229D01*
X65457142Y72452658D02*
X64885714Y72452658D01*
X64885714Y72452658D02*
X64885714Y73652658D01*
X64885714Y73652658D02*
X65457142Y73652658D01*
X66885714Y72452658D02*
X66885714Y73652658D01*
X66885714Y73652658D02*
X67342857Y73652658D01*
X67342857Y73652658D02*
X67457142Y73595515D01*
X67457142Y73595515D02*
X67514285Y73538372D01*
X67514285Y73538372D02*
X67571428Y73424086D01*
X67571428Y73424086D02*
X67571428Y73252658D01*
X67571428Y73252658D02*
X67514285Y73138372D01*
X67514285Y73138372D02*
X67457142Y73081229D01*
X67457142Y73081229D02*
X67342857Y73024086D01*
X67342857Y73024086D02*
X66885714Y73024086D01*
X68085714Y73081229D02*
X68485714Y73081229D01*
X68657142Y72452658D02*
X68085714Y72452658D01*
X68085714Y72452658D02*
X68085714Y73652658D01*
X68085714Y73652658D02*
X68657142Y73652658D01*
X69857142Y72452658D02*
X69457142Y73024086D01*
X69171428Y72452658D02*
X69171428Y73652658D01*
X69171428Y73652658D02*
X69628571Y73652658D01*
X69628571Y73652658D02*
X69742856Y73595515D01*
X69742856Y73595515D02*
X69799999Y73538372D01*
X69799999Y73538372D02*
X69857142Y73424086D01*
X69857142Y73424086D02*
X69857142Y73252658D01*
X69857142Y73252658D02*
X69799999Y73138372D01*
X69799999Y73138372D02*
X69742856Y73081229D01*
X69742856Y73081229D02*
X69628571Y73024086D01*
X69628571Y73024086D02*
X69171428Y73024086D01*
X71228571Y72509800D02*
X71400000Y72452658D01*
X71400000Y72452658D02*
X71685714Y72452658D01*
X71685714Y72452658D02*
X71800000Y72509800D01*
X71800000Y72509800D02*
X71857142Y72566943D01*
X71857142Y72566943D02*
X71914285Y72681229D01*
X71914285Y72681229D02*
X71914285Y72795515D01*
X71914285Y72795515D02*
X71857142Y72909800D01*
X71857142Y72909800D02*
X71800000Y72966943D01*
X71800000Y72966943D02*
X71685714Y73024086D01*
X71685714Y73024086D02*
X71457142Y73081229D01*
X71457142Y73081229D02*
X71342857Y73138372D01*
X71342857Y73138372D02*
X71285714Y73195515D01*
X71285714Y73195515D02*
X71228571Y73309800D01*
X71228571Y73309800D02*
X71228571Y73424086D01*
X71228571Y73424086D02*
X71285714Y73538372D01*
X71285714Y73538372D02*
X71342857Y73595515D01*
X71342857Y73595515D02*
X71457142Y73652658D01*
X71457142Y73652658D02*
X71742857Y73652658D01*
X71742857Y73652658D02*
X71914285Y73595515D01*
X72428571Y72452658D02*
X72428571Y73652658D01*
X73000000Y72452658D02*
X73000000Y73652658D01*
X73000000Y73652658D02*
X73285714Y73652658D01*
X73285714Y73652658D02*
X73457143Y73595515D01*
X73457143Y73595515D02*
X73571428Y73481229D01*
X73571428Y73481229D02*
X73628571Y73366943D01*
X73628571Y73366943D02*
X73685714Y73138372D01*
X73685714Y73138372D02*
X73685714Y72966943D01*
X73685714Y72966943D02*
X73628571Y72738372D01*
X73628571Y72738372D02*
X73571428Y72624086D01*
X73571428Y72624086D02*
X73457143Y72509800D01*
X73457143Y72509800D02*
X73285714Y72452658D01*
X73285714Y72452658D02*
X73000000Y72452658D01*
X74200000Y73081229D02*
X74600000Y73081229D01*
X74771428Y72452658D02*
X74200000Y72452658D01*
X74200000Y72452658D02*
X74200000Y73652658D01*
X74200000Y73652658D02*
X74771428Y73652658D01*
X60028571Y61652658D02*
X60428571Y60452658D01*
X60428571Y60452658D02*
X60828571Y61652658D01*
X61914285Y60452658D02*
X61514285Y61024086D01*
X61228571Y60452658D02*
X61228571Y61652658D01*
X61228571Y61652658D02*
X61685714Y61652658D01*
X61685714Y61652658D02*
X61799999Y61595515D01*
X61799999Y61595515D02*
X61857142Y61538372D01*
X61857142Y61538372D02*
X61914285Y61424086D01*
X61914285Y61424086D02*
X61914285Y61252658D01*
X61914285Y61252658D02*
X61857142Y61138372D01*
X61857142Y61138372D02*
X61799999Y61081229D01*
X61799999Y61081229D02*
X61685714Y61024086D01*
X61685714Y61024086D02*
X61228571Y61024086D01*
X62428571Y61081229D02*
X62828571Y61081229D01*
X62999999Y60452658D02*
X62428571Y60452658D01*
X62428571Y60452658D02*
X62428571Y61652658D01*
X62428571Y61652658D02*
X62999999Y61652658D01*
X63914285Y61081229D02*
X63514285Y61081229D01*
X63514285Y60452658D02*
X63514285Y61652658D01*
X63514285Y61652658D02*
X64085713Y61652658D01*
X65457142Y60452658D02*
X65457142Y61652658D01*
X65457142Y61652658D02*
X65857142Y60795515D01*
X65857142Y60795515D02*
X66257142Y61652658D01*
X66257142Y61652658D02*
X66257142Y60452658D01*
X67057142Y61652658D02*
X67285714Y61652658D01*
X67285714Y61652658D02*
X67399999Y61595515D01*
X67399999Y61595515D02*
X67514285Y61481229D01*
X67514285Y61481229D02*
X67571428Y61252658D01*
X67571428Y61252658D02*
X67571428Y60852658D01*
X67571428Y60852658D02*
X67514285Y60624086D01*
X67514285Y60624086D02*
X67399999Y60509800D01*
X67399999Y60509800D02*
X67285714Y60452658D01*
X67285714Y60452658D02*
X67057142Y60452658D01*
X67057142Y60452658D02*
X66942857Y60509800D01*
X66942857Y60509800D02*
X66828571Y60624086D01*
X66828571Y60624086D02*
X66771428Y60852658D01*
X66771428Y60852658D02*
X66771428Y61252658D01*
X66771428Y61252658D02*
X66828571Y61481229D01*
X66828571Y61481229D02*
X66942857Y61595515D01*
X66942857Y61595515D02*
X67057142Y61652658D01*
X68085714Y60452658D02*
X68085714Y61652658D01*
X68085714Y61652658D02*
X68371428Y61652658D01*
X68371428Y61652658D02*
X68542857Y61595515D01*
X68542857Y61595515D02*
X68657142Y61481229D01*
X68657142Y61481229D02*
X68714285Y61366943D01*
X68714285Y61366943D02*
X68771428Y61138372D01*
X68771428Y61138372D02*
X68771428Y60966943D01*
X68771428Y60966943D02*
X68714285Y60738372D01*
X68714285Y60738372D02*
X68657142Y60624086D01*
X68657142Y60624086D02*
X68542857Y60509800D01*
X68542857Y60509800D02*
X68371428Y60452658D01*
X68371428Y60452658D02*
X68085714Y60452658D01*
X69285714Y61081229D02*
X69685714Y61081229D01*
X69857142Y60452658D02*
X69285714Y60452658D01*
X69285714Y60452658D02*
X69285714Y61652658D01*
X69285714Y61652658D02*
X69857142Y61652658D01*
X61828571Y35652658D02*
X62057143Y35652658D01*
X62057143Y35652658D02*
X62171428Y35595515D01*
X62171428Y35595515D02*
X62285714Y35481229D01*
X62285714Y35481229D02*
X62342857Y35252658D01*
X62342857Y35252658D02*
X62342857Y34852658D01*
X62342857Y34852658D02*
X62285714Y34624086D01*
X62285714Y34624086D02*
X62171428Y34509800D01*
X62171428Y34509800D02*
X62057143Y34452658D01*
X62057143Y34452658D02*
X61828571Y34452658D01*
X61828571Y34452658D02*
X61714286Y34509800D01*
X61714286Y34509800D02*
X61600000Y34624086D01*
X61600000Y34624086D02*
X61542857Y34852658D01*
X61542857Y34852658D02*
X61542857Y35252658D01*
X61542857Y35252658D02*
X61600000Y35481229D01*
X61600000Y35481229D02*
X61714286Y35595515D01*
X61714286Y35595515D02*
X61828571Y35652658D01*
X63542857Y34452658D02*
X63142857Y35024086D01*
X62857143Y34452658D02*
X62857143Y35652658D01*
X62857143Y35652658D02*
X63314286Y35652658D01*
X63314286Y35652658D02*
X63428571Y35595515D01*
X63428571Y35595515D02*
X63485714Y35538372D01*
X63485714Y35538372D02*
X63542857Y35424086D01*
X63542857Y35424086D02*
X63542857Y35252658D01*
X63542857Y35252658D02*
X63485714Y35138372D01*
X63485714Y35138372D02*
X63428571Y35081229D01*
X63428571Y35081229D02*
X63314286Y35024086D01*
X63314286Y35024086D02*
X62857143Y35024086D01*
X64742857Y34566943D02*
X64685714Y34509800D01*
X64685714Y34509800D02*
X64514286Y34452658D01*
X64514286Y34452658D02*
X64400000Y34452658D01*
X64400000Y34452658D02*
X64228571Y34509800D01*
X64228571Y34509800D02*
X64114286Y34624086D01*
X64114286Y34624086D02*
X64057143Y34738372D01*
X64057143Y34738372D02*
X64000000Y34966943D01*
X64000000Y34966943D02*
X64000000Y35138372D01*
X64000000Y35138372D02*
X64057143Y35366943D01*
X64057143Y35366943D02*
X64114286Y35481229D01*
X64114286Y35481229D02*
X64228571Y35595515D01*
X64228571Y35595515D02*
X64400000Y35652658D01*
X64400000Y35652658D02*
X64514286Y35652658D01*
X64514286Y35652658D02*
X64685714Y35595515D01*
X64685714Y35595515D02*
X64742857Y35538372D01*
X65200000Y34795515D02*
X65771429Y34795515D01*
X65085714Y34452658D02*
X65485714Y35652658D01*
X65485714Y35652658D02*
X65885714Y34452658D01*
X67200000Y34452658D02*
X67200000Y35652658D01*
X67771429Y34452658D02*
X67771429Y35652658D01*
X67771429Y35652658D02*
X68057143Y35652658D01*
X68057143Y35652658D02*
X68228572Y35595515D01*
X68228572Y35595515D02*
X68342857Y35481229D01*
X68342857Y35481229D02*
X68400000Y35366943D01*
X68400000Y35366943D02*
X68457143Y35138372D01*
X68457143Y35138372D02*
X68457143Y34966943D01*
X68457143Y34966943D02*
X68400000Y34738372D01*
X68400000Y34738372D02*
X68342857Y34624086D01*
X68342857Y34624086D02*
X68228572Y34509800D01*
X68228572Y34509800D02*
X68057143Y34452658D01*
X68057143Y34452658D02*
X67771429Y34452658D01*
D11*
X56357143Y82815432D02*
X56642857Y82815432D01*
X56642857Y82815432D02*
X56785714Y82744003D01*
X56785714Y82744003D02*
X56928571Y82601146D01*
X56928571Y82601146D02*
X57000000Y82315432D01*
X57000000Y82315432D02*
X57000000Y81815432D01*
X57000000Y81815432D02*
X56928571Y81529718D01*
X56928571Y81529718D02*
X56785714Y81386860D01*
X56785714Y81386860D02*
X56642857Y81315432D01*
X56642857Y81315432D02*
X56357143Y81315432D01*
X56357143Y81315432D02*
X56214286Y81386860D01*
X56214286Y81386860D02*
X56071428Y81529718D01*
X56071428Y81529718D02*
X56000000Y81815432D01*
X56000000Y81815432D02*
X56000000Y82315432D01*
X56000000Y82315432D02*
X56071428Y82601146D01*
X56071428Y82601146D02*
X56214286Y82744003D01*
X56214286Y82744003D02*
X56357143Y82815432D01*
X58500000Y81315432D02*
X58000000Y82029718D01*
X57642857Y81315432D02*
X57642857Y82815432D01*
X57642857Y82815432D02*
X58214286Y82815432D01*
X58214286Y82815432D02*
X58357143Y82744003D01*
X58357143Y82744003D02*
X58428572Y82672575D01*
X58428572Y82672575D02*
X58500000Y82529718D01*
X58500000Y82529718D02*
X58500000Y82315432D01*
X58500000Y82315432D02*
X58428572Y82172575D01*
X58428572Y82172575D02*
X58357143Y82101146D01*
X58357143Y82101146D02*
X58214286Y82029718D01*
X58214286Y82029718D02*
X57642857Y82029718D01*
X60000000Y81458289D02*
X59928572Y81386860D01*
X59928572Y81386860D02*
X59714286Y81315432D01*
X59714286Y81315432D02*
X59571429Y81315432D01*
X59571429Y81315432D02*
X59357143Y81386860D01*
X59357143Y81386860D02*
X59214286Y81529718D01*
X59214286Y81529718D02*
X59142857Y81672575D01*
X59142857Y81672575D02*
X59071429Y81958289D01*
X59071429Y81958289D02*
X59071429Y82172575D01*
X59071429Y82172575D02*
X59142857Y82458289D01*
X59142857Y82458289D02*
X59214286Y82601146D01*
X59214286Y82601146D02*
X59357143Y82744003D01*
X59357143Y82744003D02*
X59571429Y82815432D01*
X59571429Y82815432D02*
X59714286Y82815432D01*
X59714286Y82815432D02*
X59928572Y82744003D01*
X59928572Y82744003D02*
X60000000Y82672575D01*
X60571429Y81744003D02*
X61285715Y81744003D01*
X60428572Y81315432D02*
X60928572Y82815432D01*
X60928572Y82815432D02*
X61428572Y81315432D01*
X65285714Y82886860D02*
X64000000Y80958289D01*
X68928571Y81315432D02*
X68428571Y82029718D01*
X68071428Y81315432D02*
X68071428Y82815432D01*
X68071428Y82815432D02*
X68642857Y82815432D01*
X68642857Y82815432D02*
X68785714Y82744003D01*
X68785714Y82744003D02*
X68857143Y82672575D01*
X68857143Y82672575D02*
X68928571Y82529718D01*
X68928571Y82529718D02*
X68928571Y82315432D01*
X68928571Y82315432D02*
X68857143Y82172575D01*
X68857143Y82172575D02*
X68785714Y82101146D01*
X68785714Y82101146D02*
X68642857Y82029718D01*
X68642857Y82029718D02*
X68071428Y82029718D01*
X69571428Y82101146D02*
X70071428Y82101146D01*
X70285714Y81315432D02*
X69571428Y81315432D01*
X69571428Y81315432D02*
X69571428Y82815432D01*
X69571428Y82815432D02*
X70285714Y82815432D01*
X70714286Y82815432D02*
X71214286Y81315432D01*
X71214286Y81315432D02*
X71714286Y82815432D01*
X73285714Y81744003D02*
X74000000Y81744003D01*
X73142857Y81315432D02*
X73642857Y82815432D01*
X73642857Y82815432D02*
X74142857Y81315432D01*
X54392857Y76815432D02*
X55250000Y76815432D01*
X54821428Y75315432D02*
X54821428Y76815432D01*
X55607142Y76815432D02*
X55964285Y75315432D01*
X55964285Y75315432D02*
X56249999Y76386860D01*
X56249999Y76386860D02*
X56535714Y75315432D01*
X56535714Y75315432D02*
X56892857Y76815432D01*
X57750000Y76815432D02*
X58035714Y76815432D01*
X58035714Y76815432D02*
X58178571Y76744003D01*
X58178571Y76744003D02*
X58321428Y76601146D01*
X58321428Y76601146D02*
X58392857Y76315432D01*
X58392857Y76315432D02*
X58392857Y75815432D01*
X58392857Y75815432D02*
X58321428Y75529718D01*
X58321428Y75529718D02*
X58178571Y75386860D01*
X58178571Y75386860D02*
X58035714Y75315432D01*
X58035714Y75315432D02*
X57750000Y75315432D01*
X57750000Y75315432D02*
X57607143Y75386860D01*
X57607143Y75386860D02*
X57464285Y75529718D01*
X57464285Y75529718D02*
X57392857Y75815432D01*
X57392857Y75815432D02*
X57392857Y76315432D01*
X57392857Y76315432D02*
X57464285Y76601146D01*
X57464285Y76601146D02*
X57607143Y76744003D01*
X57607143Y76744003D02*
X57750000Y76815432D01*
X60178571Y75315432D02*
X60178571Y76815432D01*
X60178571Y76815432D02*
X60535714Y76815432D01*
X60535714Y76815432D02*
X60750000Y76744003D01*
X60750000Y76744003D02*
X60892857Y76601146D01*
X60892857Y76601146D02*
X60964286Y76458289D01*
X60964286Y76458289D02*
X61035714Y76172575D01*
X61035714Y76172575D02*
X61035714Y75958289D01*
X61035714Y75958289D02*
X60964286Y75672575D01*
X60964286Y75672575D02*
X60892857Y75529718D01*
X60892857Y75529718D02*
X60750000Y75386860D01*
X60750000Y75386860D02*
X60535714Y75315432D01*
X60535714Y75315432D02*
X60178571Y75315432D01*
X61678571Y76101146D02*
X62178571Y76101146D01*
X62392857Y75315432D02*
X61678571Y75315432D01*
X61678571Y75315432D02*
X61678571Y76815432D01*
X61678571Y76815432D02*
X62392857Y76815432D01*
X62821429Y76815432D02*
X63321429Y75315432D01*
X63321429Y75315432D02*
X63821429Y76815432D01*
X64321428Y75315432D02*
X64321428Y76815432D01*
X65892857Y75458289D02*
X65821429Y75386860D01*
X65821429Y75386860D02*
X65607143Y75315432D01*
X65607143Y75315432D02*
X65464286Y75315432D01*
X65464286Y75315432D02*
X65250000Y75386860D01*
X65250000Y75386860D02*
X65107143Y75529718D01*
X65107143Y75529718D02*
X65035714Y75672575D01*
X65035714Y75672575D02*
X64964286Y75958289D01*
X64964286Y75958289D02*
X64964286Y76172575D01*
X64964286Y76172575D02*
X65035714Y76458289D01*
X65035714Y76458289D02*
X65107143Y76601146D01*
X65107143Y76601146D02*
X65250000Y76744003D01*
X65250000Y76744003D02*
X65464286Y76815432D01*
X65464286Y76815432D02*
X65607143Y76815432D01*
X65607143Y76815432D02*
X65821429Y76744003D01*
X65821429Y76744003D02*
X65892857Y76672575D01*
X66535714Y76101146D02*
X67035714Y76101146D01*
X67250000Y75315432D02*
X66535714Y75315432D01*
X66535714Y75315432D02*
X66535714Y76815432D01*
X66535714Y76815432D02*
X67250000Y76815432D01*
X67821429Y75386860D02*
X68035715Y75315432D01*
X68035715Y75315432D02*
X68392857Y75315432D01*
X68392857Y75315432D02*
X68535715Y75386860D01*
X68535715Y75386860D02*
X68607143Y75458289D01*
X68607143Y75458289D02*
X68678572Y75601146D01*
X68678572Y75601146D02*
X68678572Y75744003D01*
X68678572Y75744003D02*
X68607143Y75886860D01*
X68607143Y75886860D02*
X68535715Y75958289D01*
X68535715Y75958289D02*
X68392857Y76029718D01*
X68392857Y76029718D02*
X68107143Y76101146D01*
X68107143Y76101146D02*
X67964286Y76172575D01*
X67964286Y76172575D02*
X67892857Y76244003D01*
X67892857Y76244003D02*
X67821429Y76386860D01*
X67821429Y76386860D02*
X67821429Y76529718D01*
X67821429Y76529718D02*
X67892857Y76672575D01*
X67892857Y76672575D02*
X67964286Y76744003D01*
X67964286Y76744003D02*
X68107143Y76815432D01*
X68107143Y76815432D02*
X68464286Y76815432D01*
X68464286Y76815432D02*
X68678572Y76744003D01*
X70750000Y76815432D02*
X71035714Y76815432D01*
X71035714Y76815432D02*
X71178571Y76744003D01*
X71178571Y76744003D02*
X71321428Y76601146D01*
X71321428Y76601146D02*
X71392857Y76315432D01*
X71392857Y76315432D02*
X71392857Y75815432D01*
X71392857Y75815432D02*
X71321428Y75529718D01*
X71321428Y75529718D02*
X71178571Y75386860D01*
X71178571Y75386860D02*
X71035714Y75315432D01*
X71035714Y75315432D02*
X70750000Y75315432D01*
X70750000Y75315432D02*
X70607143Y75386860D01*
X70607143Y75386860D02*
X70464285Y75529718D01*
X70464285Y75529718D02*
X70392857Y75815432D01*
X70392857Y75815432D02*
X70392857Y76315432D01*
X70392857Y76315432D02*
X70464285Y76601146D01*
X70464285Y76601146D02*
X70607143Y76744003D01*
X70607143Y76744003D02*
X70750000Y76815432D01*
X72035714Y75315432D02*
X72035714Y76815432D01*
X72035714Y76815432D02*
X72892857Y75315432D01*
X72892857Y75315432D02*
X72892857Y76815432D01*
X74321429Y75315432D02*
X73607143Y75315432D01*
X73607143Y75315432D02*
X73607143Y76815432D01*
X75107144Y76029718D02*
X75107144Y75315432D01*
X74607144Y76815432D02*
X75107144Y76029718D01*
X75107144Y76029718D02*
X75607144Y76815432D01*
X16654640Y57704761D02*
X16730830Y57933333D01*
X16730830Y57933333D02*
X16730830Y58314285D01*
X16730830Y58314285D02*
X16654640Y58466666D01*
X16654640Y58466666D02*
X16578449Y58542857D01*
X16578449Y58542857D02*
X16426068Y58619047D01*
X16426068Y58619047D02*
X16273687Y58619047D01*
X16273687Y58619047D02*
X16121306Y58542857D01*
X16121306Y58542857D02*
X16045116Y58466666D01*
X16045116Y58466666D02*
X15968925Y58314285D01*
X15968925Y58314285D02*
X15892735Y58009523D01*
X15892735Y58009523D02*
X15816544Y57857142D01*
X15816544Y57857142D02*
X15740354Y57780952D01*
X15740354Y57780952D02*
X15587973Y57704761D01*
X15587973Y57704761D02*
X15435592Y57704761D01*
X15435592Y57704761D02*
X15283211Y57780952D01*
X15283211Y57780952D02*
X15207020Y57857142D01*
X15207020Y57857142D02*
X15130830Y58009523D01*
X15130830Y58009523D02*
X15130830Y58390476D01*
X15130830Y58390476D02*
X15207020Y58619047D01*
X16730830Y59304762D02*
X15130830Y59304762D01*
X16730830Y60066667D02*
X15130830Y60066667D01*
X15130830Y60066667D02*
X15130830Y60447619D01*
X15130830Y60447619D02*
X15207020Y60676191D01*
X15207020Y60676191D02*
X15359401Y60828572D01*
X15359401Y60828572D02*
X15511782Y60904762D01*
X15511782Y60904762D02*
X15816544Y60980953D01*
X15816544Y60980953D02*
X16045116Y60980953D01*
X16045116Y60980953D02*
X16349878Y60904762D01*
X16349878Y60904762D02*
X16502259Y60828572D01*
X16502259Y60828572D02*
X16654640Y60676191D01*
X16654640Y60676191D02*
X16730830Y60447619D01*
X16730830Y60447619D02*
X16730830Y60066667D01*
X15892735Y61666667D02*
X15892735Y62200000D01*
X16730830Y62428572D02*
X16730830Y61666667D01*
X16730830Y61666667D02*
X15130830Y61666667D01*
X15130830Y61666667D02*
X15130830Y62428572D01*
X16273687Y64257143D02*
X16273687Y65019048D01*
X16730830Y64104762D02*
X15130830Y64638096D01*
X15130830Y64638096D02*
X16730830Y65171429D01*
X15054640Y69285716D02*
X17111782Y67914287D01*
X15892735Y72790478D02*
X15892735Y72257145D01*
X16730830Y72257145D02*
X15130830Y72257145D01*
X15130830Y72257145D02*
X15130830Y73019050D01*
X15130830Y73476193D02*
X16730830Y73857145D01*
X16730830Y73857145D02*
X15587973Y74161907D01*
X15587973Y74161907D02*
X16730830Y74466669D01*
X16730830Y74466669D02*
X15130830Y74847621D01*
X15283211Y75380954D02*
X15207020Y75457145D01*
X15207020Y75457145D02*
X15130830Y75609526D01*
X15130830Y75609526D02*
X15130830Y75990478D01*
X15130830Y75990478D02*
X15207020Y76142859D01*
X15207020Y76142859D02*
X15283211Y76219050D01*
X15283211Y76219050D02*
X15435592Y76295240D01*
X15435592Y76295240D02*
X15587973Y76295240D01*
X15587973Y76295240D02*
X15816544Y76219050D01*
X15816544Y76219050D02*
X16730830Y75304764D01*
X16730830Y75304764D02*
X16730830Y76295240D01*
X114654640Y53590475D02*
X114730830Y53819047D01*
X114730830Y53819047D02*
X114730830Y54199999D01*
X114730830Y54199999D02*
X114654640Y54352380D01*
X114654640Y54352380D02*
X114578449Y54428571D01*
X114578449Y54428571D02*
X114426068Y54504761D01*
X114426068Y54504761D02*
X114273687Y54504761D01*
X114273687Y54504761D02*
X114121306Y54428571D01*
X114121306Y54428571D02*
X114045116Y54352380D01*
X114045116Y54352380D02*
X113968925Y54199999D01*
X113968925Y54199999D02*
X113892735Y53895237D01*
X113892735Y53895237D02*
X113816544Y53742856D01*
X113816544Y53742856D02*
X113740354Y53666666D01*
X113740354Y53666666D02*
X113587973Y53590475D01*
X113587973Y53590475D02*
X113435592Y53590475D01*
X113435592Y53590475D02*
X113283211Y53666666D01*
X113283211Y53666666D02*
X113207020Y53742856D01*
X113207020Y53742856D02*
X113130830Y53895237D01*
X113130830Y53895237D02*
X113130830Y54276190D01*
X113130830Y54276190D02*
X113207020Y54504761D01*
X114730830Y55190476D02*
X113130830Y55190476D01*
X114730830Y55952381D02*
X113130830Y55952381D01*
X113130830Y55952381D02*
X113130830Y56333333D01*
X113130830Y56333333D02*
X113207020Y56561905D01*
X113207020Y56561905D02*
X113359401Y56714286D01*
X113359401Y56714286D02*
X113511782Y56790476D01*
X113511782Y56790476D02*
X113816544Y56866667D01*
X113816544Y56866667D02*
X114045116Y56866667D01*
X114045116Y56866667D02*
X114349878Y56790476D01*
X114349878Y56790476D02*
X114502259Y56714286D01*
X114502259Y56714286D02*
X114654640Y56561905D01*
X114654640Y56561905D02*
X114730830Y56333333D01*
X114730830Y56333333D02*
X114730830Y55952381D01*
X113892735Y57552381D02*
X113892735Y58085714D01*
X114730830Y58314286D02*
X114730830Y57552381D01*
X114730830Y57552381D02*
X113130830Y57552381D01*
X113130830Y57552381D02*
X113130830Y58314286D01*
X113892735Y60752381D02*
X113968925Y60980953D01*
X113968925Y60980953D02*
X114045116Y61057143D01*
X114045116Y61057143D02*
X114197497Y61133334D01*
X114197497Y61133334D02*
X114426068Y61133334D01*
X114426068Y61133334D02*
X114578449Y61057143D01*
X114578449Y61057143D02*
X114654640Y60980953D01*
X114654640Y60980953D02*
X114730830Y60828572D01*
X114730830Y60828572D02*
X114730830Y60219048D01*
X114730830Y60219048D02*
X113130830Y60219048D01*
X113130830Y60219048D02*
X113130830Y60752381D01*
X113130830Y60752381D02*
X113207020Y60904762D01*
X113207020Y60904762D02*
X113283211Y60980953D01*
X113283211Y60980953D02*
X113435592Y61057143D01*
X113435592Y61057143D02*
X113587973Y61057143D01*
X113587973Y61057143D02*
X113740354Y60980953D01*
X113740354Y60980953D02*
X113816544Y60904762D01*
X113816544Y60904762D02*
X113892735Y60752381D01*
X113892735Y60752381D02*
X113892735Y60219048D01*
X113054640Y65400001D02*
X115111782Y64028572D01*
X113892735Y68904763D02*
X113892735Y68371430D01*
X114730830Y68371430D02*
X113130830Y68371430D01*
X113130830Y68371430D02*
X113130830Y69133335D01*
X113130830Y69590478D02*
X114730830Y69971430D01*
X114730830Y69971430D02*
X113587973Y70276192D01*
X113587973Y70276192D02*
X114730830Y70580954D01*
X114730830Y70580954D02*
X113130830Y70961906D01*
X113283211Y71495239D02*
X113207020Y71571430D01*
X113207020Y71571430D02*
X113130830Y71723811D01*
X113130830Y71723811D02*
X113130830Y72104763D01*
X113130830Y72104763D02*
X113207020Y72257144D01*
X113207020Y72257144D02*
X113283211Y72333335D01*
X113283211Y72333335D02*
X113435592Y72409525D01*
X113435592Y72409525D02*
X113587973Y72409525D01*
X113587973Y72409525D02*
X113816544Y72333335D01*
X113816544Y72333335D02*
X114730830Y71419049D01*
X114730830Y71419049D02*
X114730830Y72409525D01*
X55357142Y115262360D02*
X55614285Y115176646D01*
X55614285Y115176646D02*
X56042856Y115176646D01*
X56042856Y115176646D02*
X56214285Y115262360D01*
X56214285Y115262360D02*
X56299999Y115348075D01*
X56299999Y115348075D02*
X56385713Y115519503D01*
X56385713Y115519503D02*
X56385713Y115690932D01*
X56385713Y115690932D02*
X56299999Y115862360D01*
X56299999Y115862360D02*
X56214285Y115948075D01*
X56214285Y115948075D02*
X56042856Y116033789D01*
X56042856Y116033789D02*
X55699999Y116119503D01*
X55699999Y116119503D02*
X55528570Y116205218D01*
X55528570Y116205218D02*
X55442856Y116290932D01*
X55442856Y116290932D02*
X55357142Y116462360D01*
X55357142Y116462360D02*
X55357142Y116633789D01*
X55357142Y116633789D02*
X55442856Y116805218D01*
X55442856Y116805218D02*
X55528570Y116890932D01*
X55528570Y116890932D02*
X55699999Y116976646D01*
X55699999Y116976646D02*
X56128570Y116976646D01*
X56128570Y116976646D02*
X56385713Y116890932D01*
X57157142Y115176646D02*
X57157142Y116976646D01*
X58014285Y115176646D02*
X58014285Y116976646D01*
X58014285Y116976646D02*
X58442856Y116976646D01*
X58442856Y116976646D02*
X58699999Y116890932D01*
X58699999Y116890932D02*
X58871428Y116719503D01*
X58871428Y116719503D02*
X58957142Y116548075D01*
X58957142Y116548075D02*
X59042856Y116205218D01*
X59042856Y116205218D02*
X59042856Y115948075D01*
X59042856Y115948075D02*
X58957142Y115605218D01*
X58957142Y115605218D02*
X58871428Y115433789D01*
X58871428Y115433789D02*
X58699999Y115262360D01*
X58699999Y115262360D02*
X58442856Y115176646D01*
X58442856Y115176646D02*
X58014285Y115176646D01*
X59814285Y116119503D02*
X60414285Y116119503D01*
X60671428Y115176646D02*
X59814285Y115176646D01*
X59814285Y115176646D02*
X59814285Y116976646D01*
X59814285Y116976646D02*
X60671428Y116976646D01*
X62728571Y115690932D02*
X63585714Y115690932D01*
X62557142Y115176646D02*
X63157142Y116976646D01*
X63157142Y116976646D02*
X63757142Y115176646D01*
X68385714Y117062360D02*
X66842857Y114748075D01*
X72071429Y116976646D02*
X72414286Y116976646D01*
X72414286Y116976646D02*
X72585715Y116890932D01*
X72585715Y116890932D02*
X72757143Y116719503D01*
X72757143Y116719503D02*
X72842858Y116376646D01*
X72842858Y116376646D02*
X72842858Y115776646D01*
X72842858Y115776646D02*
X72757143Y115433789D01*
X72757143Y115433789D02*
X72585715Y115262360D01*
X72585715Y115262360D02*
X72414286Y115176646D01*
X72414286Y115176646D02*
X72071429Y115176646D01*
X72071429Y115176646D02*
X71900001Y115262360D01*
X71900001Y115262360D02*
X71728572Y115433789D01*
X71728572Y115433789D02*
X71642858Y115776646D01*
X71642858Y115776646D02*
X71642858Y116376646D01*
X71642858Y116376646D02*
X71728572Y116719503D01*
X71728572Y116719503D02*
X71900001Y116890932D01*
X71900001Y116890932D02*
X72071429Y116976646D01*
X74557143Y116890932D02*
X74385715Y116976646D01*
X74385715Y116976646D02*
X74128572Y116976646D01*
X74128572Y116976646D02*
X73871429Y116890932D01*
X73871429Y116890932D02*
X73700000Y116719503D01*
X73700000Y116719503D02*
X73614286Y116548075D01*
X73614286Y116548075D02*
X73528572Y116205218D01*
X73528572Y116205218D02*
X73528572Y115948075D01*
X73528572Y115948075D02*
X73614286Y115605218D01*
X73614286Y115605218D02*
X73700000Y115433789D01*
X73700000Y115433789D02*
X73871429Y115262360D01*
X73871429Y115262360D02*
X74128572Y115176646D01*
X74128572Y115176646D02*
X74300000Y115176646D01*
X74300000Y115176646D02*
X74557143Y115262360D01*
X74557143Y115262360D02*
X74642857Y115348075D01*
X74642857Y115348075D02*
X74642857Y115948075D01*
X74642857Y115948075D02*
X74300000Y115948075D01*
X55228571Y13262360D02*
X55485714Y13176646D01*
X55485714Y13176646D02*
X55914285Y13176646D01*
X55914285Y13176646D02*
X56085714Y13262360D01*
X56085714Y13262360D02*
X56171428Y13348075D01*
X56171428Y13348075D02*
X56257142Y13519503D01*
X56257142Y13519503D02*
X56257142Y13690932D01*
X56257142Y13690932D02*
X56171428Y13862360D01*
X56171428Y13862360D02*
X56085714Y13948075D01*
X56085714Y13948075D02*
X55914285Y14033789D01*
X55914285Y14033789D02*
X55571428Y14119503D01*
X55571428Y14119503D02*
X55399999Y14205218D01*
X55399999Y14205218D02*
X55314285Y14290932D01*
X55314285Y14290932D02*
X55228571Y14462360D01*
X55228571Y14462360D02*
X55228571Y14633789D01*
X55228571Y14633789D02*
X55314285Y14805218D01*
X55314285Y14805218D02*
X55399999Y14890932D01*
X55399999Y14890932D02*
X55571428Y14976646D01*
X55571428Y14976646D02*
X55999999Y14976646D01*
X55999999Y14976646D02*
X56257142Y14890932D01*
X57028571Y13176646D02*
X57028571Y14976646D01*
X57885714Y13176646D02*
X57885714Y14976646D01*
X57885714Y14976646D02*
X58314285Y14976646D01*
X58314285Y14976646D02*
X58571428Y14890932D01*
X58571428Y14890932D02*
X58742857Y14719503D01*
X58742857Y14719503D02*
X58828571Y14548075D01*
X58828571Y14548075D02*
X58914285Y14205218D01*
X58914285Y14205218D02*
X58914285Y13948075D01*
X58914285Y13948075D02*
X58828571Y13605218D01*
X58828571Y13605218D02*
X58742857Y13433789D01*
X58742857Y13433789D02*
X58571428Y13262360D01*
X58571428Y13262360D02*
X58314285Y13176646D01*
X58314285Y13176646D02*
X57885714Y13176646D01*
X59685714Y14119503D02*
X60285714Y14119503D01*
X60542857Y13176646D02*
X59685714Y13176646D01*
X59685714Y13176646D02*
X59685714Y14976646D01*
X59685714Y14976646D02*
X60542857Y14976646D01*
X63285714Y14119503D02*
X63542857Y14033789D01*
X63542857Y14033789D02*
X63628571Y13948075D01*
X63628571Y13948075D02*
X63714285Y13776646D01*
X63714285Y13776646D02*
X63714285Y13519503D01*
X63714285Y13519503D02*
X63628571Y13348075D01*
X63628571Y13348075D02*
X63542857Y13262360D01*
X63542857Y13262360D02*
X63371428Y13176646D01*
X63371428Y13176646D02*
X62685714Y13176646D01*
X62685714Y13176646D02*
X62685714Y14976646D01*
X62685714Y14976646D02*
X63285714Y14976646D01*
X63285714Y14976646D02*
X63457143Y14890932D01*
X63457143Y14890932D02*
X63542857Y14805218D01*
X63542857Y14805218D02*
X63628571Y14633789D01*
X63628571Y14633789D02*
X63628571Y14462360D01*
X63628571Y14462360D02*
X63542857Y14290932D01*
X63542857Y14290932D02*
X63457143Y14205218D01*
X63457143Y14205218D02*
X63285714Y14119503D01*
X63285714Y14119503D02*
X62685714Y14119503D01*
X68514286Y15062360D02*
X66971429Y12748075D01*
X72200001Y14976646D02*
X72542858Y14976646D01*
X72542858Y14976646D02*
X72714287Y14890932D01*
X72714287Y14890932D02*
X72885715Y14719503D01*
X72885715Y14719503D02*
X72971430Y14376646D01*
X72971430Y14376646D02*
X72971430Y13776646D01*
X72971430Y13776646D02*
X72885715Y13433789D01*
X72885715Y13433789D02*
X72714287Y13262360D01*
X72714287Y13262360D02*
X72542858Y13176646D01*
X72542858Y13176646D02*
X72200001Y13176646D01*
X72200001Y13176646D02*
X72028573Y13262360D01*
X72028573Y13262360D02*
X71857144Y13433789D01*
X71857144Y13433789D02*
X71771430Y13776646D01*
X71771430Y13776646D02*
X71771430Y14376646D01*
X71771430Y14376646D02*
X71857144Y14719503D01*
X71857144Y14719503D02*
X72028573Y14890932D01*
X72028573Y14890932D02*
X72200001Y14976646D01*
X74685715Y14890932D02*
X74514287Y14976646D01*
X74514287Y14976646D02*
X74257144Y14976646D01*
X74257144Y14976646D02*
X74000001Y14890932D01*
X74000001Y14890932D02*
X73828572Y14719503D01*
X73828572Y14719503D02*
X73742858Y14548075D01*
X73742858Y14548075D02*
X73657144Y14205218D01*
X73657144Y14205218D02*
X73657144Y13948075D01*
X73657144Y13948075D02*
X73742858Y13605218D01*
X73742858Y13605218D02*
X73828572Y13433789D01*
X73828572Y13433789D02*
X74000001Y13262360D01*
X74000001Y13262360D02*
X74257144Y13176646D01*
X74257144Y13176646D02*
X74428572Y13176646D01*
X74428572Y13176646D02*
X74685715Y13262360D01*
X74685715Y13262360D02*
X74771429Y13348075D01*
X74771429Y13348075D02*
X74771429Y13948075D01*
X74771429Y13948075D02*
X74428572Y13948075D01*
X53000001Y89478646D02*
X52714287Y89621503D01*
X52714287Y89621503D02*
X52285715Y89621503D01*
X52285715Y89621503D02*
X51857144Y89478646D01*
X51857144Y89478646D02*
X51571429Y89192932D01*
X51571429Y89192932D02*
X51428572Y88907218D01*
X51428572Y88907218D02*
X51285715Y88335789D01*
X51285715Y88335789D02*
X51285715Y87907218D01*
X51285715Y87907218D02*
X51428572Y87335789D01*
X51428572Y87335789D02*
X51571429Y87050075D01*
X51571429Y87050075D02*
X51857144Y86764360D01*
X51857144Y86764360D02*
X52285715Y86621503D01*
X52285715Y86621503D02*
X52571429Y86621503D01*
X52571429Y86621503D02*
X53000001Y86764360D01*
X53000001Y86764360D02*
X53142858Y86907218D01*
X53142858Y86907218D02*
X53142858Y87907218D01*
X53142858Y87907218D02*
X52571429Y87907218D01*
X54428572Y86621503D02*
X54428572Y89621503D01*
X54428572Y89621503D02*
X55571429Y89621503D01*
X55571429Y89621503D02*
X55857144Y89478646D01*
X55857144Y89478646D02*
X56000001Y89335789D01*
X56000001Y89335789D02*
X56142858Y89050075D01*
X56142858Y89050075D02*
X56142858Y88621503D01*
X56142858Y88621503D02*
X56000001Y88335789D01*
X56000001Y88335789D02*
X55857144Y88192932D01*
X55857144Y88192932D02*
X55571429Y88050075D01*
X55571429Y88050075D02*
X54428572Y88050075D01*
X57428572Y86621503D02*
X57428572Y89621503D01*
X59428572Y89621503D02*
X60000000Y89621503D01*
X60000000Y89621503D02*
X60285715Y89478646D01*
X60285715Y89478646D02*
X60571429Y89192932D01*
X60571429Y89192932D02*
X60714286Y88621503D01*
X60714286Y88621503D02*
X60714286Y87621503D01*
X60714286Y87621503D02*
X60571429Y87050075D01*
X60571429Y87050075D02*
X60285715Y86764360D01*
X60285715Y86764360D02*
X60000000Y86621503D01*
X60000000Y86621503D02*
X59428572Y86621503D01*
X59428572Y86621503D02*
X59142858Y86764360D01*
X59142858Y86764360D02*
X58857143Y87050075D01*
X58857143Y87050075D02*
X58714286Y87621503D01*
X58714286Y87621503D02*
X58714286Y88621503D01*
X58714286Y88621503D02*
X58857143Y89192932D01*
X58857143Y89192932D02*
X59142858Y89478646D01*
X59142858Y89478646D02*
X59428572Y89621503D01*
X65142857Y89621503D02*
X65142857Y87478646D01*
X65142857Y87478646D02*
X65000000Y87050075D01*
X65000000Y87050075D02*
X64714286Y86764360D01*
X64714286Y86764360D02*
X64285714Y86621503D01*
X64285714Y86621503D02*
X64000000Y86621503D01*
X67142857Y89621503D02*
X67714285Y89621503D01*
X67714285Y89621503D02*
X68000000Y89478646D01*
X68000000Y89478646D02*
X68285714Y89192932D01*
X68285714Y89192932D02*
X68428571Y88621503D01*
X68428571Y88621503D02*
X68428571Y87621503D01*
X68428571Y87621503D02*
X68285714Y87050075D01*
X68285714Y87050075D02*
X68000000Y86764360D01*
X68000000Y86764360D02*
X67714285Y86621503D01*
X67714285Y86621503D02*
X67142857Y86621503D01*
X67142857Y86621503D02*
X66857143Y86764360D01*
X66857143Y86764360D02*
X66571428Y87050075D01*
X66571428Y87050075D02*
X66428571Y87621503D01*
X66428571Y87621503D02*
X66428571Y88621503D01*
X66428571Y88621503D02*
X66571428Y89192932D01*
X66571428Y89192932D02*
X66857143Y89478646D01*
X66857143Y89478646D02*
X67142857Y89621503D01*
X69714285Y86621503D02*
X69714285Y89621503D01*
X71142856Y86621503D02*
X71142856Y89621503D01*
X71142856Y89621503D02*
X72857142Y86621503D01*
X72857142Y86621503D02*
X72857142Y89621503D01*
X74285713Y88192932D02*
X75285713Y88192932D01*
X75714285Y86621503D02*
X74285713Y86621503D01*
X74285713Y86621503D02*
X74285713Y89621503D01*
X74285713Y89621503D02*
X75714285Y89621503D01*
X78714285Y86621503D02*
X77714285Y88050075D01*
X76999999Y86621503D02*
X76999999Y89621503D01*
X76999999Y89621503D02*
X78142856Y89621503D01*
X78142856Y89621503D02*
X78428571Y89478646D01*
X78428571Y89478646D02*
X78571428Y89335789D01*
X78571428Y89335789D02*
X78714285Y89050075D01*
X78714285Y89050075D02*
X78714285Y88621503D01*
X78714285Y88621503D02*
X78571428Y88335789D01*
X78571428Y88335789D02*
X78428571Y88192932D01*
X78428571Y88192932D02*
X78142856Y88050075D01*
X78142856Y88050075D02*
X76999999Y88050075D01*
D10*
X11833333Y85945181D02*
X11500000Y86421372D01*
X11261905Y85945181D02*
X11261905Y86945181D01*
X11261905Y86945181D02*
X11642857Y86945181D01*
X11642857Y86945181D02*
X11738095Y86897562D01*
X11738095Y86897562D02*
X11785714Y86849943D01*
X11785714Y86849943D02*
X11833333Y86754705D01*
X11833333Y86754705D02*
X11833333Y86611848D01*
X11833333Y86611848D02*
X11785714Y86516610D01*
X11785714Y86516610D02*
X11738095Y86468991D01*
X11738095Y86468991D02*
X11642857Y86421372D01*
X11642857Y86421372D02*
X11261905Y86421372D01*
X12166667Y86945181D02*
X12833333Y86945181D01*
X12833333Y86945181D02*
X12404762Y85945181D01*
X65238095Y53945181D02*
X65238095Y53135658D01*
X65238095Y53135658D02*
X65285714Y53040420D01*
X65285714Y53040420D02*
X65333333Y52992800D01*
X65333333Y52992800D02*
X65428571Y52945181D01*
X65428571Y52945181D02*
X65619047Y52945181D01*
X65619047Y52945181D02*
X65714285Y52992800D01*
X65714285Y52992800D02*
X65761904Y53040420D01*
X65761904Y53040420D02*
X65809523Y53135658D01*
X65809523Y53135658D02*
X65809523Y53945181D01*
X66809523Y52945181D02*
X66238095Y52945181D01*
X66523809Y52945181D02*
X66523809Y53945181D01*
X66523809Y53945181D02*
X66428571Y53802324D01*
X66428571Y53802324D02*
X66333333Y53707086D01*
X66333333Y53707086D02*
X66238095Y53659467D01*
X61166667Y69992800D02*
X61309524Y69945181D01*
X61309524Y69945181D02*
X61547619Y69945181D01*
X61547619Y69945181D02*
X61642857Y69992800D01*
X61642857Y69992800D02*
X61690476Y70040420D01*
X61690476Y70040420D02*
X61738095Y70135658D01*
X61738095Y70135658D02*
X61738095Y70230896D01*
X61738095Y70230896D02*
X61690476Y70326134D01*
X61690476Y70326134D02*
X61642857Y70373753D01*
X61642857Y70373753D02*
X61547619Y70421372D01*
X61547619Y70421372D02*
X61357143Y70468991D01*
X61357143Y70468991D02*
X61261905Y70516610D01*
X61261905Y70516610D02*
X61214286Y70564229D01*
X61214286Y70564229D02*
X61166667Y70659467D01*
X61166667Y70659467D02*
X61166667Y70754705D01*
X61166667Y70754705D02*
X61214286Y70849943D01*
X61214286Y70849943D02*
X61261905Y70897562D01*
X61261905Y70897562D02*
X61357143Y70945181D01*
X61357143Y70945181D02*
X61595238Y70945181D01*
X61595238Y70945181D02*
X61738095Y70897562D01*
X62071429Y70945181D02*
X62309524Y69945181D01*
X62309524Y69945181D02*
X62500000Y70659467D01*
X62500000Y70659467D02*
X62690476Y69945181D01*
X62690476Y69945181D02*
X62928572Y70945181D01*
X63833333Y69945181D02*
X63261905Y69945181D01*
X63547619Y69945181D02*
X63547619Y70945181D01*
X63547619Y70945181D02*
X63452381Y70802324D01*
X63452381Y70802324D02*
X63357143Y70707086D01*
X63357143Y70707086D02*
X63261905Y70659467D01*
X117833333Y80945181D02*
X117500000Y81421372D01*
X117261905Y80945181D02*
X117261905Y81945181D01*
X117261905Y81945181D02*
X117642857Y81945181D01*
X117642857Y81945181D02*
X117738095Y81897562D01*
X117738095Y81897562D02*
X117785714Y81849943D01*
X117785714Y81849943D02*
X117833333Y81754705D01*
X117833333Y81754705D02*
X117833333Y81611848D01*
X117833333Y81611848D02*
X117785714Y81516610D01*
X117785714Y81516610D02*
X117738095Y81468991D01*
X117738095Y81468991D02*
X117642857Y81421372D01*
X117642857Y81421372D02*
X117261905Y81421372D01*
X118214286Y81849943D02*
X118261905Y81897562D01*
X118261905Y81897562D02*
X118357143Y81945181D01*
X118357143Y81945181D02*
X118595238Y81945181D01*
X118595238Y81945181D02*
X118690476Y81897562D01*
X118690476Y81897562D02*
X118738095Y81849943D01*
X118738095Y81849943D02*
X118785714Y81754705D01*
X118785714Y81754705D02*
X118785714Y81659467D01*
X118785714Y81659467D02*
X118738095Y81516610D01*
X118738095Y81516610D02*
X118166667Y80945181D01*
X118166667Y80945181D02*
X118785714Y80945181D01*
X14833333Y52945181D02*
X14500000Y53421372D01*
X14261905Y52945181D02*
X14261905Y53945181D01*
X14261905Y53945181D02*
X14642857Y53945181D01*
X14642857Y53945181D02*
X14738095Y53897562D01*
X14738095Y53897562D02*
X14785714Y53849943D01*
X14785714Y53849943D02*
X14833333Y53754705D01*
X14833333Y53754705D02*
X14833333Y53611848D01*
X14833333Y53611848D02*
X14785714Y53516610D01*
X14785714Y53516610D02*
X14738095Y53468991D01*
X14738095Y53468991D02*
X14642857Y53421372D01*
X14642857Y53421372D02*
X14261905Y53421372D01*
X15166667Y53945181D02*
X15785714Y53945181D01*
X15785714Y53945181D02*
X15452381Y53564229D01*
X15452381Y53564229D02*
X15595238Y53564229D01*
X15595238Y53564229D02*
X15690476Y53516610D01*
X15690476Y53516610D02*
X15738095Y53468991D01*
X15738095Y53468991D02*
X15785714Y53373753D01*
X15785714Y53373753D02*
X15785714Y53135658D01*
X15785714Y53135658D02*
X15738095Y53040420D01*
X15738095Y53040420D02*
X15690476Y52992800D01*
X15690476Y52992800D02*
X15595238Y52945181D01*
X15595238Y52945181D02*
X15309524Y52945181D01*
X15309524Y52945181D02*
X15214286Y52992800D01*
X15214286Y52992800D02*
X15166667Y53040420D01*
X115738095Y94945181D02*
X116309523Y94945181D01*
X116023809Y93945181D02*
X116023809Y94945181D01*
X116642857Y93945181D02*
X116642857Y94945181D01*
X116642857Y94945181D02*
X117023809Y94945181D01*
X117023809Y94945181D02*
X117119047Y94897562D01*
X117119047Y94897562D02*
X117166666Y94849943D01*
X117166666Y94849943D02*
X117214285Y94754705D01*
X117214285Y94754705D02*
X117214285Y94611848D01*
X117214285Y94611848D02*
X117166666Y94516610D01*
X117166666Y94516610D02*
X117119047Y94468991D01*
X117119047Y94468991D02*
X117023809Y94421372D01*
X117023809Y94421372D02*
X116642857Y94421372D01*
X118071428Y94611848D02*
X118071428Y93945181D01*
X117833333Y94992800D02*
X117595238Y94278515D01*
X117595238Y94278515D02*
X118214285Y94278515D01*
X10833333Y52945181D02*
X10500000Y53421372D01*
X10261905Y52945181D02*
X10261905Y53945181D01*
X10261905Y53945181D02*
X10642857Y53945181D01*
X10642857Y53945181D02*
X10738095Y53897562D01*
X10738095Y53897562D02*
X10785714Y53849943D01*
X10785714Y53849943D02*
X10833333Y53754705D01*
X10833333Y53754705D02*
X10833333Y53611848D01*
X10833333Y53611848D02*
X10785714Y53516610D01*
X10785714Y53516610D02*
X10738095Y53468991D01*
X10738095Y53468991D02*
X10642857Y53421372D01*
X10642857Y53421372D02*
X10261905Y53421372D01*
X11690476Y53611848D02*
X11690476Y52945181D01*
X11452381Y53992800D02*
X11214286Y53278515D01*
X11214286Y53278515D02*
X11833333Y53278515D01*
X65833333Y42945181D02*
X65500000Y43421372D01*
X65261905Y42945181D02*
X65261905Y43945181D01*
X65261905Y43945181D02*
X65642857Y43945181D01*
X65642857Y43945181D02*
X65738095Y43897562D01*
X65738095Y43897562D02*
X65785714Y43849943D01*
X65785714Y43849943D02*
X65833333Y43754705D01*
X65833333Y43754705D02*
X65833333Y43611848D01*
X65833333Y43611848D02*
X65785714Y43516610D01*
X65785714Y43516610D02*
X65738095Y43468991D01*
X65738095Y43468991D02*
X65642857Y43421372D01*
X65642857Y43421372D02*
X65261905Y43421372D01*
X66690476Y43945181D02*
X66500000Y43945181D01*
X66500000Y43945181D02*
X66404762Y43897562D01*
X66404762Y43897562D02*
X66357143Y43849943D01*
X66357143Y43849943D02*
X66261905Y43707086D01*
X66261905Y43707086D02*
X66214286Y43516610D01*
X66214286Y43516610D02*
X66214286Y43135658D01*
X66214286Y43135658D02*
X66261905Y43040420D01*
X66261905Y43040420D02*
X66309524Y42992800D01*
X66309524Y42992800D02*
X66404762Y42945181D01*
X66404762Y42945181D02*
X66595238Y42945181D01*
X66595238Y42945181D02*
X66690476Y42992800D01*
X66690476Y42992800D02*
X66738095Y43040420D01*
X66738095Y43040420D02*
X66785714Y43135658D01*
X66785714Y43135658D02*
X66785714Y43373753D01*
X66785714Y43373753D02*
X66738095Y43468991D01*
X66738095Y43468991D02*
X66690476Y43516610D01*
X66690476Y43516610D02*
X66595238Y43564229D01*
X66595238Y43564229D02*
X66404762Y43564229D01*
X66404762Y43564229D02*
X66309524Y43516610D01*
X66309524Y43516610D02*
X66261905Y43468991D01*
X66261905Y43468991D02*
X66214286Y43373753D01*
X58261905Y52945181D02*
X58261905Y53945181D01*
X58261905Y53945181D02*
X58500000Y53945181D01*
X58500000Y53945181D02*
X58642857Y53897562D01*
X58642857Y53897562D02*
X58738095Y53802324D01*
X58738095Y53802324D02*
X58785714Y53707086D01*
X58785714Y53707086D02*
X58833333Y53516610D01*
X58833333Y53516610D02*
X58833333Y53373753D01*
X58833333Y53373753D02*
X58785714Y53183277D01*
X58785714Y53183277D02*
X58738095Y53088039D01*
X58738095Y53088039D02*
X58642857Y52992800D01*
X58642857Y52992800D02*
X58500000Y52945181D01*
X58500000Y52945181D02*
X58261905Y52945181D01*
X59785714Y52945181D02*
X59214286Y52945181D01*
X59500000Y52945181D02*
X59500000Y53945181D01*
X59500000Y53945181D02*
X59404762Y53802324D01*
X59404762Y53802324D02*
X59309524Y53707086D01*
X59309524Y53707086D02*
X59214286Y53659467D01*
X54738095Y45945181D02*
X55309523Y45945181D01*
X55023809Y44945181D02*
X55023809Y45945181D01*
X55642857Y44945181D02*
X55642857Y45945181D01*
X55642857Y45945181D02*
X56023809Y45945181D01*
X56023809Y45945181D02*
X56119047Y45897562D01*
X56119047Y45897562D02*
X56166666Y45849943D01*
X56166666Y45849943D02*
X56214285Y45754705D01*
X56214285Y45754705D02*
X56214285Y45611848D01*
X56214285Y45611848D02*
X56166666Y45516610D01*
X56166666Y45516610D02*
X56119047Y45468991D01*
X56119047Y45468991D02*
X56023809Y45421372D01*
X56023809Y45421372D02*
X55642857Y45421372D01*
X57071428Y45945181D02*
X56880952Y45945181D01*
X56880952Y45945181D02*
X56785714Y45897562D01*
X56785714Y45897562D02*
X56738095Y45849943D01*
X56738095Y45849943D02*
X56642857Y45707086D01*
X56642857Y45707086D02*
X56595238Y45516610D01*
X56595238Y45516610D02*
X56595238Y45135658D01*
X56595238Y45135658D02*
X56642857Y45040420D01*
X56642857Y45040420D02*
X56690476Y44992800D01*
X56690476Y44992800D02*
X56785714Y44945181D01*
X56785714Y44945181D02*
X56976190Y44945181D01*
X56976190Y44945181D02*
X57071428Y44992800D01*
X57071428Y44992800D02*
X57119047Y45040420D01*
X57119047Y45040420D02*
X57166666Y45135658D01*
X57166666Y45135658D02*
X57166666Y45373753D01*
X57166666Y45373753D02*
X57119047Y45468991D01*
X57119047Y45468991D02*
X57071428Y45516610D01*
X57071428Y45516610D02*
X56976190Y45564229D01*
X56976190Y45564229D02*
X56785714Y45564229D01*
X56785714Y45564229D02*
X56690476Y45516610D01*
X56690476Y45516610D02*
X56642857Y45468991D01*
X56642857Y45468991D02*
X56595238Y45373753D01*
X60833333Y42945181D02*
X60500000Y43421372D01*
X60261905Y42945181D02*
X60261905Y43945181D01*
X60261905Y43945181D02*
X60642857Y43945181D01*
X60642857Y43945181D02*
X60738095Y43897562D01*
X60738095Y43897562D02*
X60785714Y43849943D01*
X60785714Y43849943D02*
X60833333Y43754705D01*
X60833333Y43754705D02*
X60833333Y43611848D01*
X60833333Y43611848D02*
X60785714Y43516610D01*
X60785714Y43516610D02*
X60738095Y43468991D01*
X60738095Y43468991D02*
X60642857Y43421372D01*
X60642857Y43421372D02*
X60261905Y43421372D01*
X61738095Y43945181D02*
X61261905Y43945181D01*
X61261905Y43945181D02*
X61214286Y43468991D01*
X61214286Y43468991D02*
X61261905Y43516610D01*
X61261905Y43516610D02*
X61357143Y43564229D01*
X61357143Y43564229D02*
X61595238Y43564229D01*
X61595238Y43564229D02*
X61690476Y43516610D01*
X61690476Y43516610D02*
X61738095Y43468991D01*
X61738095Y43468991D02*
X61785714Y43373753D01*
X61785714Y43373753D02*
X61785714Y43135658D01*
X61785714Y43135658D02*
X61738095Y43040420D01*
X61738095Y43040420D02*
X61690476Y42992800D01*
X61690476Y42992800D02*
X61595238Y42945181D01*
X61595238Y42945181D02*
X61357143Y42945181D01*
X61357143Y42945181D02*
X61261905Y42992800D01*
X61261905Y42992800D02*
X61214286Y43040420D01*
X34738095Y67945181D02*
X35309523Y67945181D01*
X35023809Y66945181D02*
X35023809Y67945181D01*
X35642857Y66945181D02*
X35642857Y67945181D01*
X35642857Y67945181D02*
X36023809Y67945181D01*
X36023809Y67945181D02*
X36119047Y67897562D01*
X36119047Y67897562D02*
X36166666Y67849943D01*
X36166666Y67849943D02*
X36214285Y67754705D01*
X36214285Y67754705D02*
X36214285Y67611848D01*
X36214285Y67611848D02*
X36166666Y67516610D01*
X36166666Y67516610D02*
X36119047Y67468991D01*
X36119047Y67468991D02*
X36023809Y67421372D01*
X36023809Y67421372D02*
X35642857Y67421372D01*
X37166666Y66945181D02*
X36595238Y66945181D01*
X36880952Y66945181D02*
X36880952Y67945181D01*
X36880952Y67945181D02*
X36785714Y67802324D01*
X36785714Y67802324D02*
X36690476Y67707086D01*
X36690476Y67707086D02*
X36595238Y67659467D01*
X113833333Y80945181D02*
X113500000Y81421372D01*
X113261905Y80945181D02*
X113261905Y81945181D01*
X113261905Y81945181D02*
X113642857Y81945181D01*
X113642857Y81945181D02*
X113738095Y81897562D01*
X113738095Y81897562D02*
X113785714Y81849943D01*
X113785714Y81849943D02*
X113833333Y81754705D01*
X113833333Y81754705D02*
X113833333Y81611848D01*
X113833333Y81611848D02*
X113785714Y81516610D01*
X113785714Y81516610D02*
X113738095Y81468991D01*
X113738095Y81468991D02*
X113642857Y81421372D01*
X113642857Y81421372D02*
X113261905Y81421372D01*
X114785714Y80945181D02*
X114214286Y80945181D01*
X114500000Y80945181D02*
X114500000Y81945181D01*
X114500000Y81945181D02*
X114404762Y81802324D01*
X114404762Y81802324D02*
X114309524Y81707086D01*
X114309524Y81707086D02*
X114214286Y81659467D01*
X92738095Y67945181D02*
X93309523Y67945181D01*
X93023809Y66945181D02*
X93023809Y67945181D01*
X93642857Y66945181D02*
X93642857Y67945181D01*
X93642857Y67945181D02*
X94023809Y67945181D01*
X94023809Y67945181D02*
X94119047Y67897562D01*
X94119047Y67897562D02*
X94166666Y67849943D01*
X94166666Y67849943D02*
X94214285Y67754705D01*
X94214285Y67754705D02*
X94214285Y67611848D01*
X94214285Y67611848D02*
X94166666Y67516610D01*
X94166666Y67516610D02*
X94119047Y67468991D01*
X94119047Y67468991D02*
X94023809Y67421372D01*
X94023809Y67421372D02*
X93642857Y67421372D01*
X94595238Y67849943D02*
X94642857Y67897562D01*
X94642857Y67897562D02*
X94738095Y67945181D01*
X94738095Y67945181D02*
X94976190Y67945181D01*
X94976190Y67945181D02*
X95071428Y67897562D01*
X95071428Y67897562D02*
X95119047Y67849943D01*
X95119047Y67849943D02*
X95166666Y67754705D01*
X95166666Y67754705D02*
X95166666Y67659467D01*
X95166666Y67659467D02*
X95119047Y67516610D01*
X95119047Y67516610D02*
X94547619Y66945181D01*
X94547619Y66945181D02*
X95166666Y66945181D01*
X117833333Y47945181D02*
X117500000Y48421372D01*
X117261905Y47945181D02*
X117261905Y48945181D01*
X117261905Y48945181D02*
X117642857Y48945181D01*
X117642857Y48945181D02*
X117738095Y48897562D01*
X117738095Y48897562D02*
X117785714Y48849943D01*
X117785714Y48849943D02*
X117833333Y48754705D01*
X117833333Y48754705D02*
X117833333Y48611848D01*
X117833333Y48611848D02*
X117785714Y48516610D01*
X117785714Y48516610D02*
X117738095Y48468991D01*
X117738095Y48468991D02*
X117642857Y48421372D01*
X117642857Y48421372D02*
X117261905Y48421372D01*
X118404762Y48516610D02*
X118309524Y48564229D01*
X118309524Y48564229D02*
X118261905Y48611848D01*
X118261905Y48611848D02*
X118214286Y48707086D01*
X118214286Y48707086D02*
X118214286Y48754705D01*
X118214286Y48754705D02*
X118261905Y48849943D01*
X118261905Y48849943D02*
X118309524Y48897562D01*
X118309524Y48897562D02*
X118404762Y48945181D01*
X118404762Y48945181D02*
X118595238Y48945181D01*
X118595238Y48945181D02*
X118690476Y48897562D01*
X118690476Y48897562D02*
X118738095Y48849943D01*
X118738095Y48849943D02*
X118785714Y48754705D01*
X118785714Y48754705D02*
X118785714Y48707086D01*
X118785714Y48707086D02*
X118738095Y48611848D01*
X118738095Y48611848D02*
X118690476Y48564229D01*
X118690476Y48564229D02*
X118595238Y48516610D01*
X118595238Y48516610D02*
X118404762Y48516610D01*
X118404762Y48516610D02*
X118309524Y48468991D01*
X118309524Y48468991D02*
X118261905Y48421372D01*
X118261905Y48421372D02*
X118214286Y48326134D01*
X118214286Y48326134D02*
X118214286Y48135658D01*
X118214286Y48135658D02*
X118261905Y48040420D01*
X118261905Y48040420D02*
X118309524Y47992800D01*
X118309524Y47992800D02*
X118404762Y47945181D01*
X118404762Y47945181D02*
X118595238Y47945181D01*
X118595238Y47945181D02*
X118690476Y47992800D01*
X118690476Y47992800D02*
X118738095Y48040420D01*
X118738095Y48040420D02*
X118785714Y48135658D01*
X118785714Y48135658D02*
X118785714Y48326134D01*
X118785714Y48326134D02*
X118738095Y48421372D01*
X118738095Y48421372D02*
X118690476Y48468991D01*
X118690476Y48468991D02*
X118595238Y48516610D01*
X70738095Y45945181D02*
X71309523Y45945181D01*
X71023809Y44945181D02*
X71023809Y45945181D01*
X71642857Y44945181D02*
X71642857Y45945181D01*
X71642857Y45945181D02*
X72023809Y45945181D01*
X72023809Y45945181D02*
X72119047Y45897562D01*
X72119047Y45897562D02*
X72166666Y45849943D01*
X72166666Y45849943D02*
X72214285Y45754705D01*
X72214285Y45754705D02*
X72214285Y45611848D01*
X72214285Y45611848D02*
X72166666Y45516610D01*
X72166666Y45516610D02*
X72119047Y45468991D01*
X72119047Y45468991D02*
X72023809Y45421372D01*
X72023809Y45421372D02*
X71642857Y45421372D01*
X73119047Y45945181D02*
X72642857Y45945181D01*
X72642857Y45945181D02*
X72595238Y45468991D01*
X72595238Y45468991D02*
X72642857Y45516610D01*
X72642857Y45516610D02*
X72738095Y45564229D01*
X72738095Y45564229D02*
X72976190Y45564229D01*
X72976190Y45564229D02*
X73071428Y45516610D01*
X73071428Y45516610D02*
X73119047Y45468991D01*
X73119047Y45468991D02*
X73166666Y45373753D01*
X73166666Y45373753D02*
X73166666Y45135658D01*
X73166666Y45135658D02*
X73119047Y45040420D01*
X73119047Y45040420D02*
X73071428Y44992800D01*
X73071428Y44992800D02*
X72976190Y44945181D01*
X72976190Y44945181D02*
X72738095Y44945181D01*
X72738095Y44945181D02*
X72642857Y44992800D01*
X72642857Y44992800D02*
X72595238Y45040420D01*
X69833333Y53040420D02*
X69785714Y52992800D01*
X69785714Y52992800D02*
X69642857Y52945181D01*
X69642857Y52945181D02*
X69547619Y52945181D01*
X69547619Y52945181D02*
X69404762Y52992800D01*
X69404762Y52992800D02*
X69309524Y53088039D01*
X69309524Y53088039D02*
X69261905Y53183277D01*
X69261905Y53183277D02*
X69214286Y53373753D01*
X69214286Y53373753D02*
X69214286Y53516610D01*
X69214286Y53516610D02*
X69261905Y53707086D01*
X69261905Y53707086D02*
X69309524Y53802324D01*
X69309524Y53802324D02*
X69404762Y53897562D01*
X69404762Y53897562D02*
X69547619Y53945181D01*
X69547619Y53945181D02*
X69642857Y53945181D01*
X69642857Y53945181D02*
X69785714Y53897562D01*
X69785714Y53897562D02*
X69833333Y53849943D01*
X70785714Y52945181D02*
X70214286Y52945181D01*
X70500000Y52945181D02*
X70500000Y53945181D01*
X70500000Y53945181D02*
X70404762Y53802324D01*
X70404762Y53802324D02*
X70309524Y53707086D01*
X70309524Y53707086D02*
X70214286Y53659467D01*
X11738095Y40945181D02*
X12309523Y40945181D01*
X12023809Y39945181D02*
X12023809Y40945181D01*
X12642857Y39945181D02*
X12642857Y40945181D01*
X12642857Y40945181D02*
X13023809Y40945181D01*
X13023809Y40945181D02*
X13119047Y40897562D01*
X13119047Y40897562D02*
X13166666Y40849943D01*
X13166666Y40849943D02*
X13214285Y40754705D01*
X13214285Y40754705D02*
X13214285Y40611848D01*
X13214285Y40611848D02*
X13166666Y40516610D01*
X13166666Y40516610D02*
X13119047Y40468991D01*
X13119047Y40468991D02*
X13023809Y40421372D01*
X13023809Y40421372D02*
X12642857Y40421372D01*
X13547619Y40945181D02*
X14166666Y40945181D01*
X14166666Y40945181D02*
X13833333Y40564229D01*
X13833333Y40564229D02*
X13976190Y40564229D01*
X13976190Y40564229D02*
X14071428Y40516610D01*
X14071428Y40516610D02*
X14119047Y40468991D01*
X14119047Y40468991D02*
X14166666Y40373753D01*
X14166666Y40373753D02*
X14166666Y40135658D01*
X14166666Y40135658D02*
X14119047Y40040420D01*
X14119047Y40040420D02*
X14071428Y39992800D01*
X14071428Y39992800D02*
X13976190Y39945181D01*
X13976190Y39945181D02*
X13690476Y39945181D01*
X13690476Y39945181D02*
X13595238Y39992800D01*
X13595238Y39992800D02*
X13547619Y40040420D01*
X11477500Y83762742D02*
X11477500Y84237258D01*
X12522500Y83762742D02*
X12522500Y84237258D01*
X65090000Y52560000D02*
X66910000Y52560000D01*
X65090000Y52510000D02*
X65090000Y52560000D01*
X65090000Y49440000D02*
X65090000Y49490000D01*
X66910000Y52560000D02*
X66910000Y52510000D01*
X66910000Y51390000D02*
X66910000Y50610000D01*
X66910000Y49490000D02*
X66910000Y49440000D01*
X66910000Y49440000D02*
X65090000Y49440000D01*
X64550000Y52510000D02*
X64310000Y52840000D01*
X64790000Y52840000D01*
X64550000Y52510000D01*
G36*
X64550000Y52510000D02*
G01*
X64310000Y52840000D01*
X64790000Y52840000D01*
X64550000Y52510000D01*
G37*
X60400000Y68450000D02*
X60400000Y64250000D01*
X60400000Y64250000D02*
X61600000Y64250000D01*
X60750000Y68450000D02*
X60400000Y68450000D01*
X68400000Y68450000D02*
X69600000Y68450000D01*
X69600000Y68450000D02*
X69600000Y64250000D01*
X69600000Y64250000D02*
X68400000Y64250000D01*
X61500000Y68450000D02*
X61020000Y68450000D01*
X61500000Y68930000D01*
X61500000Y68450000D01*
G36*
X61500000Y68450000D02*
G01*
X61020000Y68450000D01*
X61500000Y68930000D01*
X61500000Y68450000D01*
G37*
X117477500Y78762742D02*
X117477500Y79237258D01*
X118522500Y78762742D02*
X118522500Y79237258D01*
X15237258Y51522500D02*
X14762742Y51522500D01*
X15237258Y50477500D02*
X14762742Y50477500D01*
X117950000Y92000000D02*
G75*
G02*
X116050000Y92000000I-950000J0D01*
G01*
X116050000Y92000000D02*
G75*
G02*
X117950000Y92000000I950000J0D01*
G01*
X10477500Y50762742D02*
X10477500Y51237258D01*
X11522500Y50762742D02*
X11522500Y51237258D01*
X65477500Y40762742D02*
X65477500Y41237258D01*
X66522500Y40762742D02*
X66522500Y41237258D01*
X58240000Y52560000D02*
X59760000Y52560000D01*
X58240000Y52510000D02*
X58240000Y52560000D01*
X58240000Y50610000D02*
X58240000Y51390000D01*
X58240000Y49440000D02*
X58240000Y49490000D01*
X59760000Y52560000D02*
X59760000Y51560000D01*
X59760000Y50440000D02*
X59760000Y49440000D01*
X59760000Y49440000D02*
X58240000Y49440000D01*
X57700000Y51380000D02*
X57940000Y51050000D01*
X57460000Y51050000D01*
X57700000Y51380000D01*
G36*
X57940000Y51050000D02*
G01*
X57460000Y51050000D01*
X57700000Y51380000D01*
X57940000Y51050000D01*
G37*
X56950000Y43000000D02*
G75*
G02*
X55050000Y43000000I-950000J0D01*
G01*
X55050000Y43000000D02*
G75*
G02*
X56950000Y43000000I950000J0D01*
G01*
X60477500Y40762742D02*
X60477500Y41237258D01*
X61522500Y40762742D02*
X61522500Y41237258D01*
X36950000Y65000000D02*
G75*
G02*
X35050000Y65000000I-950000J0D01*
G01*
X35050000Y65000000D02*
G75*
G02*
X36950000Y65000000I950000J0D01*
G01*
X113762742Y79522500D02*
X114237258Y79522500D01*
X113762742Y78477500D02*
X114237258Y78477500D01*
X94950000Y65000000D02*
G75*
G02*
X93050000Y65000000I-950000J0D01*
G01*
X93050000Y65000000D02*
G75*
G02*
X94950000Y65000000I950000J0D01*
G01*
X117477500Y45762742D02*
X117477500Y46237258D01*
X118522500Y45762742D02*
X118522500Y46237258D01*
X72950000Y43000000D02*
G75*
G02*
X71050000Y43000000I-950000J0D01*
G01*
X71050000Y43000000D02*
G75*
G02*
X72950000Y43000000I950000J0D01*
G01*
X69490000Y50859420D02*
X69490000Y51140580D01*
X70510000Y50859420D02*
X70510000Y51140580D01*
X13950000Y38000000D02*
G75*
G02*
X12050000Y38000000I-950000J0D01*
G01*
X12050000Y38000000D02*
G75*
G02*
X13950000Y38000000I950000J0D01*
G01*
%LPC*%
G36*
G01*
X12275000Y82775000D02*
X11725000Y82775000D01*
G75*
G02*
X11525000Y82975000I0J200000D01*
G01*
X11525000Y83375000D01*
G75*
G02*
X11725000Y83575000I200000J0D01*
G01*
X12275000Y83575000D01*
G75*
G02*
X12475000Y83375000I0J-200000D01*
G01*
X12475000Y82975000D01*
G75*
G02*
X12275000Y82775000I-200000J0D01*
G01*
G37*
G36*
G01*
X12275000Y84425000D02*
X11725000Y84425000D01*
G75*
G02*
X11525000Y84625000I0J200000D01*
G01*
X11525000Y85025000D01*
G75*
G02*
X11725000Y85225000I200000J0D01*
G01*
X12275000Y85225000D01*
G75*
G02*
X12475000Y85025000I0J-200000D01*
G01*
X12475000Y84625000D01*
G75*
G02*
X12275000Y84425000I-200000J0D01*
G01*
G37*
G36*
G01*
X64200000Y51800000D02*
X64200000Y52100000D01*
G75*
G02*
X64350000Y52250000I150000J0D01*
G01*
X65375000Y52250000D01*
G75*
G02*
X65525000Y52100000I0J-150000D01*
G01*
X65525000Y51800000D01*
G75*
G02*
X65375000Y51650000I-150000J0D01*
G01*
X64350000Y51650000D01*
G75*
G02*
X64200000Y51800000I0J150000D01*
G01*
G37*
G36*
G01*
X64200000Y50850000D02*
X64200000Y51150000D01*
G75*
G02*
X64350000Y51300000I150000J0D01*
G01*
X65375000Y51300000D01*
G75*
G02*
X65525000Y51150000I0J-150000D01*
G01*
X65525000Y50850000D01*
G75*
G02*
X65375000Y50700000I-150000J0D01*
G01*
X64350000Y50700000D01*
G75*
G02*
X64200000Y50850000I0J150000D01*
G01*
G37*
G36*
G01*
X64200000Y49900000D02*
X64200000Y50200000D01*
G75*
G02*
X64350000Y50350000I150000J0D01*
G01*
X65375000Y50350000D01*
G75*
G02*
X65525000Y50200000I0J-150000D01*
G01*
X65525000Y49900000D01*
G75*
G02*
X65375000Y49750000I-150000J0D01*
G01*
X64350000Y49750000D01*
G75*
G02*
X64200000Y49900000I0J150000D01*
G01*
G37*
G36*
G01*
X66475000Y49900000D02*
X66475000Y50200000D01*
G75*
G02*
X66625000Y50350000I150000J0D01*
G01*
X67650000Y50350000D01*
G75*
G02*
X67800000Y50200000I0J-150000D01*
G01*
X67800000Y49900000D01*
G75*
G02*
X67650000Y49750000I-150000J0D01*
G01*
X66625000Y49750000D01*
G75*
G02*
X66475000Y49900000I0J150000D01*
G01*
G37*
G36*
G01*
X66475000Y51800000D02*
X66475000Y52100000D01*
G75*
G02*
X66625000Y52250000I150000J0D01*
G01*
X67650000Y52250000D01*
G75*
G02*
X67800000Y52100000I0J-150000D01*
G01*
X67800000Y51800000D01*
G75*
G02*
X67650000Y51650000I-150000J0D01*
G01*
X66625000Y51650000D01*
G75*
G02*
X66475000Y51800000I0J150000D01*
G01*
G37*
D12*
X33000000Y97000000D03*
G36*
G01*
X61800000Y67550000D02*
X61800000Y68450000D01*
G75*
G02*
X62050000Y68700000I250000J0D01*
G01*
X62950000Y68700000D01*
G75*
G02*
X63200000Y68450000I0J-250000D01*
G01*
X63200000Y67550000D01*
G75*
G02*
X62950000Y67300000I-250000J0D01*
G01*
X62050000Y67300000D01*
G75*
G02*
X61800000Y67550000I0J250000D01*
G01*
G37*
D13*
X65000000Y68000000D03*
X67500000Y68000000D03*
X62500000Y64700000D03*
X65000000Y64700000D03*
X67500000Y64700000D03*
D14*
X128270000Y86620000D03*
X125730000Y86620000D03*
X128270000Y84080000D03*
X125730000Y84080000D03*
X128270000Y81540000D03*
X125730000Y81540000D03*
X128270000Y79000000D03*
X125730000Y79000000D03*
X128270000Y76460000D03*
X125730000Y76460000D03*
G36*
G01*
X118275000Y77775000D02*
X117725000Y77775000D01*
G75*
G02*
X117525000Y77975000I0J200000D01*
G01*
X117525000Y78375000D01*
G75*
G02*
X117725000Y78575000I200000J0D01*
G01*
X118275000Y78575000D01*
G75*
G02*
X118475000Y78375000I0J-200000D01*
G01*
X118475000Y77975000D01*
G75*
G02*
X118275000Y77775000I-200000J0D01*
G01*
G37*
G36*
G01*
X118275000Y79425000D02*
X117725000Y79425000D01*
G75*
G02*
X117525000Y79625000I0J200000D01*
G01*
X117525000Y80025000D01*
G75*
G02*
X117725000Y80225000I200000J0D01*
G01*
X118275000Y80225000D01*
G75*
G02*
X118475000Y80025000I0J-200000D01*
G01*
X118475000Y79625000D01*
G75*
G02*
X118275000Y79425000I-200000J0D01*
G01*
G37*
G36*
G01*
X16225000Y51275000D02*
X16225000Y50725000D01*
G75*
G02*
X16025000Y50525000I-200000J0D01*
G01*
X15625000Y50525000D01*
G75*
G02*
X15425000Y50725000I0J200000D01*
G01*
X15425000Y51275000D01*
G75*
G02*
X15625000Y51475000I200000J0D01*
G01*
X16025000Y51475000D01*
G75*
G02*
X16225000Y51275000I0J-200000D01*
G01*
G37*
G36*
G01*
X14575000Y51275000D02*
X14575000Y50725000D01*
G75*
G02*
X14375000Y50525000I-200000J0D01*
G01*
X13975000Y50525000D01*
G75*
G02*
X13775000Y50725000I0J200000D01*
G01*
X13775000Y51275000D01*
G75*
G02*
X13975000Y51475000I200000J0D01*
G01*
X14375000Y51475000D01*
G75*
G02*
X14575000Y51275000I0J-200000D01*
G01*
G37*
D15*
X117000000Y92000000D03*
G36*
G01*
X11275000Y49775000D02*
X10725000Y49775000D01*
G75*
G02*
X10525000Y49975000I0J200000D01*
G01*
X10525000Y50375000D01*
G75*
G02*
X10725000Y50575000I200000J0D01*
G01*
X11275000Y50575000D01*
G75*
G02*
X11475000Y50375000I0J-200000D01*
G01*
X11475000Y49975000D01*
G75*
G02*
X11275000Y49775000I-200000J0D01*
G01*
G37*
G36*
G01*
X11275000Y51425000D02*
X10725000Y51425000D01*
G75*
G02*
X10525000Y51625000I0J200000D01*
G01*
X10525000Y52025000D01*
G75*
G02*
X10725000Y52225000I200000J0D01*
G01*
X11275000Y52225000D01*
G75*
G02*
X11475000Y52025000I0J-200000D01*
G01*
X11475000Y51625000D01*
G75*
G02*
X11275000Y51425000I-200000J0D01*
G01*
G37*
G36*
G01*
X66275000Y39775000D02*
X65725000Y39775000D01*
G75*
G02*
X65525000Y39975000I0J200000D01*
G01*
X65525000Y40375000D01*
G75*
G02*
X65725000Y40575000I200000J0D01*
G01*
X66275000Y40575000D01*
G75*
G02*
X66475000Y40375000I0J-200000D01*
G01*
X66475000Y39975000D01*
G75*
G02*
X66275000Y39775000I-200000J0D01*
G01*
G37*
G36*
G01*
X66275000Y41425000D02*
X65725000Y41425000D01*
G75*
G02*
X65525000Y41625000I0J200000D01*
G01*
X65525000Y42025000D01*
G75*
G02*
X65725000Y42225000I200000J0D01*
G01*
X66275000Y42225000D01*
G75*
G02*
X66475000Y42025000I0J-200000D01*
G01*
X66475000Y41625000D01*
G75*
G02*
X66275000Y41425000I-200000J0D01*
G01*
G37*
G36*
G01*
X57325000Y51800000D02*
X57325000Y52100000D01*
G75*
G02*
X57475000Y52250000I150000J0D01*
G01*
X58650000Y52250000D01*
G75*
G02*
X58800000Y52100000I0J-150000D01*
G01*
X58800000Y51800000D01*
G75*
G02*
X58650000Y51650000I-150000J0D01*
G01*
X57475000Y51650000D01*
G75*
G02*
X57325000Y51800000I0J150000D01*
G01*
G37*
G36*
G01*
X57325000Y49900000D02*
X57325000Y50200000D01*
G75*
G02*
X57475000Y50350000I150000J0D01*
G01*
X58650000Y50350000D01*
G75*
G02*
X58800000Y50200000I0J-150000D01*
G01*
X58800000Y49900000D01*
G75*
G02*
X58650000Y49750000I-150000J0D01*
G01*
X57475000Y49750000D01*
G75*
G02*
X57325000Y49900000I0J150000D01*
G01*
G37*
G36*
G01*
X59200000Y50850000D02*
X59200000Y51150000D01*
G75*
G02*
X59350000Y51300000I150000J0D01*
G01*
X60525000Y51300000D01*
G75*
G02*
X60675000Y51150000I0J-150000D01*
G01*
X60675000Y50850000D01*
G75*
G02*
X60525000Y50700000I-150000J0D01*
G01*
X59350000Y50700000D01*
G75*
G02*
X59200000Y50850000I0J150000D01*
G01*
G37*
D14*
X128270000Y66250000D03*
X125730000Y66250000D03*
X128270000Y63710000D03*
X125730000Y63710000D03*
X128270000Y61170000D03*
X125730000Y61170000D03*
X128270000Y58630000D03*
X125730000Y58630000D03*
X128270000Y56090000D03*
X125730000Y56090000D03*
X128270000Y53550000D03*
X125730000Y53550000D03*
X128270000Y51010000D03*
X125730000Y51010000D03*
X128270000Y48470000D03*
X125730000Y48470000D03*
X128270000Y45930000D03*
X125730000Y45930000D03*
X128270000Y43390000D03*
X125730000Y43390000D03*
D15*
X56000000Y43000000D03*
D14*
X1730000Y63750000D03*
X4270000Y63750000D03*
X1730000Y66290000D03*
X4270000Y66290000D03*
X1730000Y68830000D03*
X4270000Y68830000D03*
X1730000Y71370000D03*
X4270000Y71370000D03*
X1730000Y73910000D03*
X4270000Y73910000D03*
X1730000Y76450000D03*
X4270000Y76450000D03*
X1730000Y78990000D03*
X4270000Y78990000D03*
X1730000Y81530000D03*
X4270000Y81530000D03*
X1730000Y84070000D03*
X4270000Y84070000D03*
X1730000Y86610000D03*
X4270000Y86610000D03*
G36*
G01*
X61275000Y39775000D02*
X60725000Y39775000D01*
G75*
G02*
X60525000Y39975000I0J200000D01*
G01*
X60525000Y40375000D01*
G75*
G02*
X60725000Y40575000I200000J0D01*
G01*
X61275000Y40575000D01*
G75*
G02*
X61475000Y40375000I0J-200000D01*
G01*
X61475000Y39975000D01*
G75*
G02*
X61275000Y39775000I-200000J0D01*
G01*
G37*
G36*
G01*
X61275000Y41425000D02*
X60725000Y41425000D01*
G75*
G02*
X60525000Y41625000I0J200000D01*
G01*
X60525000Y42025000D01*
G75*
G02*
X60725000Y42225000I200000J0D01*
G01*
X61275000Y42225000D01*
G75*
G02*
X61475000Y42025000I0J-200000D01*
G01*
X61475000Y41625000D01*
G75*
G02*
X61275000Y41425000I-200000J0D01*
G01*
G37*
D15*
X36000000Y65000000D03*
G36*
G01*
X112775000Y78725000D02*
X112775000Y79275000D01*
G75*
G02*
X112975000Y79475000I200000J0D01*
G01*
X113375000Y79475000D01*
G75*
G02*
X113575000Y79275000I0J-200000D01*
G01*
X113575000Y78725000D01*
G75*
G02*
X113375000Y78525000I-200000J0D01*
G01*
X112975000Y78525000D01*
G75*
G02*
X112775000Y78725000I0J200000D01*
G01*
G37*
G36*
G01*
X114425000Y78725000D02*
X114425000Y79275000D01*
G75*
G02*
X114625000Y79475000I200000J0D01*
G01*
X115025000Y79475000D01*
G75*
G02*
X115225000Y79275000I0J-200000D01*
G01*
X115225000Y78725000D01*
G75*
G02*
X115025000Y78525000I-200000J0D01*
G01*
X114625000Y78525000D01*
G75*
G02*
X114425000Y78725000I0J200000D01*
G01*
G37*
X94000000Y65000000D03*
D14*
X1730000Y43380000D03*
X4270000Y43380000D03*
X1730000Y45920000D03*
X4270000Y45920000D03*
X1730000Y48460000D03*
X4270000Y48460000D03*
X1730000Y51000000D03*
X4270000Y51000000D03*
X1730000Y53540000D03*
X4270000Y53540000D03*
G36*
G01*
X118275000Y44775000D02*
X117725000Y44775000D01*
G75*
G02*
X117525000Y44975000I0J200000D01*
G01*
X117525000Y45375000D01*
G75*
G02*
X117725000Y45575000I200000J0D01*
G01*
X118275000Y45575000D01*
G75*
G02*
X118475000Y45375000I0J-200000D01*
G01*
X118475000Y44975000D01*
G75*
G02*
X118275000Y44775000I-200000J0D01*
G01*
G37*
G36*
G01*
X118275000Y46425000D02*
X117725000Y46425000D01*
G75*
G02*
X117525000Y46625000I0J200000D01*
G01*
X117525000Y47025000D01*
G75*
G02*
X117725000Y47225000I200000J0D01*
G01*
X118275000Y47225000D01*
G75*
G02*
X118475000Y47025000I0J-200000D01*
G01*
X118475000Y46625000D01*
G75*
G02*
X118275000Y46425000I-200000J0D01*
G01*
G37*
D12*
X97000000Y97000000D03*
D14*
X53570000Y128270000D03*
X53570000Y125730000D03*
X56110000Y128270000D03*
X56110000Y125730000D03*
X58650000Y128270000D03*
X58650000Y125730000D03*
X61190000Y128270000D03*
X61190000Y125730000D03*
X63730000Y128270000D03*
X63730000Y125730000D03*
X66270000Y128270000D03*
X66270000Y125730000D03*
X68810000Y128270000D03*
X68810000Y125730000D03*
X71350000Y128270000D03*
X71350000Y125730000D03*
X73890000Y128270000D03*
X73890000Y125730000D03*
X76430000Y128270000D03*
X76430000Y125730000D03*
D12*
X33000000Y33000000D03*
D15*
X72000000Y43000000D03*
D14*
X76430000Y1730000D03*
X76430000Y4270000D03*
X73890000Y1730000D03*
X73890000Y4270000D03*
X71350000Y1730000D03*
X71350000Y4270000D03*
X68810000Y1730000D03*
X68810000Y4270000D03*
X66270000Y1730000D03*
X66270000Y4270000D03*
X63730000Y1730000D03*
X63730000Y4270000D03*
X61190000Y1730000D03*
X61190000Y4270000D03*
X58650000Y1730000D03*
X58650000Y4270000D03*
X56110000Y1730000D03*
X56110000Y4270000D03*
X53570000Y1730000D03*
X53570000Y4270000D03*
G36*
G01*
X70250000Y49775000D02*
X69750000Y49775000D01*
G75*
G02*
X69525000Y50000000I0J225000D01*
G01*
X69525000Y50450000D01*
G75*
G02*
X69750000Y50675000I225000J0D01*
G01*
X70250000Y50675000D01*
G75*
G02*
X70475000Y50450000I0J-225000D01*
G01*
X70475000Y50000000D01*
G75*
G02*
X70250000Y49775000I-225000J0D01*
G01*
G37*
G36*
G01*
X70250000Y51325000D02*
X69750000Y51325000D01*
G75*
G02*
X69525000Y51550000I0J225000D01*
G01*
X69525000Y52000000D01*
G75*
G02*
X69750000Y52225000I225000J0D01*
G01*
X70250000Y52225000D01*
G75*
G02*
X70475000Y52000000I0J-225000D01*
G01*
X70475000Y51550000D01*
G75*
G02*
X70250000Y51325000I-225000J0D01*
G01*
G37*
D15*
X13000000Y38000000D03*
D12*
X97000000Y33000000D03*
%LPD*%
M02*
