G04 #@! TF.GenerationSoftware,KiCad,Pcbnew,10.0.6*
G04 #@! TF.CreationDate,2026-09-08T19:23:15-04:00*
G04 #@! TF.ProjectId,gpiojoiner,6770696f-6a6f-4696-9e65-722e6b696361,rev?*
G04 #@! TF.SameCoordinates,Original*
G04 #@! TF.FileFunction,Soldermask,Bot*
G04 #@! TF.FilePolarity,Negative*
%FSLAX46Y46*%
G04 Gerber Fmt 4.6, Leading zero omitted, Abs format (unit mm)*
G04 Created by KiCad (PCBNEW 10.0.6) date 2026-09-08 19:23:15*
%MOMM*%
%LPD*%
G01*
G04 APERTURE LIST*
%ADD10C,3.200000*%
%ADD11C,1.400000*%
%ADD12C,2.032000*%
G04 APERTURE END LIST*
D10*
X33000000Y97000000D03*
G36*
G01*
X61800000Y67550000D02*
X61800000Y68450000D01*
G75*
G02*
X62050000Y68700000I250000J0D01*
G01*
X62950000Y68700000D01*
G75*
G02*
X63200000Y68450000I0J-250000D01*
G01*
X63200000Y67550000D01*
G75*
G02*
X62950000Y67300000I-250000J0D01*
G01*
X62050000Y67300000D01*
G75*
G02*
X61800000Y67550000I0J250000D01*
G01*
G37*
D11*
X65000000Y68000000D03*
X67500000Y68000000D03*
X62500000Y64700000D03*
X65000000Y64700000D03*
X67500000Y64700000D03*
D12*
X128270000Y86620000D03*
X125730000Y86620000D03*
X128270000Y84080000D03*
X125730000Y84080000D03*
X128270000Y81540000D03*
X125730000Y81540000D03*
X128270000Y79000000D03*
X125730000Y79000000D03*
X128270000Y76460000D03*
X125730000Y76460000D03*
X128270000Y66250000D03*
X125730000Y66250000D03*
X128270000Y63710000D03*
X125730000Y63710000D03*
X128270000Y61170000D03*
X125730000Y61170000D03*
X128270000Y58630000D03*
X125730000Y58630000D03*
X128270000Y56090000D03*
X125730000Y56090000D03*
X128270000Y53550000D03*
X125730000Y53550000D03*
X128270000Y51010000D03*
X125730000Y51010000D03*
X128270000Y48470000D03*
X125730000Y48470000D03*
X128270000Y45930000D03*
X125730000Y45930000D03*
X128270000Y43390000D03*
X125730000Y43390000D03*
X1730000Y63750000D03*
X4270000Y63750000D03*
X1730000Y66290000D03*
X4270000Y66290000D03*
X1730000Y68830000D03*
X4270000Y68830000D03*
X1730000Y71370000D03*
X4270000Y71370000D03*
X1730000Y73910000D03*
X4270000Y73910000D03*
X1730000Y76450000D03*
X4270000Y76450000D03*
X1730000Y78990000D03*
X4270000Y78990000D03*
X1730000Y81530000D03*
X4270000Y81530000D03*
X1730000Y84070000D03*
X4270000Y84070000D03*
X1730000Y86610000D03*
X4270000Y86610000D03*
X1730000Y43380000D03*
X4270000Y43380000D03*
X1730000Y45920000D03*
X4270000Y45920000D03*
X1730000Y48460000D03*
X4270000Y48460000D03*
X1730000Y51000000D03*
X4270000Y51000000D03*
X1730000Y53540000D03*
X4270000Y53540000D03*
D10*
X97000000Y97000000D03*
D12*
X53570000Y128270000D03*
X53570000Y125730000D03*
X56110000Y128270000D03*
X56110000Y125730000D03*
X58650000Y128270000D03*
X58650000Y125730000D03*
X61190000Y128270000D03*
X61190000Y125730000D03*
X63730000Y128270000D03*
X63730000Y125730000D03*
X66270000Y128270000D03*
X66270000Y125730000D03*
X68810000Y128270000D03*
X68810000Y125730000D03*
X71350000Y128270000D03*
X71350000Y125730000D03*
X73890000Y128270000D03*
X73890000Y125730000D03*
X76430000Y128270000D03*
X76430000Y125730000D03*
D10*
X33000000Y33000000D03*
D12*
X76430000Y1730000D03*
X76430000Y4270000D03*
X73890000Y1730000D03*
X73890000Y4270000D03*
X71350000Y1730000D03*
X71350000Y4270000D03*
X68810000Y1730000D03*
X68810000Y4270000D03*
X66270000Y1730000D03*
X66270000Y4270000D03*
X63730000Y1730000D03*
X63730000Y4270000D03*
X61190000Y1730000D03*
X61190000Y4270000D03*
X58650000Y1730000D03*
X58650000Y4270000D03*
X56110000Y1730000D03*
X56110000Y4270000D03*
X53570000Y1730000D03*
X53570000Y4270000D03*
D10*
X97000000Y33000000D03*
M02*
